<?xml version="1.0" encoding="UTF-8"?>
<svg id="Layer_2" data-name="Layer 2" xmlns="http://www.w3.org/2000/svg" viewBox="0 0 142.31 150.22">
  <defs>
    <style>
      .cls-1 { fill: #94a3b8; }
      .cls-2 { fill: none; }
      .cls-3 { clip-path: url(#clippath); }
    </style>
    <clipPath id="clippath">
      <rect class="cls-2" width="142.31" height="150.22"/>
    </clipPath>
  </defs>
  <g id="Layer_1-2" data-name="Layer 1">
    <g class="cls-3">
      <path class="cls-1" d="m106.36,98.35c-1.89-1.78-3.68-3.7-5.33-5.7-18.48-21.76-20.06-55.5-3.57-78.83-8.87-5.61-18.72-9.82-29.22-12.32-15.04,24.98-17.66,56.77-7.15,83.94,1.17,3.07,2.5,5.39,3.98,8.32,13.18,4.55,27.49,7,42.14,5.36-.28-.25-.55-.51-.83-.77h-.02Z"/>
      <path class="cls-1" d="m20.96,99.99c-32.51,6.2-24.1,54.7,8.59,49.6,32.51-6.2,24.1-54.7-8.59-49.6Z"/>
      <path class="cls-1" d="m141.44,80.8c-1.33-8.52-3.7-16.57-7.15-24.35C91.22,87.86,27.95,53.71,31.06,0,20.17,1.66,9.64,5.19.01,10.37c3.97,69.01,83.43,111.09,142.29,77.88-.2-2.51-.48-4.99-.86-7.45h0Z"/>
      <path class="cls-1" d="m140.56,115.49c-2.2,10.6-6.13,20.55-11.48,29.57-24.09-5.68-45.69-21-59.02-41.84,14.35,3.83,29.78,4.5,44.63,1.84,7.76,5.29,16.62,8.87,25.88,10.42h-.01Z"/>
    </g>
  </g>
</svg>
