<?xml version="1.0" encoding="UTF-8"?>
<svg id="Layer_2" data-name="Layer 2" xmlns="http://www.w3.org/2000/svg" viewBox="0 0 1582.77 932.26">
  <defs>
    <style>
      .cls-1 {
        fill: #fff;
      }
    </style>
  </defs>
  <g id="Layer_1-2" data-name="Layer 1">
    <g>
      <polygon class="cls-1" points="1582.77 304.57 1582.63 304.55 1582.77 304.54 1582.77 304.57"/>
      <polygon class="cls-1" points="1579.71 336.62 1579.61 336.58 1579.72 336.55 1579.71 336.62"/>
      <polygon class="cls-1" points="999.28 424.52 999.43 424.6 999.32 424.72 999.28 424.52"/>
      <polygon class="cls-1" points="1579.1 341.55 1578.99 341.51 1579.1 341.47 1579.1 341.55"/>
      <path class="cls-1" d="m1579.93,197.47c.17,20.76.58,41.52.4,62.28-.1,12.47-1.13,24.93-1.74,37.39v-.04c-1.93,18.66-3.2,37.41-5.96,55.95-3.61,24.31-7.57,48.63-12.92,72.61-5.1,22.86-11.69,45.42-18.49,67.85-9.51,31.41-22.01,61.7-36.27,91.28-16.56,34.34-35.68,67.13-57.99,98.05-22.87,31.69-48.29,61.16-76.61,88.12-26.28,25.03-54.49,47.65-84.59,67.91-1.19.8-2.44,1.5-3.98,2.44-4.58-3.13-9.26-6.24-13.85-9.48-27.43-19.38-53.41-40.52-77.48-63.96-40.18-39.13-74.76-82.67-103.41-130.92-28.2-47.5-50.1-97.77-66.54-150.46-11.61-37.22-20.23-75.14-26.31-113.64-4.55-28.79-8.05-57.69-9.3-86.83.11-.17.1-.35-.01-.53-.5-17.58-1.04-35.17-1.48-52.75-.1-3.99.11-7.98.18-11.97.03-2.22.06-4.44.09-6.66.35-7.79.71-15.59,1.06-23.38l.22-3.76c.71-9.07,1.41-18.14,2.09-26.9,9.03-.79,17.48-1.53,25.93-2.28,47.94-6.79,86.8-28.46,113.8-69.51,2.19-3.33,4.12-6.82,6.17-10.24.3-.02.59-.03.89-.05,1.58-.01,3.16-.02,4.74-.04l.03.11v-.12c16.03-.71,31.82-3,47.17-7.86,38.63-12.23,69.71-34.91,93.52-67.65.6-.82,1.27-1.6,1.9-2.39.43-.02.87-.03,1.3-.05,6.86,8.02,13.28,16.46,20.64,23.98,25.73,26.26,56.54,43.57,92.81,50.4,11.54,2.17,23.33,3.07,34.52,4.49,7.18,9.66,13.85,19.94,21.84,29.07,16.96,19.38,38.19,32.7,62.47,41.2,16.65,5.83,33.82,9.02,51.42,9.98.92.05,1.83.22,2.74.34h.12c.61.02,1.23.03,1.84.05l.26.07.26-.05h5.84c.86,11.91,1.7,23.67,2.55,35.44.04.84.07,1.67.11,2.51Zm-20.58-23.24c-.91-.27-1.19-.41-1.49-.43-1.13-.05-2.26-.08-3.38-.09-13.56-.13-26.93-1.54-40.14-4.86-23.96-6.01-45.11-17.12-63.33-33.78-10.78-9.85-19.41-21.38-26.18-34.29-1.07-2.05-2.39-2.72-4.59-2.75-4.4-.05-8.8-.29-13.19-.59-13.77-.92-27.15-3.83-40.14-8.38-22.71-7.94-42.51-20.6-59.67-37.42-8.07-7.91-15.3-16.54-21.59-25.95-2.46-3.68-4.54-3.69-7.02-.15-7.18,10.26-15.2,19.76-24.32,28.39-10.95,10.37-23.05,19.04-36.36,26.06-23.18,12.23-48.06,17.75-74.11,18.43-2.67.07-4.08,1.02-5.24,3.24-5.85,11.15-13.22,21.24-22.18,30.07-11.16,11.01-23.77,19.97-37.99,26.79-20.88,10.01-42.91,14.55-65.89,15.14-8.13.21-8.35.07-8.98,8.18-1.16,15-2.72,30.02-2.9,45.04-.26,22.44.18,44.91,1.03,67.34.57,15.11,2.06,30.21,3.67,45.26,1.53,14.33,3.23,28.68,5.8,42.85,3.67,20.21,7.55,40.43,12.54,60.34,5.04,20.13,11.03,40.07,17.55,59.79,8.3,25.11,18.45,49.54,30.05,73.33,15.18,31.11,32.43,61.03,52.84,89,10.92,14.96,22.15,29.8,34.35,43.72,13.02,14.86,27.15,28.78,41.19,42.71,8.21,8.14,16.92,15.84,25.88,23.15,12.29,10.04,24.95,19.63,37.62,29.19,6.02,4.54,12.43,8.57,18.71,12.86,3.79-2.52,7.11-4.72,10.41-6.95,26.67-17.97,51.71-38.03,74.71-60.47,14.59-14.23,28.57-29.16,42.04-44.46,19.4-22.04,36.31-46.02,51.78-70.95,12.93-20.83,24.47-42.43,35.03-64.58,10.2-21.4,19.07-43.34,26.53-65.8,6-18.05,11.41-36.34,16.19-54.75,4.66-17.9,8.57-36.02,12.12-54.18,5.21-26.62,8.47-53.55,10.39-80.59,1.27-17.77,2.17-35.59,2.45-53.4.24-15.67-.45-31.35-1.03-47.02-.37-10.02-1.23-20.02-1.97-30.02-.23-3.02-.8-6.02-1.22-9.03Zm-131.13,520.33c-3.36,2.99-6.28,5.58-9.19,8.18-.07.07-.1.18-.16.26-6,7.08-11.74,14.4-18.08,21.15-5.45,5.8-11.64,10.9-17.42,16.39-2.36,2.24-4.5,4.71-6.79,7.03-1.22,1.24-2.56,2.35-3.8,3.57-4.92,4.86-9.64,9.94-14.78,14.55-8.72,7.84-17.7,15.39-26.58,23.06-1.39,1.2-2.73,2.49-4.26,3.49-5.28,3.46-10.65,6.8-15.96,10.21-1.54.99-3.05,2.04-4.55,3.09-5.51,3.85-10.88,7.94-16.57,11.51-4.72,2.96-10.17,3.22-14.88.33-7.55-4.64-14.74-9.86-21.99-14.97-6-4.24-11.85-8.68-17.76-13.04-6.47-4.78-13.79-8.42-19.25-14.59-1.79-2.02-4.17-3.54-6.36-5.18-2.85-2.14-5.75-4.22-8.69-6.23-.76-.52-1.76-.7-2.65-1.04-.23.32-.46.64-.69.96,2.57,3.1,4.95,6.39,7.75,9.28,6.95,7.17,14.08,14.17,21.16,21.21.72.72,1.51,1.4,2.36,1.93,2.67,1.66,5.56,3,8.05,4.88,7.96,6.02,15.69,12.35,23.68,18.33,5.39,4.03,11.12,7.6,16.6,11.51,5.39,3.85,7.89,3.82,12.83-.48,3.21-2.79,6.15-6.09,9.77-8.19,5.65-3.28,10.6-7.21,15.24-11.76,2.73-2.67,6.19-4.58,9.3-6.86,2.12-1.56,4.28-3.09,6.3-4.78,1.94-1.62,3.63-3.55,5.6-5.12,5.01-3.99,10.3-7.65,15.14-11.84,4.16-3.59,7.82-7.75,11.76-11.6,1.38-1.35,3.02-2.45,4.37-3.83,5.32-5.44,10.57-10.96,15.87-16.43.49-.51,1.15-.86,1.65-1.37,3.89-4.05,7.91-7.98,11.6-12.21,4.14-4.76,7.88-9.86,11.97-14.66,2.24-2.62,4.92-4.86,7.26-7.4,2.2-2.39,4.37-4.85,6.26-7.49,2.14-2.99,4-6.18,5.88-9.35.3-.51.04-1.36.04-2.49Zm-115.19-648.87c-.15.2-.3.39-.46.59.61.7,1.17,1.46,1.84,2.1,2.3,2.17,4.63,4.31,6.98,6.44,2.47,2.24,4.77,4.74,7.51,6.59,4.73,3.19,9.75,5.94,14.62,8.94,2.68,1.66,5.09,3.92,7.96,5.08,10.38,4.19,20.8,8.3,31.39,11.93,9.97,3.42,20.31,5.11,30.92,5.14,3.61.01,7.27.75,10.82,1.53,2.59.57,5.05,1.75,8.36,2.95-.54-2.68-1.12-4.6-1.3-6.57-.34-3.84-2.62-5.55-6.13-6.03-4.63-.63-9.27-1.18-13.9-1.82-7.25-1.01-14.5-1.98-21.72-3.12-11.37-1.78-22.04-5.79-32.49-10.47-2.88-1.29-5.67-2.79-8.51-4.17-4.67-2.27-9.46-4.32-14-6.82-6.04-3.33-11.87-7.05-17.83-10.53-1.27-.74-2.71-1.18-4.07-1.75Zm-180.52,50.89c.53-.17,1.05-.22,1.42-.47,5.19-3.51,10.98-3.93,17.05-3.76,10.63.31,20.91-1.6,30.69-5.89,2.06-.9,4.08-1.92,6.21-2.59,4.94-1.57,10.07-2.61,14.87-4.51,6.16-2.43,12.37-4.99,18.01-8.4,7.22-4.37,14.06-9.42,20.74-14.6,3.61-2.8,6.54-6.47,9.78-9.75-.25-.36-.51-.72-.76-1.09-2.35.96-4.72,1.87-7.04,2.88-8.69,3.78-14.32,11.92-23.19,15.8-4.39,1.92-8.33,5.22-13.15,6.76-6.77,2.17-13.34,5.1-20.21,6.83-6.87,1.73-14.01,2.38-21.03,3.54-8.01,1.33-16.06,2.48-24.01,4.11-6.42,1.32-8.53,4.14-9.37,11.13Zm301.49,1.39c-.2.16-.39.32-.59.48.57,1.71.82,3.63,1.78,5.09,3.35,5.12,6.42,10.57,10.58,14.96,4.41,4.65,8.75,9.28,12.94,14.16,7.9,9.2,18.66,14.78,29.53,19.84,5.72,2.66,11.58,5.07,17.52,7.18,3.02,1.08,6.41,1.07,9.56,1.87,7.29,1.84,14.47,4.17,21.82,5.69,3.3.68,6.9-.09,10.37-.2.04-.4.07-.81.11-1.21-4.21-1.15-7.16-4.41-12.51-4.2-6.09.25-12.38-1.89-18.4-3.64-3.95-1.15-7.51-3.6-11.37-5.16-3-1.21-6.45-1.47-9.27-2.97-6.36-3.4-12.46-7.29-18.64-11.04-.85-.52-1.53-1.31-2.29-1.98-3.82-3.38-7.7-6.69-11.43-10.17-3.65-3.41-7.28-6.85-10.65-10.53-3.09-3.37-4.56-8.38-9.93-9.4-.59-.11-1.06-.93-1.58-1.43-2.52-2.45-5.03-4.91-7.55-7.37Zm-312.58,16.14c-.3-.28-.6-.56-.9-.84-1.01.5-2.09.89-3.01,1.53-1.59,1.1-3.14,2.28-4.58,3.56-3.14,2.78-6.32,5.51-9.26,8.49-4.22,4.29-7.35,9.43-13.56,11.87-7.17,2.82-13.67,7.32-20.72,10.51-9.9,4.48-20.04,8.44-30.09,12.57-.63.26-1.42.09-2.12.19-6.03.88-12.07,1.74-18.09,2.72-.92.15-1.76.88-2.63,1.34.08.38.16.76.24,1.15,3.19,0,6.59.71,9.54-.13,11.03-3.11,22.57-4.07,33.35-8.23,5.11-1.97,10.64-2.83,15.05-6.51,1.45-1.21,3.33-2,5.12-2.7,5.39-2.09,10.44-4.66,14.39-9.04,1.09-1.21,2.35-2.27,3.63-3.28,5.9-4.66,12.1-8.99,17.65-14.03,2.62-2.37,4.02-6.08,5.98-9.18Z"/>
      <path class="cls-1" d="m983.68,214.1c-.03,2.22-.06,4.44-.09,6.66.03-2.22.06-4.44.09-6.66Z"/>
      <path class="cls-1" d="m984.95,186.97c-.07,1.25-.14,2.5-.22,3.76.07-1.25.14-2.5.22-3.76Z"/>
      <path class="cls-1" d="m1579.93,197.47c-.04-.84-.07-1.67-.11-2.51.04.84.07,1.67.11,2.51Z"/>
      <path class="cls-1" d="m1571.43,159.52l-.26.05-.26-.07.52.02Z"/>
      <path class="cls-1" d="m1133.84,77.99c-.3.02-.59.03-.89.05.3-.02.59-.03.89-.05Z"/>
      <path class="cls-1" d="m1020.68,442.37c-.43.02-.87.03-1.3.05.43-.02.87-.03,1.3-.05Z"/>
      <path class="cls-1" d="m984.89,285.49c.12.18.12.35.01.53-.05-.12-.12-.24-.15-.37,0-.04.09-.1.13-.15Z"/>
      <polygon class="cls-1" points="1578.6 297.1 1578.6 297.14 1578.75 297.14 1578.6 297.1"/>
      <polygon class="cls-1" points="1569.07 159.45 1568.95 159.45 1569.01 159.33 1569.07 159.45"/>
      <polygon class="cls-1" points="1138.6 77.94 1138.62 78.07 1138.59 77.95 1138.6 77.94"/>
      <path class="cls-1" d="m1559.35,174.23c.42,3.01.99,6.01,1.22,9.03.74,10,1.6,20,1.97,30.02.58,15.67,1.27,31.36,1.03,47.02-.28,17.81-1.18,35.63-2.45,53.4-1.93,27.05-5.19,53.97-10.39,80.59-3.55,18.16-7.47,36.28-12.12,54.18-4.79,18.41-10.19,36.69-16.19,54.75-7.46,22.46-16.33,44.4-26.53,65.8-10.55,22.15-22.1,43.75-35.03,64.58-15.48,24.93-32.39,48.91-51.78,70.95-13.47,15.3-27.44,30.23-42.04,44.46-23,22.43-48.04,42.49-74.71,60.47-3.3,2.23-6.63,4.42-10.41,6.95-6.28-4.29-12.69-8.32-18.71-12.86-12.67-9.56-25.33-19.16-37.62-29.19-8.96-7.31-17.67-15.01-25.88-23.15-14.04-13.93-28.17-27.85-41.19-42.71-12.2-13.92-23.43-28.75-34.35-43.72-20.41-27.97-37.66-57.89-52.84-89-11.61-23.79-21.76-48.22-30.05-73.33-6.51-19.71-12.5-39.65-17.55-59.79-4.99-19.91-8.87-40.13-12.54-60.34-2.57-14.17-4.27-28.52-5.8-42.85-1.61-15.05-3.1-30.15-3.67-45.26-.85-22.43-1.29-44.9-1.03-67.34.17-15.02,1.73-30.04,2.9-45.04.63-8.11.85-7.97,8.98-8.18,22.98-.59,45.01-5.13,65.89-15.14,14.22-6.82,26.83-15.78,37.99-26.79,8.95-8.83,16.32-18.92,22.18-30.07,1.16-2.22,2.57-3.17,5.24-3.24,26.04-.69,50.93-6.2,74.11-18.43,13.3-7.02,25.41-15.69,36.36-26.06,9.12-8.64,17.14-18.14,24.32-28.39,2.48-3.54,4.56-3.53,7.02.15,6.29,9.4,13.52,18.04,21.59,25.95,17.16,16.82,36.96,29.47,59.67,37.42,13,4.55,26.38,7.45,40.14,8.38,4.39.29,8.79.53,13.19.59,2.2.03,3.51.7,4.59,2.75,6.77,12.91,15.4,24.44,26.18,34.29,18.22,16.66,39.37,27.77,63.33,33.78,13.21,3.31,26.58,4.73,40.14,4.86,1.13.01,2.26.04,3.38.09.29.01.58.16,1.49.43Zm-93.45,392.88c.22.21.43.42.65.64l-.02-.02.64.63h0c.63,2.47,2.67,3.41,4.68,2.85,1.11-.31,1.71-2.42,2.54-3.73.35-2.77-1.51-4.29-3.4-5.66-1.21-.88-2.57-2.42-4.24-.7-1.43,1.48-2.83,3.05-1.36,5.31.18.24.37.48.55.72l-.03-.04Zm-141.63-27.09c.22.22.44.43.66.65l-.03-.04c2.25,1.81,4.23,4.35,6.8,5.29,5.75,2.11,11.72,3.82,17.74,4.98,8.03,1.55,14.35-4.91,12.88-12.61-.7-4.55-3.82-7.22-7.34-9.67-2.39-1.67-4.61-3.59-6.9-5.39.83-2.91,2.95-4.29,5.74-3.78,3.65.66,7.19,1.86,11.31,2.97.86-1.34,4.24-1.14,3.93-4.48-.37-.56-.62-1.26-1.12-1.65-4.92-3.85-10.65-5.87-16.77-5.6-7.75.33-13.91,6.37-11.79,13.62.05.24.1.48.15.72.11.19.23.38.34.57.14.3.29.61.43.91v-.03c.2.42.42.84.63,1.26l-.03-.05c.7.82,1.28,1.82,2.14,2.41,3.14,2.16,6.38,4.17,9.59,6.24l-.04-.03c.22.22.43.44.65.66l-.03-.03c.18.31.37.62.55.93.17,3.75-1.43,5.27-4.9,4.38-4.65-1.18-9.32-2.36-13.85-3.93-1.64-.56-2.89-2.24-4.32-3.4.44-1.99.88-3.98,1.32-5.97.24-1.08.48-2.16.72-3.23-.07-.19-.09-.48-.22-.56-1.93-1.17-3.78-2.83-5.87-3.22-.86-.16-2.53,2.27-3.3,3.79-2.07,4.04-2,8.25-.17,12.42.17.43.34.87.52,1.3l-.03-.05c.22.22.43.44.65.66l-.03-.05Zm68.38-3.04s-.03-.03-.03-.03c.21.42.42.84.63,1.25h0c.16.27.31.54.47.81,1.62,3.77.2,7.03-1.39,10.49-7.26-3.19-14.19-6.23-21.66-9.51-.76,2.75-1.31,4.75-1.86,6.76.4.71.64,1.79,1.24,2.06,8.18,3.68,16.38,7.31,24.64,10.82,2.45,1.04,5.16-1.82,4.65-4.72.63-1.5,1.3-2.99,1.89-4.51,2.31-5.87,2.41-11.69-1.47-16.88-4.61-6.16-11.46-9.24-18.76-12.94-.68,2.55-1.23,4.63-1.79,6.72.72.91,1.27,2.08,2.2,2.68,3.48,2.23,7.08,4.27,10.63,6.39l-.04-.04.65.66Zm-20.63,73.72c-.12-.15-.23-.29-.35-.44l-.04.03c.34-1.02.57-2.09,1.03-3.05,2.04-4.29,4.2-8.53,6.17-12.86.29-.64-.21-1.65-.34-2.49-.91-.78-1.82-1.57-2.97-2.56-1.23,2.44-2.27,4.29-3.12,6.22-2.29,5.19-4.51,10.41-6.76,15.62.22.56.27,1.39.68,1.62,5,2.9,10.06,5.71,15.96,9.02.19-2.05.31-3.39.44-4.73l-8.29-5.2c-.13,0-.25-.05-.36-.11-.3-.18-.61-.36-.91-.54l-.21-.05c-.31-.17-.62-.33-.93-.5Zm-268.78-27.52v-.05c.2.43.41.86.63,1.28l-.02-.05c1.24,1.44,2.49,2.88,3.73,4.33l-.02-.02,1.88,2.49-.03-.04c.21.21.43.43.64.64l-.03-.03c2.77,3.62,4.8,4.47,7.9,2.18,6.57-4.85,12.92-10,19.18-15.25,1.11-.93,1.33-2.91,1.97-4.41.1-.63.21-1.26.31-1.89l-.02.1c-3.77-5.45-7.49-10.94-11.33-16.34-2.11-2.97-3.74-3.36-6.73-1.37-4.07,2.71-8.26,5.36-11.85,8.65-5.39,4.93-9.17,10.79-6.68,18.7.16.36.32.73.48,1.09Zm47.39.56c.22.22.44.44.66.66l-.04-.05c.42.63.85,1.26,1.27,1.88l-.03-.04c.39.68.79,1.35,1.37,2.35,3.97-3.71,8.13-6.54,9.05-11.88,4.52-14.34-2.97-25.16-10.31-36.57-2.61,1.7-4.78,3.12-6.89,4.5,3.16,6.06,6.32,11.67,9.07,17.47,3.3,6.96,2.14,12.16-3.21,17.6-.74.76-.96,2.03-1.42,3.06l.52,1.05-.04-.05Zm89.9,10.47c.22.22.43.44.65.66l-.04-.04c.72,1.04,1.45,2.08,2.26,3.25,1.21-.58,2.16-1.03,3.45-1.65-.53-1.03-.91-1.79-1.3-2.54-.38-.33-.83-.6-1.13-.99-4.1-5.34-8.13-10.74-12.33-16-.68-.85-2.41-1.78-3.11-1.47-1.13.51-2.34,1.91-2.59,3.13-1.33,6.48-2.42,13.01-3.47,19.54-.14.88.42,1.86.66,2.8.61.41,1.44,1.29,1.79,1.13.69-.32,1.44-1.15,1.6-1.89.39-1.84.47-3.74.67-5.58,2.01-.56,3.64-1.16,5.32-1.46,2.1-.37,4.25-.5,6.38-.73l-.04-.03c.42.63.84,1.26,1.27,1.89l-.04-.04Zm-47.99,10.52l-.03-.06c.63.62,1.26,1.25,1.89,1.87l-.03-.03c2.57,3.58,6.37,4.4,10.18,3.4,3.8-1,7.34-2.99,10.99-4.54-.1-.23-.2-.45-.29-.68,1.64.28,3.27.56,5.68.96-.58-1.71-.9-2.68-1.22-3.64-.37-.52-.74-1.03-1.11-1.55.06-1,.16-1.99.18-2.99.07-3.78-.37-7.4-3.22-10.27-2.06-1.27-3.98-3.25-6.21-3.69-6.74-1.34-12.57,1.23-17.05,6.13-3.98,4.36-3.05,9.37-.38,14.19l.61.89Zm-86.24-44.94c.05-.28.1-.56.15-.84-.36-4.09-3.92-5.07-6.69-2.38-1.46,1.42-2.1,3.68-3.12,5.56.15.25.3.5.45.74,0,0,0-.06,0-.06,1.06.83,2.51,2.58,3.1,2.33,1.79-.77,3.25-2.32,4.84-3.56,0,0,0,0,0,0,.42-.62.84-1.23,1.26-1.85l.02.06Zm53.61,70.16h0c.82.82,1.65,1.66,2.47,2.49l-.02-.05c.05,1.9,1.01,1.68,2.16.91,1.93-1.31,3.85-2.64,5.77-3.97,2.73-1.89,5.45-3.78,8.34-5.79-.84-1.8-.84-3.92-3.52-3.59-3.63,2.91-7.27,5.82-11.15,8.93-4.27-5.73-8.2-11.01-12.27-16.48-1.19.89-2.11,1.58-3.1,2.32,2.55,3.29,4.94,6.22,7.15,9.27,1.22,1.67,2.15,3.55,3.22,5.34.32.2.64.41.97.61Zm85.51-129.91c.17-.25.34-.51.51-.76.16-1.04.71-2.22.4-3.09-.76-2.11-3.95-2.84-6.65-1.79-2.75,1.07-3.52,2.55-2.77,5.34.24,2.23,1.9,2.73,3.69,2.77,2.01.05,4.09-.01,4.85-2.5l-.02.03Zm-129.28,52.37c.15-.33.3-.66.45-.99-.17-2.59-1.79-4.45-3.71-4.28-3.47.32-5.96,3.38-5.75,7.06.14.23.29.45.43.68v-.06c1.29.74,2.67,2.21,3.86,2.07,2.38-.29,4.32-1.79,4.72-4.53,0,0,0,.06,0,.06Zm109.05-49.89l-.03-.04c.73.71,1.35,1.79,2.22,2.07,3.84,1.23,6.67-1.05,6.74-5.24-.66-2.83-2.58-3.68-5.2-3.16-3.54.7-4.58,2.13-4.26,5.6.18.26.35.51.53.77Zm113.09,54.59c.19,0,.28.1.28.29.07,2.53,2.07,3.4,3.88,3.26,1.41-.1,3.13-1.34,3.94-2.58.59-.91-.09-2.64-.21-4-.53-.45-1-1.14-1.61-1.31-1.3-.38-2.97-1.07-3.97-.58-1.66.82-3.31,2.26-2.49,4.69.11.04.17.11.18.23Zm52.5,63.65s-.04,0-.04,0c.38-1.22.55-2.56,1.19-3.63,2.28-3.86,4.73-7.62,7.07-11.44.44-.72,1.75-1.71-.3-2.15-.91-.92-1.81-1.83-2.88-2.92-2.52,4.06-4.56,7.75-6.98,11.15-2.04,2.87-2.88,5.83-2.17,9.25.15.31.3.62.45.93h.03c1.8,5.36,6.03,8.04,10.99,9.76,3.18,1.11,6.29.34,8.43-2.14,3.38-3.94,6.4-8.19,9.49-12.37.21-.29-.31-1.11-.49-1.69-.85-1.09-1.69-2.19-2.69-3.48-2.99,4.14-5.26,7.67-7.91,10.89-4.35,5.28-9.94,4.73-13.81-1.13l-.37-1.02Zm-97.93-33.3l.51.96c.73,1.56,1.45,3.11,2.18,4.67.67,2.75,2.33,1.13,4.16.99-.4-1.17-.7-2.05-1.01-2.93-.58-1.29-1.21-2.57-1.74-3.88-2.25-5.48-4.38-11.01-6.81-16.41-.39-.88-2-1.57-3.1-1.66-.82-.06-2.14.79-2.53,1.59-2.96,6.06-5.8,12.19-8.54,18.36-.42.93-.13,2.18-.18,3.28-.05,2.47,1.6,1.66,2.9,1.66,1.18-2.38,2.3-4.63,3.56-7.14,3.63.17,7.15.34,10.67.51h-.07Zm-115.67,27.83c.56.4,1.38,1.26,1.64,1.12,3.54-1.96,7.01-4.07,10.65-6.22-.84-1.45-1.43-2.46-2.01-3.46-3.49,1.94-7.03,3.81-10.42,5.9-.36.22.08,1.74.15,2.66Zm88.61-30.31c.16.29.33.59.49.88.53,2.41,1.06,4.81,1.59,7.22,1.06.39,2.15,1.08,3.17,1.01.43-.03,1.03-1.7,1.04-2.63.02-1.5-.19-3.07-.64-4.51-.39-1.26-1.23-2.39-1.88-3.57l-.88-1.32c3.1-3.97,3.28-6.01.84-9.77-1.83-.85-3.68-2.45-5.49-2.4-5.66.15-11.3.91-17.24,1.47.24,2.52.29,4.34.61,6.11,1.02,5.72,2.15,11.42,3.23,17.12.98,3.29,2.47.62,3.86.6-.36-3.2-.69-6.12-1.08-9.62,4.32-.2,8.36-.39,12.4-.58l-.04-.02Zm62.84-29.85c.48,2.66,2.49,3.5,4.71,3.21,3.09-.4,3.41-2.97,3.43-5.52-.43-.57-.8-1.2-1.3-1.7-1.36-1.35-2.92-2.53-4.88-1.41-2.06,1.18-2.95,3.01-1.96,5.41Zm33.84,34.8c.15.27.3.54.46.81.32.74.64,1.48.97,2.23.53,2.69,2.19,1.88,4.4,1.17-.33-1.4-.64-2.73-.95-4.06-2.88-4.4-6.49-7.74-11.82-9.04-8.98-2.2-17.45,5.81-15.11,14.69.59,2.23,2.37,4.14,3.6,6.19,2.53,5.76,13.39,7.62,18.29,3.09.72-.67,1.31-1.57,1.7-2.47.13-.29-.56-.93-.88-1.41-.63-.69-1.27-1.37-1.88-2.04-5.58,4.72-11.71,4.5-15.46-.27l.13-.07-.1-.13-.03-.04c-2.25-3.57-1.3-6.85,1.06-9.87,2.4-3.06,5.73-4.07,9.29-2.73,2.29.86,4.25,2.6,6.35,3.95h-.02Zm-222.01,62.36c1.43,1.48,1.71,1.38,3.35-1.29-.76-2.29-1.52-4.6-2.23-6.74,6.07-7.73,7.29-8.11,15.42-4.91,2.61-1.57,2.87-2,2.21-3.66-6.77-3.1-13.48-6.33-20.33-9.25-3.66-1.56-4.33-1.11-6.71,2.76,1.98,5.83,3.98,11.82,6.06,17.79.63,1.8,1.47,3.53,2.22,5.29Zm187.99-77.7c-1.14-.54-2.28-1.08-3.38-1.6-1.05,3.28-1.91,6-2.78,8.71-1.16-.1-2.32-.17-3.48-.31-2.63-.32-5.25-.67-7.87-1-.49-.06-.98-.11-1.46-.17.26-2.29.58-4.58.73-6.88.04-.56-.5-1.17-.77-1.75-1.12-.52-2.24-1.03-3.76-1.73-.62,5.77-1.25,10.71-1.65,15.67-.22,2.66-.04,5.36-.04,8.04.16,2.63,1.83,1.73,3.47,1.53.42-3.41.82-6.7,1.32-10.75,4.34,1.08,8.31,2.06,12.28,3.04-.3,2.88-.59,5.75-.89,8.63.57,2.24,2.24,2.17,4,2.06,1.71-7.61,3.39-15.06,5.01-22.53.06-.26-.47-.65-.72-.97Zm100.94,70.39c0-.53,0-1.07,0-1.6,5.97-.2,7.8-2.58,6.51-8.51-2.67-7.16-9.25-10.61-14.34-15.56-4.01,4.83-7.84,9.35-11.57,13.95-1.16,1.43-2.06,3.06-3.09,4.6.25.92.21,2.16.81,2.72,3.47,3.32,6.89,6.76,10.75,9.58,1.79,1.31,4.54,1.82,6.84,1.78,3.51-.06,5.49-3.83,4.09-6.96Zm-133.64-114.27c.56-12.97,1.12-25.95,1.7-39.36-3.33-.18-6.2-.33-9.59-.51,0,3.92.03,7.28,0,10.63-.11,9.73-.26,19.46-.39,29.2,1.09,1.99,6.8,2.85,8.19,1.2.2-.24.07-.76.09-1.15Zm109.48,32.8c1.1,1.12,2.06,2.46,3.34,3.33,4.31,2.94,8.9,5.5,13.08,8.6,8.3,6.15,16.44,12.51,24.55,18.91,2.27,1.8,3.92,1.59,5.75-.48,4.6-5.22,9.3-10.36,13.9-15.59.47-.54.49-1.47.72-2.22-2.07-2.4-4.15-4.8-6.46-7.47-4.69,5.64-8.89,10.71-13.12,15.8-.37-.17-.67-.25-.9-.42-7.98-5.85-15.95-11.72-23.93-17.58-1.97-1.45-3.93-2.89-5.9-4.34.31-.63.58-1.29.94-1.89,4.73-7.85,9.5-15.68,14.19-23.56.42-.71.38-1.69.56-2.54-1.41-3.64-5.08-4-7.91-5.93-6.18,10.97-12.16,21.55-18.07,32.18-.51.92-.5,2.12-.73,3.2Zm-234.81-7.57c-.27,2.08,1.1,2.11,2.43,1.73,1.47-.43,2.86-1.13,4.25-1.78,21.41-9.99,43.73-17.05,67.18-20.22,9.44-1.28,18.95-2.07,28.43-3.03,3.67-.37,5.23-2.05,5.1-5.47-.13-3.48-.11-6.97-.15-10.46-.38-8.54-.76-17.08-1.16-25.98-3.28.31-6.26.6-9.19.88.52,11.19,1.02,21.95,1.52,32.81-4.85.52-9.07.97-13.44,1.45-.79-5.73-1.57-11.18-2.28-16.64-.39-2.99-2.16-4.54-5-4.16-5.45.73-10.87,1.76-16.27,2.79-1.18.22-2.31.84-3.39,1.42-8.33,4.5-9.87,12.45-4.52,20.85-16.14,5.6-32.42,11.24-49.09,17.02-4.43-9.48-9.09-19.42-13.88-29.66-3.07,1.51-5.58,2.75-8.28,4.07.66,1.51,1.09,2.64,1.63,3.72,3.89,7.78,7.76,15.58,11.73,23.32,1.3,2.53,2.9,4.9,4.37,7.35Zm-128.87-70.86c.4.75.8,1.5,1.2,2.25.32,1.39.52,2.83.99,4.17,4.02,11.5,7.96,23.03,12.17,34.46,2.68,7.26,5.79,14.36,8.75,21.65,60.34-60.1,133.01-89.77,217.34-89.73,84.29.04,157.14,29.3,217.21,89.72,2.11-4.99,4.39-9.68,6.12-14.57,7.04-19.77,13.91-39.61,20.85-59.42.41-1.91.82-3.82,1.23-5.73.22-.45.53-.89.65-1.37,3.82-14.86,8.04-29.63,11.32-44.61,3.65-16.68,6.98-33.46,9.45-50.34,2.75-18.8,4.74-37.74,6.37-56.68,1.46-16.92,2.5-33.91,2.81-50.88.31-17-.43-34.02-.9-51.02-.21-7.77-.83-15.54-1.36-23.3-.24-3.43-.73-6.84-1.11-10.25-58.35-1.71-104.83-23.85-135.01-75.67-57.74-1.23-103.32-26.33-137.77-73.03-15.86,22.78-35.91,40.69-60.27,53.73-24.39,13.06-50.66,18.81-77.76,19.48-.92,1.81-1.49,3.13-2.23,4.36-14.66,24.37-34.66,42.86-60.37,55.16-21.71,10.38-44.66,15.16-68.6,15.77-.99.03-1.98.08-3,.13-.24.96-.51,1.64-.56,2.34-1.03,14.29-2.69,28.57-2.87,42.87-.27,21.41.21,42.85.94,64.25.47,13.9,1.59,27.8,3.09,41.62,1.88,17.27,3.8,34.58,6.89,51.66,4.08,22.62,9.11,45.08,14.14,67.53,2.19,9.77,5.37,19.32,8.11,28.97l2.18,6.49Zm115.57,213.43c25.04,32.62,103.27,101.86,125.48,110.87,46.53-31.04,88.19-67.82,124.26-110.87-66.12-70.55-173.46-79.1-249.75,0Zm-90.19-144.66c1.12,1.74,1.84,2.87,2.5,3.89,58.46-60.19,129.83-89.61,212.89-89.54,82.98.06,154.3,29.49,212.51,89.55.64-1.37,1.27-2.72,2.02-4.33-59.13-60.13-131.1-89.66-214.9-89.64-83.93.03-155.78,29.93-215.02,90.06Zm86.39,139.51c6.82-5.9,13.21-11.83,20-17.24,27.67-22.04,58.82-35.72,94.32-38.88,17.71-1.58,35.23-.47,52.48,3.67,33.43,8.02,61.96,24.89,86.44,48.84,1.3,1.27,2.65,2.48,4.11,3.84,1.15-1.21,2.09-2.2,3.02-3.18-76.27-77.06-184.9-78.02-263.06.07.89.95,1.77,1.91,2.68,2.89Z"/>
      <path class="cls-1" d="m1428.22,694.56c0,1.13.26,1.98-.04,2.49-1.87,3.17-3.73,6.37-5.88,9.35-1.89,2.64-4.06,5.09-6.26,7.49-2.34,2.54-5.02,4.78-7.26,7.4-4.09,4.8-7.83,9.91-11.97,14.66-3.68,4.23-7.7,8.17-11.6,12.21-.49.51-1.15.86-1.65,1.37-5.29,5.47-10.55,10.99-15.87,16.43-1.35,1.38-2.99,2.48-4.37,3.83-3.93,3.85-7.6,8.01-11.76,11.6-4.84,4.18-10.13,7.85-15.14,11.84-1.97,1.57-3.66,3.5-5.6,5.12-2.02,1.69-4.17,3.22-6.3,4.78-3.11,2.28-6.58,4.19-9.3,6.86-4.64,4.55-9.59,8.48-15.24,11.76-3.62,2.1-6.56,5.4-9.77,8.19-4.95,4.3-7.45,4.33-12.83.48-5.48-3.91-11.21-7.48-16.6-11.51-7.99-5.98-15.72-12.31-23.68-18.33-2.49-1.88-5.38-3.23-8.05-4.88-.86-.53-1.65-1.21-2.36-1.93-7.08-7.05-14.21-14.04-21.16-21.21-2.8-2.89-5.18-6.17-7.75-9.28.23-.32.46-.64.69-.96.89.34,1.89.51,2.65,1.04,2.94,2.01,5.84,4.09,8.69,6.23,2.19,1.64,4.57,3.16,6.36,5.18,5.46,6.17,12.78,9.81,19.25,14.59,5.91,4.36,11.76,8.8,17.76,13.04,7.24,5.12,14.44,10.34,21.99,14.97,4.72,2.9,10.16,2.63,14.88-.33,5.69-3.57,11.05-7.66,16.57-11.51,1.5-1.05,3.01-2.1,4.55-3.09,5.32-3.41,10.68-6.75,15.96-10.21,1.53-1,2.87-2.29,4.26-3.49,8.88-7.66,17.86-15.22,26.58-23.06,5.14-4.62,9.86-9.7,14.78-14.55,1.24-1.22,2.58-2.33,3.8-3.57,2.29-2.32,4.43-4.79,6.79-7.03,5.79-5.49,11.97-10.59,17.42-16.39,6.35-6.75,12.08-14.07,18.08-21.15.07-.08.09-.19.16-.26,2.92-2.6,5.84-5.2,9.19-8.18Z"/>
      <path class="cls-1" d="m1313.03,45.7c1.36.58,2.8,1.01,4.07,1.75,5.96,3.48,11.79,7.19,17.83,10.53,4.54,2.51,9.33,4.55,14,6.82,2.84,1.38,5.63,2.88,8.51,4.17,10.44,4.68,21.12,8.69,32.49,10.47,7.23,1.13,14.48,2.11,21.72,3.12,4.63.64,9.27,1.19,13.9,1.82,3.51.48,5.79,2.19,6.13,6.03.17,1.96.75,3.89,1.3,6.57-3.31-1.2-5.77-2.38-8.36-2.95-3.55-.78-7.21-1.52-10.82-1.53-10.61-.03-20.95-1.72-30.92-5.14-10.58-3.63-21.01-7.74-31.39-11.93-2.87-1.16-5.28-3.42-7.96-5.08-4.86-3-9.89-5.75-14.62-8.94-2.74-1.85-5.04-4.35-7.51-6.59-2.35-2.12-4.68-4.27-6.98-6.44-.68-.64-1.23-1.4-1.84-2.1.15-.2.3-.39.46-.59Z"/>
      <path class="cls-1" d="m1132.51,96.58c.84-6.99,2.95-9.81,9.37-11.13,7.95-1.63,16-2.79,24.01-4.11,7.02-1.16,14.16-1.8,21.03-3.54,6.87-1.73,13.43-4.67,20.21-6.83,4.82-1.54,8.77-4.85,13.15-6.76,8.87-3.87,14.51-12.01,23.19-15.8,2.32-1.01,4.69-1.93,7.04-2.88.25.36.51.72.76,1.09-3.24,3.28-6.17,6.95-9.78,9.75-6.68,5.18-13.52,10.23-20.74,14.6-5.64,3.41-11.85,5.97-18.01,8.4-4.8,1.9-9.93,2.94-14.87,4.51-2.13.68-4.16,1.69-6.21,2.59-9.78,4.29-20.06,6.2-30.69,5.89-6.07-.17-11.85.25-17.05,3.76-.37.25-.89.3-1.42.47Z"/>
      <path class="cls-1" d="m1434,97.97c2.52,2.46,5.03,4.92,7.55,7.37.51.5.98,1.31,1.58,1.43,5.37,1.01,6.83,6.03,9.93,9.4,3.37,3.67,7,7.12,10.65,10.53,3.73,3.48,7.61,6.79,11.43,10.17.76.67,1.44,1.46,2.29,1.98,6.18,3.74,12.28,7.63,18.64,11.04,2.81,1.5,6.26,1.76,9.27,2.97,3.86,1.55,7.42,4.01,11.37,5.16,6.02,1.75,12.32,3.89,18.4,3.64,5.35-.22,8.3,3.04,12.51,4.2-.04.4-.07.81-.11,1.21-3.47.11-7.07.88-10.37.2-7.35-1.52-14.53-3.85-21.82-5.69-3.15-.79-6.54-.79-9.56-1.87-5.94-2.11-11.8-4.52-17.52-7.18-10.87-5.06-21.62-10.65-29.53-19.84-4.19-4.88-8.54-9.51-12.94-14.16-4.16-4.39-7.23-9.84-10.58-14.96-.95-1.46-1.2-3.38-1.78-5.09.2-.16.39-.32.59-.48Z"/>
      <path class="cls-1" d="m1526.15,473.6c-6.8-.97-12.79-3.33-18.4-7.68-5.6-4.36-12.28-7.32-18.41-11.01-4.12-2.48-8.34-4.88-12.13-7.81-9.89-7.63-20.71-13.59-32.06-18.68-4.38-1.96-8.63-4.23-13.07-6.06-3.13-1.29-6.47-2-9.87-.66-.45.18-1.09.27-1.51.09-3.48-1.45-5.99.44-8.26,2.55-10.38,9.6-25.36,7.12-33.7-1.94-5.34-5.8-11.8-9.29-19.15-11.67-9.45-3.06-18.77-6.49-28.22-9.54-13.15-4.25-26.41-8.18-39.55-12.45-11.78-3.83-23.86-3.45-35.96-2.97-4.39.18-8.77.66-13.26,1.01,1.41,2.83-1.69,6.82,2.57,8.72l.03-.03c1.6-.14,3.22-.22,4.81-.46,1.21-.18,2.42-.89,3.57-.77,1.47.15,2.88.9,4.32,1.4-.86,1.12-1.47,2.67-2.61,3.31-10.41,5.86-21.75,9.44-33.06,13.02-7.12,2.25-14.3,4.29-21.49,6.32-1.59.45-3.58,1.3-4.63-.84-1.06-2.14.29-3.65,1.75-4.99,5.7,2.44,7.35,2.31,10.56-.9-1.99-3.02-.34-5.01,1.97-6.97,2.03-1.71,3.85-3.66,2.3-7.29-1.64.96-2.97,1.79-4.35,2.54-3.86,2.09-7.66,4.32-11.64,6.16-4.11,1.89-8.4,1.96-12.91,1.04-3.01-.61-6.25-.05-9.39-.01l-.02-.1-.04.1c-3.79,1.97-7.52,4.04-11.38,5.87-3,1.43-6.05,3.21-9.25,3.7-9.29,1.42-16.75,5.77-22.65,12.87-7.78,9.36-12.23,20.25-14.28,32.18-.24,1.41-.8,2.76-1.21,4.14-.31-.02-.62-.04-.93-.06-.29-.8-.58-1.6-.88-2.4.02-.79.05-1.58.07-2.38.16-1.66.33-3.33.49-4.99.03-.41.06-.82.09-1.23.17-1.43.35-2.87.52-4.3.05-.06.16-.12.15-.17-.01-.15-.07-.29-.1-.44.4-2.02,1.18-4.6-1.15-5.45-1.84-.67-4.51-.4-6.29.48-2.31,1.15-4.25,3.19-6.09,5.1-4.13,4.27-8.9,6.78-14.99,6.52-6.01-.26-10.88,2.33-15.17,6.33-2.99,2.79-4.16,6.29-5.08,10.22-1.54,6.55-3.77,12.93-5.77,19.36-.22.71-.81,1.3-1.22,1.95-.27-.04-.53-.08-.8-.12-.11-1.96-.22-3.91-.33-5.87.24-3.98.66-7.96.65-11.94-.01-3.63-1.96-4.63-4.98-2.56-2.25,1.55-4.15,3.59-6.21,5.42-.41.42-.82.84-1.23,1.26-1.61,1.52-3.22,3.03-4.83,4.55l-2.18-6.49c3.15-2.77,6.05-5.91,9.52-8.2,2.71-1.79,6.13-2.49,9.21-3.75,1.86-.76,3.86-1.37,5.45-2.53,5.98-4.33,11.76-8.97,18.92-11.29,1.84-.6,3.76-1.24,5.67-1.32,5.95-.25,10.15-3.42,13.82-7.65.94-1.08,1.82-2.23,2.79-3.28,4.25-4.58,6.24-4.85,12.66-.81,2.63-2.74,5.49-5.72,8.79-9.16-8.93-5.4-14.29-12.29-17.33-20.99-2.8-.44-5.55-.49-8.01-1.36-2.74-.96-5.52-2.28-7.73-4.11-3.34-2.78-4.48-6.5-2.59-10.79.53-1.2.71-2.54,1.06-3.82l.11-.04-.1-.04c-.09-2.63.39-5.44-.35-7.87-3.68-11.98-.99-23.08,4.02-34.16-6.06-12.84-.74-24.14,5.54-35.21,1.81-3.19,4.1-6.11,6.33-9.39-6.4-5.55-4.77-11.84-1.67-18.36,5.45-11.46,14.51-19.48,24.85-26.24,7.13-4.67,14.5-8.99,23.12-10.35,7.41-1.17,14.1.41,19.5,5.91,2.55,2.59,4.23,5.58,2.86,9.57,6.87,2.32,12.16,6.5,15.33,12.97,3.11,6.34,3.73,13.1,3.26,20.42,2.34-2.37,4.7-4.71,7.01-7.11,2.27-2.36,4.38-4.9,6.76-7.14,11.58-10.9,18.5-24.09,20.14-39.99,1.3-12.61,4.91-24.47,11.79-35.23,2.23-3.48,5-6.37,9.1-7.33,1.62-.38,3.83-.21,5.19.64,4.15,2.57,8.09,5.5,11.97,8.46,5.96,4.55,10.19,10.59,12.34,17.64,2.76,9.07,9.07,15.45,15.03,22.18.46.52,1.42.65,2.17.86,4.11,1.19,8.23,2.36,12.36,3.51.77.21,1.59.26,2.4.36,1.72.23,3.55.16,5.16.72,8.58,2.97,17.29,4.59,26.45,4.6,3.56,0,7.11,2.27,11.14,3.68,3.01-3.82,7.36-4.44,11.88-1.83,1.9,1.1,3.42,3.15,4.58,5.09.5.84-.35,2.49-.59,3.77-1.23-.42-2.6-.63-3.65-1.32-1.07-.7-1.65-2.25-2.76-2.75-1.02-.47-2.7-.44-3.6.13-.6.39-.79,2.36-.36,3.2.97,1.88,2.27,3.67,3.75,5.18,3.9,3.96,5.32,8.36,3.36,13.74-.39,1.08-.67,2.7-.15,3.54,2.47,3.95,3.5,8.2,3.11,13.27,1.58-1.03,2.63-1.82,3.76-2.44,3.34-1.84,6.85.14,6.48,3.91-.27,2.81-1.03,5.68-2.18,8.25-1.57,3.52-5.48,4.88-9.44,3.76-1.57-.44-3.08-1.08-5.44-1.91-.25,1.66-1.06,3.33-.6,4.49,2.55,6.38,1.35,12.38-.85,18.55-1.53,4.31-2.83,8.87-3.17,13.39-.27,3.72.74,7.64,1.72,11.33,1.02,3.83,2.74,7.47,4.02,11.23.66,1.92.49,3.97-1.84,4.46-2.11.44-2.53-1.5-3.05-3.12-.65-2.04-1.22-4.18-2.26-6.03-5.57-9.89-5.23-19.97-1.36-30.26.83-2.2,1.9-4.42,2.15-6.71.34-3.07.62-6.39-.22-9.27-.98-3.4-1.15-6.5.46-9.49,3.58-6.63,3.78-13.3.75-20.09-2.01-4.5-.61-8.58,1.23-12.03-2.7-4.34-5.07-8.27-7.56-12.12-3.77-5.81-9.56-6.92-15.9-6.66h0c-5.02-1.38-10.14-2.47-15.02-4.22-4.67-1.68-9.1-2.09-13.73-.15-10.1,4.25-20.21,8.46-30.33,12.64-1.14.47-2.41.65-3.61.97-.25-.3-.51-.6-.76-.9.59-.97,1.04-2.06,1.79-2.87,3.81-4.09,7.78-8.04,11.51-12.21.95-1.06,1.22-2.72,1.8-4.1-.29-.14-.58-.29-.87-.43-.99,1.22-1.83,2.62-3.03,3.59-.92.74-2.56,1.56-3.4,1.21-1.07-.46-2.08-1.96-2.35-3.18-.28-1.29.21-2.82.64-4.16,1.27-3.99,1.2-5.47-.85-8.92-.59.18-1.25.58-1.88.52-1.22-.12-2.98-.11-3.48-.86-.64-.94-.71-2.79-.21-3.88,2.4-5.22,1.49-11-2.69-15.09-.08.05-.21.08-.25.16q-3.42,6.32-10.14,3.23c-1.58-.72-3.23-1.3-4.76-2.09-.98-.5-2.23-1.1-2.63-1.98-1.81-4.03-3.35-8.18-5.15-12.68-1.16,1.3-3.02,2.77-4.09,4.69-8.99,16.15-11.62,36.08,4.22,52.1,1.44,1.46,3.05,2.82,4.18,4.5.85,1.27,1.85,3.31,1.39,4.42-.91,2.2-3.16,1.4-4.81.55-4.22-2.19-8.69-2.25-13.21-1.75-7.24.8-12.9,5.02-18.58,9.04-2.72,1.92-5.16,4.23-7.73,6.36l.53,1.08c4.78-1.53,9.69-2.77,14.31-4.68,4.86-2,9.48-4.25,15.01-3.48,5.39.75,8.99,3.78,11.49,8.26.55.98.02,2.56,0,3.86-1.26-.28-2.94-.15-3.72-.93-2.76-2.75-6-3.67-9.75-3.71-3.33-.04-6.25.76-8.79,2.97-4.32,3.77-9.64,4.44-15.02,4.29-4.06-.12-6.37,1.83-8.51,4.91-1.61,2.32-3.86,4.19-6.52,6.99,3.09,6.64,1.02,14.38-.3,22.24-.41,2.45.84,5.42,2,7.84,2.2,4.6,2.55,9.12.19,13.58-3.51,6.62-3.77,13.11-.81,20.06,3.04,7.12,2.83,14.82,2.76,22.74,11.69-4.92,23.65-8.33,35.99-10.37.39-.08.77-.16,1.16-.23,3.11-.38,6.23-.75,9.34-1.13.77-.05,1.55-.1,2.32-.15,34.01-2.61,66.16,4.9,97.35,17.78,6.14,2.53,12.43,4.84,18.84,6.52,4.78,1.25,9.86,1.32,15.36,1.98.48-7.27.92-13.87,1.36-20.48h.13s-.13-.02-.13-.02c.39-10.4.77-20.81,1.16-31.21.01-1.37.02-2.74.03-4.12-.03-3.07-.06-6.13-.09-9.2.04-1,.07-2,.11-3.01-.42-11.85-.84-23.69-1.25-35.54h.14s-.14-.04-.14-.04c-1.95-18.07-3.9-36.14-5.85-54.21v-.06c-1.73-9.4-3.46-18.8-5.19-28.2,2.84-.29,5.69-.58,8.53-.87,1.93,10.77,3.85,21.55,5.71,31.93,6.19.32,12.19.63,16.11,4.8,6.05,0,11.45-.29,16.8.07,7.65.52,13.89,4.13,18.67,10.09,6.02,7.5,12.67,14.6,16.36,23.67,1.45,3.57,2.62,7.34,3.32,11.12,1.1,5.9,3.48,10.93,8.25,14.63,8.72,6.76,12.1,15.69,12.1,26.59,0,7.51-1.12,14-4.95,20.88-3.97,7.15-5.35,15.83-7.3,23.97-1.46,6.1-3.56,11.52-8.84,15.28-.41.29-.76.69-1.09,1.08-3.89,4.72-7.77,9.45-11.91,14.5,3.73,1.9,7.45,3.99,11.34,5.73,8.65,3.88,16.49,9.05,24.26,14.44,6.54,4.54,13.59,8.35,20.37,12.55,4.87,3.01,9.81,5.95,14.45,9.28,3.33,2.39,6.61,4.41,10.84,4.5,1.08.02,2.14.61,3.21.94-.41,1.91-.82,3.82-1.23,5.73Zm-134.49-126.78c.12,1,.23,2,.35,3.01-.2.06-.26.18-.19.37-.05,1.32-.1,2.65-.15,3.97-.01,1.5-.02,2.99-.03,4.49-.03,2.03-.06,4.06-.09,6.09-.9,14.9-1.79,29.8-2.7,44.79,2.77-.01,2.19-2.16,2.37-3.33,1.96-12.98,3.77-25.97,5.63-38.96.14-1.22.29-2.43.43-3.65.09-1.18.18-2.37.27-3.55,2.71-.11,5.42-.22,8.14-.33-2.1,17.39-4.19,34.78-6.34,52.58.78-1.52,1.5-2.8,2.11-4.13,3.99-8.63,7.77-17.36,12.01-25.87,3.63-7.3,7.78-14.35,11.7-21.51,2.85-.17,5.3.54,6.92,3.12-8.33,16.36-16.92,32.6-23.79,49.39,9.7,1.15,19.11,2.26,29.58,3.5,3.06-3.57,6.94-8.05,10.75-12.59.57-.68,1.22-1.61,1.19-2.41-.09-3.24,1.71-5.42,3.89-7.35,4.02-3.54,5.83-8,6.12-13.28.41-7.49,1.09-14.91,5.19-21.59.77-1.26.68-3.4.28-4.95-1.25-4.88-1.11-9.46,1.26-14.03.67-1.29.77-3.13.48-4.6-1.32-6.72-6.1-11.11-10.32-15.16-4.29,4.89-8.46,9.76-12.8,14.49-1.08,1.18-2.67,2.14-4.31.55-1.63-1.59-1.04-3.23.18-4.65,2.08-2.4,4.52-4.52,6.38-7.07,1.95-2.68,4.41-5.58,4.85-8.65.94-6.6.04-13.2-2.63-19.56-3.32-7.9-8.95-14.15-13.83-20.97-5.72-7.98-13.45-11.18-23-11.29-5.69-.06-9.49,2.6-12.44,7.05-.56.85-1.05,1.76-1.52,2.67-.89,1.75-1.99,3.47-4.22,2.32-2.04-1.06-1.79-3.03-.94-4.85,1.25-2.67,2.56-5.32,4.18-8.66-3.66-1.22-7.09-2.36-10.09-3.36,1.46,18.96,2.91,37.85,4.36,56.74h0c.25,8.37.5,16.74.74,25.12,0,1.61,0,3.22,0,4.83,0,.41,0,.82,0,1.24Zm-235.26,37.89c-.02-.49-.03-.98-.05-1.47.76-2.68,2.05-4.8,5.53-5.14.46,2.52.89,4.85,1.44,7.86,1.22-1.41,2.16-2.2,2.73-3.21,2.02-3.56,3.88-7.21,5.86-10.78.68-1.24,1.55-2.37,2.33-3.55.33.18.67.35,1,.53.83,6.22-3.85,10.77-6.19,16.58,5.63-1.34,9.46-3.63,10.77-8.88.44-1.79.76-3.61,1.33-5.36.32-.99,1.05-1.84,1.69-2.91,2.74,2.17,2.22,4.49,1.21,6.26-2.18,3.79-4.8,7.32-7.26,10.94-1.38,2.04-2.81,4.05-4.55,6.56,5.93,1.88,10.72-.17,14.68-.38.91-3.44,1.12-6.71,2.6-9.23,1.98-3.37,3.26-6.46,1.72-10.24h.21s-.21.03-.21.03c-.19-2.44-.93-5.01-.45-7.31,1.11-5.27,2.63-10.47,4.36-15.58.91-2.68,1.44-4.87-.36-7.46-2.98-4.28-3.78-9.21-1.96-14.09,1.87-5.02,2.2-9.8.24-14.82-1.09-2.79-.55-6.15-3.11-8.47-.46-.42-.62-1.68-.34-2.3,1.9-4.23.89-8.53.28-12.73-2-13.71-6.76-18.84-19.67-21.87-.8-.19-1.98-.84-2.08-1.44-.14-.79.51-1.8,1.01-2.6.47-.75,1.19-1.33,2.28-2.51-2.26-1.92-4.11-4.01-6.41-5.36-8.3-4.89-16.45-3.31-24.08,1.57-12.23,7.82-20.3,19.4-27.93,31.33,6.39,5.22,6.65,10.22,1.06,14.85-11.44,9.48-14.96,22.54-16.29,36.52-.12,1.28.49,2.63.95,4.82,1.54-1.8,2.44-2.85,3.33-3.91,3.32-3.9,6.53-7.89,10.03-11.63.74-.79,2.9-1.23,3.68-.72.9.58,1.46,2.47,1.3,3.68-.22,1.66-1.14,3.26-1.96,4.79-4.34,8.07-7.81,16.48-9.82,25.43-1.92,8.57-1.76,16.86,4.95,23.55,5.58,5.56,8.77,12.15,10.41,19.81.75,3.51,2.31,7.06,4.31,10.05,3.37,5.01,9.66,5.34,13.46,1.06-5.47-5.71-5.31-11.97-1.57-18.57.73-1.3.97-2.88,1.43-4.33l.19-.19-.09-.23c.12-1.69.23-3.39.35-5.08-.46-2.66-.92-5.32-1.39-7.99l.03-.16-.12-.1c.3-.54.6-1.09.89-1.63,2.13-.56,3.26.88,3.62,2.45.64,2.86,1.03,5.82,1.11,8.75.09,3.19-.3,6.39-.48,9.58.33.17.67.33,1,.5,4.3-4.02,8.67-7.98,12.84-12.13.55-.55.13-2.08.16-3.16Zm105.67-164.31v-6.99c-1.61.08-3.55.18-6,.31,2.17,2.42,4.1,4.57,6,6.69Z"/>
      <path class="cls-1" d="m1349.14,254.86c-1.88-4.5-2.61-9.14-1.73-13.98,2.13-9.64,7.41-17.61,13.3-25.58-3.8,1.15-7.83,2.11-10.84,4.42-7.6,5.84-14.74,12.27-22.07,18.47-.32-.09-.65-.17-.97-.26.01-.52.03-1.05.04-1.57,0,0,.17-.17.17-.17l-.13-.19c.85-4.85,2.97-9.14,6.5-12.5,3.81-3.62,7.96-6.88,11.97-10.3,3.02-1.66,6.04-3.32,9.05-4.99,1.04-.41,2.07-.82,3.11-1.23l-.19-.88c-12.11-5.03-24.41-3.79-36.76-.64-.01-.33-.02-.66-.03-.99,1.63-1.05,3.14-2.39,4.91-3.08,5.49-2.16,11.08-4.07,16.64-6.08,1.64-.21,3.29-.42,4.93-.63.62-.04,1.23-.08,1.85-.12,3.7,0,7.39,0,11.09-.01.16-.18.32-.35.48-.53.28-4.23.57-8.47.85-12.7,2.32-6.53,5.89-12.06,12.28-15.32.62-.22,1.23-.44,1.85-.65.36.05.73.11,1.09.16-3.34,3.92-5.97,8.19-6.83,13.37-.07.06-.21.13-.21.19,0,.18.05.36.07.54-1.03,5.02.01,9.73,2.17,14.69,6.49-9.12,14.04-16.41,25.23-18.79-7.39,8.59-12.13,18.63-16.52,28.86,0,.25,0,.5,0,.75.5-.17,1-.34,1.5-.51,6.69-.65,13.39-1.95,20.06-1.79,7.95.19,14.56,3.84,18.7,11.06.24.42.41.89.84,1.86-12.56-5.33-24.95-8.38-38.21-3.49,9.03,8.68,15.41,18.03,8.89,31.06-.7-2.57-1.25-5.18-2.12-7.69-1.97-5.71-4.86-10.79-10.44-13.8-2.84.29-5.69.58-8.53.87-4.95,1.6-8.61,4.87-10.86,9.39-3.37,6.76-6.3,13.74-9.47,20.6-.38.81-1.11,1.46-1.67,2.18Z"/>
      <path class="cls-1" d="m1267.92,345.06c.36,1.1.71,2.19,1.07,3.29.36.13.72.27,1.09.4,1.67-2.06,3.63-3.95,4.93-6.23,2.57-4.51,4.74-9.25,7.18-13.83.5-.93,1.46-1.62,2.21-2.42.36,0,.71,0,1.07,0,.26,1.27.9,2.61.68,3.79-.41,2.19-1.28,4.31-2.03,6.43-1.25,3.54-.74,6.72,2.1,9.25,1.74,1.55,1.86,3.04.45,4.77-2,2.44-3.92,4.77-4.76,8.06-.7,2.74-3.14,2.42-5.36.72-2.15,8-9.41,10.76-14.95,15.21-.56.45-1.95-.12-2.95-.21.2-1,.06-2.4.68-2.94,1.99-1.74,4.26-3.17,6.41-4.72,2.4-1.73,4.97-3.33,5.72-6.91-5.73-2.56-7-8.59-10.15-13.66-6.18-.27-11.95-2.38-17.64-5.13-1.59-.77-4.26.38-6.32,1.01-1.93.59-3.64,1.98-5.58,2.38-1.03.21-2.34-.95-3.52-1.49.52-1.1.74-2.62,1.61-3.2,2.07-1.41,4.44-2.38,6.34-3.34-.71-3.81-1.57-7.08-1.84-10.4-.15-1.84.42-3.88,1.18-5.6,1.04-2.36,3.23-2.36,4.33-.02.91,1.92,1.39,4.06,1.89,6.14,2.87,11.92,9.84,16.67,22.02,14.98,1.1-.15,2.21-.2,3.62-.32.21,1.17.38,2.13.56,3.1,0,.3-.02.61-.03.91Z"/>
      <path class="cls-1" d="m1219.46,344.13c-.8,5.47-3.49,8.77-8.73,9.78-1.81.35-4.03.73-4.61-1.68-.58-2.39,1.22-2.92,3.27-3.36,3.84-.82,5.43-4.44,3.8-8.04-3.45-7.63-1.11-18.52,5.73-25.14,2.4-2.32,5.27-4.22,8.14-5.96,4.21-2.54,7.77-5.63,10.26-9.92.61-1.05,1.3-2.21,2.27-2.85.85-.57,2.76-.99,3.11-.57.68.81,1.15,2.56.72,3.4-2.95,5.74-7.12,10.39-12.53,14.04-2.46,1.66-4.79,3.93-6.36,6.44-2.79,4.47-2.94,9.27.28,13.84,1.48,2.1,2.75,4.6.89,6.75-1.25,1.45-3.61,1.95-6.22,3.25Z"/>
      <path class="cls-1" d="m1308.29,274.54c-3.44-.18-6.04,1.24-8.16,3.93-1.05,1.33-2.35,2.59-3.8,3.44-.7.41-2.4.14-2.92-.45-.52-.6-.58-2.29-.1-2.98,3.35-4.77,6.68-9.69,13.48-9.84,1.09-.02,2.3-.31,3.24-.85,5.05-2.9,10.46-2.46,15.85-1.73,1.32.18,3.01,1.16,3.56,2.25.33.67-1.04,2.39-1.92,3.41-.63.73-1.69,1.12-2.61,1.55-4.51,2.14-9.03,4.28-13.57,6.36-2.02.92-4.55,2.47-6.04-.02-1.65-2.75,1.58-3.35,3.12-4.58-.04-.16-.07-.33-.11-.49Z"/>
      <path class="cls-1" d="m1309.52,324.13c7.78-.34,14.24,2.13,19.1,8.48,3.61,4.72,7.77,8.71,14.22,9.31.87.08,1.6,1.73,2.4,2.65-1.05.8-2.08,2.24-3.16,2.29-4.27.21-8.02-1.55-11.23-4.25-2.1-1.77-4.05-3.78-5.81-5.9-5.83-7.01-13.07-9.12-21.67-6.12-1.26.44-2.48,1.23-3.74,1.31-1.22.07-2.48-.58-3.72-.92.52-1.27.72-3.3,1.61-3.67,3.16-1.31,6.56-2.08,9.88-3,.68-.19,1.42-.13,2.14-.19Z"/>
      <path class="cls-1" d="m1351.02,388.78c-2.02.93-3.18,1.73-4.44,1.94-.75.13-1.73-.56-2.47-1.07-5.3-3.7-11.29-5.68-17.48-7.22-8.33-2.08-16.14-5.27-22.82-10.82-.71-.59-1.71-1.1-1.98-1.86-.39-1.08-.65-2.59-.16-3.47.32-.57,2.09-.54,3.16-.42.73.09,1.46.73,2.07,1.26,6.53,5.68,14.47,8.15,22.58,10.57,5.92,1.77,11.52,4.64,17.18,7.22,1.36.62,2.35,2.05,4.36,3.87Z"/>
      <path class="cls-1" d="m1342.9,291.53c.33-1.88-.64-4.8,2.22-4.98,2.82-.17,2.52,2.79,2.82,4.66,1.31,7.98-.65,15.5-3.97,22.62-1.72,3.69-3.05,7.04-1.17,11.08.47,1.01-.2,2.56-.37,4.15-3.73-1.89-5.4-6.68-4.45-10.84.23-.99.49-2.01.94-2.92,2.4-4.95,1.06-9.29-1.95-13.47-3.06-4.25-2.6-5.15,2.38-6.68,1.32-.41,2.31-1.92,3.45-2.92.06-.06.18-.13.18-.19,0-.17-.05-.33-.08-.5Z"/>
      <path class="cls-1" d="m1324.26,285.54c-.75,2.75-2.34,3.41-4.39,2.98-5.92-1.26-11.24.21-16.56,2.83-3.63,1.78-7.62,2.94-11.56,3.91-1.16.29-3.51-.66-3.91-1.62-.86-2.06,1.27-2.49,2.8-3.09,4.56-1.79,9.21-3.38,13.59-5.53,5.59-2.75,11.31-2.46,17.11-1.49,1.1.19,2.04,1.38,2.92,2.02Z"/>
      <path class="cls-1" d="m1249.3,382.47c-.77.05-1.55.1-2.32.15.77-.05,1.55-.1,2.32-.15Z"/>
      <path class="cls-1" d="m1267.92,345.06c0-.3.02-.61.03-.91,0,.3-.02.61-.03.91Z"/>
      <path class="cls-1" d="m1237.64,383.75c-.39.08-.77.16-1.16.23.39-.08.77-.16,1.16-.23Z"/>
      <path class="cls-1" d="m1376.53,165.51c-.36-.05-.73-.11-1.09-.16.43-.09.86-.18,1.28-.27,0,.19-.06.34-.2.43Z"/>
      <path class="cls-1" d="m1369.57,179.62c-.03-.18-.08-.36-.07-.54,0-.07.14-.13.21-.19-.04.25-.09.49-.13.74Z"/>
      <path class="cls-1" d="m1342.9,291.53c.03.17.08.33.08.5,0,.06-.11.13-.18.19.03-.23.06-.46.1-.69Z"/>
      <path class="cls-1" d="m1308.29,274.54c.04.16.07.33.11.49-.16-.14-.2-.31-.11-.49Z"/>
      <path class="cls-1" d="m1381.95,204.61c-.5.17-1,.34-1.5.51,0-.25,0-.5,0-.75.5.08,1,.16,1.51.24Z"/>
      <polygon class="cls-1" points="1382.18 305.15 1382.32 305.17 1382.18 305.19 1382.18 305.15"/>
      <polygon class="cls-1" points="1382.23 388.25 1382.35 388.27 1382.22 388.28 1382.23 388.25"/>
      <polygon class="cls-1" points="1091.58 389.45 1091.68 389.49 1091.57 389.53 1091.58 389.45"/>
      <polygon class="cls-1" points="1381.78 340.96 1381.71 340.97 1381.73 340.86 1381.78 340.96"/>
      <path class="cls-1" d="m1113.84,460.95c-.02.79-.05,1.58-.07,2.38.02-.79.05-1.58.07-2.38Z"/>
      <path class="cls-1" d="m1114.43,454.73c-.03.41-.06.82-.09,1.23.03-.41.06-.82.09-1.23Z"/>
      <path class="cls-1" d="m1115,449.82c.04.15.09.29.1.44,0,.05-.1.11-.15.17.02-.2.03-.41.05-.61Z"/>
      <path class="cls-1" d="m1245.2,395.47l-.03.03.03-.03Z"/>
      <polygon class="cls-1" points="1174.35 407.02 1174.39 406.92 1174.4 407.02 1174.35 407.02"/>
      <path class="cls-1" d="m1296.79,711.87c-9.03-2.24-11.8-8.97-11.13-16.32.79-8.68,6.71-14.5,15.03-15.19,9.6-.79,16.03,3.81,18.12,13.22,1.84,8.29,1.67,16.51-1.86,24.39-4.51,10.06-15.79,14.9-26.47,11.49-.06-.19-.16-.38-.16-.58-.01-1.73,0-3.47,0-5.47,6.09,1.31,12.04,1.98,17.12-2.55,2.76-2.46,4.75-6.94,5.03-11.39-4.95,3.03-10.21,3.39-15.67,2.37v.02Zm-4.11-16.98l-.1.03.1.02c-.81,5.53,1.45,9.7,6.38,11.02,4.96,1.32,9.74.9,14.23-3.06-.43-2.78-.69-5.83-1.4-8.78-1.3-5.41-4.85-8.17-9.77-7.97-5.23.22-8.31,3.07-9.45,8.73Z"/>
      <path class="cls-1" d="m1360.54,681.4v6.04c-5.61-1.33-11.05-1.89-15.86,1.89-3.68,2.88-5.24,6.89-6.09,11.59,2.66-.81,5.09-2.03,7.57-2.17,3.4-.19,7.05-.16,10.23.86,6.73,2.16,9.87,8.4,8.98,16.29-.86,7.62-6.41,13.42-13.78,14.4-9.26,1.23-16.28-2.89-18.94-11.8-2.9-9.71-2.2-19.29,2.96-28.2,4.71-8.13,15.84-12.02,24.91-8.9Zm-22.57,26.38c.65,3.67.82,7.52,2.08,10.98,1.62,4.43,5.26,6.19,9.71,5.75,4.65-.46,7.07-2.62,8.39-7.48.05-.06.16-.11.15-.17,0-.15-.05-.3-.08-.44.74-5.92-.79-10-4.91-11.24-5.35-1.6-10.65-1.37-15.24,2.47l-.11.12Z"/>
      <path class="cls-1" d="m1267.16,712.17c-2.28-6.68-8.09-5.82-13.51-6.19v-4.91c2.76-.63,5.53-1.02,8.11-1.92,3.36-1.18,4.95-3.95,4.59-7.14-.34-2.99-2.49-5.34-6.13-5.33-3.81,0-7.64.83-11.41,1.57-1.65.33-3.17,1.34-5.09,2.18v-6.83c6.69-3.05,13.81-4.52,21.27-2.4,5.18,1.48,7.94,4.85,8.32,9.5.41,5.1-1.83,8.92-6.69,11.39-.45.23-.9.43-1.84.88,4.94,1.24,8.3,3.81,9.33,8.5.98,4.48.54,8.95-2.57,12.5-1.76,2.01-4.08,3.86-6.53,4.88-6.73,2.79-15.88,1.8-22.26-1.86,0-2.2,0-4.4,0-7.17,4.64,3.24,9.34,4.57,14.46,4.45,7.52-.17,11.22-4.6,9.97-12.07l.11-.03-.1-.02Z"/>
      <path class="cls-1" d="m1211.07,693.07c-3.04-.19-6.07-.37-9.45-.58-.16-1.4-.33-2.85-.52-4.46,5.02-.71,10.32-.5,11.45-6.97h5.03v42.92h9.75v5.25h-26.06v-5.07h9.84v-29.17c-.01-.64-.02-1.28-.04-1.93Z"/>
      <path class="cls-1" d="m1211.07,693.07c.01.64.02,1.28.04,1.93-.01-.64-.02-1.28-.04-1.93Z"/>
      <path class="cls-1" d="m1296.79,711.87v-.02s0,.02,0,.02Z"/>
      <polygon class="cls-1" points="1267.16 712.17 1267.26 712.19 1267.16 712.21 1267.16 712.17"/>
      <path class="cls-1" d="m1446.18,336.67c1.02.01,2.04.03,3.06.04l.17.16s.23-.05.23-.05c-.65.52-1.22,1.2-1.96,1.53-4.46,2.03-8.15,4.75-9.32,9.86.66-.07,1.31-.15,1.97-.22,5.18-1.05,10.3-1.36,15.09.95-5.57,2.16-11.16,4.33-16.75,6.5.02.31.03.62.05.94,7.31,3.78,14.9,7.35,13.94,17.52-.2.05-.26.18-.18.38-.54-.63-1.21-1.18-1.59-1.9-2.94-5.52-7.12-9.63-13.06-11.81-.26.02-.52.03-.78.04l.2.55c-.35,3.33-.39,6.73-1.16,9.95-.65,2.74-2.75,4.64-5.88,5.66.91-2.46,2.06-4.57,2.4-6.8.3-1.95-.32-4.03-.54-6.06-1.61-2.57-4.07-3.29-6.92-3.12-.71-.28-1.57-.96-2.11-.77-3.52,1.25-6.96,2.69-10.43,4.07l-.14.07.06.14c-.36,6.57-.67,7.43-3.09,8.62-.23-4.67-.36-9.39-3.77-13.19-2.71.11-5.42.22-8.14.33-2,1.57-4,3.14-6,4.71.03-2.03.06-4.06.09-6.09,1.24-1.43,2.47-2.86,3.89-4.49h-3.85c.05-1.32.1-2.65.15-3.97.2-.1.41-.2.61-.29,1.06-.22,2.12-.45,4.11-.87-2.06-1.33-3.38-2.19-4.7-3.04.02-.16-.04-.3-.19-.41,0-1.61,0-3.22,0-4.83,2.36.61,4.72,1.21,7.34,1.89,1.23-6.95,4.56-12.11,12.02-13.64-4.26,4.06-7.24,8.57-6.23,14.8,3.96-2.26,7.7-4.39,11.5-6.56-.96-.54-2.14-1.21-3.31-1.87,8.12.35,14.83,3.68,20.51,9.44,2.98-4.13,6.39-7.41,11.61-8.02.36-.04.71-.08,1.07-.12Zm-27.29,14.88l-.14-.14-.15.13-1.43-.22c-.92-.07-1.83-.14-2.75-.21-.02.13-.04.26-.06.39.92.19,1.83.38,2.75.58,2.97.86,5.95,1.72,8.92,2.59.12-.53.24-1.06.36-1.59-2.5-.5-5-1.01-7.5-1.51Zm-7.86-4.63c5.94.58,11.56,1.13,18.2,1.78-3.41-3.56-6.39-6.67-9.46-9.88-3.26,3.02-6,5.56-8.74,8.1Zm7.39,9.34c-3.57-.58-6.29-1.02-9.66-1.56,1.15,2.2,1.96,3.78,2.74,5.28,2.18-1.17,4.12-2.21,6.91-3.72Z"/>
      <path class="cls-1" d="m1396.85,367.24c.14-1.22.29-2.43.43-3.65-.14,1.22-.29,2.43-.43,3.65Z"/>
      <path class="cls-1" d="m1156.4,384.71c-.02-.49-.03-.98-.05-1.47.02.49.03.98.05,1.47Z"/>
      <path class="cls-1" d="m1391.85,346c-.06.27-.13.55-.19.82,0-.41,0-.82,0-1.24.14.12.2.25.19.41Z"/>
      <polygon class="cls-1" points="1191.25 372.28 1191.25 372.31 1191.46 372.27 1191.25 372.28"/>
      <polygon class="cls-1" points="1390.92 315.63 1391.04 315.63 1390.92 315.63 1390.92 315.63"/>
      <path class="cls-1" d="m1138.29,394.09c0-.14.03-.28.1-.41l.09.23-.19.19Z"/>
      <path class="cls-1" d="m1244.62,513.34c.62,4.31,1.25,8.62,1.95,13.45-4.01.54-7.95,1.34-11.92,1.51-2.14.09-4.62-4.08-4.93-7.3.69-2.93,2.1-5.18,5.32-5.79,3.2-.6,6.39-1.24,9.58-1.86Z"/>
      <path class="cls-1" d="m1236.42,535.43c-.32.05-.63.1-.95.15.32-.05.63-.1.95-.15Z"/>
      <path class="cls-1" d="m1125.09,567.78c1.62,2.2,3.24,4.39,5.11,6.93-4.47,3.56-8.65,6.9-13.07,10.42-2.8-3.14-6.27-5.1-6.35-9.45,1.18-2.03,1.98-4.45,3.62-6,2.33-2.21,5.26-3.77,7.93-5.61,0,0-.03-.03-.03-.03.93,1.25,1.87,2.49,2.8,3.74Z"/>
      <path class="cls-1" d="m1295.43,530.86l-2.59.4,2.59-.4Z"/>
      <path class="cls-1" d="m1425.78,642.54c-.84,3.63-3.48,4.85-6.45,2.66-2.34-1.73-4.32-3.94-6.46-5.93,1.14-1.8,2.28-3.6,3.55-5.61,3.47,3.29,6.41,6.09,9.35,8.88Z"/>
      <path class="cls-1" d="m1431.97,634.57c-.73,2.99-2.51,3.95-5.29,2.21-2.43-1.52-4.41-3.76-6.58-5.68,1.01-1.71,2.01-3.43,3.12-5.3,1.82,1.57,3.14,2.68,4.43,3.81,1.28,1.12,2.54,2.27,3.8,3.41,0,0-.03-.03-.03-.03.18.52.37,1.05.55,1.57Z"/>
      <path class="cls-1" d="m1210,603.33c-4.79,4.71-12.82,2.71-15.62-3.89-.31-6.85,1.64-9.97,7.67-11.19,2.69-.54,5.56-.16,8.35-.19,0,0-.03-.02-.03-.02.32.22.63.44.95.66,2.9,3.1,3.59,6.53,2.21,10.98-2.21.68-5.65-2.77-6.68,1.96,1.05.56,2.11,1.13,3.16,1.69Z"/>
      <path class="cls-1" d="m1266.23,575.99c.19,2.38-1.14,3.67-3.28,4.01-3.41.55-6.86.88-10.29,1.3-.34-1.88-.68-3.75-1.17-6.5,5.05-.1,9.68-.19,14.31-.28,0,0-.06-.02-.06-.02.16.49.33.98.49,1.48Z"/>
      <path class="cls-1" d="m1145.24,634.35c-1.71,1.95-3.42,3.91-5.76,6.58-1.16-4.04-2.08-7.26-3.01-10.48,2.92,1.3,5.84,2.6,8.76,3.91Z"/>
      <path class="cls-1" d="m1288.25,574.46c1.07,2.6,2.14,5.19,3.49,8.47-2.82-.13-5.17-.23-7.52-.34,1.34-2.71,2.69-5.42,4.03-8.13Z"/>
      <path class="cls-1" d="m1233.17,583.69c1.1,1.26,2.2,2.51,3.6,4.12-2.93.61-5.27,1.1-7.62,1.59.19-2.29.29-4.59.63-6.85.07-.48,1-.83,1.54-1.25l-.03-.03c.42.63.84,1.26,1.26,1.89l-.04-.03c.22.18.44.37.67.55Z"/>
      <path class="cls-1" d="m1360.46,194.02c-.16.18-.32.35-.48.53.16-.18.32-.35.48-.53Z"/>
      <path class="cls-1" d="m1327.81,238.19c-.32-.09-.65-.17-.97-.26.32.09.65.17.97.26Z"/>
      <polygon class="cls-1" points="1326.87 236.37 1326.78 236.17 1326.92 236.01 1327.05 236.2 1326.87 236.37"/>
      <polygon class="cls-1" points="1292.68 694.89 1292.69 694.94 1292.58 694.92 1292.68 694.89"/>
      <path class="cls-1" d="m1358.15,717.03c.02-.2.05-.41.07-.61.03.15.08.29.08.44,0,.05-.1.11-.15.17Z"/>
      <polygon class="cls-1" points="1338.08 707.66 1338.11 707.8 1337.97 707.79 1338.08 707.66"/>
      <path class="cls-1" d="m1131.21,315.68c-2.26-4.67-1.96-6.26,2.49-9.12,4.13-2.65,8.42-5.06,12.76-7.36,1.45-.77,3.25-.9,4.26-1.16-1.36,8.41-2.7,16.65-4.04,24.88l-1.05.04c-.69-1.95-1.27-3.94-2.09-5.83-1.34-3.08-3.02-3.5-5.28-1-1.53,1.69-2.88,3.8-3.57,5.96-1.48,4.68-2.52,9.5-3.68,14.28-1.12,4.59-.7,9.08.4,13.68,2.14,8.99-.03,17.48-3.82,25.64-.61,1.31-1.8,2.34-2.72,3.5-.29-.15-.57-.3-.86-.44.28-.84.41-1.76.85-2.51,3.38-5.76,3.8-11.49,1.32-17.9-5.15-13.32-2.15-26.19,3.28-38.75.49-1.13,1.07-2.21,1.59-3.33.09-.18.11-.39.16-.59Z"/>
      <path class="cls-1" d="m1176.73,338.76c.17,1.16.7,2.41.46,3.48-1.32,5.66-3.94,10.54-9.18,13.6-1.06.62-2.07,1.32-3.14,1.92-4.22,2.38-7.03,5.75-8.18,10.59-.72,3.03-2.33,5.65-5.35,7.14-2.31-.91-2.27-2.24-1.14-4.1,1.32-2.16,2.6-4.39,3.53-6.73,1.61-4.04,3.94-7.44,7.78-9.57,5.73-3.18,10.58-7,12.01-13.91.19-.94,1.26-1.7,1.93-2.54.43.04.86.08,1.28.12Z"/>
      <path class="cls-1" d="m1134.07,379.97c-.66,1.02-1.32,2.04-1.97,3.06-1.47.83-2.74.82-3.59-.88h0c3.02-10.59,10.67-17.12,19.67-22.46.97-.57,1.85-1.39,2.89-1.7.71-.21,1.97.03,2.34.54.36.5.19,1.86-.27,2.37-1.02,1.11-2.33,1.97-3.58,2.86-2.74,1.97-5.55,3.84-8.26,5.84-3.57,2.63-5.92,6.14-7.21,10.37Z"/>
      <path class="cls-1" d="m1128.5,382.14h0s0,0,0,0Z"/>
      <path class="cls-1" d="m1440.34,347.98c-.66.07-1.31.15-1.97.22.66-.07,1.31-.15,1.97-.22Z"/>
      <path class="cls-1" d="m1446.18,336.67c-.36.04-.71.08-1.07.12.36-.04.71-.08,1.07-.12Z"/>
      <path class="cls-1" d="m1452.5,374.26c-.08-.2-.02-.33.18-.38l.05.25-.23.13Z"/>
      <polygon class="cls-1" points="1449.65 336.82 1449.42 336.87 1449.24 336.71 1449.48 336.61 1449.65 336.82"/>
      <path class="cls-1" d="m1417.17,351.31c-.02.25-.04.5-.06.75-.92-.19-1.83-.38-2.75-.58.02-.13.04-.26.06-.39.92.07,1.83.14,2.75.21Z"/>
      <polygon class="cls-1" points="1412.62 364.08 1412.72 364.25 1412.54 364.29 1412.48 364.15 1412.62 364.08"/>
      <path class="cls-1" d="m1437.27,361.15l-.2-.55c.26-.01.52-.03.78-.04-.19.2-.38.4-.58.6Z"/>
      <polygon class="cls-1" points="1418.9 351.55 1418.75 351.63 1418.6 351.53 1418.75 351.4 1418.9 351.55"/>
      <polygon class="cls-1" points="1006.1 165.35 1064.85 151.25 1089.42 128.12 1121.42 108.99 1125.09 122.21 1099.75 145.87 1040.61 170.8 1006.1 172.62 1006.1 165.35"/>
    </g>
    <g>
      <path class="cls-1" d="m143.75,452.09c-22.47,0-40.98-.88-55.52-2.64-14.54-1.77-25.94-4.91-34.2-9.42-8.26-4.52-14.05-11.24-17.35-20.16s-4.96-20.55-4.96-34.87c0-8.38.38-16.97,1.16-25.78.77-8.81,1.93-17.4,3.47-25.78,1.54-8.37,3.41-15.75,5.62-22.14l31.73,5.29c-2.87,11.02-5.18,21.59-6.94,31.73-1.77,10.14-2.64,19.71-2.64,28.75,0,7.93.27,14.87.83,20.82.55,5.95,1.6,11.78,3.14,17.52h93.19c18.06,0,32.27-.5,42.63-1.49,10.35-.99,17.68-2.76,21.98-5.29,4.3-2.54,6.44-6.11,6.44-10.74v-61.14l-45.61-5.29c-14.76-1.54-26.06-4.57-33.87-9.09-7.82-4.51-13.22-11.12-16.19-19.83-2.97-8.7-4.46-20.21-4.46-34.53,0-12.34.99-22.8,2.97-31.4,1.98-8.59,5.34-15.48,10.08-20.65,4.73-5.17,11.18-8.92,19.33-11.24,8.15-2.31,18.51-3.47,31.06-3.47,22.91,0,44.83,2.2,65.76,6.61l-5.62,34.7c-11.02-1.76-20.77-3.03-29.25-3.8-8.48-.77-17.02-1.16-25.61-1.16-6.83,0-13,.11-18.51.33-5.51.22-10.69.66-15.53,1.32v54.53l50.56,5.29c12.56,1.32,22.25,4.24,29.08,8.76,6.83,4.52,11.57,10.96,14.21,19.33,2.64,8.38,3.97,19.17,3.97,32.39v24.12c0,13.22-1.71,24.23-5.12,33.05-3.42,8.81-9.48,15.75-18.18,20.82-8.71,5.07-20.98,8.76-36.85,11.07-15.86,2.31-36.13,3.47-60.81,3.47Zm-17.18,57.83c-2.43,0-5.24-1.16-8.43-3.47-3.2-2.31-6.01-5.12-8.43-8.43-2.43-3.3-3.63-6.17-3.63-8.59,0-2.64,1.21-5.51,3.63-8.59,2.42-3.09,5.17-5.78,8.26-8.1,3.08-2.31,5.95-3.58,8.59-3.8,2.64.22,5.56,1.49,8.76,3.8,3.19,2.31,5.95,5.01,8.26,8.1,2.31,3.08,3.47,5.95,3.47,8.59,0,2.42-1.21,5.23-3.64,8.43-2.43,3.19-5.18,6-8.26,8.43-3.09,2.42-5.95,3.64-8.59,3.64Zm51.22,0c-2.43,0-5.24-1.16-8.43-3.47-3.2-2.31-6-5.12-8.43-8.43-2.43-3.3-3.64-6.17-3.64-8.59,0-2.64,1.16-5.51,3.47-8.59,2.31-3.09,5.07-5.78,8.26-8.1,3.19-2.31,6.11-3.58,8.76-3.8,2.64.22,5.56,1.49,8.76,3.8,3.19,2.31,5.95,5.01,8.26,8.1,2.31,3.08,3.47,5.95,3.47,8.59,0,2.42-1.21,5.23-3.64,8.43-2.43,3.19-5.18,6-8.26,8.43-3.09,2.42-5.95,3.64-8.59,3.64Z"/>
      <path class="cls-1" d="m299.41,359.89v-36.68h109.39c-4.85-18.51-9.37-33.65-13.55-45.44-4.19-11.78-8.59-20.82-13.22-27.1-4.62-6.28-9.97-10.63-16.03-13.05-6.06-2.42-13.38-3.64-21.98-3.64-4.41,0-9.14.33-14.21.99-5.07.66-9.7,1.54-13.88,2.64l-9.25-35.36c6.17-1.54,12.56-2.7,19.17-3.47,6.61-.77,12.67-1.16,18.18-1.16,11.9,0,22.09.88,30.57,2.64,8.48,1.77,15.91,5.18,22.31,10.24,6.39,5.07,12.23,12.56,17.52,22.47,5.29,9.91,10.52,22.86,15.7,38.83,5.17,15.98,11.07,35.86,17.68,59.65v28.42h-148.38Z"/>
      <path class="cls-1" d="m495.05,359.89v-208.2h32.72v171.52h30.73v36.68h-63.45Zm63.45,0v-36.68c2.42,0,4.13,1.71,5.12,5.12.99,3.42,1.49,7.88,1.49,13.38s-.5,9.91-1.49,13.22c-.99,3.3-2.7,4.96-5.12,4.96Z"/>
      <path class="cls-1" d="m558.5,359.89c-2.42,0-4.13-1.65-5.12-4.96s-1.49-7.71-1.49-13.22.5-9.97,1.49-13.38c.99-3.41,2.7-5.12,5.12-5.12v36.68Zm0,0v-36.68h80.64v36.68h-80.64Zm80.64,0v-36.68c2.42,0,4.13,1.71,5.12,5.12.99,3.42,1.49,7.88,1.49,13.38s-.5,9.91-1.49,13.22-2.7,4.96-5.12,4.96Z"/>
      <path class="cls-1" d="m639.13,359.89c-2.42,0-4.13-1.65-5.12-4.96s-1.49-7.71-1.49-13.22.5-9.97,1.49-13.38c.99-3.41,2.7-5.12,5.12-5.12v36.68Zm0,0v-36.68h80.64v36.68h-80.64Zm80.64,0v-36.68c2.42,0,4.13,1.71,5.12,5.12.99,3.42,1.49,7.88,1.49,13.38s-.5,9.91-1.49,13.22-2.7,4.96-5.12,4.96Z"/>
      <path class="cls-1" d="m719.77,359.89c-2.42,0-4.13-1.65-5.12-4.96s-1.49-7.71-1.49-13.22.5-9.97,1.49-13.38c.99-3.41,2.7-5.12,5.12-5.12v36.68Zm0,0v-36.68h63.12l-17.51,17.85v-136.49h32.39v155.32h-77.99Zm61.8-194.65c-2.43,0-5.24-1.16-8.43-3.47-3.2-2.31-6-5.07-8.43-8.26-2.43-3.19-3.63-6.11-3.63-8.76s1.16-5.56,3.47-8.76c2.31-3.19,5.07-5.95,8.26-8.26,3.19-2.31,6.11-3.47,8.76-3.47s5.5,1.16,8.59,3.47c3.08,2.31,5.83,5.07,8.26,8.26,2.42,3.2,3.64,6.11,3.64,8.76,0,2.43-1.21,5.29-3.64,8.59-2.43,3.31-5.24,6.11-8.43,8.43-3.2,2.31-6,3.47-8.43,3.47Z"/>
      <path class="cls-1" d="m96.17,756.45c-14.76,0-26.77-1.04-36.02-3.14-9.25-2.09-16.36-5.89-21.32-11.4-4.96-5.5-8.38-13.33-10.24-23.46-1.87-10.13-2.81-23.35-2.81-39.66s.93-29.52,2.81-39.66c1.87-10.13,5.29-17.95,10.24-23.46,4.96-5.5,12.06-9.3,21.32-11.4,9.25-2.09,21.26-3.14,36.02-3.14h82.29v155.32h-82.29Zm-15.53-36.68h65.43v-82.29h-65.43c-7.05,0-12.18,1.32-15.37,3.97-3.2,2.64-4.79,6.94-4.79,12.89v48.91c0,5.95,1.6,10.19,4.79,12.72,3.19,2.54,8.31,3.8,15.37,3.8Zm1.98-157.97c-2.43,0-5.24-1.16-8.43-3.47-3.2-2.31-6.01-5.07-8.43-8.26-2.43-3.19-3.64-6.11-3.64-8.76s1.16-5.56,3.47-8.76c2.31-3.19,5.06-5.95,8.26-8.26,3.19-2.31,6.11-3.47,8.76-3.47s5.5,1.16,8.59,3.47c3.08,2.31,5.83,5.07,8.26,8.26,2.42,3.2,3.64,6.11,3.64,8.76,0,2.43-1.21,5.29-3.64,8.59-2.43,3.31-5.24,6.11-8.43,8.43-3.2,2.31-6,3.47-8.43,3.47Zm51.22,0c-2.43,0-5.24-1.16-8.43-3.47-3.2-2.31-6-5.07-8.43-8.26-2.43-3.19-3.64-6.11-3.64-8.76s1.16-5.56,3.47-8.76c2.31-3.19,5.07-5.95,8.26-8.26,3.19-2.31,6.11-3.47,8.76-3.47s5.5,1.16,8.59,3.47c3.08,2.31,5.83,5.07,8.26,8.26,2.42,3.2,3.64,6.11,3.64,8.76,0,2.43-1.21,5.29-3.64,8.59-2.43,3.31-5.24,6.11-8.43,8.43-3.2,2.31-6.01,3.47-8.43,3.47Z"/>
      <path class="cls-1" d="m231.33,844.03l-12.89-28.75c8.37-3.97,14.98-8.43,19.83-13.38,4.84-4.96,8.31-11.24,10.41-18.84,2.09-7.6,3.14-17.13,3.14-28.59v-153.34h32.39v153.34c0,15.42-1.77,28.75-5.29,39.99-3.53,11.24-9.2,20.87-17.02,28.92-7.82,8.04-18.01,14.92-30.57,20.65Z"/>
      <path class="cls-1" d="m345.68,756.45v-208.2h32.72v171.52h30.73v36.68h-63.45Zm63.45,0v-36.68c2.42,0,4.13,1.71,5.12,5.12.99,3.42,1.49,7.88,1.49,13.38s-.49,9.91-1.49,13.22-2.7,4.96-5.12,4.96Z"/>
      <path class="cls-1" d="m409.13,756.45c-2.42,0-4.13-1.65-5.12-4.96s-1.49-7.71-1.49-13.22.5-9.97,1.49-13.38c.99-3.41,2.7-5.12,5.12-5.12v36.68Zm0,0v-36.68h44.94c-1.32-6.39-2.31-13.55-2.97-21.48-.66-7.93-.99-18.18-.99-30.73,0-13.22,1.1-24.34,3.3-33.38,2.2-9.03,6.11-16.25,11.73-21.65,5.62-5.4,13.16-9.25,22.64-11.57,9.47-2.31,21.26-3.47,35.36-3.47,13,0,24.95.83,35.86,2.48,10.91,1.65,22.75,4.46,35.53,8.43v148.05h-185.4Zm88.9-194.65c-2.43,0-5.24-1.16-8.43-3.47-3.2-2.31-6-5.07-8.43-8.26-2.43-3.19-3.63-6.11-3.63-8.76s1.16-5.56,3.47-8.76c2.31-3.19,5.07-5.95,8.26-8.26,3.19-2.31,6.11-3.47,8.76-3.47s5.5,1.16,8.59,3.47c3.08,2.31,5.83,5.07,8.26,8.26,2.42,3.2,3.64,6.11,3.64,8.76,0,2.43-1.21,5.29-3.64,8.59-2.43,3.31-5.24,6.11-8.43,8.43-3.2,2.31-6,3.47-8.43,3.47Zm-13.22,157.97h62.79c5.5,0,9.31-1.1,11.4-3.3,2.09-2.2,3.14-6.28,3.14-12.23v-69.73h-62.79c-5.73,0-9.58,1.16-11.57,3.47-1.98,2.31-2.97,6.77-2.97,13.38v68.41Zm64.44-157.97c-2.43,0-5.24-1.16-8.43-3.47-3.2-2.31-6-5.07-8.43-8.26-2.43-3.19-3.64-6.11-3.64-8.76s1.16-5.56,3.47-8.76c2.31-3.19,5.07-5.95,8.26-8.26,3.19-2.31,6.11-3.47,8.76-3.47s5.5,1.16,8.59,3.47c3.08,2.31,5.83,5.07,8.26,8.26,2.42,3.2,3.64,6.11,3.64,8.76,0,2.43-1.21,5.29-3.64,8.59-2.43,3.31-5.24,6.11-8.43,8.43-3.2,2.31-6.01,3.47-8.43,3.47Zm45.28,194.65v-36.68h31.06v36.68h-31.06Zm31.06,0v-36.68c2.42,0,4.13,1.71,5.12,5.12.99,3.42,1.49,7.88,1.49,13.38s-.5,9.91-1.49,13.22-2.7,4.96-5.12,4.96Z"/>
      <path class="cls-1" d="m625.59,756.45c-2.42,0-4.13-1.65-5.12-4.96s-1.49-7.71-1.49-13.22.5-9.97,1.49-13.38c.99-3.41,2.7-5.12,5.12-5.12v36.68Zm0,0v-36.68h45.61v-171.52h32.39v208.2h-77.99Z"/>
      <path class="cls-1" d="m765.05,756.45v-208.2h32.72v208.2h-32.72Z"/>
    </g>
  </g>
</svg>