<?xml version="1.0" encoding="UTF-8"?>
<svg id="Layer_2" data-name="Layer 2" xmlns="http://www.w3.org/2000/svg" viewBox="0 0 1996.47 1366.32">
  <defs>
    <style>
      .cls-1 {
        fill: #fff;
      }
    </style>
  </defs>
  <g id="Layer_1-2" data-name="Layer 1">
    <polygon class="cls-1" points="1996.46 494.63 1996.24 494.6 1996.47 494.58 1996.46 494.63"/>
    <polygon class="cls-1" points="1991.5 546.7 1991.33 546.63 1991.51 546.57 1991.5 546.7"/>
    <polygon class="cls-1" points="1048.84 689.44 1049.1 689.57 1048.91 689.77 1048.84 689.44"/>
    <polygon class="cls-1" points="1990.5 554.7 1990.33 554.62 1990.51 554.56 1990.5 554.7"/>
    <path class="cls-1" d="m1991.85,320.7c.27,33.72.94,67.44.66,101.15-.17,20.25-1.83,40.48-2.82,60.73v-.06c-3.14,30.3-5.2,60.76-9.68,90.87-5.87,39.48-12.3,78.98-20.98,117.92-8.28,37.12-18.99,73.76-30.02,110.2-15.45,51.02-35.74,100.21-58.9,148.24-26.89,55.76-57.94,109.02-94.18,159.24-37.14,51.47-78.43,99.32-124.42,143.11-42.68,40.64-88.49,77.39-137.38,110.28-1.93,1.3-3.96,2.44-6.46,3.96-7.44-5.09-15.04-10.14-22.49-15.4-44.54-31.48-86.74-65.8-125.84-103.87-65.25-63.54-121.42-134.25-167.94-212.62-45.79-77.14-81.36-158.78-108.06-244.35-18.86-60.45-32.85-122.03-42.73-184.56-7.39-46.75-13.08-93.68-15.1-141.01.17-.28.17-.57-.02-.86-.82-28.56-1.68-57.11-2.41-85.67-.16-6.47.18-12.96.29-19.44.05-3.61.09-7.21.14-10.82.57-12.66,1.15-25.31,1.72-37.97l.35-6.1c1.15-14.73,2.29-29.45,3.4-43.68,14.66-1.29,28.39-2.49,42.12-3.7,77.86-11.03,140.97-46.22,184.82-112.89,3.55-5.4,6.69-11.08,10.03-16.63.48-.03.96-.05,1.44-.08,2.57-.02,5.14-.04,7.7-.06l.05.19-.02-.2c26.06-1.15,51.7-4.87,76.63-12.76,62.74-19.86,113.22-56.7,151.89-109.86.97-1.34,2.06-2.59,3.09-3.89.71-.03,1.41-.06,2.12-.08,11.13,13.02,21.57,26.73,33.53,38.94,41.78,42.66,91.82,70.76,150.73,81.85,18.75,3.53,37.89,4.99,56.06,7.29,11.67,15.68,22.49,32.39,35.46,47.21,27.54,31.47,62.03,53.11,101.45,66.91,27.04,9.46,54.92,14.66,83.51,16.21,1.49.08,2.97.36,4.45.55h.19c1,.03,1.99.06,2.99.09l.42.12.43-.09h9.48c1.39,19.34,2.77,38.45,4.15,57.56.06,1.36.12,2.72.18,4.08Zm-33.42-37.74c-1.47-.43-1.94-.67-2.41-.7-1.83-.09-3.66-.13-5.49-.15-22.02-.21-43.73-2.51-65.19-7.89-38.91-9.76-73.26-27.81-102.86-54.86-17.5-16-31.52-34.73-42.51-55.69-1.74-3.33-3.88-4.42-7.45-4.47-7.14-.09-14.29-.48-21.42-.95-22.36-1.5-44.09-6.22-65.2-13.61-36.88-12.9-69.05-33.46-96.91-60.77-13.11-12.85-24.84-26.86-35.06-42.14-4-5.98-7.37-5.99-11.4-.24-11.67,16.65-24.69,32.09-39.5,46.11-17.78,16.84-37.44,30.92-59.04,42.32-37.64,19.86-78.06,28.82-120.35,29.94-4.34.11-6.63,1.66-8.52,5.27-9.51,18.11-21.48,34.5-36.02,48.84-18.13,17.87-38.6,32.43-61.7,43.5-33.91,16.25-69.69,23.63-107.01,24.59-13.21.34-13.56.12-14.58,13.29-1.89,24.36-4.43,48.75-4.7,73.15-.41,36.45.3,72.93,1.67,109.36.93,24.55,3.35,49.07,5.97,73.51,2.49,23.27,5.25,46.57,9.43,69.59,5.96,32.83,12.26,65.66,20.36,98,8.19,32.7,17.92,65.08,28.5,97.09,13.47,40.78,29.96,80.46,48.81,119.09,24.65,50.52,52.67,99.11,85.82,144.54,17.74,24.3,35.98,48.39,55.79,71,21.15,24.13,44.1,46.73,66.9,69.36,13.33,13.23,27.48,25.72,42.02,37.6,19.96,16.3,40.52,31.88,61.09,47.41,9.78,7.38,20.18,13.92,30.38,20.89,6.15-4.1,11.55-7.67,16.91-11.28,43.31-29.19,83.97-61.77,121.33-98.2,23.7-23.11,46.39-47.36,68.27-72.21,31.5-35.79,58.97-74.74,84.1-115.23,21-33.82,39.75-68.91,56.89-104.88,16.56-34.76,30.96-70.39,43.09-106.86,9.74-29.32,18.52-59.01,26.3-88.91,7.56-29.07,13.92-58.5,19.69-87.99,8.46-43.23,13.75-86.96,16.88-130.89,2.06-28.86,3.53-57.8,3.98-86.73.4-25.44-.73-50.92-1.67-76.37-.6-16.27-1.99-32.51-3.2-48.76-.37-4.91-1.3-9.78-1.98-14.67Zm-212.96,845.05c-5.45,4.85-10.19,9.06-14.93,13.29-.12.11-.16.29-.27.42-9.74,11.49-19.06,23.38-29.37,34.34-8.85,9.41-18.9,17.7-28.29,26.61-3.84,3.64-7.31,7.65-11.03,11.42-1.98,2.01-4.16,3.82-6.16,5.8-8,7.89-15.66,16.14-24.01,23.63-14.17,12.73-28.75,25-43.17,37.45-2.26,1.95-4.43,4.04-6.91,5.67-8.58,5.62-17.29,11.05-25.92,16.58-2.51,1.61-4.95,3.32-7.39,5.02-8.95,6.26-17.66,12.9-26.91,18.69-7.67,4.81-16.51,5.24-24.17.53-12.26-7.53-23.95-16.01-35.71-24.32-9.74-6.88-19.24-14.09-28.84-21.18-10.52-7.76-22.4-13.67-31.27-23.69-2.91-3.28-6.77-5.75-10.33-8.42-4.63-3.48-9.33-6.85-14.11-10.13-1.24-.85-2.86-1.14-4.31-1.69-.38.52-.75,1.04-1.13,1.56,4.17,5.04,8.04,10.38,12.58,15.06,11.29,11.65,22.87,23.01,34.36,34.45,1.17,1.16,2.45,2.27,3.84,3.13,4.33,2.69,9.03,4.87,13.07,7.93,12.93,9.78,25.48,20.06,38.45,29.78,8.75,6.55,18.06,12.34,26.96,18.7,8.75,6.25,12.81,6.2,20.84-.78,5.22-4.54,9.99-9.89,15.87-13.3,9.18-5.32,17.21-11.71,24.75-19.1,4.43-4.34,10.05-7.44,15.11-11.14,3.45-2.53,6.94-5.02,10.22-7.76,3.15-2.63,5.89-5.77,9.1-8.32,8.14-6.48,16.73-12.43,24.59-19.22,6.75-5.83,12.7-12.58,19.09-18.84,2.24-2.2,4.9-3.98,7.09-6.23,8.65-8.84,17.17-17.79,25.77-26.68.8-.83,1.87-1.39,2.67-2.22,6.32-6.57,12.85-12.96,18.83-19.83,6.73-7.73,12.8-16.02,19.45-23.81,3.63-4.26,7.99-7.89,11.78-12.02,3.57-3.89,7.1-7.88,10.17-12.16,3.48-4.85,6.5-10.04,9.54-15.19.49-.83.07-2.2.07-4.04ZM1558.4,74.21c-.25.32-.49.64-.74.95.99,1.14,1.9,2.38,2.99,3.41,3.74,3.53,7.52,7,11.34,10.45,4.01,3.63,7.75,7.7,12.19,10.7,7.68,5.19,15.84,9.65,23.74,14.52,4.36,2.69,8.27,6.37,12.93,8.25,16.85,6.81,33.79,13.48,50.97,19.37,16.19,5.55,32.98,8.29,50.22,8.34,5.87.02,11.81,1.21,17.58,2.48,4.21.92,8.21,2.85,13.58,4.79-.88-4.35-1.82-7.47-2.11-10.66-.55-6.23-4.25-9.01-9.96-9.79-7.52-1.03-15.06-1.91-22.58-2.96-11.77-1.63-23.54-3.22-35.28-5.06-18.46-2.9-35.8-9.41-52.76-17.01-4.68-2.1-9.21-4.53-13.83-6.77-7.59-3.68-15.37-7.01-22.74-11.08-9.81-5.42-19.27-11.45-28.95-17.1-2.06-1.2-4.4-1.91-6.61-2.84Zm-293.17,82.64c.87-.28,1.7-.35,2.31-.76,8.43-5.69,17.83-6.38,27.68-6.1,17.26.5,33.95-2.6,49.84-9.57,3.34-1.47,6.63-3.11,10.09-4.21,8.02-2.54,16.36-4.24,24.15-7.32,10-3.95,20.08-8.1,29.24-13.64,11.73-7.09,22.84-15.3,33.69-23.71,5.86-4.54,10.62-10.51,15.88-15.83-.41-.59-.82-1.18-1.23-1.76-3.81,1.56-7.66,3.04-11.44,4.68-14.11,6.14-23.26,19.36-37.67,25.65-7.12,3.11-13.52,8.47-21.36,10.98-11,3.52-21.66,8.28-32.82,11.1-11.16,2.82-22.76,3.86-34.15,5.74-13.01,2.15-26.09,4.03-39,6.68-10.42,2.14-13.86,6.72-15.22,18.08Zm489.63,2.25c-.32.26-.64.52-.95.78.93,2.78,1.33,5.9,2.88,8.27,5.44,8.31,10.42,17.16,17.18,24.29,7.16,7.56,14.21,15.07,21.02,22.99,12.84,14.94,30.3,24.01,47.95,32.23,9.29,4.32,18.81,8.23,28.46,11.66,4.91,1.75,10.42,1.74,15.52,3.03,11.84,2.99,23.5,6.77,35.44,9.25,5.36,1.11,11.21-.14,16.84-.32.06-.66.12-1.31.18-1.97-6.84-1.87-11.63-7.17-20.32-6.81-9.89.41-20.11-3.08-29.89-5.91-6.42-1.86-12.2-5.85-18.47-8.37-4.88-1.96-10.48-2.38-15.05-4.82-10.33-5.52-20.24-11.84-30.27-17.92-1.38-.84-2.49-2.13-3.72-3.22-6.2-5.49-12.51-10.87-18.57-16.52-5.93-5.53-11.82-11.13-17.3-17.09-5.02-5.47-7.4-13.61-16.12-15.26-.96-.18-1.72-1.5-2.56-2.32-4.09-3.99-8.17-7.98-12.26-11.97Zm-507.65,26.22c-.49-.45-.97-.91-1.46-1.36-1.64.81-3.4,1.45-4.88,2.48-2.58,1.79-5.09,3.71-7.44,5.79-5.09,4.51-10.27,8.95-15.04,13.79-6.86,6.96-11.94,15.32-22.02,19.28-11.65,4.58-22.2,11.89-33.65,17.07-16.08,7.28-32.54,13.7-48.87,20.42-1.02.42-2.3.15-3.45.32-9.8,1.43-19.61,2.83-29.38,4.42-1.5.24-2.85,1.43-4.27,2.17.13.62.26,1.24.39,1.86,5.19,0,10.7,1.15,15.5-.21,17.91-5.06,36.66-6.6,54.16-13.36,8.3-3.2,17.28-4.6,24.45-10.57,2.36-1.96,5.4-3.25,8.31-4.38,8.76-3.39,16.95-7.57,23.37-14.69,1.77-1.96,3.82-3.69,5.9-5.33,9.59-7.57,19.65-14.6,28.67-22.79,4.25-3.85,6.54-9.87,9.71-14.91Z"/>
    <path class="cls-1" d="m1023.51,347.72c-.05,3.61-.09,7.21-.14,10.82.05-3.61.09-7.21.14-10.82Z"/>
    <path class="cls-1" d="m1025.58,303.65c-.12,2.03-.24,4.07-.35,6.1.12-2.03.24-4.07.35-6.1Z"/>
    <path class="cls-1" d="m1991.85,320.7c-.06-1.36-.12-2.72-.18-4.08.06,1.36.12,2.72.18,4.08Z"/>
    <path class="cls-1" d="m1978.05,259.06l-.43.09-.42-.12.84.03Z"/>
    <path class="cls-1" d="m1267.39,126.66c-.48.03-.96.05-1.44.08.48-.03.96-.05,1.44-.08Z"/>
    <path class="cls-1" d="m1083.61,718.44c-.71.03-1.41.06-2.12.08.71-.03,1.41-.06,2.12-.08Z"/>
    <path class="cls-1" d="m1025.49,463.65c.19.29.2.57.02.86-.08-.2-.19-.4-.24-.61-.01-.06.14-.17.21-.25Z"/>
    <polygon class="cls-1" points="1989.69 482.51 1989.69 482.57 1989.95 482.57 1989.69 482.51"/>
    <polygon class="cls-1" points="1974.21 258.95 1974.02 258.95 1974.12 258.75 1974.21 258.95"/>
    <polygon class="cls-1" points="1275.12 126.59 1275.14 126.78 1275.09 126.6 1275.12 126.59"/>
    <path class="cls-1" d="m1958.43,282.96c.68,4.88,1.61,9.75,1.98,14.67,1.21,16.24,2.6,32.49,3.2,48.76.94,25.45,2.07,50.92,1.67,76.37-.45,28.93-1.92,57.87-3.98,86.73-3.13,43.93-8.42,87.66-16.88,130.89-5.77,29.49-12.13,58.91-19.69,87.99-7.78,29.9-16.55,59.59-26.3,88.91-12.12,36.47-26.52,72.1-43.09,106.86-17.14,35.97-35.89,71.05-56.89,104.88-25.13,40.49-52.6,79.43-84.1,115.23-21.88,24.85-44.57,49.1-68.27,72.21-37.36,36.43-78.02,69.01-121.33,98.2-5.37,3.62-10.76,7.18-16.91,11.28-10.2-6.97-20.61-13.51-30.38-20.89-20.58-15.53-41.13-31.11-61.09-47.41-14.55-11.88-28.7-24.37-42.02-37.6-22.8-22.63-45.75-45.23-66.9-69.36-19.81-22.61-38.05-46.69-55.79-71-33.15-45.42-61.17-94.02-85.82-144.54-18.85-38.63-35.33-78.3-48.81-119.09-10.58-32.02-20.3-64.4-28.5-97.09-8.1-32.34-14.41-65.18-20.36-98-4.18-23.01-6.93-46.32-9.43-69.59-2.62-24.44-5.04-48.96-5.97-73.51-1.37-36.43-2.09-72.91-1.67-109.36.28-24.4,2.81-48.79,4.7-73.15,1.02-13.17,1.37-12.95,14.58-13.29,37.31-.96,73.1-8.33,107.01-24.59,23.1-11.07,43.57-25.63,61.7-43.5,14.54-14.34,26.51-30.73,36.02-48.84,1.89-3.6,4.17-5.15,8.52-5.27,42.29-1.11,82.71-10.08,120.35-29.94,21.61-11.4,41.26-25.48,59.04-42.32,14.81-14.03,27.83-29.46,39.5-46.11,4.03-5.75,7.4-5.74,11.4.24,10.22,15.27,21.96,29.29,35.06,42.14,27.86,27.31,60.03,47.87,96.91,60.77,21.11,7.38,42.84,12.1,65.2,13.61,7.13.48,14.28.87,21.42.95,3.57.04,5.7,1.14,7.45,4.47,10.99,20.96,25.01,39.69,42.51,55.69,29.59,27.05,63.95,45.1,102.86,54.86,21.46,5.38,43.17,7.68,65.19,7.89,1.83.02,3.66.06,5.49.15.48.02.94.26,2.41.7Zm-151.77,638.05c.35.34.7.69,1.05,1.03l-.03-.04,1.03,1.02v-.02c1.02,4.03,4.33,5.55,7.59,4.64,1.8-.5,2.78-3.94,4.13-6.05.57-4.5-2.46-6.96-5.52-9.19-1.97-1.43-4.17-3.93-6.88-1.13-2.32,2.4-4.59,4.95-2.21,8.62.3.39.6.78.89,1.18l-.05-.06Zm-230.02-43.99c.36.35.71.7,1.07,1.05l-.05-.06c3.65,2.94,6.88,7.06,11.05,8.6,9.34,3.43,19.03,6.21,28.8,8.09,13.04,2.51,23.3-7.97,20.92-20.48-1.14-7.39-6.21-11.72-11.92-15.7-3.88-2.71-7.48-5.82-11.21-8.76,1.35-4.73,4.79-6.96,9.33-6.14,5.92,1.07,11.68,3.02,18.38,4.83,1.4-2.18,6.89-1.85,6.38-7.28-.6-.91-1.01-2.05-1.82-2.68-7.98-6.26-17.29-9.53-27.23-9.1-12.59.54-22.59,10.34-19.15,22.12.08.39.17.78.25,1.17.19.31.37.62.56.93.23.49.46.99.7,1.48l-.02-.05c.35.68.7,1.37,1.04,2.05l-.04-.08c1.14,1.33,2.07,2.96,3.47,3.92,5.11,3.5,10.37,6.77,15.57,10.13l-.07-.05c.35.36.7.71,1.05,1.07l-.05-.06c.3.5.6,1,.9,1.5.28,6.09-2.32,8.56-7.97,7.12-7.56-1.92-15.14-3.84-22.5-6.38-2.66-.92-4.69-3.63-7.01-5.53.71-3.23,1.43-6.47,2.14-9.7.39-1.75.78-3.5,1.17-5.25-.12-.31-.14-.77-.36-.91-3.14-1.9-6.14-4.59-9.53-5.22-1.39-.26-4.11,3.69-5.37,6.15-3.35,6.57-3.25,13.4-.28,20.17.28.71.56,1.41.84,2.12l-.04-.08c.35.36.7.71,1.06,1.07l-.05-.08Zm111.06-4.94s-.04-.05-.04-.05c.34.68.68,1.36,1.02,2.04h0c.25.43.51.88.76,1.32,2.63,6.12.32,11.42-2.26,17.04-11.79-5.18-23.04-10.12-35.18-15.45-1.23,4.46-2.12,7.72-3.02,10.97.66,1.15,1.03,2.91,2.01,3.35,13.28,5.98,26.61,11.88,40.01,17.57,3.98,1.69,8.38-2.96,7.56-7.66,1.03-2.44,2.11-4.86,3.08-7.33,3.76-9.53,3.92-18.99-2.39-27.42-7.49-10-18.62-15.01-30.46-21.02-1.1,4.14-2,7.53-2.9,10.91,1.17,1.48,2.07,3.39,3.57,4.35,5.65,3.62,11.5,6.94,17.27,10.37l-.06-.06,1.05,1.07Zm-33.51,119.73c-.19-.24-.37-.47-.56-.71l-.06.05c.55-1.66.93-3.39,1.67-4.95,3.32-6.97,6.82-13.85,10.02-20.88.48-1.05-.34-2.68-.56-4.05-1.48-1.27-2.95-2.54-4.82-4.15-2,3.96-3.68,6.96-5.06,10.1-3.72,8.43-7.32,16.91-10.97,25.37.35.9.44,2.26,1.1,2.64,8.13,4.71,16.33,9.27,25.92,14.66.31-3.33.51-5.5.71-7.68l-13.47-8.44c-.21-.02-.41-.08-.59-.18-.49-.29-.98-.59-1.47-.88l-.35-.08c-.5-.27-1-.54-1.5-.81Zm-436.52-44.7l-.02-.08,1.04,2.08-.04-.09c2.02,2.34,4.04,4.68,6.06,7.03l-.03-.03,3.06,4.04-.05-.06c.35.35.7.69,1.05,1.04l-.04-.04c4.5,5.88,7.8,7.25,12.82,3.54,10.66-7.88,20.98-16.24,31.14-24.76,1.8-1.51,2.16-4.73,3.19-7.16.17-1.02.34-2.04.51-3.07l-.03.16c-6.12-8.86-12.16-17.77-18.4-26.54-3.43-4.82-6.07-5.46-10.93-2.23-6.61,4.39-13.42,8.71-19.24,14.04-8.75,8.01-14.89,17.52-10.85,30.36.26.59.52,1.18.78,1.77Zm76.96.91c.36.36.72.71,1.07,1.07l-.07-.07c.69,1.02,1.38,2.04,2.06,3.06l-.05-.06c.64,1.1,1.28,2.2,2.22,3.81,6.45-6.02,13.2-10.62,14.7-19.3,7.34-23.28-4.83-40.85-16.75-59.39-4.23,2.77-7.77,5.07-11.2,7.32,5.14,9.84,10.26,18.95,14.73,28.38,5.35,11.3,3.48,19.75-5.21,28.59-1.21,1.23-1.56,3.3-2.3,4.98l.85,1.71-.06-.08Zm146.01,17c.35.36.71.71,1.06,1.07l-.06-.07c1.17,1.69,2.35,3.37,3.68,5.28,1.96-.94,3.52-1.68,5.61-2.67-.86-1.68-1.49-2.9-2.11-4.12-.62-.53-1.35-.98-1.83-1.61-6.66-8.67-13.2-17.43-20.02-25.98-1.1-1.38-3.91-2.89-5.05-2.38-1.84.82-3.8,3.1-4.21,5.08-2.17,10.52-3.94,21.12-5.64,31.73-.23,1.42.69,3.03,1.07,4.55,1,.66,2.34,2.09,2.91,1.83,1.13-.52,2.34-1.86,2.6-3.06.64-2.98.76-6.07,1.08-9.06,3.26-.91,5.9-1.88,8.63-2.37,3.41-.6,6.9-.81,10.35-1.18l-.07-.05c.69,1.02,1.37,2.05,2.06,3.07l-.06-.06Zm-77.95,17.08l-.05-.09c1.02,1.01,2.05,2.02,3.07,3.04l-.04-.05c4.18,5.82,10.34,7.14,16.54,5.52,6.17-1.62,11.91-4.85,17.85-7.38-.16-.37-.32-.73-.48-1.1,2.66.45,5.31.9,9.23,1.57-.94-2.78-1.46-4.35-1.99-5.91-.6-.84-1.2-1.68-1.8-2.52.1-1.62.26-3.24.29-4.86.11-6.13-.61-12.02-5.22-16.67-3.35-2.07-6.47-5.27-10.08-5.99-10.95-2.17-20.41,2-27.68,9.96-6.46,7.08-4.95,15.22-.62,23.04l.99,1.45Zm-140.06-72.99c.08-.45.16-.91.24-1.36-.59-6.64-6.37-8.24-10.87-3.87-2.37,2.3-3.42,5.97-5.06,9.02.24.4.49.81.73,1.21,0,0,0-.1,0-.1,1.72,1.35,4.08,4.19,5.04,3.78,2.91-1.25,5.28-3.76,7.87-5.78,0,0,0,0,0,0,.68-1,1.36-2,2.04-3l.02.09Zm87.06,113.94v-.02c1.33,1.35,2.66,2.71,4,4.06l-.04-.07c.08,3.09,1.64,2.73,3.51,1.47,3.14-2.12,6.25-4.28,9.37-6.44,4.43-3.07,8.84-6.14,13.55-9.41-1.37-2.92-1.37-6.36-5.72-5.82-5.9,4.73-11.8,9.45-18.11,14.5-6.93-9.31-13.31-17.89-19.92-26.77-1.93,1.45-3.42,2.57-5.04,3.78,4.15,5.34,8.02,10.1,11.62,15.06,1.98,2.72,3.5,5.77,5.22,8.67.52.33,1.05.67,1.57,1Zm138.87-210.99c.27-.41.55-.83.82-1.24.26-1.69,1.16-3.6.65-5.01-1.23-3.42-6.41-4.62-10.8-2.91-4.47,1.74-5.72,4.14-4.5,8.67.39,3.62,3.08,4.43,5.99,4.5,3.26.09,6.64-.02,7.87-4.06l-.04.05Zm-209.96,85.05c.25-.53.49-1.07.74-1.6-.28-4.21-2.9-7.23-6.03-6.94-5.63.51-9.68,5.49-9.33,11.46.23.37.47.73.7,1.1l-.02-.1c2.11,1.2,4.36,3.59,6.29,3.35,3.86-.47,7.02-2.91,7.66-7.35,0,0-.01.09-.01.09Zm177.1-81.02l-.05-.07c1.19,1.15,2.19,2.91,3.61,3.36,6.23,2.01,10.84-1.71,10.94-8.51-1.07-4.59-4.18-5.97-8.45-5.13-5.76,1.14-7.44,3.46-6.92,9.1.29.42.57.83.86,1.25Zm183.67,88.66c.3,0,.46.16.46.47.12,4.11,3.37,5.52,6.3,5.3,2.29-.17,5.09-2.17,6.4-4.18.96-1.47-.15-4.28-.34-6.5-.86-.74-1.62-1.85-2.61-2.13-2.12-.61-4.82-1.73-6.44-.93-2.69,1.33-5.38,3.67-4.05,7.61.18.06.28.19.29.37Zm85.26,103.37s-.07-.01-.07-.01c.62-1.98.9-4.16,1.93-5.9,3.7-6.27,7.68-12.38,11.49-18.59.72-1.18,2.84-2.78-.48-3.5-1.47-1.49-2.94-2.98-4.68-4.74-4.09,6.6-7.4,12.58-11.34,18.11-3.32,4.67-4.67,9.46-3.53,15.02.24.5.49,1.01.73,1.51l.06.02c2.92,8.69,9.79,13.03,17.85,15.84,5.16,1.79,10.21.55,13.68-3.48,5.5-6.39,10.4-13.3,15.41-20.09.34-.47-.5-1.8-.79-2.74-1.37-1.77-2.75-3.55-4.37-5.65-4.85,6.73-8.54,12.46-12.84,17.68-7.07,8.57-16.14,7.68-22.43-1.84l-.6-1.65Zm-159.04-54.07l.82,1.55c1.18,2.53,2.36,5.06,3.54,7.59,1.09,4.47,3.79,1.83,6.76,1.61-.65-1.89-1.14-3.32-1.63-4.75-.95-2.1-1.96-4.17-2.83-6.3-3.66-8.9-7.12-17.88-11.05-26.66-.64-1.43-3.25-2.55-5.04-2.69-1.33-.1-3.48,1.29-4.11,2.58-4.81,9.85-9.42,19.8-13.87,29.81-.67,1.52-.22,3.54-.29,5.32-.08,4.02,2.6,2.7,4.71,2.7,1.92-3.86,3.74-7.51,5.77-11.59,5.89.28,11.61.56,17.33.83l-.11-.02Zm-187.85,45.2c.91.64,2.24,2.05,2.66,1.82,5.76-3.19,11.39-6.6,17.29-10.11-1.37-2.36-2.32-3.99-3.27-5.62-5.67,3.15-11.41,6.19-16.93,9.59-.59.36.13,2.83.24,4.32Zm143.9-49.23c.27.48.54.95.8,1.43.86,3.91,1.72,7.81,2.57,11.72,1.72.63,3.48,1.76,5.15,1.64.7-.05,1.67-2.76,1.69-4.27.04-2.44-.31-4.99-1.04-7.32-.63-2.05-2-3.88-3.05-5.8l-1.43-2.14c5.04-6.45,5.32-9.77,1.37-15.86-2.97-1.38-5.98-3.97-8.91-3.9-9.19.24-18.35,1.49-28,2.39.39,4.09.48,7.05.99,9.92,1.66,9.28,3.49,18.54,5.25,27.81,1.59,5.34,4.02,1.01,6.27.97-.58-5.19-1.12-9.94-1.75-15.62,7.01-.33,13.58-.64,20.15-.94l-.06-.03Zm102.06-48.48c.78,4.32,4.04,5.69,7.65,5.22,5.02-.65,5.54-4.82,5.57-8.96-.7-.93-1.3-1.95-2.12-2.76-2.2-2.2-4.74-4.1-7.92-2.28-3.35,1.92-4.8,4.89-3.18,8.79Zm54.96,56.52c.25.44.5.88.74,1.32.52,1.21,1.05,2.41,1.57,3.62.86,4.37,3.55,3.06,7.15,1.9-.53-2.27-1.04-4.43-1.55-6.6-4.68-7.14-10.55-12.56-19.2-14.69-14.59-3.58-28.34,9.43-24.54,23.85.95,3.61,3.85,6.72,5.85,10.05,4.11,9.35,21.74,12.37,29.7,5.02,1.18-1.09,2.12-2.55,2.77-4.02.2-.46-.91-1.51-1.43-2.29-1.03-1.11-2.05-2.23-3.05-3.31-9.07,7.67-19.03,7.31-25.11-.44l.22-.12-.17-.21-.05-.06c-3.65-5.79-2.11-11.13,1.72-16.02,3.9-4.97,9.3-6.61,15.09-4.43,3.72,1.4,6.9,4.23,10.32,6.41h-.03Zm-360.55,101.28c2.32,2.41,2.77,2.24,5.44-2.09-1.23-3.71-2.47-7.46-3.62-10.94,9.85-12.56,11.83-13.17,25.04-7.97,4.24-2.55,4.66-3.25,3.59-5.94-10.99-5.04-21.9-10.27-33.01-15.03-5.94-2.54-7.04-1.8-10.89,4.48,3.21,9.47,6.46,19.2,9.84,28.89,1.02,2.93,2.39,5.73,3.6,8.59Zm305.3-126.19c-1.85-.87-3.7-1.75-5.49-2.59-1.7,5.32-3.11,9.74-4.51,14.15-1.88-.16-3.78-.27-5.65-.5-4.27-.51-8.53-1.08-12.79-1.63-.79-.09-1.59-.18-2.38-.27.42-3.72.95-7.44,1.19-11.17.06-.92-.81-1.89-1.25-2.84-1.82-.84-3.64-1.68-6.1-2.82-1.01,9.37-2.03,17.39-2.68,25.44-.35,4.33-.06,8.71-.06,13.06.26,4.26,2.97,2.8,5.64,2.49.68-5.53,1.33-10.88,2.14-17.46,7.05,1.75,13.5,3.35,19.94,4.94-.48,4.67-.97,9.34-1.45,14.02.93,3.64,3.64,3.52,6.5,3.34,2.77-12.37,5.5-24.46,8.14-36.58.09-.42-.76-1.05-1.17-1.58Zm163.94,114.32c0-.87,0-1.73-.01-2.6,9.7-.32,12.66-4.2,10.58-13.82-4.34-11.63-15.02-17.24-23.28-25.27-6.52,7.84-12.73,15.19-18.79,22.66-1.88,2.32-3.35,4.97-5.01,7.47.41,1.5.35,3.5,1.31,4.42,5.64,5.39,11.19,10.97,17.45,15.55,2.91,2.12,7.38,2.96,11.12,2.89,5.71-.1,8.92-6.22,6.65-11.31Zm-217.05-185.59c.91-21.07,1.82-42.14,2.77-63.92-5.41-.29-10.07-.54-15.57-.84,0,6.37.05,11.82-.01,17.26-.19,15.81-.42,31.61-.63,47.41,1.77,3.23,11.05,4.63,13.31,1.95.33-.39.11-1.24.14-1.87Zm177.81,53.27c1.79,1.83,3.35,4,5.42,5.42,7,4.78,14.45,8.93,21.25,13.97,13.48,9.99,26.71,20.32,39.87,30.72,3.69,2.92,6.36,2.59,9.33-.78,7.48-8.48,15.11-16.82,22.57-25.32.76-.87.79-2.38,1.17-3.6-3.37-3.9-6.73-7.79-10.48-12.14-7.61,9.16-14.44,17.39-21.31,25.65-.6-.27-1.08-.41-1.46-.68-12.96-9.51-25.91-19.03-38.86-28.54-3.19-2.35-6.39-4.69-9.58-7.04.51-1.03.94-2.1,1.53-3.08,7.69-12.75,15.43-25.47,23.05-38.26.68-1.15.62-2.74.9-4.12-2.29-5.91-8.25-6.49-12.84-9.63-10.03,17.81-19.75,35-29.35,52.26-.83,1.49-.81,3.45-1.19,5.19Zm-381.34-12.29c-.43,3.38,1.79,3.43,3.95,2.81,2.38-.69,4.64-1.83,6.91-2.89,34.78-16.23,71.02-27.69,109.1-32.84,15.33-2.07,30.78-3.36,46.18-4.93,5.96-.61,8.49-3.32,8.29-8.89-.2-5.66-.18-11.33-.25-16.99-.62-13.87-1.24-27.74-1.89-42.19-5.33.51-10.17.97-14.92,1.42.84,18.17,1.66,35.65,2.48,53.29-7.88.85-14.72,1.58-21.83,2.35-1.28-9.3-2.56-18.15-3.7-27.02-.63-4.86-3.5-7.38-8.12-6.76-8.85,1.18-17.65,2.87-26.43,4.53-1.91.36-3.76,1.36-5.5,2.3-13.53,7.31-16.03,20.21-7.34,33.86-26.21,9.09-52.65,18.25-79.73,27.64-7.2-15.39-14.76-31.55-22.54-48.17-4.98,2.45-9.07,4.46-13.45,6.61,1.07,2.45,1.77,4.29,2.65,6.05,6.32,12.64,12.6,25.3,19.06,37.87,2.11,4.11,4.71,7.96,7.09,11.94Zm-209.3-115.08c.65,1.22,1.3,2.43,1.95,3.65.53,2.26.85,4.59,1.61,6.77,6.52,18.68,12.92,37.41,19.77,55.97,4.35,11.79,9.4,23.33,14.2,35.16,98-97.61,216.02-145.79,352.97-145.73,136.89.06,255.21,47.58,352.76,145.71,3.43-8.1,7.12-15.73,9.95-23.66,11.43-32.11,22.6-64.32,33.86-96.5.67-3.1,1.33-6.2,2-9.3.36-.74.86-1.44,1.06-2.22,6.21-24.13,13.06-48.12,18.38-72.45,5.92-27.08,11.34-54.34,15.35-81.76,4.47-30.54,7.69-61.29,10.35-92.05,2.38-27.48,4.06-55.07,4.56-82.64.5-27.6-.7-55.25-1.46-82.86-.35-12.62-1.34-25.24-2.21-37.84-.38-5.57-1.19-11.11-1.8-16.65-94.77-2.78-170.25-38.73-219.27-122.9-93.77-2-167.8-42.76-223.75-118.6-25.76,36.99-58.33,66.08-97.88,87.27-39.61,21.21-82.27,30.54-126.28,31.63-1.49,2.94-2.42,5.09-3.61,7.08-23.8,39.58-56.28,69.61-98.05,89.58-35.26,16.86-72.54,24.62-111.41,25.61-1.61.04-3.22.14-4.87.21-.39,1.56-.83,2.67-.91,3.8-1.67,23.21-4.37,46.4-4.67,69.63-.44,34.77.34,69.59,1.53,104.35.77,22.57,2.58,45.14,5.02,67.6,3.05,28.05,6.18,56.16,11.19,83.9,6.63,36.74,14.8,73.22,22.96,109.67,3.55,15.87,8.73,31.37,13.17,47.04l3.54,10.53Zm187.69,346.62c40.66,52.98,167.71,165.42,203.79,180.06,75.57-50.41,143.22-110.14,201.81-180.07-107.39-114.57-281.71-128.46-405.6,0Zm-146.48-234.94c1.82,2.83,2.99,4.66,4.06,6.33,94.95-97.76,210.85-145.53,345.75-145.42,134.76.1,250.59,47.89,345.13,145.44,1.04-2.23,2.06-4.42,3.28-7.03-96.03-97.66-212.92-145.62-349.01-145.58-136.3.04-253,48.61-349.2,146.26Zm140.3,226.58c11.08-9.59,21.45-19.21,32.49-28.01,44.94-35.8,95.52-58.01,153.18-63.15,28.77-2.56,57.22-.76,85.23,5.96,54.29,13.03,100.63,40.43,140.39,79.32,2.11,2.06,4.31,4.03,6.67,6.24,1.86-1.96,3.4-3.57,4.91-5.16-123.87-125.14-300.29-126.71-427.22.11,1.44,1.55,2.88,3.1,4.36,4.69Z"/>
    <path class="cls-1" d="m1745.47,1128.01c0,1.84.42,3.21-.07,4.04-3.04,5.15-6.06,10.34-9.54,15.19-3.07,4.28-6.59,8.27-10.17,12.16-3.79,4.13-8.15,7.76-11.78,12.02-6.65,7.8-12.72,16.09-19.45,23.81-5.98,6.87-12.51,13.26-18.83,19.83-.8.83-1.87,1.39-2.67,2.22-8.6,8.89-17.13,17.84-25.77,26.68-2.19,2.24-4.85,4.03-7.09,6.23-6.39,6.26-12.34,13.01-19.09,18.84-7.86,6.79-16.45,12.74-24.59,19.22-3.21,2.55-5.95,5.69-9.1,8.32-3.28,2.74-6.77,5.23-10.22,7.76-5.05,3.71-10.68,6.81-15.11,11.14-7.54,7.39-15.57,13.78-24.75,19.1-5.88,3.41-10.65,8.76-15.87,13.3-8.04,6.98-12.09,7.03-20.84.78-8.9-6.36-18.21-12.15-26.96-18.7-12.98-9.71-25.53-19.99-38.45-29.78-4.04-3.06-8.74-5.24-13.07-7.93-1.39-.86-2.67-1.97-3.84-3.13-11.49-11.44-23.08-22.81-34.36-34.45-4.54-4.69-8.41-10.02-12.58-15.06.38-.52.75-1.04,1.13-1.56,1.45.55,3.07.84,4.31,1.69,4.77,3.27,9.48,6.65,14.11,10.13,3.55,2.67,7.42,5.14,10.33,8.42,8.87,10.02,20.75,15.93,31.27,23.69,9.59,7.08,19.1,14.3,28.84,21.18,11.76,8.31,23.45,16.79,35.71,24.32,7.66,4.71,16.5,4.28,24.17-.53,9.24-5.79,17.95-12.43,26.91-18.69,2.44-1.71,4.88-3.41,7.39-5.02,8.64-5.54,17.34-10.96,25.92-16.58,2.48-1.62,4.66-3.72,6.91-5.67,14.42-12.45,29.01-24.72,43.17-37.45,8.34-7.5,16.01-15.75,24.01-23.63,2.01-1.98,4.19-3.79,6.16-5.8,3.71-3.77,7.19-7.78,11.03-11.42,9.4-8.91,19.44-17.2,28.29-26.61,10.31-10.96,19.62-22.85,29.37-34.34.11-.13.15-.31.27-.42,4.74-4.22,9.48-8.44,14.93-13.29Z"/>
    <path class="cls-1" d="m1558.4,74.21c2.21.94,4.56,1.64,6.61,2.84,9.68,5.65,19.14,11.68,28.95,17.1,7.37,4.07,15.15,7.4,22.74,11.08,4.62,2.24,9.15,4.68,13.83,6.77,16.96,7.6,34.29,14.11,52.76,17.01,11.73,1.84,23.51,3.43,35.28,5.06,7.52,1.04,15.06,1.93,22.58,2.96,5.71.78,9.4,3.56,9.96,9.79.28,3.19,1.22,6.32,2.11,10.66-5.37-1.94-9.37-3.87-13.58-4.79-5.77-1.27-11.71-2.46-17.58-2.48-17.24-.05-34.03-2.79-50.22-8.34-17.19-5.9-34.12-12.56-50.97-19.37-4.66-1.88-8.57-5.56-12.93-8.25-7.9-4.87-16.06-9.33-23.74-14.52-4.44-3-8.18-7.07-12.19-10.7-3.81-3.45-7.6-6.93-11.34-10.45-1.1-1.03-2-2.27-2.99-3.41.25-.32.49-.64.74-.95Z"/>
    <path class="cls-1" d="m1265.23,156.86c1.36-11.35,4.79-15.93,15.22-18.08,12.91-2.65,25.98-4.53,39-6.68,11.4-1.88,23-2.93,34.15-5.74,11.16-2.82,21.82-7.58,32.82-11.1,7.83-2.51,14.24-7.87,21.36-10.98,14.41-6.29,23.56-19.51,37.67-25.65,3.78-1.64,7.62-3.13,11.44-4.68.41.59.82,1.18,1.23,1.76-5.26,5.32-10.02,11.29-15.88,15.83-10.85,8.41-21.96,16.62-33.69,23.71-9.16,5.54-19.24,9.69-29.24,13.64-7.8,3.08-16.13,4.78-24.15,7.32-3.46,1.1-6.75,2.74-10.09,4.21-15.89,6.97-32.58,10.07-49.84,9.57-9.85-.28-19.25.4-27.68,6.1-.61.41-1.44.49-2.31.76Z"/>
    <path class="cls-1" d="m1754.86,159.11c4.09,3.99,8.17,7.98,12.26,11.97.83.81,1.59,2.13,2.56,2.32,8.72,1.64,11.1,9.79,16.12,15.26,5.48,5.97,11.37,11.56,17.3,17.09,6.06,5.65,12.37,11.03,18.57,16.52,1.23,1.09,2.34,2.38,3.72,3.22,10.03,6.08,19.94,12.4,30.27,17.92,4.57,2.44,10.17,2.86,15.05,4.82,6.27,2.52,12.05,6.51,18.47,8.37,9.78,2.84,20,6.32,29.89,5.91,8.68-.36,13.48,4.94,20.32,6.81-.06.66-.12,1.31-.18,1.97-5.63.18-11.48,1.43-16.84.32-11.94-2.47-23.6-6.25-35.44-9.25-5.11-1.29-10.61-1.28-15.52-3.03-9.65-3.43-19.17-7.34-28.46-11.66-17.66-8.22-35.12-17.29-47.95-32.23-6.81-7.92-13.86-15.44-21.02-22.99-6.75-7.13-11.74-15.98-17.18-24.29-1.55-2.37-1.95-5.49-2.88-8.27.32-.26.64-.52.95-.78Z"/>
    <path class="cls-1" d="m1904.52,769.15c-11.04-1.58-20.78-5.41-29.88-12.48-9.1-7.07-19.94-11.88-29.91-17.88-6.69-4.03-13.54-7.93-19.7-12.68-16.06-12.4-33.63-22.06-52.06-30.33-7.12-3.19-14.02-6.87-21.22-9.85-5.09-2.1-10.51-3.25-16.03-1.07-.74.29-1.77.44-2.45.15-5.65-2.35-9.72.72-13.42,4.13-16.86,15.6-41.18,11.57-54.74-3.15-8.67-9.42-19.17-15.08-31.1-18.94-15.34-4.97-30.49-10.55-45.84-15.5-21.36-6.9-42.89-13.28-64.24-20.22-19.13-6.21-38.75-5.61-58.39-4.82-7.13.29-14.24,1.07-21.54,1.63,2.29,4.6-2.75,11.08,4.17,14.16l.05-.06c2.61-.24,5.23-.36,7.81-.74,1.96-.29,3.94-1.44,5.81-1.24,2.39.25,4.68,1.47,7.01,2.27-1.39,1.83-2.4,4.34-4.23,5.37-16.91,9.51-35.32,15.33-53.7,21.14-11.56,3.66-23.23,6.97-34.9,10.27-2.57.73-5.81,2.11-7.52-1.37-1.72-3.48.48-5.92,2.85-8.1,9.26,3.97,11.94,3.75,17.14-1.46-3.22-4.9-.55-8.14,3.21-11.32,3.29-2.78,6.25-5.95,3.73-11.84-2.66,1.56-4.82,2.91-7.07,4.12-6.27,3.39-12.44,7.02-18.9,10-6.67,3.07-13.64,3.18-20.97,1.7-4.89-.99-10.15-.08-15.25-.02l-.03-.16-.06.16c-6.15,3.2-12.22,6.56-18.47,9.53-4.88,2.32-9.82,5.21-15.02,6-15.09,2.3-27.21,9.37-36.79,20.9-12.63,15.2-19.86,32.88-23.2,52.27-.39,2.29-1.3,4.49-1.97,6.72-.5-.03-1-.06-1.51-.09-.47-1.3-.95-2.59-1.42-3.89.04-1.29.08-2.57.11-3.86.27-2.7.53-5.41.8-8.11.05-.67.1-1.33.15-2,.28-2.33.57-4.65.85-6.98.09-.09.25-.19.25-.28-.02-.24-.11-.48-.17-.72.65-3.28,1.91-7.48-1.87-8.85-2.98-1.08-7.32-.66-10.22.79-3.75,1.87-6.9,5.18-9.88,8.28-6.7,6.94-14.45,11.01-24.34,10.58-9.76-.42-17.67,3.79-24.63,10.28-4.86,4.54-6.76,10.22-8.25,16.59-2.5,10.63-6.13,21-9.37,31.45-.36,1.15-1.31,2.11-1.99,3.16-.43-.06-.86-.13-1.3-.19-.18-3.18-.35-6.35-.53-9.53.38-6.46,1.08-12.93,1.05-19.39-.02-5.9-3.19-7.53-8.08-4.15-3.65,2.52-6.74,5.84-10.08,8.8-.67.68-1.33,1.37-2,2.05-2.62,2.46-5.23,4.92-7.85,7.38l-3.54-10.53c5.11-4.5,9.83-9.6,15.46-13.32,4.4-2.91,9.96-4.05,14.96-6.08,3.01-1.23,6.26-2.23,8.85-4.1,9.71-7.03,19.1-14.56,30.73-18.34,2.99-.97,6.11-2.02,9.2-2.15,9.66-.4,16.49-5.56,22.45-12.43,1.53-1.76,2.95-3.62,4.53-5.33,6.9-7.44,10.14-7.88,20.56-1.31,4.27-4.45,8.92-9.29,14.28-14.88-14.5-8.77-23.21-19.96-28.15-34.09-4.55-.71-9.01-.8-13.01-2.2-4.44-1.56-8.97-3.7-12.55-6.68-5.42-4.51-7.28-10.55-4.2-17.53.86-1.94,1.16-4.13,1.72-6.21l.18-.06-.17-.07c-.14-4.28.64-8.83-.57-12.78-5.98-19.45-1.6-37.48,6.53-55.48-9.83-20.85-1.21-39.2,9-57.19,2.94-5.18,6.66-9.92,10.28-15.26-10.39-9.01-7.75-19.22-2.71-29.82,8.84-18.62,23.57-31.63,40.35-42.62,11.58-7.59,23.55-14.61,37.55-16.81,12.03-1.89,22.9.67,31.66,9.59,4.13,4.21,6.87,9.06,4.65,15.54,11.16,3.77,19.74,10.55,24.89,21.07,5.04,10.29,6.06,21.28,5.29,33.17,3.8-3.84,7.63-7.65,11.38-11.54,3.69-3.83,7.11-7.95,10.98-11.6,18.81-17.7,30.04-39.13,32.7-64.95,2.11-20.49,7.97-39.74,19.14-57.22,3.61-5.66,8.13-10.35,14.78-11.9,2.63-.61,6.22-.34,8.44,1.04,6.73,4.18,13.13,8.93,19.44,13.75,9.68,7.4,16.56,17.21,20.04,28.65,4.48,14.72,14.72,25.09,24.41,36.02.75.85,2.3,1.05,3.52,1.4,6.68,1.93,13.37,3.84,20.07,5.69,1.26.35,2.59.42,3.89.59,2.8.37,5.77.26,8.38,1.16,13.93,4.82,28.08,7.46,42.95,7.47,5.77,0,11.55,3.69,18.09,5.97,4.89-6.2,11.96-7.22,19.29-2.97,3.08,1.79,5.56,5.11,7.44,8.26.81,1.36-.57,4.04-.96,6.12-2-.68-4.22-1.02-5.93-2.14-1.73-1.14-2.69-3.65-4.48-4.47-1.65-.76-4.39-.72-5.84.21-.97.63-1.29,3.83-.58,5.2,1.58,3.05,3.68,5.96,6.1,8.41,6.33,6.43,8.65,13.58,5.46,22.31-.64,1.76-1.09,4.38-.24,5.74,4,6.41,5.69,13.31,5.05,21.55,2.57-1.68,4.27-2.95,6.11-3.97,5.42-2.98,11.12.23,10.53,6.34-.44,4.56-1.67,9.23-3.54,13.41-2.56,5.72-8.9,7.92-15.33,6.1-2.55-.72-5.01-1.75-8.84-3.11-.41,2.69-1.72,5.41-.97,7.3,4.14,10.36,2.19,20.1-1.38,30.13-2.48,7-4.6,14.4-5.14,21.75-.44,6.05,1.2,12.41,2.79,18.4,1.65,6.22,4.44,12.13,6.53,18.24,1.07,3.12.8,6.45-2.98,7.24-3.43.72-4.11-2.44-4.95-5.06-1.06-3.32-1.98-6.79-3.67-9.79-9.05-16.06-8.49-32.43-2.21-49.14,1.35-3.58,3.08-7.18,3.5-10.89.55-4.98,1-10.38-.35-15.06-1.6-5.53-1.87-10.56.75-15.41,5.82-10.76,6.14-21.59,1.21-32.63-3.26-7.3-.99-13.94,1.99-19.54-4.39-7.06-8.23-13.44-12.27-19.68-6.12-9.44-15.53-11.24-25.82-10.82h0c-8.15-2.24-16.46-4.01-24.39-6.85-7.59-2.72-14.79-3.4-22.29-.24-16.4,6.9-32.82,13.74-49.26,20.53-1.86.77-3.91,1.06-5.87,1.57-.41-.49-.82-.98-1.23-1.46.96-1.57,1.68-3.35,2.91-4.67,6.19-6.65,12.64-13.06,18.7-19.82,1.54-1.72,1.98-4.41,2.93-6.66-.47-.23-.94-.47-1.41-.7-1.61,1.97-2.98,4.26-4.92,5.82-1.5,1.21-4.16,2.54-5.52,1.96-1.74-.74-3.39-3.19-3.81-5.17-.45-2.09.34-4.58,1.03-6.75,2.06-6.49,1.95-8.89-1.38-14.49-.96.29-2.04.95-3.05.85-1.98-.19-4.84-.19-5.66-1.4-1.03-1.53-1.16-4.54-.35-6.3,3.9-8.47,2.42-17.87-4.36-24.5-.14.08-.34.13-.4.25q-5.56,10.26-16.47,5.24c-2.56-1.17-5.24-2.11-7.74-3.4-1.59-.82-3.63-1.79-4.27-3.22-2.93-6.54-5.44-13.28-8.37-20.6-1.88,2.11-4.91,4.5-6.65,7.61-14.6,26.23-18.87,58.59,6.86,84.62,2.34,2.37,4.96,4.58,6.79,7.3,1.39,2.07,3.01,5.37,2.26,7.18-1.48,3.57-5.14,2.28-7.81.89-6.85-3.56-14.12-3.66-21.46-2.85-11.76,1.3-20.95,8.15-30.18,14.68-4.41,3.12-8.38,6.86-12.55,10.33l.86,1.76c7.77-2.49,15.73-4.5,23.25-7.6,7.89-3.25,15.39-6.91,24.38-5.65,8.75,1.22,14.61,6.13,18.67,13.42.89,1.59.04,4.16-.02,6.27-2.05-.46-4.78-.25-6.04-1.5-4.48-4.47-9.74-5.96-15.84-6.03-5.41-.06-10.15,1.23-14.28,4.83-7.01,6.12-15.66,7.21-24.39,6.96-6.59-.19-10.34,2.97-13.82,7.97-2.62,3.76-6.27,6.81-10.58,11.35,5.01,10.79,1.66,23.35-.49,36.12-.67,3.98,1.37,8.81,3.24,12.73,3.57,7.47,4.14,14.81.3,22.05-5.7,10.75-6.13,21.29-1.31,32.58,4.93,11.57,4.6,24.07,4.48,36.93,18.99-7.99,38.41-13.53,58.44-16.85.63-.13,1.25-.25,1.88-.38,5.06-.61,10.12-1.22,15.18-1.83,1.26-.08,2.51-.16,3.77-.24,55.24-4.23,107.44,7.95,158.11,28.87,9.97,4.12,20.18,7.86,30.6,10.59,7.76,2.03,16.02,2.15,24.95,3.22.78-11.81,1.5-22.53,2.21-33.26h.21s-.21-.04-.21-.04c.63-16.89,1.26-33.79,1.89-50.68.02-2.23.03-4.46.05-6.68-.05-4.98-.1-9.96-.15-14.93.06-1.63.12-3.26.18-4.88-.68-19.24-1.36-38.48-2.04-57.72l.22-.02-.23-.04c-3.17-29.35-6.34-58.69-9.5-88.04v-.1c-2.81-15.27-5.61-30.53-8.42-45.8,4.62-.47,9.23-.94,13.85-1.41,3.13,17.5,6.26,35,9.27,51.86,10.05.52,19.8,1.02,26.16,7.79,9.82,0,18.59-.48,27.28.11,12.42.85,22.55,6.71,30.31,16.38,9.77,12.18,20.58,23.71,26.56,38.44,2.36,5.81,4.25,11.92,5.4,18.07,1.78,9.58,5.65,17.75,13.4,23.76,14.16,10.98,19.65,25.48,19.65,43.19,0,12.2-1.83,22.74-8.04,33.91-6.45,11.61-8.69,25.7-11.85,38.93-2.37,9.9-5.78,18.71-14.35,24.81-.67.48-1.24,1.12-1.77,1.76-6.31,7.67-12.61,15.35-19.34,23.54,6.06,3.08,12.11,6.47,18.41,9.3,14.05,6.31,26.78,14.69,39.39,23.45,10.62,7.37,22.07,13.55,33.09,20.37,7.91,4.9,15.93,9.66,23.46,15.08,5.41,3.89,10.73,7.16,17.61,7.31,1.75.04,3.48,1,5.22,1.53-.67,3.1-1.33,6.2-2,9.3Zm-218.42-205.9c.19,1.63.38,3.25.57,4.88-.32.09-.42.29-.3.6-.08,2.15-.16,4.3-.24,6.45-.02,2.43-.04,4.86-.05,7.29-.05,3.3-.1,6.6-.15,9.9-1.46,24.2-2.91,48.39-4.38,72.74,4.49-.02,3.56-3.5,3.85-5.41,3.18-21.07,6.13-42.18,9.14-63.28.23-1.97.47-3.95.7-5.92.14-1.92.29-3.85.43-5.77,4.4-.18,8.81-.35,13.21-.53-3.4,28.24-6.81,56.49-10.29,85.4,1.27-2.47,2.43-4.55,3.43-6.71,6.49-14.01,12.62-28.2,19.5-42.02,5.9-11.86,12.63-23.31,18.99-34.94,4.63-.27,8.62.88,11.24,5.06-13.53,26.57-27.47,52.94-38.63,80.21,15.75,1.87,31.04,3.68,48.04,5.69,4.97-5.8,11.27-13.08,17.46-20.45.92-1.1,1.98-2.62,1.94-3.91-.15-5.27,2.77-8.8,6.33-11.93,6.54-5.75,9.46-12.99,9.94-21.57.67-12.16,1.77-24.21,8.42-35.06,1.25-2.04,1.11-5.51.46-8.03-2.03-7.92-1.79-15.36,2.04-22.78,1.08-2.09,1.25-5.09.78-7.47-2.14-10.91-9.91-18.05-16.75-24.63-6.97,7.93-13.75,15.85-20.79,23.53-1.76,1.92-4.34,3.47-6.99.89-2.65-2.58-1.69-5.24.3-7.55,3.37-3.9,7.35-7.34,10.36-11.48,3.17-4.35,7.16-9.07,7.87-14.04,1.53-10.73.06-21.44-4.27-31.76-5.38-12.84-14.53-22.98-22.46-34.05-9.28-12.97-21.84-18.16-37.35-18.34-9.24-.1-15.42,4.22-20.2,11.45-.92,1.38-1.7,2.86-2.46,4.34-1.45,2.84-3.24,5.64-6.85,3.77-3.32-1.72-2.9-4.92-1.52-7.88,2.03-4.34,4.16-8.64,6.79-14.06-5.94-1.98-11.51-3.83-16.38-5.45,2.37,30.8,4.73,61.48,7.09,92.15h0c.4,13.59.81,27.19,1.21,40.79,0,2.62,0,5.23,0,7.85,0,.67,0,1.34,0,2.01Zm-382.07,61.53c-.03-.8-.05-1.59-.08-2.39,1.24-4.35,3.32-7.79,8.99-8.34.75,4.1,1.44,7.88,2.33,12.76,1.98-2.29,3.51-3.58,4.44-5.21,3.27-5.78,6.3-11.7,9.51-17.52,1.11-2.01,2.51-3.85,3.78-5.77.54.29,1.09.58,1.63.86,1.34,10.11-6.26,17.49-10.05,26.93,9.15-2.17,15.37-5.89,17.49-14.42.72-2.9,1.23-5.87,2.16-8.7.53-1.61,1.71-2.99,2.75-4.73,4.45,3.53,3.6,7.3,1.96,10.16-3.54,6.15-7.8,11.89-11.79,17.77-2.25,3.31-4.56,6.58-7.39,10.65,9.64,3.05,17.41-.27,23.84-.61,1.48-5.59,1.82-10.9,4.22-14.99,3.21-5.47,5.3-10.49,2.8-16.63h.33s-.33.04-.33.04c-.3-3.97-1.52-8.13-.73-11.87,1.8-8.56,4.27-17.01,7.07-25.3,1.48-4.35,2.35-7.92-.58-12.12-4.84-6.95-6.14-14.96-3.18-22.88,3.04-8.15,3.57-15.92.38-24.07-1.77-4.53-.89-9.98-5.04-13.76-.74-.68-1.01-2.73-.56-3.73,3.09-6.86,1.45-13.85.45-20.67-3.25-22.27-10.97-30.59-31.95-35.52-1.3-.31-3.22-1.37-3.38-2.33-.22-1.29.82-2.93,1.64-4.22.76-1.21,1.93-2.17,3.71-4.08-3.67-3.12-6.68-6.52-10.41-8.71-13.49-7.94-26.71-5.38-39.11,2.54-19.87,12.7-32.96,31.51-45.36,50.89,10.38,8.48,10.8,16.6,1.73,24.12-18.59,15.4-24.29,36.6-26.45,59.32-.2,2.08.8,4.27,1.54,7.83,2.5-2.92,3.96-4.63,5.42-6.34,5.39-6.33,10.61-12.82,16.28-18.88,1.2-1.28,4.71-2,5.98-1.17,1.45.95,2.38,4.01,2.12,5.97-.36,2.69-1.86,5.3-3.19,7.78-7.06,13.1-12.69,26.76-15.94,41.31-3.12,13.92-2.86,27.37,8.03,38.24,9.06,9.04,14.24,19.74,16.9,32.17,1.22,5.71,3.75,11.47,7,16.32,5.47,8.14,15.69,8.68,21.85,1.72-8.89-9.28-8.62-19.43-2.56-30.15,1.19-2.11,1.57-4.67,2.33-7.02l.3-.3-.14-.37c.19-2.75.38-5.5.56-8.25-.75-4.32-1.5-8.65-2.25-12.97l.05-.25-.2-.16c.48-.88.97-1.77,1.45-2.65,3.47-.9,5.3,1.43,5.87,3.99,1.04,4.64,1.68,9.45,1.81,14.2.14,5.17-.48,10.37-.77,15.56.54.27,1.09.54,1.63.81,6.99-6.53,14.07-12.96,20.85-19.7.9-.9.21-3.39.26-5.14Zm171.61-266.84v-11.36c-2.62.13-5.76.3-9.75.5,3.53,3.93,6.66,7.42,9.75,10.86Z"/>
    <path class="cls-1" d="m1617.03,413.9c-3.05-7.3-4.24-14.84-2.81-22.7,3.46-15.66,12.03-28.6,21.61-41.54-6.17,1.86-12.72,3.43-17.6,7.18-12.35,9.48-23.94,19.93-35.84,30-.53-.14-1.05-.28-1.58-.42.02-.85.04-1.7.06-2.55,0,0,.28-.27.28-.27l-.21-.32c1.38-7.88,4.82-14.84,10.56-20.29,6.18-5.88,12.93-11.17,19.44-16.72,4.9-2.7,9.8-5.4,14.7-8.1,1.68-.66,3.36-1.33,5.04-1.99l-.31-1.44c-19.67-8.16-39.64-6.15-59.7-1.04-.02-.54-.04-1.07-.06-1.61,2.65-1.7,5.1-3.88,7.97-5,8.92-3.51,18-6.61,27.02-9.88,2.67-.34,5.34-.69,8.01-1.03,1-.06,2-.13,3-.19,6,0,12-.01,18-.02.26-.29.52-.57.79-.86.46-6.88.92-13.75,1.39-20.63,3.77-10.6,9.56-19.58,19.95-24.88,1-.35,2-.71,3-1.06.59.09,1.18.17,1.77.26-5.42,6.36-9.7,13.3-11.09,21.72-.12.1-.34.2-.34.31,0,.29.07.59.12.88-1.67,8.15.02,15.8,3.52,23.85,10.54-14.81,22.8-26.65,40.97-30.52-12.01,13.95-19.69,30.25-26.84,46.87,0,.41,0,.81,0,1.22.81-.28,1.63-.55,2.44-.83,10.86-1.06,21.74-3.17,32.57-2.9,12.92.32,23.65,6.24,30.38,17.96.4.69.66,1.45,1.37,3.02-20.39-8.65-40.52-13.61-62.06-5.67,14.66,14.1,25.02,29.27,14.44,50.44-1.13-4.17-2.04-8.42-3.44-12.49-3.2-9.28-7.89-17.52-16.95-22.41-4.62.47-9.23.94-13.85,1.41-8.03,2.59-13.98,7.91-17.64,15.25-5.48,10.98-10.23,22.32-15.38,33.46-.61,1.32-1.8,2.37-2.72,3.54Z"/>
    <path class="cls-1" d="m1485.14,560.4c.58,1.78,1.16,3.56,1.74,5.34.59.22,1.18.44,1.76.65,2.7-3.35,5.9-6.42,8.01-10.11,4.18-7.32,7.69-15.02,11.65-22.46.81-1.52,2.37-2.63,3.59-3.93.58,0,1.16,0,1.74,0,.42,2.06,1.47,4.24,1.11,6.15-.66,3.56-2.08,6.99-3.3,10.44-2.02,5.75-1.2,10.91,3.41,15.03,2.82,2.52,3.02,4.94.72,7.74-3.25,3.96-6.36,7.74-7.73,13.08-1.14,4.45-5.11,3.93-8.7,1.17-3.5,12.99-15.29,17.48-24.27,24.7-.91.73-3.16-.19-4.79-.35.33-1.63.1-3.9,1.1-4.77,3.23-2.83,6.91-5.14,10.41-7.67,3.89-2.82,8.06-5.4,9.29-11.22-9.31-4.16-11.37-13.94-16.49-22.18-10.04-.44-19.41-3.87-28.65-8.32-2.58-1.25-6.92.62-10.27,1.65-3.13.96-5.91,3.22-9.06,3.86-1.67.34-3.8-1.54-5.72-2.42.84-1.78,1.21-4.25,2.61-5.2,3.36-2.29,7.21-3.86,10.29-5.43-1.15-6.19-2.55-11.5-2.98-16.89-.24-2.98.68-6.3,1.91-9.1,1.68-3.83,5.24-3.83,7.04-.03,1.47,3.11,2.26,6.59,3.07,9.97,4.67,19.35,15.98,27.07,35.76,24.33,1.78-.25,3.58-.32,5.88-.52.34,1.9.62,3.46.9,5.03-.01.49-.03.99-.04,1.48Z"/>
    <path class="cls-1" d="m1406.44,558.89c-1.3,8.88-5.66,14.24-14.18,15.89-2.94.57-6.54,1.18-7.49-2.73-.95-3.88,1.98-4.74,5.31-5.45,6.24-1.33,8.82-7.21,6.17-13.06-5.6-12.4-1.81-30.09,9.3-40.83,3.89-3.77,8.56-6.86,13.22-9.68,6.84-4.13,12.62-9.14,16.67-16.1.99-1.7,2.11-3.59,3.68-4.62,1.39-.92,4.48-1.61,5.05-.92,1.1,1.32,1.87,4.15,1.16,5.53-4.78,9.31-11.56,16.87-20.35,22.81-4,2.7-7.78,6.38-10.32,10.45-4.53,7.27-4.78,15.06.45,22.47,2.4,3.4,4.47,7.47,1.44,10.97-2.04,2.36-5.86,3.17-10.1,5.28Z"/>
    <path class="cls-1" d="m1550.7,445.87c-5.58-.29-9.81,2.02-13.26,6.38-1.71,2.17-3.82,4.21-6.17,5.59-1.14.67-3.89.23-4.74-.73-.85-.97-.95-3.72-.16-4.83,5.45-7.75,10.85-15.73,21.89-15.98,1.77-.04,3.73-.5,5.26-1.38,8.2-4.71,16.99-3.99,25.74-2.82,2.15.29,4.89,1.88,5.78,3.66.54,1.1-1.69,3.89-3.12,5.53-1.03,1.18-2.74,1.82-4.23,2.52-7.33,3.48-14.66,6.95-22.04,10.33-3.27,1.5-7.39,4.02-9.81-.03-2.68-4.47,2.56-5.44,5.06-7.43-.06-.27-.12-.54-.18-.8Z"/>
    <path class="cls-1" d="m1552.7,526.41c12.63-.56,23.12,3.46,31.02,13.78,5.86,7.66,12.61,14.14,23.09,15.13,1.42.13,2.6,2.81,3.89,4.3-1.71,1.3-3.37,3.64-5.14,3.72-6.93.33-13.03-2.51-18.23-6.9-3.42-2.88-6.57-6.15-9.43-9.58-9.47-11.39-21.22-14.81-35.2-9.93-2.04.71-4.02,2-6.08,2.12-1.98.11-4.02-.95-6.04-1.49.84-2.06,1.16-5.36,2.61-5.96,5.14-2.13,10.65-3.38,16.04-4.87,1.1-.3,2.31-.21,3.47-.3Z"/>
    <path class="cls-1" d="m1620.09,631.4c-3.29,1.51-5.17,2.81-7.21,3.16-1.21.21-2.81-.9-4.01-1.74-8.61-6.01-18.34-9.22-28.39-11.73-13.52-3.37-26.21-8.56-37.06-17.58-1.15-.95-2.77-1.79-3.22-3.02-.63-1.75-1.05-4.21-.25-5.63.52-.93,3.39-.88,5.13-.68,1.19.14,2.37,1.19,3.36,2.05,10.6,9.23,23.5,13.24,36.67,17.17,9.61,2.87,18.72,7.53,27.9,11.72,2.21,1.01,3.82,3.32,7.08,6.28Z"/>
    <path class="cls-1" d="m1606.9,473.47c.54-3.06-1.04-7.8,3.61-8.08,4.58-.28,4.09,4.53,4.59,7.57,2.12,12.96-1.06,25.17-6.45,36.74-2.79,5.99-4.96,11.44-1.9,17.99.77,1.64-.32,4.15-.6,6.75-6.05-3.07-8.78-10.84-7.23-17.61.37-1.62.8-3.26,1.52-4.74,3.9-8.04,1.72-15.09-3.17-21.88-4.96-6.9-4.22-8.37,3.87-10.85,2.15-.66,3.75-3.12,5.6-4.75.1-.1.29-.21.29-.31,0-.27-.08-.54-.13-.81Z"/>
    <path class="cls-1" d="m1576.64,463.73c-1.21,4.47-3.8,5.54-7.12,4.84-9.61-2.04-18.25.35-26.9,4.6-5.89,2.9-12.38,4.77-18.78,6.35-1.88.47-5.7-1.07-6.36-2.64-1.4-3.35,2.07-4.05,4.55-5.03,7.4-2.9,14.96-5.49,22.07-8.99,9.08-4.47,18.37-4,27.79-2.42,1.79.3,3.31,2.24,4.74,3.28Z"/>
    <path class="cls-1" d="m1454.9,621.15c-1.26.08-2.51.16-3.77.24,1.26-.08,2.51-.16,3.77-.24Z"/>
    <path class="cls-1" d="m1485.14,560.4c.01-.49.03-.99.04-1.48-.01.49-.03.99-.04,1.48Z"/>
    <path class="cls-1" d="m1435.96,623.22c-.63.13-1.25.25-1.88.38.63-.13,1.25-.25,1.88-.38Z"/>
    <path class="cls-1" d="m1661.53,268.8c-.59-.09-1.18-.17-1.77-.26.7-.15,1.39-.3,2.09-.44.01.31-.09.54-.32.7Z"/>
    <path class="cls-1" d="m1650.22,291.71c-.05-.29-.13-.59-.12-.88,0-.11.22-.21.34-.31-.07.4-.15.8-.22,1.19Z"/>
    <path class="cls-1" d="m1606.9,473.47c.05.27.13.54.13.81,0,.1-.19.21-.29.31.05-.37.1-.75.16-1.12Z"/>
    <path class="cls-1" d="m1550.7,445.87c.06.27.12.54.18.8-.26-.23-.32-.5-.18-.8Z"/>
    <path class="cls-1" d="m1670.32,332.3c-.81.28-1.63.55-2.44.83,0-.41,0-.81,0-1.22.82.13,1.63.26,2.45.39Z"/>
    <polygon class="cls-1" points="1670.7 495.58 1670.93 495.62 1670.71 495.64 1670.7 495.58"/>
    <polygon class="cls-1" points="1670.78 630.54 1670.98 630.57 1670.77 630.58 1670.78 630.54"/>
    <polygon class="cls-1" points="1198.75 632.48 1198.91 632.55 1198.74 632.61 1198.75 632.48"/>
    <polygon class="cls-1" points="1670.05 553.74 1669.94 553.76 1669.97 553.58 1670.05 553.74"/>
    <path class="cls-1" d="m1234.9,748.61c-.04,1.29-.08,2.57-.11,3.86.04-1.29.08-2.57.11-3.86Z"/>
    <path class="cls-1" d="m1235.85,738.51c-.05.67-.1,1.33-.15,2,.05-.67.1-1.33.15-2Z"/>
    <path class="cls-1" d="m1236.79,730.53c.06.24.15.48.17.72,0,.09-.16.19-.25.28.03-.33.05-.66.08-1Z"/>
    <path class="cls-1" d="m1448.24,642.26l-.05.06.05-.06Z"/>
    <polygon class="cls-1" points="1333.17 661.03 1333.23 660.86 1333.26 661.03 1333.17 661.03"/>
    <path class="cls-1" d="m1532.03,1156.12c-14.67-3.63-19.17-14.57-18.08-26.5,1.29-14.1,10.9-23.55,24.41-24.67,15.6-1.29,26.03,6.18,29.42,21.47,2.99,13.46,2.72,26.82-3.02,39.6-7.33,16.34-25.65,24.2-42.99,18.66-.1-.31-.26-.62-.27-.94-.02-2.82-.01-5.63-.01-8.88,9.88,2.12,19.55,3.22,27.8-4.14,4.48-4,7.71-11.27,8.17-18.5-8.03,4.92-16.59,5.51-25.45,3.85v.03Zm-6.68-27.58l-.16.05.17.04c-1.31,8.98,2.35,15.75,10.36,17.89,8.05,2.15,15.83,1.46,23.11-4.97-.7-4.52-1.12-9.47-2.27-14.25-2.11-8.78-7.87-13.27-15.87-12.94-8.49.36-13.5,4.98-15.35,14.18Z"/>
    <path class="cls-1" d="m1635.56,1106.64v9.81c-9.11-2.16-17.94-3.07-25.76,3.06-5.97,4.68-8.51,11.18-9.89,18.82,4.33-1.31,8.26-3.3,12.3-3.53,5.52-.31,11.44-.27,16.62,1.4,10.93,3.51,16.04,13.64,14.59,26.46-1.4,12.38-10.41,21.79-22.37,23.39-15.04,2-26.45-4.7-30.76-19.16-4.71-15.77-3.57-31.32,4.81-45.81,7.64-13.2,25.72-19.52,40.46-14.45Zm-36.66,42.84c1.06,5.97,1.34,12.22,3.38,17.82,2.62,7.2,8.54,10.06,15.77,9.34,7.55-.74,11.49-4.26,13.63-12.15.09-.09.25-.18.25-.27,0-.24-.09-.48-.14-.72,1.2-9.62-1.29-16.25-7.97-18.25-8.68-2.6-17.3-2.22-24.75,4.02l-.17.2Z"/>
    <path class="cls-1" d="m1483.9,1156.6c-3.7-10.85-13.14-9.45-21.95-10.05v-7.97c4.49-1.03,8.97-1.66,13.16-3.12,5.46-1.91,8.05-6.42,7.45-11.6-.56-4.86-4.05-8.67-9.96-8.66-6.19.01-12.41,1.34-18.54,2.55-2.69.53-5.16,2.17-8.26,3.55v-11.09c10.86-4.96,22.43-7.34,34.55-3.89,8.42,2.4,12.89,7.88,13.5,15.43.67,8.29-2.97,14.48-10.87,18.51-.72.37-1.46.7-2.99,1.43,8.02,2.01,13.47,6.19,15.15,13.81,1.6,7.27.87,14.53-4.18,20.29-2.86,3.26-6.63,6.27-10.6,7.92-10.93,4.53-25.79,2.93-36.16-3.01,0-3.58,0-7.15,0-11.65,7.54,5.26,15.16,7.42,23.49,7.23,12.22-.27,18.22-7.47,16.19-19.6l.17-.04-.17-.03Z"/>
    <path class="cls-1" d="m1392.81,1125.59c-4.93-.3-9.86-.61-15.34-.95-.26-2.28-.54-4.64-.84-7.24,8.15-1.16,16.76-.82,18.59-11.31h8.16v69.7h15.83v8.53h-42.32v-8.23h15.98v-47.37c-.02-1.04-.04-2.09-.06-3.13Z"/>
    <path class="cls-1" d="m1392.81,1125.59c.02,1.04.04,2.09.06,3.13-.02-1.04-.04-2.09-.06-3.13Z"/>
    <path class="cls-1" d="m1532.03,1156.12v-.03s0,.03,0,.03Z"/>
    <polygon class="cls-1" points="1483.9 1156.6 1484.07 1156.63 1483.89 1156.67 1483.9 1156.6"/>
    <path class="cls-1" d="m1774.65,546.77c1.65.02,3.31.04,4.96.07l.28.26s.37-.07.37-.07c-1.05.84-1.99,1.94-3.18,2.48-7.25,3.29-13.23,7.71-15.14,16.01,1.07-.12,2.13-.24,3.2-.36,8.41-1.71,16.72-2.21,24.51,1.54-9.05,3.51-18.12,7.03-27.2,10.55.03.51.05,1.01.08,1.52,11.87,6.14,24.19,11.94,22.65,28.46-.33.08-.42.29-.29.61-.87-1.02-1.97-1.92-2.59-3.08-4.77-8.96-11.56-15.64-21.22-19.18-.42.03-.84.05-1.27.07l.33.9c-.57,5.4-.63,10.92-1.88,16.16-1.06,4.45-4.47,7.53-9.56,9.19,1.48-4,3.34-7.42,3.89-11.04.48-3.16-.52-6.55-.87-9.84-2.62-4.18-6.61-5.34-11.24-5.06-1.16-.45-2.54-1.57-3.43-1.25-5.71,2.03-11.31,4.37-16.95,6.61l-.23.11.1.22c-.58,10.68-1.09,12.07-5.01,14-.37-7.58-.59-15.24-6.12-21.42-4.4.18-8.81.35-13.21.53-3.25,2.55-6.5,5.1-9.75,7.65.05-3.3.1-6.6.15-9.9,2.01-2.32,4.02-4.64,6.31-7.29h-6.26c.08-2.15.16-4.3.24-6.45.33-.16.66-.32.99-.48,1.72-.36,3.45-.73,6.68-1.41-3.34-2.16-5.48-3.55-7.63-4.94.03-.26-.07-.48-.3-.67,0-2.62,0-5.23,0-7.85,3.83.99,7.66,1.97,11.92,3.07,2-11.29,7.41-19.66,19.53-22.15-6.92,6.59-11.76,13.91-10.11,24.03,6.43-3.67,12.5-7.13,18.67-10.65-1.56-.88-3.47-1.96-5.38-3.04,13.18.57,24.09,5.97,33.32,15.33,4.84-6.7,10.38-12.04,18.86-13.02.58-.07,1.15-.13,1.73-.2Zm-44.31,24.16l-.23-.23-.25.2-2.32-.35c-1.49-.11-2.98-.23-4.47-.34-.03.21-.06.42-.1.63,1.49.31,2.98.62,4.47.94,4.83,1.4,9.66,2.8,14.49,4.2.2-.86.39-1.72.59-2.59-4.06-.82-8.12-1.64-12.18-2.45Zm-12.77-7.51c9.65.94,18.77,1.83,29.55,2.89-5.53-5.78-10.37-10.83-15.36-16.04-5.3,4.91-9.74,9.03-14.19,13.15Zm12.01,15.17c-5.8-.94-10.22-1.65-15.68-2.54,1.86,3.58,3.19,6.14,4.45,8.57,3.54-1.9,6.69-3.59,11.23-6.04Z"/>
    <path class="cls-1" d="m1694.53,596.42c.23-1.97.47-3.95.7-5.92-.23,1.97-.47,3.95-.7,5.92Z"/>
    <path class="cls-1" d="m1304.03,624.78c-.03-.8-.05-1.59-.08-2.39.03.8.05,1.59.08,2.39Z"/>
    <path class="cls-1" d="m1686.41,561.92c-.1.45-.21.89-.31,1.34,0-.67,0-1.34,0-2.01.23.19.33.41.3.67Z"/>
    <polygon class="cls-1" points="1360.63 604.6 1360.63 604.65 1360.96 604.59 1360.63 604.6"/>
    <polygon class="cls-1" points="1684.89 512.61 1685.1 512.6 1684.89 512.6 1684.89 512.61"/>
    <path class="cls-1" d="m1274.61,640.03c0-.24.05-.46.16-.67l.14.37-.3.3Z"/>
    <path class="cls-1" d="m1447.3,833.68c1.01,7,2.03,14,3.17,21.84-6.51.88-12.91,2.17-19.36,2.45-3.48.15-7.5-6.62-8.01-11.86,1.12-4.76,3.4-8.41,8.65-9.4,5.19-.98,10.38-2.02,15.56-3.03Z"/>
    <path class="cls-1" d="m1433.97,869.56c-.52.08-1.03.17-1.55.25.52-.08,1.03-.17,1.55-.25Z"/>
    <path class="cls-1" d="m1253.17,922.1c2.63,3.56,5.26,7.13,8.3,11.26-7.26,5.79-14.05,11.2-21.23,16.93-4.55-5.1-10.19-8.28-10.32-15.35,1.91-3.3,3.22-7.23,5.87-9.75,3.78-3.58,8.54-6.12,12.89-9.11,0,0-.06-.04-.06-.04,1.51,2.02,3.03,4.04,4.54,6.07Z"/>
    <path class="cls-1" d="m1529.81,862.14l-4.21.65,4.21-.65Z"/>
    <path class="cls-1" d="m1741.5,1043.52c-1.37,5.89-5.65,7.87-10.47,4.32-3.8-2.8-7.01-6.4-10.49-9.64,1.85-2.92,3.7-5.84,5.77-9.11,5.63,5.35,10.41,9.89,15.18,14.43Z"/>
    <path class="cls-1" d="m1751.56,1030.58c-1.18,4.85-4.08,6.42-8.59,3.58-3.94-2.47-7.16-6.11-10.69-9.22,1.64-2.78,3.27-5.57,5.06-8.6,2.96,2.54,5.09,4.35,7.19,6.19,2.08,1.83,4.12,3.69,6.18,5.54,0,0-.04-.04-.04-.04.3.85.6,1.71.9,2.56Z"/>
    <path class="cls-1" d="m1391.06,979.84c-7.78,7.65-20.81,4.4-25.38-6.32-.5-11.13,2.66-16.19,12.45-18.17,4.36-.88,9.03-.25,13.55-.31,0,0-.04-.03-.04-.03.51.36,1.02.72,1.54,1.07,4.71,5.04,5.83,10.61,3.59,17.83-3.59,1.11-9.18-4.51-10.85,3.18,1.71.92,3.42,1.83,5.13,2.75Z"/>
    <path class="cls-1" d="m1482.4,935.44c.3,3.87-1.85,5.96-5.33,6.52-5.54.89-11.14,1.43-16.72,2.12-.55-3.05-1.1-6.1-1.9-10.55,8.19-.16,15.72-.3,23.24-.45,0,0-.1-.04-.1-.04.27.8.53,1.6.8,2.4Z"/>
    <path class="cls-1" d="m1285.9,1030.22c-2.78,3.17-5.55,6.35-9.35,10.68-1.88-6.56-3.38-11.79-4.88-17.02,4.74,2.11,9.49,4.23,14.23,6.34Z"/>
    <path class="cls-1" d="m1518.15,932.95c1.74,4.22,3.48,8.43,5.67,13.75-4.58-.2-8.4-.38-12.21-.55,2.18-4.4,4.36-8.8,6.54-13.21Z"/>
    <path class="cls-1" d="m1428.7,947.95c1.78,2.04,3.57,4.08,5.84,6.68-4.76,1-8.57,1.79-12.37,2.59.31-3.72.48-7.45,1.03-11.13.12-.78,1.63-1.35,2.49-2.02l-.06-.04c.68,1.02,1.37,2.04,2.05,3.07l-.07-.04c.36.3.72.6,1.08.9Z"/>
    <path class="cls-1" d="m1635.42,315.11c-.26.29-.52.57-.79.86.26-.29.52-.57.79-.86Z"/>
    <path class="cls-1" d="m1582.4,386.84c-.53-.14-1.05-.28-1.58-.42.53.14,1.05.28,1.58.42Z"/>
    <polygon class="cls-1" points="1580.88 383.87 1580.73 383.56 1580.95 383.29 1581.16 383.6 1580.88 383.87"/>
    <polygon class="cls-1" points="1525.35 1128.54 1525.36 1128.62 1525.19 1128.58 1525.35 1128.54"/>
    <path class="cls-1" d="m1631.68,1164.5c.04-.33.08-.66.12-.99.05.24.13.48.14.72,0,.09-.16.18-.25.27Z"/>
    <polygon class="cls-1" points="1599.07 1149.28 1599.13 1149.5 1598.9 1149.48 1599.07 1149.28"/>
    <path class="cls-1" d="m1263.11,512.68c-3.67-7.58-3.19-10.16,4.04-14.8,6.71-4.3,13.68-8.21,20.72-11.96,2.36-1.25,5.27-1.46,6.92-1.89-2.22,13.66-4.39,27.03-6.56,40.41l-1.7.07c-1.12-3.16-2.06-6.4-3.39-9.46-2.18-5.01-4.9-5.68-8.57-1.62-2.49,2.75-4.68,6.17-5.79,9.68-2.41,7.6-4.09,15.43-5.98,23.19-1.81,7.45-1.13,14.75.64,22.21,3.47,14.6-.05,28.39-6.21,41.63-.99,2.12-2.92,3.8-4.42,5.69-.47-.24-.93-.48-1.4-.72.45-1.37.67-2.86,1.38-4.08,5.48-9.36,6.18-18.66,2.15-29.07-8.37-21.63-3.49-42.54,5.33-62.92.79-1.83,1.73-3.6,2.58-5.4.14-.3.18-.64.26-.96Z"/>
    <path class="cls-1" d="m1337.05,550.16c.28,1.89,1.14,3.92.74,5.64-2.15,9.2-6.39,17.11-14.9,22.08-1.72,1.01-3.37,2.14-5.11,3.12-6.85,3.87-11.42,9.34-13.28,17.2-1.17,4.92-3.79,9.18-8.69,11.6-3.75-1.48-3.68-3.64-1.85-6.66,2.14-3.51,4.22-7.13,5.74-10.93,2.62-6.57,6.41-12.09,12.64-15.54,9.31-5.16,17.19-11.36,19.51-22.59.31-1.52,2.05-2.76,3.13-4.12.69.07,1.39.13,2.08.2Z"/>
    <path class="cls-1" d="m1267.75,617.08c-1.07,1.66-2.14,3.32-3.21,4.98-2.39,1.34-4.44,1.33-5.83-1.43h-.02c4.9-17.2,17.32-27.8,31.94-36.48,1.57-.93,3-2.26,4.69-2.76,1.15-.34,3.21.05,3.79.87.58.81.31,3.02-.44,3.84-1.65,1.81-3.79,3.19-5.81,4.64-4.45,3.19-9.01,6.24-13.42,9.49-5.8,4.27-9.62,9.97-11.71,16.85Z"/>
    <path class="cls-1" d="m1258.7,620.62h.02s-.02,0-.02,0Z"/>
    <path class="cls-1" d="m1765.15,565.14c-1.07.12-2.13.24-3.2.36,1.07-.12,2.13-.24,3.2-.36Z"/>
    <path class="cls-1" d="m1774.65,546.77c-.58.07-1.15.13-1.73.2.58-.07,1.15-.13,1.73-.2Z"/>
    <path class="cls-1" d="m1784.9,607.82c-.13-.33-.03-.53.29-.61l.08.41-.37.2Z"/>
    <polygon class="cls-1" points="1780.27 547.01 1779.89 547.09 1779.61 546.83 1780.01 546.67 1780.27 547.01"/>
    <path class="cls-1" d="m1727.53,570.55c-.03.41-.07.81-.1,1.22-1.49-.31-2.98-.62-4.47-.94.03-.21.06-.42.1-.63,1.49.11,2.98.23,4.47.34Z"/>
    <polygon class="cls-1" points="1720.14 591.29 1720.29 591.56 1720.01 591.63 1719.91 591.41 1720.14 591.29"/>
    <path class="cls-1" d="m1760.16,586.52l-.33-.9c.42-.02.84-.05,1.27-.07-.31.32-.62.65-.94.97Z"/>
    <polygon class="cls-1" points="1730.33 570.93 1730.08 571.07 1729.85 570.9 1730.1 570.7 1730.33 570.93"/>
    <polygon class="cls-1" points="1059.92 268.54 1155.33 245.64 1195.24 208.07 1247.2 177.01 1253.17 198.47 1212.02 236.9 1115.97 277.39 1059.92 280.34 1059.92 268.54"/>
    <g>
      <path class="cls-1" d="m143.75,714.6c-22.47,0-40.98-.88-55.52-2.64-14.54-1.77-25.94-4.91-34.2-9.42-8.26-4.52-14.05-11.24-17.35-20.16s-4.96-20.55-4.96-34.87c0-8.38.38-16.97,1.16-25.78.77-8.81,1.93-17.4,3.47-25.78,1.54-8.37,3.41-15.75,5.62-22.14l31.73,5.29c-2.87,11.02-5.18,21.59-6.94,31.73-1.77,10.14-2.64,19.71-2.64,28.75,0,7.93.27,14.87.83,20.82.55,5.95,1.6,11.78,3.14,17.52h93.19c18.06,0,32.27-.5,42.63-1.49,10.35-.99,17.68-2.76,21.98-5.29,4.3-2.54,6.44-6.11,6.44-10.74v-61.14l-45.61-5.29c-14.76-1.54-26.06-4.57-33.87-9.09-7.82-4.51-13.22-11.12-16.19-19.83-2.97-8.7-4.46-20.21-4.46-34.53,0-12.34.99-22.8,2.97-31.4s5.34-15.48,10.08-20.65c4.73-5.17,11.18-8.92,19.33-11.24,8.15-2.31,18.51-3.47,31.06-3.47,22.91,0,44.83,2.2,65.76,6.61l-5.62,34.7c-11.02-1.76-20.77-3.03-29.25-3.8-8.48-.77-17.02-1.16-25.61-1.16-6.83,0-13,.11-18.51.33-5.51.22-10.69.66-15.53,1.32v54.53l50.56,5.29c12.56,1.32,22.25,4.24,29.08,8.76,6.83,4.52,11.57,10.96,14.21,19.33,2.64,8.38,3.96,19.17,3.96,32.39v24.12c0,13.22-1.71,24.23-5.12,33.05-3.42,8.81-9.48,15.75-18.18,20.82-8.71,5.07-20.99,8.76-36.85,11.07-15.86,2.31-36.14,3.47-60.81,3.47Zm-17.18,57.83c-2.43,0-5.24-1.16-8.43-3.47-3.2-2.31-6.01-5.12-8.43-8.43-2.43-3.3-3.64-6.17-3.64-8.59,0-2.64,1.21-5.51,3.64-8.59,2.42-3.09,5.17-5.78,8.26-8.1,3.08-2.31,5.95-3.58,8.59-3.8,2.64.22,5.56,1.49,8.76,3.8,3.19,2.31,5.95,5.01,8.26,8.1,2.31,3.08,3.47,5.95,3.47,8.59,0,2.42-1.21,5.23-3.64,8.43-2.43,3.19-5.18,6-8.26,8.43-3.09,2.42-5.95,3.64-8.59,3.64Zm51.22,0c-2.43,0-5.24-1.16-8.43-3.47-3.2-2.31-6.01-5.12-8.43-8.43-2.43-3.3-3.64-6.17-3.64-8.59,0-2.64,1.16-5.51,3.47-8.59,2.31-3.09,5.07-5.78,8.26-8.1,3.19-2.31,6.11-3.58,8.76-3.8,2.64.22,5.56,1.49,8.76,3.8,3.19,2.31,5.95,5.01,8.26,8.1,2.31,3.08,3.47,5.95,3.47,8.59,0,2.42-1.21,5.23-3.64,8.43-2.43,3.19-5.18,6-8.26,8.43-3.09,2.42-5.95,3.64-8.59,3.64Z"/>
      <path class="cls-1" d="m299.41,622.39v-36.68h109.39c-4.85-18.51-9.37-33.65-13.55-45.44-4.19-11.78-8.59-20.82-13.22-27.1-4.62-6.28-9.97-10.63-16.03-13.05-6.06-2.42-13.38-3.64-21.98-3.64-4.41,0-9.14.33-14.21.99-5.07.66-9.7,1.54-13.88,2.64l-9.25-35.36c6.17-1.54,12.56-2.7,19.17-3.47,6.61-.77,12.67-1.16,18.18-1.16,11.9,0,22.09.88,30.57,2.64,8.48,1.77,15.91,5.18,22.31,10.24,6.39,5.07,12.23,12.56,17.52,22.47,5.29,9.91,10.52,22.86,15.7,38.83,5.17,15.98,11.07,35.86,17.68,59.65v28.42h-148.38Z"/>
      <path class="cls-1" d="m495.05,622.39v-208.2h32.72v171.52h30.73v36.68h-63.45Zm63.45,0v-36.68c2.42,0,4.13,1.71,5.12,5.12.99,3.42,1.49,7.88,1.49,13.38s-.5,9.91-1.49,13.22c-.99,3.3-2.7,4.96-5.12,4.96Z"/>
      <path class="cls-1" d="m558.5,622.39c-2.42,0-4.13-1.65-5.12-4.96s-1.49-7.71-1.49-13.22.5-9.97,1.49-13.38c.99-3.41,2.7-5.12,5.12-5.12v36.68Zm0,0v-36.68h80.64v36.68h-80.64Zm80.64,0v-36.68c2.42,0,4.13,1.71,5.12,5.12.99,3.42,1.49,7.88,1.49,13.38s-.5,9.91-1.49,13.22-2.7,4.96-5.12,4.96Z"/>
      <path class="cls-1" d="m639.13,622.39c-2.42,0-4.13-1.65-5.12-4.96s-1.49-7.71-1.49-13.22.5-9.97,1.49-13.38c.99-3.41,2.7-5.12,5.12-5.12v36.68Zm0,0v-36.68h80.64v36.68h-80.64Zm80.64,0v-36.68c2.42,0,4.13,1.71,5.12,5.12.99,3.42,1.49,7.88,1.49,13.38s-.5,9.91-1.49,13.22-2.7,4.96-5.12,4.96Z"/>
      <path class="cls-1" d="m719.77,622.39c-2.42,0-4.13-1.65-5.12-4.96s-1.49-7.71-1.49-13.22.5-9.97,1.49-13.38c.99-3.41,2.7-5.12,5.12-5.12v36.68Zm0,0v-36.68h63.12l-17.51,17.85v-136.49h32.39v155.32h-77.99Zm61.8-194.65c-2.43,0-5.24-1.16-8.43-3.47-3.2-2.31-6-5.07-8.43-8.26-2.43-3.19-3.63-6.11-3.63-8.76s1.16-5.56,3.47-8.76c2.31-3.19,5.07-5.95,8.26-8.26,3.19-2.31,6.11-3.47,8.76-3.47s5.5,1.16,8.59,3.47c3.08,2.31,5.83,5.07,8.26,8.26,2.42,3.2,3.64,6.11,3.64,8.76,0,2.43-1.21,5.29-3.64,8.59-2.43,3.31-5.24,6.11-8.43,8.43-3.2,2.31-6,3.47-8.43,3.47Z"/>
      <path class="cls-1" d="m96.17,1018.96c-14.76,0-26.77-1.04-36.02-3.14-9.25-2.09-16.36-5.89-21.32-11.4-4.96-5.5-8.38-13.33-10.24-23.46-1.87-10.13-2.81-23.35-2.81-39.66s.93-29.52,2.81-39.66c1.87-10.13,5.29-17.95,10.24-23.46,4.96-5.5,12.06-9.3,21.32-11.4,9.25-2.09,21.26-3.14,36.02-3.14h82.29v155.32h-82.29Zm-15.53-36.68h65.43v-82.29h-65.43c-7.05,0-12.18,1.32-15.37,3.97-3.2,2.64-4.79,6.94-4.79,12.89v48.91c0,5.95,1.6,10.19,4.79,12.72,3.19,2.54,8.31,3.8,15.37,3.8Zm1.98-157.97c-2.43,0-5.24-1.16-8.43-3.47-3.2-2.31-6.01-5.07-8.43-8.26-2.43-3.19-3.64-6.11-3.64-8.76s1.16-5.56,3.47-8.76c2.31-3.19,5.07-5.95,8.26-8.26,3.19-2.31,6.11-3.47,8.76-3.47s5.5,1.16,8.59,3.47c3.08,2.31,5.83,5.07,8.26,8.26,2.42,3.2,3.64,6.11,3.64,8.76,0,2.43-1.21,5.29-3.64,8.59-2.43,3.31-5.24,6.11-8.43,8.43-3.2,2.31-6.01,3.47-8.43,3.47Zm51.22,0c-2.43,0-5.24-1.16-8.43-3.47-3.2-2.31-6.01-5.07-8.43-8.26-2.43-3.19-3.64-6.11-3.64-8.76s1.16-5.56,3.47-8.76c2.31-3.19,5.07-5.95,8.26-8.26,3.19-2.31,6.11-3.47,8.76-3.47s5.5,1.16,8.59,3.47c3.08,2.31,5.83,5.07,8.26,8.26,2.42,3.2,3.64,6.11,3.64,8.76,0,2.43-1.21,5.29-3.64,8.59-2.43,3.31-5.24,6.11-8.43,8.43-3.2,2.31-6.01,3.47-8.43,3.47Z"/>
      <path class="cls-1" d="m231.33,1106.54l-12.89-28.75c8.37-3.97,14.98-8.43,19.83-13.38,4.84-4.96,8.31-11.24,10.41-18.84,2.09-7.6,3.14-17.13,3.14-28.59v-153.34h32.39v153.34c0,15.42-1.77,28.75-5.29,39.99-3.53,11.24-9.2,20.87-17.02,28.92-7.82,8.04-18.01,14.92-30.57,20.65Z"/>
      <path class="cls-1" d="m345.68,1018.96v-208.2h32.72v171.52h30.73v36.68h-63.45Zm63.45,0v-36.68c2.42,0,4.13,1.71,5.12,5.12.99,3.42,1.49,7.88,1.49,13.38s-.49,9.91-1.49,13.22-2.7,4.96-5.12,4.96Z"/>
      <path class="cls-1" d="m409.13,1018.96c-2.42,0-4.13-1.65-5.12-4.96s-1.49-7.71-1.49-13.22.5-9.97,1.49-13.38c.99-3.41,2.7-5.12,5.12-5.12v36.68Zm0,0v-36.68h44.94c-1.32-6.39-2.31-13.55-2.97-21.48-.66-7.93-.99-18.18-.99-30.73,0-13.22,1.1-24.34,3.3-33.38,2.2-9.03,6.11-16.25,11.73-21.65,5.62-5.4,13.16-9.25,22.64-11.57,9.47-2.31,21.26-3.47,35.36-3.47,13,0,24.95.83,35.86,2.48,10.91,1.65,22.75,4.46,35.53,8.43v148.05h-185.4Zm88.9-194.65c-2.43,0-5.24-1.16-8.43-3.47-3.2-2.31-6-5.07-8.43-8.26-2.43-3.19-3.63-6.11-3.63-8.76s1.16-5.56,3.47-8.76c2.31-3.19,5.07-5.95,8.26-8.26,3.19-2.31,6.11-3.47,8.76-3.47s5.5,1.16,8.59,3.47c3.08,2.31,5.83,5.07,8.26,8.26,2.42,3.2,3.64,6.11,3.64,8.76,0,2.43-1.21,5.29-3.64,8.59-2.43,3.31-5.24,6.11-8.43,8.43-3.2,2.31-6,3.47-8.43,3.47Zm-13.22,157.97h62.79c5.5,0,9.31-1.1,11.4-3.3,2.09-2.2,3.14-6.28,3.14-12.23v-69.73h-62.79c-5.73,0-9.58,1.16-11.57,3.47-1.98,2.31-2.97,6.77-2.97,13.38v68.41Zm64.44-157.97c-2.43,0-5.24-1.16-8.43-3.47-3.2-2.31-6-5.07-8.43-8.26-2.43-3.19-3.64-6.11-3.64-8.76s1.16-5.56,3.47-8.76c2.31-3.19,5.07-5.95,8.26-8.26,3.19-2.31,6.11-3.47,8.76-3.47s5.5,1.16,8.59,3.47c3.08,2.31,5.83,5.07,8.26,8.26,2.42,3.2,3.64,6.11,3.64,8.76,0,2.43-1.21,5.29-3.64,8.59-2.43,3.31-5.24,6.11-8.43,8.43-3.2,2.31-6.01,3.47-8.43,3.47Zm45.28,194.65v-36.68h31.06v36.68h-31.06Zm31.06,0v-36.68c2.42,0,4.13,1.71,5.12,5.12.99,3.42,1.49,7.88,1.49,13.38s-.5,9.91-1.49,13.22-2.7,4.96-5.12,4.96Z"/>
      <path class="cls-1" d="m625.59,1018.96c-2.42,0-4.13-1.65-5.12-4.96s-1.49-7.71-1.49-13.22.5-9.97,1.49-13.38c.99-3.41,2.7-5.12,5.12-5.12v36.68Zm0,0v-36.68h45.61v-171.52h32.39v208.2h-77.99Z"/>
      <path class="cls-1" d="m765.05,1018.96v-208.2h32.72v208.2h-32.72Z"/>
    </g>
  </g>
</svg>