<?xml version="1.0" encoding="UTF-8"?>
<svg id="Layer_2" data-name="Layer 2" xmlns="http://www.w3.org/2000/svg" viewBox="0 0 3558.99 1715.15">
  <defs>
    <style>
      .cls-1 {
        fill: #fff;
      }
    </style>
  </defs>
  <g id="Layer_1-2" data-name="Layer 1">
    <g>
      <path class="cls-1" d="m2493.58,1158.47c-68.54-91.37-136.31-181.73-204.09-272.09-.56.14-1.12.28-1.68.42,19.77,192.27,39.53,384.53,59.3,576.8-.34.22-.68.45-1.02.67-161.11-223.37-322.22-446.73-483.33-670.1.36-.4.73-.79,1.09-1.19,82.55,70.38,165.1,140.76,248.52,211.89,34.59-258.6,69.03-516.09,103.48-773.59.33,0,.67,0,1,0,5.2,155.5,10.4,311,15.6,466.5l1.29.58c159.48-232.48,318.95-464.96,479.05-698.35,159.84,233.01,319.17,465.27,478.5,697.54.54-.19,1.08-.37,1.63-.56,5.17-154.33,10.34-308.66,15.52-462.99.37,0,.75-.02,1.12-.03,34.29,256.32,68.57,512.65,103.03,770.23,82.24-70.12,163.37-139.29,244.51-208.47.63.55,1.26,1.1,1.89,1.65-159.59,221.27-319.18,442.54-478.77,663.81-.57-.2-1.15-.41-1.72-.61,19.71-191.73,39.42-383.47,59.14-575.2-.53-.3-1.06-.61-1.59-.91-67.83,90.42-135.67,180.83-204.38,272.42-72.79-247.88-145.16-494.29-217.52-740.7-.86,0-1.72,0-2.58.01-72.54,247.01-145.08,494.02-217.98,742.29Zm610.94-531.48c.31.35.61.7.92,1.05l.2-.57c-.41-.1-.82-.21-1.24-.31-.4-1.02-.8-2.03-1.2-3.05-.65-1.18-1.31-2.37-1.96-3.55-1.41-2.16-2.77-4.35-4.23-6.48-100.09-145.75-200.18-291.5-300.27-437.25-14.06-20.47-28.15-40.92-42.77-62.17-8.26,22.37-16.29,43.83-23.93,65.43-.61,1.71,1.02,4.82,2.47,6.56,19.39,23.24,38.93,46.37,58.45,69.51,85.95,101.87,171.9,203.75,257.89,305.59,16.94,20.06,34.06,39.96,51.1,59.94.78,1.04,1.57,2.08,2.35,3.11.75.73,1.49,1.46,2.24,2.19Z"/>
      <path class="cls-1" d="m2711.36,1403.58c117.13-84.03,233.9-167.8,350.67-251.57.57.5,1.13,1.01,1.7,1.51-117.33,186.95-234.65,373.91-352.47,561.64-118.14-188.23-235.72-375.57-353.31-562.92.39-.44.78-.88,1.16-1.32,117.21,84.08,234.43,168.16,352.24,252.66Z"/>
    </g>
    <path class="cls-1" d="m584.15,581.38h255.14c-2.3,2.96-3.43,4.77-4.9,6.24-17.12,17.27-34.43,34.35-51.35,51.81-4.5,4.64-9.05,6.63-15.62,6.61-79.28-.22-158.56-.06-237.84-.29-7.19-.02-12.29,1.86-17.46,7.07-57.91,58.44-116.04,116.67-174.24,174.84-17.86,17.85-36.32,35.09-54.12,52.99-26.73,26.89-53.16,54.08-79.62,81.24-3.42,3.51-6.78,5.53-12.05,5.51-62.29-.2-124.58-.13-186.87-.14-1.32,0-2.63-.21-4.26-.35-2.36-9.11-.51-16.02,6.69-23.04,31.47-30.7,62.39-61.97,93.32-93.23,31.81-32.15,63.17-64.74,95.12-96.74,33.36-33.42,67.18-66.36,100.78-99.53,2.25-2.22,4.29-4.64,7.59-8.23H92.6c2.14-2.83,3.2-4.61,4.62-6.04,17.66-17.67,35.5-35.17,52.97-53.02,4.08-4.17,8.22-5.72,13.97-5.7,65.29.17,130.58-.02,195.87.29,7.33.03,12.37-2.11,17.34-7.34,12.38-13.04,25.44-25.43,38.03-38.28,33.97-34.65,67.84-69.41,100.78-103.13h474.16c-5.44,4.6-10.15,7.03-12.52,10.9-5.08,8.32-12.93,13.57-19.56,20.17-15.82,15.74-31.82,31.31-47.33,47.35-4.59,4.75-9.32,6.33-15.74,6.31-78.95-.18-157.89-.02-236.84-.27-7.6-.02-12.95,2.1-18.23,7.59-17.76,18.48-36.06,36.44-55.96,56.41Z"/>
    <path class="cls-1" d="m757.14,991.34c-2.56,2.13-5.32,4.08-7.66,6.43-94.32,94.5-188.65,189-282.78,283.69-5.17,5.2-10.28,7.06-17.46,7.05-145.84-.19-291.68-.14-437.52-.14-3.58,0-7.16,0-10.48,0-2.68-7.78-.36-12.72,4.66-17.72,92.43-92.15,184.73-184.43,276.98-276.78,3.77-3.78,7.56-5.51,13.05-5.51,151.17.15,302.33.12,453.5.13,2.18,0,4.37.2,6.55.3l1.17,2.54Zm-278.01,63.75c-.34-.88-.68-1.75-1.01-2.63-10.83,0-21.68.3-32.49-.12-5.83-.22-9.84,1.82-13.89,5.89-52.84,53.02-105.84,105.88-158.79,158.8-1.51,1.51-2.93,3.12-5.97,6.37,12.81,0,23.33-.37,33.81.14,6.55.32,11.07-1.91,15.65-6.52,46.2-46.49,92.59-92.78,138.99-139.08,7.77-7.75,15.8-15.24,23.71-22.85Z"/>
    <path class="cls-1" d="m1016.98,668.39c-18.56,18.64-35.42,35.6-52.31,52.52-79.77,79.93-159.58,159.82-239.24,239.85-4.52,4.54-8.96,6.68-15.56,6.67-150.23-.2-300.46-.15-450.7-.17-2.83,0-5.67-.25-10.01-.45,3.28-3.48,5.42-5.88,7.69-8.14,94.36-94.54,188.77-189.04,283-283.72,5.31-5.33,10.5-7.74,18.16-7.71,63.62.31,127.25.18,190.87.18,3.23,0,6.45,0,10.73,0-77.9,78.39-154.91,155.9-233.26,234.76h40.63c22.83-22.06,45.48-43.96,68.13-65.86,1.92-1.85,3.78-3.76,5.66-5.64,52.29-52.28,104.64-104.51,156.78-156.95,4.61-4.64,9.21-6.45,15.7-6.43,63.96.22,127.91.12,191.87.17,3.48,0,6.95.53,11.85.92Z"/>
    <path class="cls-1" d="m504.05,1288.37c3.72-3.96,5.68-6.16,7.76-8.25,94.8-95.01,189.61-190,284.39-285.02,3.81-3.82,7.28-6.81,13.53-6.79,66.61.28,133.21.18,199.82.19,1.32,0,2.63.2,5.29.41-77.49,78.09-154.28,155.47-232.59,234.39,14.65,0,27.45.26,40.23-.23,2.44-.09,5.06-2.83,7.1-4.85,21.74-21.59,43.39-43.27,65.06-64.93,52.99-52.98,106.01-105.93,158.93-158.98,3.67-3.68,7.17-5.99,12.85-5.97,66.27.22,132.55.14,198.82.16,1.87,0,3.75.23,7.45.47-3.07,3.16-5.01,5.22-7.01,7.23-94.57,94.76-189.17,189.49-283.65,284.35-5.23,5.25-10.62,7.94-18.19,7.93-150.2-.15-300.4-.11-450.59-.11-2.25,0-4.49,0-9.2,0Z"/>
    <path class="cls-1" d="m1015.83,1288.05c18.72-19.49,36.98-38.31,54.97-57.36,4.89-5.17,10.14-7.45,17.43-7.43,79.26.23,158.53.04,237.8.32,7.32.03,12.32-2.19,17.37-7.29,23.18-23.44,46.71-46.54,70.21-69.68,2.08-2.05,4.8-3.44,7.22-5.14-.5-.8-1-1.6-1.5-2.4h-251.65c-1.95-5.64,2.24-7.36,4.59-9.73,22.26-22.48,44.64-44.85,67-67.23,22.13-22.14,44.46-44.09,66.29-66.52,5.09-5.22,10.21-7.22,17.35-7.21,98.92.18,197.83.12,296.75.12,50.96,0,101.91,0,152.87,0h11.54c-3.01,3.41-4.77,5.62-6.75,7.61-16.7,16.74-33.62,33.26-50.07,50.25-4.62,4.77-9.42,6.23-15.81,6.22-78.93-.17-157.86-.03-236.8-.25-7.16-.02-12.75,1.26-17.47,7.06-3.52,4.32-8.15,7.73-11.89,11.18.43,1.42.47,1.78.65,2.04.16.23.46.44.73.51.64.15,1.3.29,1.95.29,82.59.06,165.19.11,247.78.2.2,0,.39.46,1.1,1.35-1.21,1.51-2.41,3.3-3.9,4.8-67.47,67.71-134.97,135.38-202.4,203.14-3.44,3.46-6.72,5.61-12,5.61-153.2-.15-306.4-.13-459.61-.14-.99,0-1.97-.15-3.76-.3Z"/>
    <path class="cls-1" d="m760.13,967.28c3.96-4.14,6.17-6.55,8.48-8.85,32.97-32.97,66.04-65.84,98.92-98.9,75.55-75.99,151.02-152.06,226.42-228.2,4.2-4.24,8.29-6.56,14.56-6.54,66.61.22,133.22.14,199.83.15,1.63,0,3.25.14,6.02.26-5.56,8.35-12.83,13.99-19.09,20.47-6.42,6.65-13.24,12.93-19.6,19.09.69,1.37.8,1.71,1,1.96.18.22.48.49.72.49,83.21.02,166.42.02,251.23.02-2,2.81-2.98,4.67-4.41,6.1-46.35,46.43-92.77,92.8-139.07,139.28-3.27,3.28-6.51,4.89-11.26,4.88-66.94-.14-133.89-.1-200.83-.11-1.28,0-2.55-.17-5.94-.42,9.84-10.27,18.97-19.14,27.94-28.15,9.4-9.44,18.84-18.84,28.26-28.26,9.05-9.05,18.1-18.11,27.15-27.17-.31-.63-.61-1.25-.92-1.88-12.82,0-25.65-.32-38.44.26-2.69.12-5.53,3.26-7.79,5.52-29.71,29.64-59.33,59.36-88.97,89.07-9.41,9.43-18.76,18.92-28.24,28.28-34.99,34.59-70.29,68.87-104.81,103.92-6.7,6.8-13.12,8.94-22.13,8.9-61.95-.3-123.89-.16-185.84-.16h-13.19Z"/>
    <path class="cls-1" d="m1265.91,966.67c8.05-8.26,14.87-15.39,21.83-22.37,90.22-90.6,180.47-181.17,270.67-271.79,3.13-3.15,6.23-5.18,11.03-5.17,68.26.14,136.52.1,204.78.14.83,0,1.66.44,3.39.93-3.88,3.54-7.3,6.4-10.42,9.54-51.71,51.89-103.44,103.76-155.05,155.74-42.2,42.5-84.3,85.1-126.27,127.83-4.05,4.13-8.08,5.9-13.88,5.89-65.26-.18-130.53-.11-195.79-.13-2.86,0-5.72-.32-10.28-.59Z"/>
    <path class="cls-1" d="m1648.3,582.83h215.52c-2.2,2.45-3.43,3.96-4.8,5.32-17.75,17.57-35.6,35.04-53.21,52.74-3.55,3.57-7.14,5.12-12.24,5.11-66.26-.16-132.52-.1-198.79-.12-1.87,0-3.74-.26-6.98-.5,20.86-21.57,40.79-42.18,60.49-62.55Z"/>
  </g>
</svg>