<svg id="Layer_1" data-name="Layer 1" xmlns="http://www.w3.org/2000/svg" viewBox="0 0 1888.97 552.75"><defs><style>.cls-1{fill:#fff;}</style></defs><path class="cls-1" d="M163,776.87c-1.28-.39-2.55-.81-3.85-1.15-21-5.58-28.42-32.71-13-48.07,8-8,16.68-15.37,24.64-23.43C216.39,658,259.1,609.36,297.18,556.74c2.65-3.65,5.1-7.45,7.67-11.17,6.87-9.92,16.41-14.5,28.33-12.92,11.46,1.52,19.56,8.07,23.4,19,4,11.37,1.43,21.63-6.88,30.35-5.72,6-11.59,11.86-17.39,17.78,0,.14-.08.29-.13.43l.23-.09-.18-.37a42,42,0,0,0,4.77-.59c53.24-12.83,105.79-28,157.88-44.92,29.39-9.53,58.24-20.44,86.76-32.33C597,515.52,612.1,508.84,626.2,500c3.25-2,6.29-4.41,10.15-7.15-1.85-.44-2.85-.72-3.87-.91-15.19-2.82-30.56-3.74-46-4-19.73-.28-39.48-1-59.2-.37-31.32,1-62.66,2.17-93.9,4.49-36.94,2.74-73.88,6.07-110.66,10.42-40.46,4.78-80.74,11-121.1,16.61a11.92,11.92,0,0,0-3.6,1l13.14,2.7c8,1.63,16.09,3.2,24.12,4.87,6.37,1.32,10.08,6.5,9.21,12.67A11,11,0,0,1,232.33,550q-34.74-2.87-69.46-5.86l-54.29-4.59c-7.16-.61-14.32-1.33-21.49-1.8-3.19-.21-6.41.16-9.62.16A21.62,21.62,0,0,1,55.69,519.7,21.88,21.88,0,0,1,71,495.46a907.34,907.34,0,0,1,89.83-23.41c51.6-10.57,103.45-19.59,155.82-25.26,34.81-3.77,69.72-6.78,104.63-9.55,35.77-2.85,71.65-3.36,107.52-2.8,26.08.41,52.16,1.28,78.22,2.38a257.21,257.21,0,0,1,52.15,7.67c11.05,2.78,19.3,9.57,26.2,18,14,17.11,13.35,40.11-1.4,57.93A126.66,126.66,0,0,1,650,549c-14.31,8.37-28.81,16.55-43.85,23.47C563.37,592.15,519.05,608,474,621.91c-50.91,15.75-102.24,29.87-154.45,40.64-9.84,2-19.72,3.82-29.6,5.66a26.84,26.84,0,0,1-15-1.3c-1.66-.65-2.54-.34-3.68,1q-40.45,48.55-81,97.05c-5.18,6.23-11.4,10.35-19.5,11.47-.23,0-.43.27-.64.42Z" transform="translate(-55.43 -224.11)"/><path class="cls-1" d="M1678.41,391.58c-8.15-.85-16.29-1.82-24.46-2.52-23.83-2.05-47.71-2.17-71.59-1.48A905.41,905.41,0,0,0,1481,396.19c-11,1.55-21.85,3.42-32.78,5.05a9.36,9.36,0,0,0-5.63,3c-51.52,53-97.92,110.52-145.15,167.28-2.83,3.4-5.58,6.87-8.43,10.25a29,29,0,1,1-42.63-39.09c11-10.79,22.4-21.13,33.18-32.11,28.76-29.3,55.82-60.12,81.82-91.87.4-.49.75-1,1.27-1.74-.79-.37-1.4-.68-2.05-.93a28.67,28.67,0,0,1-18.65-28.28,28,28,0,0,1,20.84-26.33c17.56-4.59,35.19-9,53-12.67A951.62,951.62,0,0,1,1566,330.46c36.88-1.65,73.75-1.5,110.49,2.84,21.93,2.6,43.56,6.58,64,15.39,5.36,2.31,10.63,4.79,14.5,9.39,6.81,8.09,8.67,17.28,6,27.44-3.62,13.68-11.78,24.47-21.92,33.92-14.91,13.9-32.32,24.11-50.33,33.34-33.81,17.32-69.2,30.8-105.11,42.92-21.65,7.31-43.52,13.95-65.28,20.89a10.48,10.48,0,0,0-2.54,1.12c79.72,12.35,160,19.66,240.53,25.2-1.06-.51-2.1-1-3.17-1.53-10.62-4.7-21.26-9.34-31.85-14.12a11.3,11.3,0,0,1-3.07-18.95c3.2-2.76,6.9-3.21,10.92-2.22q46.57,11.46,93.17,22.89L1922,553.44c14.24,3.5,23.58,16.12,22.32,30.13-1.29,14.36-12.49,25.51-27.29,25.88-12,.3-24.13-.51-36.18-1.09-23.11-1.11-46.22-2.26-69.32-3.67q-39-2.38-78.07-5.29c-20.78-1.53-41.55-3.15-62.29-5.13-28.27-2.7-56.54-5.51-84.75-8.77q-36-4.17-71.82-9.48c-42.69-6.27-85.21-13.5-126.81-25.3-6.49-1.84-13-3.71-17.94-8.73-7.84-7.93-10.67-17.39-7.84-28.15s10.13-17.78,21-20.58c15.63-4,31.34-7.69,46.93-11.82,60.51-16,120.53-33.65,178.93-56.35,23-8.92,45.56-18.62,66.92-31,.93-.54,1.84-1.11,2.76-1.67C1678.5,392.15,1678.45,391.86,1678.41,391.58Z" transform="translate(-55.43 -224.11)"/><path class="cls-1" d="M1288.2,326.35l-11,4.4q-8.71,3.53-17.44,7c-6,2.41-12,.52-14.86-4.64s-1.35-11.48,4-15.27q62.6-44.17,125.23-88.31c18-12.66,41.79-2.13,44.53,19.61a24.82,24.82,0,0,1-4.52,18.37c-5.56,7.45-11.43,14.69-17.46,21.76q-88,103.11-176,206.12-56.58,66.24-113.17,132.48a29,29,0,0,1-32.63,8.41,28.46,28.46,0,0,1-18.37-27.63c.6-18.23,1.61-36.44,2.45-54.66.06-1.18.12-2.36.21-4.1-1,1-1.68,1.71-2.3,2.43-28.07,32.79-55.7,65.92-81.7,100.38-12.4,16.44-36.42,14.7-46.7-3.5-8.46-15-13.51-31.22-17-48-4.87-23-5.36-46.26-4.25-69.62.37-7.91.9-15.82,1.52-23.72,1.13-14.3,12.31-25.89,25.91-27,15.28-1.26,28.16,7.67,31.79,22.11,1.61,6.38.76,12.55-1.51,18.69-7.27,19.69-8.11,39.84-3.3,60.95a22.19,22.19,0,0,1,1.63-2.38c36.28-41.41,71.58-83.63,105.09-127.32,8.11-10.58,20.86-14.56,33.24-10.21,11.88,4.18,19.57,15.76,19,28.88-.79,18.1-1.69,36.19-2.57,55.05L1288.63,327Z" transform="translate(-55.43 -224.11)"/><path class="cls-1" d="M828.29,520.89c-4.78.86-9.14,1.43-13.4,2.44-21.09,5-38.52,16.25-53.76,31.35-10,9.88-22,13-35.38,8.69s-21.53-13.8-23.71-27.61S704.57,510,716.27,502c14-9.49,28.26-18.82,43.79-25.81,17.29-7.77,35.1-14,54-16.57,15.65-2.11,31-1.18,45.28,6.26,20,10.4,29.72,27.6,32,49.49,1.58,14.89-1.9,28.88-7.53,42.53-18.5,44.89-47.77,80.83-89,106.76-14.53,9.15-30.19,15.69-47.35,18.41-27.48,4.38-54.42-10.55-63.35-35.6-5.66-15.87-3.67-31.39,3-46.49a85.69,85.69,0,0,1,20.31-28.36c3.09-2.86,6.63-3.68,10.47-2.13s5.67,4.7,5.8,8.91c.31,10,.4,20.09,1.21,30.08a53.22,53.22,0,0,0,3.52,13.81c1.27,3.48,2.79,3.77,6.41,2.72,9.17-2.66,17.29-7.39,24.85-13,29.64-22.13,52.51-49.67,66.62-84.11a50.21,50.21,0,0,0,1.7-5.25A17.27,17.27,0,0,0,828.29,520.89Z" transform="translate(-55.43 -224.11)"/><path class="cls-1" d="M332.23,599.76l.18.37-.23.09c.05-.14.09-.29.13-.43Z" transform="translate(-55.43 -224.11)"/></svg>