<?xml version="1.0" encoding="UTF-8"?>
<svg id="Layer_2" data-name="Layer 2" xmlns="http://www.w3.org/2000/svg" viewBox="0 0 3435.74 2705.24">
  <defs>
    <style>
      .cls-1 {
        fill: #fff;
      }

      .cls-2 {
        fill: #fefefe;
      }
    </style>
  </defs>
  <g id="Layer_1-2" data-name="Layer 1">
    <path class="cls-2" d="m2552.75,853.59c.02,27.86-1.99,55.6-4.7,83.31-.7,7.2-1.42,14.39-2.33,21.56-.98,7.67-2.08,15.32-3.33,22.95-4.23,25.74-9.3,51.31-15.67,76.62-8.61,34.21-19.51,67.68-32.61,100.41-5.34,13.33-11.86,26.18-17.47,39.41-9.54,22.5-20.35,44.37-32.57,65.51-7.91,13.69-16.14,27.21-24.78,40.45-10.44,16-21.09,31.89-32.35,47.31-8.87,12.14-18.7,23.59-28.28,35.2-7.89,9.56-15.88,19.06-24.12,28.32-31.02,34.88-65.07,66.54-101.86,95.25-13.74,10.72-27.49,21.46-41.6,31.7-27.79,20.18-57.08,38.01-87.36,54.22-57.57,30.81-117.92,54.54-181.01,71.35-23.48,6.25-47.19,11.49-71.16,15.49-12.54,2.09-25.01,4.7-37.61,6.27-15.58,1.94-31.25,3.27-46.91,4.46-35.01,2.67-70.06,3.07-105.11,1.14-16.29-.9-32.54-2.52-48.79-3.99-12.11-1.09-24.23-2.24-36.28-3.8-6.61-.85-13.05-2.96-19.66-3.9-11.88-1.69-23.52-4.48-35.22-7-11.77-2.54-23.47-5.43-35.15-8.39-26.67-6.75-52.73-15.47-78.52-24.98-43.32-15.98-84.94-35.6-124.95-58.65-39.13-22.53-76.12-48.16-111.4-76.35-27.29-21.81-52.92-45.41-77.22-70.45-31.45-32.4-60.12-67.12-86.13-104.02-33.65-47.75-61.84-98.54-84.95-152.2-13.57-31.5-24.74-63.83-34.71-96.59-5.95-19.55-10.52-39.45-14.84-59.42-1.62-7.49-3.6-14.91-5.2-22.41-.68-3.18-.73-6.48-1.21-9.71-1.13-7.64-2.39-15.26-3.52-22.91-.56-3.78-.93-7.6-1.41-11.39-1.44-11.59-3.18-23.15-4.27-34.78-1.29-13.85-2.36-27.73-2.92-41.62-1.42-34.88-.97-69.75,2.19-104.54.82-9,2.19-17.96,3.11-26.95,1.51-14.7,3.88-29.27,6.52-43.8,1.61-8.85,3.27-17.7,4.89-26.55,4.45-24.37,11.2-48.17,17.89-71.99.98-3.48,1.63-7.07,2.82-10.47,5.75-16.48,11.42-33,17.5-49.36,14.23-38.27,31.57-75.12,51.34-110.84,23.03-41.63,49.56-80.9,79.18-118.12,22.68-28.49,47.17-55.3,73.31-80.62,11.99-11.61,24.29-22.87,36.96-33.74,7.71-6.62,15.23-13.47,23.06-19.93,5.98-4.94,12.27-9.51,18.51-14.12,6.47-4.78,13-9.5,19.59-14.1,10.48-7.32,20.94-14.69,31.6-21.75,30.76-20.36,62.93-38.26,96.4-53.73,18.95-8.75,38.11-17.14,57.55-24.73,29.48-11.51,59.58-21.29,90.3-29.05,9.26-2.34,18.44-5.04,27.75-7.13,9.84-2.21,19.79-3.94,29.7-5.82,6.7-1.27,13.39-2.59,20.13-3.61,7.82-1.19,15.72-1.84,23.52-3.17,33.18-5.66,66.76-6.14,100.24-7.48,24.48-.97,48.95.11,73.38,2.34,13.85,1.26,27.78,1.6,41.63,2.82,10.04.89,20.06,2.31,30.01,3.96,10.45,1.74,20.73,4.46,31.2,6,29.98,4.42,59.05,12.61,87.93,21.39,34.06,10.36,67.45,22.62,99.78,37.62,40.92,18.99,80.29,40.7,118.01,65.52,51.85,34.12,98.79,74.03,142.11,118.32,37.59,38.43,71.06,80.21,100.72,125.04,22.13,33.45,41.63,68.38,58.6,104.72,3.14,6.72,5.62,13.75,8.59,20.56,3.68,8.43,7.71,16.72,11.26,25.2,1.94,4.63,3.11,9.58,4.82,14.32.79,2.19,2.3,4.12,3.07,6.32,3.83,10.97,7.5,21.99,11.27,32.97,11.49,33.54,19.56,67.95,26.32,102.69,1.72,8.87,3.15,17.79,4.56,26.71,7.19,45.29,9.98,90.9,9.87,136.73Zm-10.95-7.24c.32-41.4-2.76-82.57-9.11-123.46-2.87-18.49-6.28-36.93-10.2-55.23-12.1-56.62-30.37-111.24-54.23-163.98-16.92-37.39-36.68-73.24-58.85-107.77-28.14-43.83-60.21-84.61-96.05-122.36-36.61-38.57-76.47-73.48-119.62-104.62-45.56-32.88-93.91-60.9-145.02-84.17-45.28-20.62-92.14-36.81-140.41-48.81-18.64-4.64-37.45-8.89-56.4-11.95-25.43-4.1-50.99-7.83-76.64-10-48.69-4.12-97.46-4.04-146.2.21-8.8.77-17.37,3.21-26.3,2.95-2.63-.08-5.27,1.4-7.96,1.76-9.13,1.22-18.32,2-27.41,3.42-46.1,7.19-91.11,18.81-135.21,33.93-55.07,18.88-107.51,43.48-157.47,73.38-47.89,28.66-92.61,61.67-133.87,99.21-16.03,14.59-31.24,30.12-46.39,45.64-24.66,25.26-46.87,52.63-67.46,81.26-12.01,16.7-23.31,33.92-34.52,51.16-10.77,16.57-20.8,33.61-30.07,51.07-5.27,9.93-10.14,20.07-15.01,30.2-4.99,10.38-10.16,20.7-14.55,31.34-5.28,12.77-10.41,25.6-14.52,38.84-6.04,19.46-13.15,38.6-18.95,58.12-5.56,18.73-10.35,37.71-14.83,56.74-2.61,11.1-3.91,22.5-5.9,33.75-.51,2.88-1.67,5.65-2.07,8.53-1.11,8.02-1.98,16.07-2.92,24.11-3.12,26.53-5.97,53.09-6.75,79.82-.79,27.09-.34,54.16,1.57,81.21,1.72,24.32,3.67,48.61,7.72,72.68,1.54,9.14,3.06,18.28,4.68,27.41,10.52,59.03,27.95,116.03,51.13,171.25,29.09,69.29,66.96,133.44,113.85,192.22,38.06,47.71,80.1,91.47,127.52,130.02,24.06,19.56,48.91,37.99,74.79,55.05,53.02,34.95,109.58,62.86,169.17,84.64,30.66,11.2,61.78,20.93,93.65,28.1,12.48,2.81,25.01,5.36,37.55,7.9,9.94,2.02,19.88,4.11,29.89,5.67,8.16,1.27,16.43,1.92,24.67,2.59,25.32,2.07,50.62,4.81,75.98,5.83,49.31,1.99,98.4-1.41,147.22-8.57,13.74-2.01,27.53-3.84,41.13-6.59,15.09-3.05,30-6.95,44.95-10.65,26.29-6.49,52.07-14.69,77.55-23.84,52.52-18.87,102.59-42.91,150.09-72.13,46.58-28.65,89.68-62.05,130.37-98.5,35.59-31.89,67.4-67.4,96.75-105.08,30.14-38.7,56.61-79.81,79.36-123.29,6.56-12.53,13.27-25,19.34-37.76,4.72-9.9,8.73-20.15,12.74-30.36,5.78-14.71,11.34-29.51,16.86-44.33,2.07-5.55,3.72-11.26,5.63-16.87,1.87-5.49,3.23-11.12,5.17-16.6,2.46-6.98,4.01-14.27,6.25-21.34,2.2-6.96,3.21-14.19,5.21-21.21,2-7.02,2.91-14.34,4.43-21.51.52-2.45,1.64-4.77,2.11-7.22,2.93-15.36,5.89-30.72,8.55-46.13,1.25-7.24,1.82-14.61,2.77-21.9,4.5-34.46,6.07-69.09,6.23-103.8Z"/>
    <path class="cls-1" d="m1826.88,2269.7v-224.57c19.69-.5,38.73-.08,58.22-.03.24,2.45.54,4.04.54,5.63-.04,28.98.29,57.98-.37,86.95-.27,11.89-2.66,23.74-4.12,35.6-.57,4.61-1.22,9.22-2.01,15.13,5.7-7.54,10.71-14,15.54-20.58,8.16-11.12,18.38-19.83,30.55-26.21,31.71-16.62,68.93-14.94,94.78,6.91,15.42,13.04,22.15,30.53,25.39,49.58,4.17,24.5,2.03,48.36-11.24,72.17h76.87v-133.38h58.27v132.75h57.49c-2.81-5.91-6.05-11.65-8.27-17.76-1.8-4.95-2.86-10.3-3.37-15.55-1.49-15.18-2.34-30.85,3.17-45.05,9.55-24.63,26.77-43.03,51.73-53.03,22.97-9.2,46.54-10.67,70.46-3.72,26.1,7.59,43.36,24.42,50.38,50.57,2.99,11.13,4.36,22.96,4.55,34.51.51,30.64-.02,61.3-.16,91.95,0,1.59-.27,3.19-.54,6.06-6.56,0-12.79,0-19.03,0-151.26.03-302.51.07-453.77.07-181.24,0-362.48.02-543.72-.08-10.64,0-21.34-.41-31.91-1.54-37.92-4.07-63.84-28.36-69.32-66.11-1.95-13.4-3.22-27.67-.75-40.77,4.44-23.52,14.67-44.91,35.12-59.46,26.58-18.92,55.94-23.35,87.51-16.39,9.18,2.02,18.61,2.86,27.88,4.5,8.07,1.42,16.07,3.2,24.64,4.93v126.59h143.28c-1.49-3.69-3.39-7.53-4.61-11.58-8.69-28.91-4.66-56.28,9.39-82.77,19.2-36.17,64.84-48,94.22-43.81,9.23,1.32,18.64,3.47,27.2,7.06,21.5,9.03,35.91,25.19,42,47.78,7.14,26.5,6.94,52.71-6.12,77.78-.85,1.63-1.02,3.61-1.63,5.9h71.75Zm56.14-.39c23.56,0,46.53,1.3,69.27-.42,17.26-1.31,28.94-12.47,34.1-29.51,3.79-12.52,3.54-24.99-.71-37.32-6.12-17.74-21.48-25.78-39.62-20.81-10.55,2.89-19.37,8.72-27.02,16.4-19.73,19.85-28.95,44.92-36.02,71.66Zm456.2.71c0-19.11.22-37-.14-54.88-.1-4.88-1.56-9.86-3.09-14.56-4.54-13.97-14.62-21.06-29.13-21.12-14.68-.05-24.53,7.61-30.69,20.1-6.08,12.34-7.1,25.6-3.89,38.94,4.41,18.32,17.85,29.98,36.63,31.39,9.56.72,19.23.13,30.3.13Zm-696.5-46.35c0,6.83-.44,11.77.08,16.61,1.39,12.86,9.02,22.98,19.65,28.02,7.31,3.46,17.78,2.36,26.27.58,7.82-1.64,12.98-9.83,16.07-16.45,7.9-16.96,9.22-35.13,2.21-53-2.72-6.92-6.44-13.1-14.09-16.6-17.73-8.1-41.67-.73-47.32,19.48-2.21,7.92-1.77,15.6-2.87,21.36Zm-246.58-37.97c-9.92-4.67-19.66-6.77-30.14-6.25-18.49.92-32.73,16.52-32.6,32.14.08,9.49-1.61,19.2-.07,28.41,1.76,10.51,7.09,20.37,17.62,24.91,14.32,6.18,29.53,6.38,45.19,4.32v-83.54Z"/>
    <path class="cls-1" d="m3006.12,2269.6h144.08c-.4-1.42-.49-2.42-.94-3.22-15.51-28.23-13.44-57.16-1.37-85.4,11.42-26.72,33.6-41.13,61.59-47.12,4.8-1.03,9.53-2.9,14.37-3.18,30.17-1.77,57.48,4.71,77.87,29.06,7.12,8.5,10.9,18.59,13.86,29.43,5.47,19.99,3.19,40.17,3.58,60.29.37,19.32.05,38.65.03,57.97,0,2.95,0,5.91,0,9.56h-369.59v-271.57h56.22c1.17,37.11.2,74.26.29,111.4.09,37.31.02,74.61.02,112.78Zm257.36.2c0-10.14.03-18.77,0-27.4-.03-8.64.1-17.29-.28-25.92-.2-4.61-.85-9.31-2.11-13.73-5.12-18.08-20.18-27.04-38.34-22.74-10.99,2.6-18.93,9.42-23.66,19.65-5.97,12.93-5.84,26.37-2.82,40,4.41,19.93,20.65,28.78,34.34,29.97,10.47.91,21.08.18,32.87.18Z"/>
    <path class="cls-1" d="m140.31,2137.47h58.18c-1.56,15.89-3.11,31.63-4.65,47.38.41.21.82.42,1.24.63,4.19-5.63,8.33-11.29,12.57-16.88,21.84-28.82,51.38-41.04,86.6-36.55,28.85,3.67,50.8,18.64,60.13,47.93,9.02,28.33,8.49,56.66-3.16,83.99-11.72,27.52-34.54,42.06-62.64,49.55-11.36,3.03-22.94,2.82-34.46,3.04-19.29.37-38.59.1-58.79.1-1.91,9.78-3.12,18.8-5.48,27.52-6.2,22.91-19.82,40.25-40.69,51.68-9.07,4.97-18.48,9.47-28.69,11.38-5.8,1.09-11.92.86-17.87.6-12.8-.55-26.33.85-38.17-2.92-13.2-4.2-26.38-10.53-36.61-21.21-10.38-10.84-17.15-23.49-22.1-37.5-3.93-11.12-4.51-22.62-5.22-34.11-1.66-27.06.71-53.85,6.34-81.19,19.4-7.49,40.08-8.69,62.18-11.56-1.5,4.73-2.53,8.07-3.61,11.4-9.98,30.74-10.79,62.03-5.04,93.56,2.49,13.68,9.29,24.89,22.68,30.68,16.21,7.02,37.01,3.51,46.51-10.8,4.85-7.3,7.75-15.05,8.57-24.06,5.18-56.46.99-113.01,2.16-169.5.08-3.95.01-7.9.01-13.15Zm55.43,132.21c22.71,0,44.6.61,66.42-.25,11.12-.44,21.18-5.35,28.59-14.39,12.42-15.15,14.8-42.24,5.16-59.34-7.15-12.69-16.78-17.76-31.48-15.84-13.06,1.71-23.58,8.53-32.52,17.87-19.19,20.04-28.41,45.07-36.16,71.95Z"/>
    <path class="cls-1" d="m2676.43,2143.86v125.55h162.39v-131.69h57.92c.57,59.48-.36,118.89.28,179.25-5.78.23-10.67.58-15.55.58-79.26-.01-158.52-.08-237.78-.11-17.65,0-35.3.3-52.95.04-10.3-.15-21.12.71-30.77-2.11-27.6-8.08-48.68-24.23-56.59-53.54-5.21-19.3-5.5-38.86-1.5-58.39,8.36-40.78,37.34-66.33,80.28-71.8,18.81-2.4,37.2-.08,55.6,3.12,8.49,1.47,16.96,3.09,25.38,4.95,4.15.92,8.15,2.53,13.29,4.17Zm-56.47,125.92c0-23.82,0-46.47,0-69.12.01-17.47-1.53-19.19-19.39-21-2.97-.3-5.99-.43-8.97-.28-15.68.79-27.68,10.04-32.6,25.01-3.63,11.02-3.99,22.22-1.71,33.54,3.55,17.61,16.06,29.77,33.97,31.67,9.15.97,18.49.17,28.7.17Z"/>
    <path class="cls-1" d="m721.46,2269.54v-132.84h57.23v179.79h-378.56c-2.54-7.68-3.73-237.47-1.37-270.19,6.75-2.16,45.97-2.48,57.24-.23v223.46h265.45Z"/>
    <path class="cls-1" d="m928.5,2317.27c-2.37,14.25-3.65,26.9-6.67,39.13-6.88,27.87-24.88,45.56-52.19,53.96-15.4,4.74-31.08,5.97-47.06,3.98-4.55-.57-9.16-.69-15.01-1.1,1.57-15.83,3.1-31.24,4.73-47.67,3.26.3,6.4.74,9.56.85,6.96.24,14,1.04,20.86.3,13.04-1.4,21.19-9.4,24.31-21.83,1.69-6.7,2.4-13.82,2.42-20.75.18-58.29.1-116.58.1-174.87,0-3.94,0-7.89,0-12.46h56.94v132.35h67.27v-223.42h55.97v271.54h-121.22Z"/>
    <path class="cls-1" d="m1884.27,2603.66c-3.15,32.35-6.3,64.69-9.5,97.58h-36.57c1.28-8.91,2.51-17.25,3.66-25.6,1.93-14.07,3.81-28.15,5.71-42.22.74-5.51,1.4-11.03,2.24-16.53,1.87-12.22,3.79-24.43,5.77-36.63,2.33-14.35,4.75-28.69,7.28-43.93h41.38c9.88,34.37,19.95,69.37,30.39,105.66,1.93-5.04,3.8-8.89,4.89-12.96,5.49-20.54,10.5-41.21,16.26-61.67,2.95-10.47,7.1-20.6,10.89-31.39h39.39c7.82,54.85,15.62,109.6,23.63,165.74-12.78-.09-25.12.92-36.8-1.03-4.36-35.03-8.57-68.88-12.78-102.73-.72-.11-1.45-.21-2.17-.32-.89,2.99-1.87,5.96-2.66,8.98-7.18,27.37-14.28,54.76-21.51,82.12-1.09,4.13-2.7,8.11-4.32,12.92-9.67,0-18.94-.11-28.2.05-3.64.06-5.53-1.77-6.68-4.82-1.06-2.8-2.15-5.6-2.97-8.47-6.14-21.58-12.2-43.18-18.33-64.76-1.94-6.83-4.03-13.61-6.06-20.41-.98.14-1.95.27-2.93.41Z"/>
    <path class="cls-1" d="m2233.92,2535.62c13.73,0,27.68.08,41.62-.05,4.85-.05,5.96,3.63,7.47,6.84,12.86,27.4,25.63,54.84,38.47,82.24,2.17,4.62,4.58,9.12,6.87,13.68l2.28-.72c0-2.81.03-5.63,0-8.44-.38-26.64-.75-53.27-1.19-79.91-.22-13.5-1.11-13.52,13.58-13.63,5.99-.04,11.99-.05,17.98-.03.64,0,1.28.32,1.91.49,2.08,6.85,2.74,152.29.62,164.81h-46.7c-18.26-33.64-33.32-69.85-50.23-105.47-2.19,17.23-.25,34.41,0,51.6.25,17.63.06,35.27.06,54.22-10.92,1.07-22.28,0-33.43.35-2.23-11.93-1.62-158.25.67-165.99Z"/>
    <path class="cls-1" d="m1713.62,2636.68c-.67-33.22-1.34-66.44-2.03-100.44h35.85c.29,54.41-.15,109.14.08,165.34-10.04,0-19.43-1.17-28.41.26-14.9,2.37-21.94-4.28-27.49-17.25-10.72-25.06-22.91-49.5-34.55-74.17-1.91-4.04-4.14-7.93-7.66-11.42v101.67h-33.28v-164.84c14.65,0,28.86-.1,43.06.14,1.57.03,3.61,1.65,4.55,3.1,2.15,3.34,3.85,6.99,5.58,10.58,4.89,10.21,9.77,20.42,14.52,30.69,2.32,5.03,4.07,10.32,6.53,15.28,6.93,13.99,14.09,27.86,21.16,41.77.7-.24,1.41-.48,2.11-.71Z"/>
    <path class="cls-1" d="m1109.32,2045.54h55.45v271.36h-55.45v-271.36Z"/>
    <path class="cls-1" d="m3420.72,2059.08v257.89h-57.47v-257.89h57.47Z"/>
    <path class="cls-1" d="m1432.44,2627.01c-.02-22.19,3.52-40.84,14.12-57.83,21.49-34.44,58.54-43.31,93.16-31,20.98,7.46,33.18,23.67,38.22,45.2,5.18,22.1,5.45,44.33-.69,66.17-8.92,31.72-33.04,53.92-69.83,55.04-7.58.23-15.37-.43-22.8-1.96-31.46-6.49-46.45-30.35-50.94-59.26-.97-6.22-.98-12.59-1.25-16.35Zm112.94-6.82c-2.12-10.36-3.17-21.09-6.61-30.99-5.25-15.12-17.22-22.46-32.34-21.6-12.76.73-22.13,7.42-27.74,18.51-10.33,20.45-10.2,41.88-2.86,63.05,4.55,13.13,14.8,20.14,29,20.6,14.6.47,25.88-5.2,32.94-18.29,5.22-9.67,6.49-20.18,7.61-31.28Z"/>
    <path class="cls-1" d="m532.27,2701.59v-164.47c.69-.54,1.18-1.27,1.7-1.28,19.28-.4,38.61-1.66,57.84-.78,13.71.63,27.38,3.14,39.58,11.16,14.97,9.84,23.75,23.66,28.14,40.36,6.31,24.01,5.41,48.12-4.24,71.01-10.58,25.09-29.94,41.14-57.31,43.62-21.39,1.94-43.09.39-65.71.39Zm36.5-32.42c7.47,0,14.46.77,21.23-.16,15.14-2.08,25.34-10.86,30.67-25.2,5.37-14.46,6.17-29.28,2.41-44.14-3.79-14.96-11.31-26.99-27.7-30.87-8.79-2.09-17.58-1.77-26.61-.98v101.36Z"/>
    <path class="cls-1" d="m696.23,2535.78h35.71v62.11h55.91v-61.7h37.4v164.65h-36.9v-65.91h-55.72v66.63h-36.39v-165.78Z"/>
    <path class="cls-1" d="m54.83,2701.72H18.95v-165.9c22.28-.43,44.53-3.92,66.66.16,21.1,3.9,35.63,15.76,40.53,37.54,5.07,22.58-6.34,44.9-27.56,53.96-1.81.77-3.71,1.35-6.48,2.34,14.96,23.84,29.67,47.27,45.46,72.43-14.48,0-27.28.19-40.06-.09-5.61-.12-7.25-5.44-9.44-9.32-8.83-15.66-17.32-31.51-26.01-47.24-1.48-2.68-3.34-5.15-6.15-7.33-3.99,21.07,1.34,41.85-1.07,63.44Zm1.07-135.83v43.2c8.59.27,16.19-.08,23.17-3.65,7.61-3.89,10.62-10.71,10.31-18.91-.31-8.29-3.99-15.24-12.08-17.69-6.68-2.02-13.99-2.01-21.4-2.95Z"/>
    <path class="cls-1" d="m961.9,2701.08h-35.92v-164.61c.42-.31.67-.66.92-.66,21.25-.06,42.53-.64,63.75.12,9.31.33,17.98,4.64,25.42,10.69,14.58,11.83,19.94,27.5,16.73,45.43-3.15,17.57-13.47,30.06-30.99,35.76-.9.29-1.72.88-2.55,1.38-.27.16-.45.48-.94,1.04,14.48,23.01,29.03,46.13,44.21,70.25-3.11.41-5.2.91-7.29.93-9.33.11-18.68-.32-27.97.24-5.49.33-8.65-1.61-11.1-6.25-8.26-15.58-16.67-31.08-25.13-46.55-2.1-3.84-3.55-8.69-10.88-8.78.58,20.4,1.14,40.17,1.74,61.01Zm-.35-91.55c13.43-.19,25.76.26,32.34-12.79,3.89-7.72,3.62-15.9-2.2-22.37-8.17-9.08-18.96-8.96-30.13-7.04v42.2Z"/>
    <path class="cls-1" d="m1287.91,2666.87v-52.63h35.92c.31,1.97.94,4.14.94,6.31.04,22.97-.12,45.94.01,68.91.03,5.2-1.53,7.74-7.1,8.39-12.45,1.45-24.79,3.73-37.22,5.33-15.06,1.93-30.02.79-44.36-4.12-21.76-7.45-35.92-23.1-41.72-44.9-5.63-21.18-5.6-43.07,1.38-64.07,10.33-31.08,31.89-49.99,64.55-55.23,18.64-2.99,37.18-1.68,55.41,3.23,2.52.68,4.9,1.9,8.31,3.26-2.75,11.36-5.45,22.49-8.35,34.48-4.78-1.6-9.06-3-13.32-4.48-9.87-3.43-19.99-5.01-30.42-3.86-19.97,2.2-33.11,12.97-38.93,32.12-3.42,11.26-3.76,22.8-1.97,34.56,4.48,29.4,29.67,41.01,56.88,32.7Z"/>
    <path class="cls-1" d="m2063.22,2535.97h35.83c.18,2.98.48,5.54.48,8.1.02,31.63-.06,63.26.05,94.9.02,5.29.46,10.63,1.34,15.84,1.62,9.58,7.57,15.49,17.08,17.1,5.16.87,10.66,1.43,15.77.65,11.8-1.81,17.52-7.7,19.51-19.54.98-5.87,1.19-11.92,1.21-17.9.12-29.3.06-58.6.06-87.9,0-3.59,0-7.19,0-11.14h36.51c0,2.81,0,5.06,0,7.31.07,30.97.19,61.93.19,92.9,0,11.38-1.32,22.58-5.58,33.28-6.58,16.56-18.23,27.44-35.55,32.17-15.41,4.21-30.85,4.74-46.4.94-24.54-5.99-38.84-22.9-40.28-48.11-.51-8.97-.38-17.97-.38-26.96,0-26.97.1-53.94.15-80.91,0-3.26,0-6.53,0-10.73Z"/>
    <path class="cls-1" d="m2956.57,2700.79c-12.67.19-23.86.54-35.04.33-1.7-.03-3.9-2.35-4.91-4.15-1.61-2.85-2.37-6.17-3.55-9.27-1.98-5.19-4-10.37-6.05-15.69h-52.29c-3.14,9.71-6.17,19.07-9.38,28.99-11.95.24-23.33.98-34.45.04-.38-1.8-.75-2.48-.6-3.02,3.01-10.77,5.89-21.57,9.2-32.25,2.51-8.09,5.79-15.95,8.39-24.01,7.91-24.47,15.75-48.97,23.41-73.52,2.43-7.8,4.03-15.86,6.32-23.71,2.33-7.98,3.55-9.12,11.31-9.32,11.25-.29,22.52-.08,33.81-.08,17.9,55.07,35.53,109.34,53.83,165.65Zm-56.94-59.64c-6.62-20.54-11.05-40.56-19.04-61.23-6.42,21.55-12.26,41.14-18.24,61.23h37.28Z"/>
    <path class="cls-1" d="m407.18,2535.97h42.62c17.88,54.84,35.83,109.87,54.01,165.62h-39.2c-3.28-9.76-6.61-19.69-9.9-29.49h-53.81c-2.87,9.88-5.64,19.4-8.54,29.37h-36.64c18.2-55.23,35.73-110.01,51.46-165.51Zm39.5,105.23c-6.55-21.28-12.72-41.3-19.36-62.84-6.06,22.08-11.59,42.21-17.26,62.84h36.61Z"/>
    <path class="cls-1" d="m2735.8,2649.53v50.59c-11.72,2.39-23.12,1.05-35.16,1.24v-164.12c1.41-.81,2.26-1.7,3.12-1.72,17.63-.45,35.33-1.95,52.88-.87,17.83,1.11,33.06,8.59,43.33,24.6,10.06,15.69,10.38,32.33,4.85,48.88-8.63,25.84-27.82,38.71-54.8,40.32-4.6.28-9.19.69-14.22,1.07Zm.47-82.96v51.06c12.65,1.18,23.61-.71,30.53-11.54,6.04-9.45,6.03-19.83-.08-29.27-7.13-11.01-18.25-11.8-30.45-10.25Z"/>
    <path class="cls-1" d="m1072.14,2700.65v-164.75h85.08v31.44h-49.07v33.88h47.23c.99,10.58.7,20.61-.32,31.72h-47.49c-.34,12.45-.15,23.84.08,35.46h49.71c1.16,10.55.48,20.98.59,32.26h-85.8Z"/>
    <path class="cls-1" d="m2586.24,2540.86c-2.29,10.92-4.56,21.77-7.01,33.46-4.67-1.15-8.42-2.03-12.15-3.02-25.19-6.7-46.47,6.57-50.89,32.27-2.2,12.83-2.66,25.87.94,38.61,4.87,17.27,17.06,26.7,35.04,27.11,4.95.11,9.98-.39,14.87-1.2,4.54-.75,8.96-2.28,14.62-3.78,1.6,10.76,3.19,21.44,4.9,32.89-25.04,7.37-49.67,10.83-74.2-.14-15.38-6.88-24.98-19.38-31.34-34.65-4.12-9.87-6.18-19.97-6.04-30.79.22-16.83.01-33.42,6.9-49.46,18.37-42.75,61.26-56.31,100.14-43.54,1.21.4,2.28,1.19,4.21,2.23Z"/>
    <path class="cls-1" d="m3292.79,2535.29c13.18,0,25.08-.02,36.99.01,4.79.01,5.75,4.16,7.12,7.32,6.35,14.65,12.44,29.41,18.61,44.14,2.17,5.19,4.32,10.4,7.14,17.19,11.5-22.73,19.36-45.52,29.09-68.04h37.04c-.09,1.5.19,2.93-.31,3.99-7,14.95-14.26,29.78-21.14,44.77-8.54,18.6-16.9,37.27-25.06,56.04-1.26,2.89-1.33,6.45-1.36,9.7-.13,16.29-.06,32.57-.06,48.86-6.92,2.64-24.62,3.1-36.71.8,0-5.03-.1-10.23.04-15.43.09-3.32.71-6.62.78-9.93.59-27.26.26-27.12-11.24-51.62-8.7-18.53-16.27-37.59-24.76-56.21-4.6-10.09-10.08-19.78-16.17-31.6Z"/>
    <path class="cls-1" d="m324.51,2536.02h37.99c-6.09,13.17-11.8,25.47-17.48,37.79-10.31,22.36-20.68,44.68-30.79,67.13-1.29,2.87-1.59,6.38-1.62,9.6-.15,16.65-.07,33.3-.07,50.72h-35.62c-.22-2.21-.66-4.72-.69-7.24-.13-14.66-.42-29.32-.11-43.97.13-6.24-1.5-11.7-4.05-17.21-14.55-31.4-28.99-62.85-43.43-94.3-.25-.54-.12-1.25-.22-2.48h39.34c8.97,21.81,18.05,43.9,27.59,67.1,9.86-22.71,19.46-44.82,29.16-67.16Z"/>
    <path class="cls-1" d="m3273.33,2536.18v32.46h-35.97v132.04h-36.82c-1.41-21.63-.41-43.47-.65-65.26-.24-21.58-.05-43.17-.05-65.92-9.35,0-18.61.08-27.87-.02-9.06-.1-9.45-.49-9.61-9.76-.14-7.91-.03-15.82-.03-23.33,10.18-2.81,102.42-2.85,111-.21Z"/>
    <path class="cls-1" d="m3067.05,2668.37v32.27c-27.58,1.35-54.71.92-81.55.71-2.62-8.17-2.81-155.14-.3-165.7h34.23v132.72h47.62Z"/>
    <path class="cls-1" d="m1364.93,2536.44h35.58v163.66h-35.58v-163.66Z"/>
    <path class="cls-1" d="m200.41,2701.61h-35.35v-165.44c11.34-1.02,23.08-.56,35.35-.4v165.83Z"/>
    <path class="cls-1" d="m3131.13,2700.64h-34.96v-164.83h34.96v164.83Z"/>
    <path class="cls-1" d="m2622.3,2536.04h34.74v165.12c-11.18.84-22.65.39-33.96.33-2.25-7.1-2.94-151.47-.78-165.45Z"/>
    <path class="cls-1" d="m2406.68,2535.85h34.05v165.16h-34.05v-165.16Z"/>
    <path class="cls-1" d="m3432.71,1954.92c-1.41,9.92-2.7,19.04-4.13,29.17-3.79-.51-6.93-1.2-10.09-1.3-5.61-.19-11.37-.78-16.82.19-6.16,1.09-10.08,6.45-9.73,11.06.38,4.92,5.59,10.59,11.29,11.12,6.28.59,12.64.29,18.96.34,4.27.04,8.54,0,13.55,0v30.14h-94.52v-28.22c5.33-.52,10.47-1.02,16.32-1.59-.61-1.98-.93-3.52-1.55-4.93-5.63-12.8-1.49-23.33,7.62-32.64,10.23-10.45,23.2-15.14,37.33-16.7,10.55-1.16,21.1-.86,31.77,3.33Z"/>
    <path class="cls-1" d="m2142.07,2050.13c15.38.55,27.88,14.73,27.37,31.06-.5,16.14-14.31,29.77-29.91,28.15-18.26-1.9-27.07-11.45-27.09-30.39-.01-15.25,10.33-29.35,29.63-28.81Z"/>
    <path class="cls-1" d="m2839.44,2080.26c-.22-16.35,13.14-29.86,29.52-29.86,14.95,0,27.8,13.64,27.75,29.46-.05,15.59-13.83,29.47-29.2,29.39-15.53-.08-27.85-12.8-28.07-28.99Z"/>
    <path class="cls-1" d="m304.34,2079.88c-.02,16.73-12.62,29.52-28.87,29.3-15.68-.21-27.95-12.95-28.1-29.17-.15-16.57,12.32-29.62,28.54-29.84,15.88-.22,28.45,12.92,28.43,29.72Z"/>
    <path class="cls-1" d="m1671.77,2081.24c.15,8.38-2.43,15.79-8.42,21.72-6.51,6.45-14.4,10.19-23.51,7.43-9.52-2.88-18.1-6.72-20.89-18.57-2.28-9.68-2.17-19.12,2.06-27.16,7.12-13.54,29.01-16.92,40.01-7.21,6.68,5.9,10.68,14.24,10.76,23.79Z"/>
    <path class="cls-1" d="m779.54,2374.74c.14,15.8-12.39,28.97-27.82,29.29-13.87.28-27.12-8.36-27.34-28.85-.2-18.38,7.8-28.1,26.89-29.21,14.8-.85,28.13,13.28,28.27,28.77Z"/>
    <path class="cls-1" d="m2559.82,2051.65c15.07-.25,27.12,12.74,27.5,29.64.36,15.91-11.5,29.07-26.43,29.34-15.46.28-27.61-12.31-28.01-29-.39-16.49,11.5-29.73,26.94-29.98Z"/>
    <path class="cls-1" d="m1373.8,2076.69c-2-6.97,3.53-12.25,9.19-17.36,5.63-5.07,12.2-7.91,19.94-7.41,15.07.98,27.11,15.1,26.3,30.8-.82,15.81-14.16,28.84-28.99,28.31-15.61-.55-27.43-15.03-26.44-34.34Z"/>
    <path class="cls-1" d="m1364.64,2081.79c0,15.98-13.08,30.02-27.88,29.4-13.74-.58-27.96-11.92-27.61-30.69.29-15.59,12.2-28.17,27.28-28.54,15.31-.38,28.2,13.25,28.21,29.83Z"/>
    <path class="cls-1" d="m2652,2081.4c-1.01,11.63-5.01,21.49-15.96,26.86-11.23,5.51-21.29,1.66-30.62-5.15-1.26-.92-2.4-2.29-3.05-3.69-4.66-10.02-6.16-20.26-1.76-30.83,4.58-10.98,14.66-18.17,25.58-16.59,14.3,2.06,20.62,6.92,24.7,20.59.84,2.82.77,5.91,1.11,8.81Z"/>
    <path class="cls-1" d="m713.87,2375.72c-.01,16.56-11.27,28.57-26.66,28.44-15.66-.13-27.62-12.85-27.58-29.16.03-13.37,10.16-30.27,27.61-29.52,14.34.62,26.65,14.11,26.64,30.23Z"/>
    <path class="cls-1" d="m1708.91,2051.82c11.9.08,19.92,6.4,23.53,17.16,2.34,6.99,4.3,13.35,1.99,21.27-2.97,10.22-8.47,16.93-18.33,19.68-10.13,2.82-19-.15-26.15-7.96-15.2-16.59-7.33-44.26,14.09-49.4,1.92-.46,3.92-.61,4.87-.76Z"/>
    <path class="cls-2" d="m2541.79,846.35c-.16,34.71-1.73,69.35-6.23,103.8-.95,7.3-1.52,14.66-2.77,21.9-2.66,15.41-5.62,30.77-8.55,46.13-.47,2.45-1.59,4.78-2.11,7.22-1.52,7.16-2.43,14.49-4.43,21.51-2,7.02-3.01,14.25-5.21,21.21-2.23,7.07-3.78,14.36-6.25,21.34-1.94,5.48-3.3,11.11-5.17,16.6-1.91,5.61-3.56,11.32-5.63,16.87-5.52,14.81-11.08,29.62-16.86,44.33-4.01,10.22-8.03,20.46-12.74,30.36-6.08,12.76-12.79,25.23-19.34,37.76-22.75,43.48-49.22,84.59-79.36,123.29-29.35,37.68-61.16,73.19-96.75,105.08-40.68,36.45-83.79,69.85-130.37,98.5-47.51,29.22-97.57,53.26-150.09,72.13-25.48,9.15-51.26,17.35-77.55,23.84-14.95,3.69-29.87,7.6-44.95,10.65-13.6,2.75-27.39,4.58-41.13,6.59-48.82,7.16-97.91,10.55-147.22,8.57-25.37-1.02-50.66-3.76-75.98-5.83-8.24-.67-16.51-1.33-24.67-2.59-10.02-1.55-19.95-3.65-29.89-5.67-12.53-2.54-25.07-5.1-37.55-7.9-31.87-7.17-62.99-16.89-93.65-28.1-59.6-21.78-116.15-49.69-169.17-84.64-25.88-17.06-50.73-35.49-74.79-55.05-47.42-38.55-89.46-82.31-127.52-130.02-46.89-58.78-84.76-122.93-113.85-192.22-23.18-55.22-40.61-112.22-51.13-171.25-1.63-9.12-3.14-18.27-4.68-27.41-4.05-24.07-6.01-48.36-7.72-72.68-1.91-27.04-2.36-54.11-1.57-81.21.78-26.73,3.63-53.29,6.75-79.82.95-8.04,1.82-16.09,2.92-24.11.4-2.88,1.56-5.66,2.07-8.53,1.99-11.25,3.29-22.65,5.9-33.75,4.48-19.02,9.28-38,14.83-56.74,5.79-19.53,12.91-38.66,18.95-58.12,4.11-13.24,9.24-26.08,14.52-38.84,4.4-10.64,9.56-20.96,14.55-31.34,4.88-10.13,9.74-20.28,15.01-30.2,9.27-17.46,19.3-34.5,30.07-51.07,11.21-17.25,22.51-34.47,34.52-51.16,20.59-28.63,42.81-56,67.46-81.26,15.15-15.52,30.35-31.05,46.39-45.64,41.27-37.55,85.98-70.55,133.87-99.21,49.96-29.9,102.4-54.5,157.47-73.38,44.09-15.12,89.11-26.74,135.21-33.93,9.09-1.42,18.28-2.2,27.41-3.42,2.69-.36,5.33-1.84,7.96-1.76,8.93.26,17.5-2.18,26.3-2.95,48.74-4.25,97.51-4.33,146.2-.21,25.65,2.17,51.21,5.9,76.64,10,18.95,3.05,37.76,7.31,56.4,11.95,48.26,12,95.12,28.2,140.41,48.81,51.11,23.27,99.46,51.29,145.02,84.17,43.15,31.14,83.01,66.05,119.62,104.62,35.84,37.76,67.91,78.53,96.05,122.36,22.17,34.53,41.93,70.38,58.85,107.77,23.86,52.74,42.13,107.37,54.23,163.98,3.91,18.3,7.32,36.74,10.2,55.23,6.35,40.89,9.43,82.06,9.11,123.46ZM1704.69,39.73c-10.25.29-25.1.45-39.92,1.2-20.1,1.02-40.16,2.43-60.05,5.85-11.82,2.03-23.83,2.98-35.65,5.01-24.99,4.29-49.73,9.82-74.22,16.4-49.37,13.26-97.01,31.14-143,53.44-68.2,33.08-130.27,75.27-186.75,125.72-40.53,36.2-76.85,76.24-109.24,119.89-14.27,19.22-27.84,38.9-40.29,59.32-15.63,25.65-29.9,52.05-42.76,79.24-11.41,24.13-21.3,48.87-30.48,73.88-5.2,14.16-9.18,28.78-13.65,43.21-2.6,8.41-5.41,16.77-7.55,25.29-2.25,8.91-3.73,18.01-5.71,26.99-1.34,6.11-3.2,12.11-4.39,18.24-1.22,6.31-1.79,12.74-2.88,19.08-.71,4.15-2.11,8.19-2.7,12.36-1.12,7.97-1.8,15.99-2.78,23.97-3.29,26.53-5.31,53.17-5.92,79.88-1.01,43.98,1.59,87.78,7.6,131.38,1.3,9.39,2.07,18.86,4.38,28.1.89,3.54,1.53,7.15,2.15,10.75.93,5.39,1.45,10.87,2.68,16.18,2.7,11.7,5.6,23.36,8.67,34.97,3.17,11.99,6.35,23.99,10.04,35.82,11.57,37.13,25.52,73.35,42.3,108.47,15.92,33.32,34.17,65.34,54.32,96.25,16.26,24.93,34.27,48.58,53.1,71.64,13.46,16.49,27.89,32.09,42.81,47.24,20.02,20.32,40.35,40.32,62.7,58.13,13.11,10.45,25.99,21.24,39.58,31.05,16.1,11.62,32.75,22.5,49.36,33.39,17.52,11.49,35.76,21.77,54.37,31.4,18.45,9.55,37.15,18.55,56.25,26.74,20.88,8.96,42.09,17.08,63.65,24.13,22.34,7.3,44.99,13.67,67.96,18.81,8.17,1.83,16.23,4.15,24.44,5.78,9.91,1.97,19.92,3.44,29.88,5.13,7.55,1.28,15.07,2.85,22.66,3.75,9.56,1.14,19.19,1.65,28.78,2.59,37.54,3.67,75.13,4.92,112.83,3.24,41.66-1.86,83-6.33,123.88-14.59,16.63-3.36,33.18-7.18,49.61-11.39,27.67-7.09,54.79-15.98,81.45-26.25,33.05-12.72,65.2-27.41,96.35-44.31,30.7-16.66,59.95-35.59,88.14-56.15,35.57-25.94,69.28-54.08,100.35-85.34,19.38-19.49,37.77-39.83,55.13-61.12,19.36-23.74,37.19-48.6,53.59-74.46,20.87-32.92,39.9-66.87,55.56-102.59,6.23-14.21,11.7-28.76,17.36-43.21,2.44-6.22,4.48-12.6,6.71-18.9,2.21-6.23,4.44-12.46,6.62-18.7,2.19-6.27,4.55-12.49,6.41-18.85,2.05-7.04,3.57-14.23,5.4-21.34,1.62-6.28,3.45-12.51,4.98-18.82,1.44-5.9,2.56-11.88,3.91-17.8,1.15-5.07,2.57-10.08,3.6-15.17.71-3.54.76-7.21,1.43-10.76,1.57-8.35,3.53-16.64,4.98-25.02,1.21-7.01,2.03-14.09,2.84-21.16,1.16-10.19,2.42-20.37,3.16-30.59,1.06-14.75,1.89-29.52,2.48-44.3,1.21-30.32.3-60.62-1.93-90.87-.87-11.84-2.52-23.63-3.92-35.43-.43-3.58-1.24-7.11-1.84-10.67-.89-5.19-1.79-10.38-2.61-15.58-1.85-11.72-3.38-23.49-5.56-35.15-1.96-10.46-4.29-20.87-7.03-31.15-4.53-16.97-9.08-33.96-14.46-50.68-5.51-17.13-11.87-34-18.14-50.88-8.84-23.82-19.74-46.73-31.15-69.42-21.63-42.99-47.29-83.42-76.23-121.83-32.12-42.61-68.56-81.22-108.24-116.81-27.39-24.56-56.67-46.72-87.11-67.32-62.68-42.41-130.38-74.56-202.27-98.02-26.1-8.52-52.57-15.7-79.51-20.93-21.05-4.09-42.24-7.44-63.41-10.87-7.98-1.29-16.06-1.9-24.1-2.82-24.72-2.83-49.56-3.79-79-4.64Z"/>
    <path class="cls-2" d="m1702.01,1068.78c-30.32.12-61.61-2.81-92.71-8.65-57.31-10.76-111.04-31.01-161.41-60.21-25.88-15-50.09-32.41-72.86-51.85-22.48-19.2-43.23-40.06-62.13-62.81-20.45-24.6-38.49-50.84-54.1-78.71-13.51-24.12-24.71-49.32-34.01-75.38-11.06-31-19.1-62.74-23.73-95.31-2.03-14.28-4.01-28.62-4.93-43-.93-14.48-.97-29.05-.59-43.56.69-26.54,3.61-52.88,8.05-79.08,3.19-18.79,7.46-37.25,13.39-55.33,4.62-14.06,8.86-28.27,14.07-42.11,3.93-10.44,8.96-20.49,13.79-30.57,9.09-18.98,19.35-37.3,30.71-55.05,9.34-14.58,19.3-28.69,30.21-42.11,7.26-8.94,14.88-17.61,22.58-26.18,6.91-7.69,13.91-15.34,21.32-22.55,7.23-7.04,15.01-13.53,22.58-20.23,4.93-4.37,9.76-8.87,14.9-12.98,5.76-4.62,11.72-9.01,17.77-13.24,8.12-5.69,16.33-11.23,24.63-16.66,18.01-11.78,36.58-22.55,56.38-31.11,10.11-4.37,20.07-9.1,30.27-13.23,19.56-7.91,39.54-14.66,60.12-19.31,11.43-2.58,22.75-5.74,34.49-6.94,7-.72,13.99-1.85,20.87-3.31,26.84-5.69,54.06-5.82,81.28-5.57,61.07.56,120.01,12.27,176.83,34.58,11.64,4.57,23.38,9.11,34.46,14.84,23.05,11.93,45.85,24.36,67.23,39.25,31.27,21.78,59.91,46.57,85.73,74.56,20.96,22.73,39.74,47.16,56.3,73.34,11.65,18.43,22.39,37.32,31.55,57.08,8.29,17.89,15.55,36.23,21.34,55.09,4.69,15.3,9.34,30.65,12.99,46.21,5.62,23.91,9.22,48.17,10.91,72.72,1.6,23.36,1.97,46.73.56,70.06-.95,15.89-2.8,31.75-4.91,47.53-1.28,9.58-4.08,18.94-5.74,28.48-5.42,31.19-15.85,60.83-27.95,89.91-16.46,39.56-38.03,76.19-63.87,110.36-35.95,47.54-79.2,87.22-129.01,119.77-51.9,33.92-108.32,57.06-168.92,70.12-35.31,7.61-71.02,11.23-108.41,11.13Zm494.14-517.22c-.75-11.84-1.32-23.7-2.28-35.53-1.54-18.93-4.19-37.71-8.18-56.28-1.91-8.87-3.7-17.79-6.07-26.54-9.29-34.25-21.77-67.3-38.09-98.85-11.09-21.44-23.85-41.88-37.99-61.42-31-42.84-67.76-80-110.38-111.37-38.95-28.67-81.29-50.88-126.87-66.88-29.24-10.26-59.17-18.13-89.95-22.07-17.64-2.26-35.4-4.15-53.15-4.67-19.99-.59-40.06.09-60.04,1.12-13.2.68-26.39,2.51-39.46,4.61-12.31,1.97-24.51,4.71-36.65,7.56-20.47,4.79-40.52,10.97-60.11,18.7-19.71,7.79-39.27,15.85-57.62,26.56-10.6,6.19-21.37,12.09-31.74,18.63-13.99,8.82-27.6,18.23-40.21,28.99-10.44,8.9-21.18,17.5-31.12,26.93-9.9,9.39-19.06,19.58-28.39,29.57-6.14,6.56-12.45,13.03-17.88,20.16-9.75,12.8-19.29,25.79-28.18,39.19-8.45,12.74-16.59,25.78-23.68,39.3-8.33,15.89-15.77,32.29-22.86,48.78-4.47,10.4-7.77,21.32-11.27,32.11-2.6,8.03-4.79,16.2-6.96,24.35-3.68,13.8-6.51,27.74-8.56,41.9-3.74,25.73-6.69,51.52-6.82,77.51-.07,14.62.89,29.27,1.81,43.88,1.91,30.25,7.17,60,15.14,89.21,12.56,46.05,31.13,89.53,56.64,129.96,30.85,48.9,68.2,91.97,114.05,127.45,19.52,15.1,39.67,29.28,61.11,41.54,37.51,21.45,77.3,37.28,118.97,48.58,34.71,9.41,70.14,13.89,105.94,15.56,21.68,1.01,43.36.16,65.02-1.89,29.05-2.75,57.61-8,85.67-15.88,46.14-12.95,89.49-32.3,129.96-57.96,39.86-25.28,75.61-55.48,106.72-91.03,28.58-32.65,52.8-68.23,72.13-107.16,17.42-35.08,30.3-71.71,39-109.86,8.61-37.77,12.5-76.04,12.38-114.78Z"/>
    <path class="cls-2" d="m1471.85,1443.12c4.17-12.85,7.98-24.64,11.83-36.42,11.97-36.56,23.97-73.1,35.94-109.66,5.94-18.14,11.87-36.28,17.77-54.43,3.92-12.05,7.77-24.12,11.64-36.19,3.94-12.28,7.89-24.56,11.74-36.86,1.13-3.61,1.82-7.36,2.93-10.97.32-1.05,1.44-1.85,2.19-2.76.85.74,2,1.32,2.49,2.25,2.36,4.49,4.59,9.06,6.77,13.64,7.05,14.84,15.01,28.97,26.44,41.13,4.56,4.85,9.34,9.23,14.42,13.42.83.69,1.58,1.48,2.25,2.11-4.14,2.25-8.35,4.11-12.08,6.66-6,4.1-9.54,10.09-11.73,17-4.06,12.77-8.21,25.5-12.46,38.21-4.54,13.57-9.41,27.03-13.81,40.64-4.89,15.12-9.41,30.36-14.26,46.11,3.31,1.18,6.29,2.54,9.41,3.29,13.47,3.2,26.87,6.94,40.52,9.15,27.57,4.45,55.36,6.87,83.33,7.13,31.02.29,61.92-1.18,92.74-4.76,11.74-1.37,23.42-3.08,35-5.4,1.24-.25,2.44-.68,4.3-1.2-1.98-8.79-5.3-16.67-10.6-23.66-5.26-6.92-12.78-10.88-21-14.82,1.31-1.28,2.07-2.22,3.02-2.9,17.52-12.5,31.75-27.91,40.91-47.52,2.66-5.68,3.92-12.02,5.85-18.05.54-1.69,1.01-3.44,1.86-4.97.32-.57,1.62-.6,3.16-1.09,19.72,60.5,39.38,120.78,59.19,181.56-2.81.97-5.69,2.12-8.66,2.97-17.73,5.09-35.3,10.92-53.27,14.94-17.86,4-36.08,6.59-54.24,9.03-36.99,4.98-74.18,6.18-111.46,4.57-9.26-.4-18.5-1.21-27.75-1.96-9.17-.74-18.38-1.27-27.48-2.57-11.09-1.58-22.05-4-33.11-5.79-12.58-2.03-24.82-5.62-37.29-8.04-10.95-2.12-21.4-5.76-31.95-9.1-14.82-4.68-29.52-9.72-44.56-14.7Z"/>
    <path class="cls-2" d="m1265.9,1202.03c27.28,4.58,53.31,4.03,77.14-13.45,1,19.28-.55,37.22-6.95,55.26,1.67-.43,2.89-.51,3.9-1.03,14.62-7.54,30.19-12.12,46.17-15.81,18.16-4.19,36.51-5.62,55.02-5.25,11.73.23,23.54,1.58,34.47,5.8,19.04,7.35,27.5,20.19,22.43,41.55-3.03,12.77-7.54,25.2-11.58,37.72-7.68,23.81-15.5,47.57-23.27,71.35-2.98,9.11-6.01,18.21-8.95,27.34-2.42,7.52-4.73,15.08-7.09,22.62-23.07-6.2-111.89-47.6-168.11-105.45-2.96,1.45-6.05,3-9.18,4.47-17.73,8.32-36.27,11.22-55.65,8.1-17.41-2.8-30.51-12.34-40.78-26.28-8.94-12.12-14.68-25.65-18.43-40.18-1.69-6.53-1.7-13.13-1.84-19.72-.22-10.2.42-20.47,4.28-29.99,4.85-11.95,10.77-23.25,19.21-33.39,7.96-9.57,17.18-17.31,27.29-24.2,10.21-6.96,21.6-11.26,33.45-14.59,12.4-3.49,25.11-5.35,37.69-7.92,14-2.86,28.33-4.03,42.06-8.29,2.23-.69,4.78-.58,7.17-.53,3.94.08,6.33,3.37,4.48,6.77-3.99,7.31-8.2,14.78-16.95,17.32-11.36,3.31-22.84,6.26-34.3,9.22-12.02,3.1-24.12,5.88-35.58,10.86-12.55,5.45-24.07,12.35-33.42,22.51-6.56,7.12-11.94,15.13-14.07,24.58-1.31,5.83-1.48,12.15-.9,18.13,1.67,17.31,11.35,28.74,27.63,34.37,7.84,2.71,16,2.6,23.91-.06,11.08-3.72,20.42-9.8,25.65-20.73,4.97-10.38,4.55-21.14,1.44-31.91-1.44-4.98-3.33-9.83-5-14.75-.4-1.19-.72-2.41-1.33-4.46Zm94.08,74.45c20.12,14.55,40.23,29.09,60.38,43.66,3.35-5.44,9.89-25.35,11.13-33.48,1.25-8.28-2.6-14.25-10.81-15.98-4.46-.94-9.06-1.44-13.62-1.59-15.83-.52-31.18,2.83-47.08,7.38Z"/>
    <path class="cls-2" d="m1903.94,1338c19.9-25.15,25.54-54.78,30.77-85.18,15.5,23.38,30.99,46.77,46.8,70.63,34-19.44,63.88-43.92,93.69-69.33-1.7-1.77-2.86-3.14-4.19-4.34-17.39-15.61-34.99-31.01-52.11-46.9-5.27-4.89-10.93-7.64-17.87-8.39-4.54-.49-9.07-1.13-13.79-1.72,4.34-14.82,9.74-29.02,10.98-44.19,1.26-15.29,1.72-30.59-.9-46.38,2.55,1.94,5.29,3.67,7.62,5.85,24.49,22.97,49.01,45.89,73.32,69.05,22.27,21.22,44.28,42.71,66.42,64.06,11.06,10.66,22.17,21.28,33.46,32.11-8.83,10.56-17.67,20.49-27.34,29.7-28.71,27.34-60.36,50.92-92.97,73.3-8.55,5.87-17.11,11.71-24.98,17.09.48,10.62,1.7,20.62,1.24,30.55-1.25,27.08-13.15,48.26-36.81,62.22-7.4,4.37-15.49,6.91-24.14,6.97-10.38.06-20.76-.01-31.13-.29-5.88-.16-11.19-1.92-14.77-8.02,1.28-.56,2.46-1.21,3.72-1.61,5.96-1.92,12.08-3.42,17.87-5.76,4.07-1.64,7.89-4.11,11.47-6.7,10.98-7.94,16.42-18.84,16.49-32.4,0-.74.05-1.48.07-2.22.32-15.73-1.27-19.31-10.62-32.04-6.87-9.37-12.82-19.42-19.13-29.2-4.82-7.46-9.85-14.81-14.25-22.51-4.39-7.67-11.28-10.49-19.36-11.86-3.14-.53-6.19-1.6-9.53-2.49Z"/>
    <path class="cls-2" d="m2015.65,1078.47c31.84,6.05,62.04,1.65,90.94-14.41.09,1.96.16,3.52.25,5.09.19,3.7.43,7.4.57,11.1.18,4.91,2.38,8.73,5.88,12.06,11.28,10.74,22.46,21.6,33.73,32.36,16.9,16.14,33.81,32.27,50.79,48.33,18.32,17.33,36.72,34.57,55.06,51.88,9.15,8.64,18.21,17.37,27.6,26.33-11.32,14.64-22.51,29.11-34.12,44.12-5.55-5.22-10.82-10.22-16.14-15.16-40.21-37.38-80.44-74.74-120.64-112.13-29.61-27.54-59.19-55.1-88.75-82.67-1.99-1.85-3.79-3.9-5.68-5.86l.52-1.04Z"/>
    <path class="cls-2" d="m1761.63,1568.43c-17.94,2.05-34.57-17.74-33.97-34.44.72-20.18,16.64-34.44,35.11-33.97,20.27.52,32.99,16.41,33.47,34.74.37,14.5-13.22,34.88-34.6,33.67Z"/>
    <path class="cls-2" d="m1644.29,1569.87c-16.77,1.28-32.88-17.76-32.59-34.4.33-18.9,15.37-33.09,33.66-33.45,19.98-.4,34.09,15.09,34.74,33.7.66,18.83-14.9,35.36-35.81,34.16Z"/>
    <path class="cls-2" d="m1436.67,1192.66c-18.35.01-34.99-14.54-33.91-35.28,1-19.21,13.1-32.1,34.01-32.23,18.94-.12,34.12,14.86,34.14,34.01.03,18.71-15.13,33.47-34.24,33.5Z"/>
    <path class="cls-2" d="m2196.14,551.56c.12,38.74-3.77,77.01-12.38,114.78-8.7,38.15-21.57,74.78-39,109.86-19.33,38.93-43.55,74.51-72.13,107.16-31.11,35.55-66.86,65.75-106.72,91.03-40.46,25.66-83.81,45-129.96,57.96-28.07,7.88-56.62,13.12-85.67,15.88-21.66,2.05-43.33,2.9-65.02,1.89-35.8-1.67-71.23-6.15-105.94-15.56-41.68-11.3-81.46-27.13-118.97-48.58-21.44-12.27-41.6-26.44-61.11-41.54-45.85-35.47-83.2-78.55-114.05-127.45-25.51-40.43-44.08-83.91-56.64-129.96-7.97-29.21-13.23-58.96-15.14-89.21-.92-14.61-1.88-29.26-1.81-43.88.13-26,3.08-51.78,6.82-77.51,2.06-14.17,4.89-28.11,8.56-41.9,2.17-8.16,4.36-16.33,6.96-24.35,3.5-10.79,6.8-21.71,11.27-32.11,7.09-16.49,14.53-32.89,22.86-48.78,7.09-13.53,15.23-26.56,23.68-39.3,8.88-13.4,18.43-26.4,28.18-39.19,5.43-7.13,11.75-13.59,17.88-20.16,9.33-9.98,18.49-20.17,28.39-29.57,9.94-9.43,20.68-18.03,31.12-26.93,12.61-10.75,26.22-20.16,40.21-28.99,10.37-6.54,21.15-12.45,31.74-18.63,18.35-10.71,37.91-18.77,57.62-26.56,19.58-7.74,39.64-13.91,60.11-18.7,12.14-2.84,24.35-5.58,36.65-7.56,13.07-2.09,26.26-3.93,39.46-4.61,19.99-1.03,40.05-1.7,60.04-1.12,17.75.52,35.52,2.42,53.15,4.67,30.78,3.94,60.71,11.81,89.95,22.07,45.58,15.99,87.93,38.21,126.87,66.88,42.62,31.37,79.38,68.52,110.38,111.37,14.14,19.55,26.9,39.98,37.99,61.42,16.32,31.55,28.8,64.6,38.09,98.85,2.37,8.75,4.16,17.66,6.07,26.54,3.99,18.57,6.64,37.35,8.18,56.28.96,11.83,1.53,23.68,2.28,35.53Zm-207.99,390.7c-8.28-33.87-16.47-67.35-24.66-100.82-7.75-31.69-15.51-63.37-23.24-95.06-8.86-36.31-17.7-72.63-26.52-108.94-5.72-23.53-11.42-47.06-17.07-70.61-3.82-15.93-7.45-31.91-11.31-47.83-4.02-16.62-8.3-33.18-12.31-49.81-3.52-14.57-6.89-29.18-10.19-43.8-.75-3.32-2.22-5.27-5.55-6.74-16.93-7.48-34.61-12.49-52.55-16.74-19.36-4.59-39.06-7.1-58.84-8.51-38.86-2.78-77.67-2.51-116.22,4.2-9.03,1.57-18.15,2.7-27.1,4.64-18.13,3.93-35.58,9.86-51.92,18.82-2.01,1.1-4.17,1.5-3.75,4.85.29,2.32-.76,4.83-1.36,7.22-1.42,5.67-3.19,11.26-4.34,16.97-1.94,9.69-4.56,19.22-6.48,28.92-2.52,12.72-5.7,25.31-8.84,37.89-2.94,11.81-6.28,23.52-9.24,35.32-1.1,4.38-1.4,8.96-2.48,13.34-5.19,21.05-10.6,42.04-15.8,63.08-8.23,33.28-16.37,66.58-24.52,99.88-3.26,13.32-6.33,26.69-9.62,40.01-7.11,28.78-14.28,57.55-21.48,86.3-7.07,28.22-14.2,56.42-21.3,84.63-.35,1.39-.63,2.79-.91,4.04,175.05,129.51,409.45,119.23,567.61-1.26Zm-444.57-525c-3.31-2.07-7.02-4.44-10.8-6.71-2.57-1.55-3.22-3.43-2.53-6.51,5-22.6,9.83-45.24,14.64-67.88,5.88-27.71,11.65-55.44,17.53-83.15,3.84-18.11,7.76-36.21,11.72-54.3,1.41-6.42,5.28-9.14,11.58-8.42,4.61.52,6.58,3.6,6.66,10.45.03,2.36,0,4.72,0,7.37,5.54-1.2,7.4,2.73,9.74,5.45,2.66-.33,3.75-1.79,4.14-4.03.79-4.52,3.4-7.7,7.4-9.85.94-.5,1.75-1.25,2.33-1.67-.21-4.12-.64-7.82-.48-11.49.07-1.66.92-3.73,2.14-4.79,2.46-2.13,5.54-2.8,8.86-1.78,3.44,1.06,4.4,3.85,4.69,6.87.28,2.92.06,5.89.06,7.44,4.04,3.59,7.11,6.31,10.58,9.39,1.28-1.12,3.61-2.24,4.36-4.02,1.86-4.42,4.97-7.21,9.14-8.9,0-3.75-.05-7.25.01-10.75.08-5.19,3.1-8.23,8.27-8.42,4.57-.17,7.67,2.88,7.98,8.09.17,2.74.03,5.51.03,8.68,7.31.81,9.53,6.24,11,12.72,1.34-.87,2.76-1.29,2.9-1.96,1.13-5.78,5.36-8.57,10.06-10.57,0-3.91-.09-7.42.02-10.92.18-5.71,3.12-8.47,8.75-8.38,4.95.07,7.57,2.72,7.79,8.12.14,3.5.03,7.02.03,10.92,5.35,2.17,9.25,5.98,8.79,13.49,1.95-.8,4.2-1.02,4.58-1.99,1.97-5,5.68-7.95,10.33-9.66,0-2.08,0-3.75,0-5.41-.01-1.85-.16-3.72-.04-5.56.32-4.9,4.27-8.07,9.09-7.43,5.16.68,7.75,4.02,7.47,9.87-.15,3.13-.54,6.24-.84,9.5,6.4,2.04,10.21,6.08,10.81,13.83,2.43-2.61,3.84-4.79,5.82-6.07,2.24-1.45,5.01-2.09,7.7-3.14,0-2.79-.1-5.39.02-7.97.28-5.92,3.46-9.07,8.53-8.58,4.97.48,8.19,5.1,7.42,10.39-.5,3.38-.73,6.8-.97,9.11,3.36,1.97,6.38,2.91,8.05,4.95,1.86,2.27,2.5,5.54,3.89,8.9,1.33.55,3.29,1.38,5.96,2.49-.11-5.41,3.65-5.86,7.15-6.39,0-3.86-.12-7.37.03-10.87.18-4.28,2.38-6.83,6.1-7.43,3.4-.55,6.5.33,8.34,3.2,1.66,2.59,3.03,5.55,3.73,8.53,3.15,13.52,5.98,27.11,8.99,40.66,8.78,39.58,17.6,79.15,26.38,118.73,3.01,13.56,5.99,27.12,8.92,40.69,1.08,5.02.67,5.81-3.86,8.54-2.66,1.6-5.34,3.17-7.95,4.71.44,1.54.77,2.59,1.02,3.65,7.44,30.76,14.9,61.52,22.25,92.3.69,2.9,1.82,4.79,4.59,6.31,19.8,10.88,39.45,22.01,59.19,32.99,2.37,1.32,5.4,1.71,7.38,3.4,6.78,5.77,15.24,8.45,22.72,12.91,10.49,6.26,21.77,11.19,32.27,17.44,3.54,2.11,7.14,3.16,10.89,4.72,1.26-5.31,2.45-10.32,3.77-15.86-3.43-.83-2.96-3.42-2.3-6.11.22-.9.23-1.84.42-2.75,4.07-19.38,8.12-38.75,12.25-58.11.48-2.25,1.38-4.4,2.51-7.92,2.94,3.64,5.04,6.23,7.36,9.11.94-2.14,1.68-4.01,2.59-5.8.96-1.88,2.09-3.68,3.6-6.3,2.44,3.46,4.31,6.13,6.44,9.15,2.37-4.08,4.54-7.79,7.18-12.33,2.55,4.07,4.53,7.24,6.6,10.54,3.22-3.03,3.55-8.03,8.16-10.03,1.95,3.52,3.79,6.83,5.74,10.35,1.28-2.03,2.2-3.65,3.27-5.15,1.1-1.56,2.35-3.01,3.96-5.05,2.42,4.33,4.39,7.85,6.45,11.53,2.16-2.96,4.18-5.73,6.92-9.48,2.18,4.82,3.91,8.63,5.71,12.62,2.46-2.81,4.55-5.21,7.43-8.51.97,2.94,1.65,4.59,2.05,6.31,4.65,20.19,9.21,40.41,13.92,60.59.79,3.38.66,6.17-2.32,7.7,8.14,38,16.18,75.58,24.22,113.16,2.82-7.72,4.73-15.42,6.51-23.15,6.93-30.26,11.2-60.9,11.72-91.93.45-27.2.61-54.42-5.54-81.24-2.37-10.36-3.56-20.98-5.69-31.4-2.56-12.51-5.43-24.96-9.53-37.09-3.4-10.06-6.47-20.24-10.25-30.16-4.38-11.5-9.04-22.93-14.21-34.1-4.9-10.57-10.36-20.91-16.08-31.07-6.17-10.96-12.47-21.91-19.54-32.29-7.73-11.35-16.54-21.96-24.65-33.06-7.72-10.56-16.72-20-25.62-29.49-8.21-8.75-17.13-16.86-25.92-25.05-6.46-6.02-12.93-12.09-19.9-17.47-12.69-9.81-25.52-19.5-38.74-28.58-20.97-14.41-43.27-26.58-66.63-36.66-11.16-4.82-22.62-9.02-34.11-13-12.04-4.17-24.18-8.14-36.47-11.48-11.96-3.24-24.14-5.65-36.26-8.25-8.7-1.86-17.42-3.84-26.22-5.03-21.9-2.96-43.93-3.98-66.04-3.79-22.29.19-44.47,1.63-66.5,4.92-21.45,3.21-42.7,7.65-63.51,13.76-13.23,3.88-26.15,8.83-39.13,13.55-6.83,2.48-13.52,5.37-20.17,8.31-9.1,4.02-18.23,8.02-27.1,12.51-7.07,3.58-13.78,7.87-20.64,11.85-28.81,16.74-55.44,36.48-80.09,58.85-20.64,18.73-39.44,39.17-56.63,61.17-22.6,28.94-41.27,60.19-56.54,93.5-13.85,30.22-24.35,61.57-31.62,94.06-6.66,29.78-10.62,59.84-11.39,90.31-.76,30.09.85,60.07,5.72,89.8,2.19,13.37,5.09,26.63,7.74,40.33.82-.75,1.26-.95,1.32-1.24,4.59-20.41,9.28-40.79,13.65-61.25,2.16-10.08,3.55-20.33,5.66-30.42.99-4.73,3.25-9.22.27-14.03-.47-.76-.03-2.18.19-3.25,1.26-6.06,2.51-12.13,3.9-18.17,3.21-13.88,6.48-27.75,9.82-41.61.44-1.83,1.47-3.52,2.57-6.09,2.8,3.19,4.92,5.61,7.02,8,2.41-3.73,2.4-8.44,6.54-11.45,2.36,2.86,4.53,5.48,6.81,8.25,1.82-3.84,2.84-7.63,6.43-10.64,2.33,3.02,4.5,5.83,6.69,8.67,2.81-2.95,2.79-7.66,7.4-9.3,2.12,3.1,4.18,6.12,6.28,9.2,2.78-2.42,3.3-6.71,7.71-8.4,1.96,3.4,3.86,6.71,5.77,10.03,2.1-2.61,4.2-5.22,6.45-8.02,3.64,3.55,4.01,7.81,6.04,11.8,2.37-2.65,4.64-5.2,7.69-8.62,1.28,3.33,2.38,5.41,2.88,7.64,4.26,18.93,8.39,37.89,12.61,56.83.6,2.72,1.61,5.35-1.02,7.7-.49.44-.43,1.78-.26,2.63,1.23,6.47,2.55,12.93,3.84,19.38.68-.11,1.07-.08,1.36-.23,24.24-12.79,48.48-25.6,72.72-38.39,15.64-8.24,31.32-16.4,46.94-24.69,5.83-3.09,11.42-6.64,17.3-9.62,3.18-1.61,4.55-3.97,5.24-7.25,1.64-7.79,3.35-15.57,5.25-23.3,3.8-15.44,7.7-30.86,11.67-46.26,2.21-8.57,4.62-17.09,7.03-25.95Zm182.34-45.86c5.99.32,11.53.36,17.01.98,10.03,1.14,20.02,2.64,30.04,3.96,8.51,1.13,17.07,1.9,25.51,3.41,7.78,1.4,15.46,3.42,23.11,5.44,8.56,2.27,17.08,4.72,25.55,7.33,8.15,2.52,16.2,5.35,24.76,8.19-2.21-9.81-4.36-19.28-6.48-28.76-4.62-20.61-9.3-41.22-13.84-61.85-7.72-35.04-15.35-70.11-23.05-105.15-.44-1.98-.85-4.06-1.8-5.8-.59-1.08-2.16-2.2-3.33-2.25-2.02-.09-1.88,1.88-1.88,3.33,0,3.34.06,6.68.15,10.01.07,2.62-1.19,4.2-3.67,4.83-1.04.26-2.12.38-3.15.55-.39.95-.76,1.6-.92,2.3-.73,3.12-2.79,4.31-5.76,3.73-2.87-.56-5.71-1.34-8.51-2.2-3.04-.93-4.83-3.13-4.2-6.29.98-4.93-2-6.49-5.72-7.86-4.47-1.64-4.47-1.73-4.28-6.36.14-3.52.48-7.04.48-10.55,0-.82-1.05-1.64-1.62-2.46-.83.77-2.25,1.45-2.39,2.33-.39,2.55-.23,5.17-.36,7.77-.25,5.12-.53,5.42-5.65,6.53-4.67,1.01-4.75,1-5.36,5.97-.25,2.07-1.03,4.05-3.06,4-3.26-.09-6.66-.55-9.7-1.67-2.64-.97-2.22-3.98-2.25-6.38-.04-3.57-1.56-5.75-5.15-6.9-4.82-1.55-4.8-1.79-4.56-6.74.16-3.33.67-6.65.66-9.97,0-.94-1.18-2.45-2.08-2.68-1.72-.44-2.71.82-2.73,2.59-.04,2.97.02,5.94-.03,8.9-.08,5-.75,6.32-5.45,7.52-3.53.9-4.73,2.73-4.75,6.16,0,1.62-.94,3.23-1.3,4.36-3.25.23-6.05-.34-7.92.72-3.07,1.74-4.65.13-5.79-1.83-1.03-1.77-1.35-4.06-1.58-6.16-.39-3.57-.77-4.13-4.54-4.78-4.05-.7-5.03-1.75-4.79-5.86.25-4.04.78-8.06,1.21-12.31-1.55-.73-2.93-1.39-5.08-2.41-.17,2.45-.37,4.04-.36,5.62.02,2.97.27,5.93.23,8.9-.05,4.37-.91,5.83-5.2,6.3-3.1.35-4.16,1.89-4.8,4.38-.49,1.92-.32,4.63-1.53,5.57-1.52,1.18-4.17.9-6.33,1.25-.55.09-1.09.23-1.64.3-4.9.61-6-.11-6.34-5.09-.19-2.88-.64-5.42-3.11-7.35-.49,0-1.04.02-1.6,0-5.06-.2-5.57-.78-5.33-5.94.1-2.22.29-4.45.24-6.67-.04-1.78.2-4.22-2.32-4.33-2.88-.12-2.16,2.47-2.19,4.16-.06,3.34.06,6.68.16,10.01.08,2.53-.86,4.29-3.41,5.01-4.16,1.16-6.76,3.54-7.01,8.18-.06,1.03-1.13,2.39-2.1,2.9-2.57,1.35-5.34,2.34-8.04,3.44-3.65,1.49-4.47,1.16-5.77-2.34-.81-2.19-1.58-4.4-2.28-6.37-7.45-.47-7.41-.47-7.32-7.59.04-3.04-.16-6.08-.24-9-3.21-.57-4.2.6-4.11,2.91.12,2.96.27,5.93.44,8.89.28,4.87.35,4.98-4.29,7.04-3.14,1.39-5.94,3.51-5.56,6.88.61,5.33-1.77,7.4-6.4,8.28-1.07.2-2.07.8-3.06,1.3-2.52,1.28-4.23.54-5.36-1.97-.89-1.97-1.85-3.91-2.72-5.73-1.24-.06-1.98-.1-2.71-.13-4.82-.2-5.09-.44-5.1-5.06,0-2.97.29-5.95.04-8.89-.1-1.21-1.13-3.13-2.01-3.31-1.14-.22-2.81.73-3.77,1.66-.83.81-1.16,2.28-1.43,3.52-4.22,18.95-8.49,37.89-12.52,56.88-2.02,9.54-3.43,19.2-5.39,28.75-4.23,20.63-8.63,41.22-12.97,61.82-2.42,11.46-4.88,22.91-7.3,34.36-1.22,5.76-2.4,11.52-3.78,18.12,47.07-18.9,95.39-28.17,145.54-30.33,0-3.86-.01-7.36,0-10.85.03-6.49-.08-12.99.16-19.47.16-4.28,1.41-5.69,5.18-5.74,10.94-.15,21.89-.17,32.83-.03,3.63.05,4.77,1.46,4.83,5.34.09,6.86,0,13.73-.02,20.59,0,3.29,0,6.59,0,10.17Zm-209.17,153.46c-3.61,2.25-6.01,3.93-8.58,5.32-13.62,7.38-27.26,14.73-40.94,22.02-22.72,12.12-45.5,24.14-68.21,36.29-22.87,12.24-45.65,24.66-68.55,36.83-3.62,1.92-5.3,4.09-5.68,8.42-2.22,24.74-4.88,49.44-7.35,74.16-2.01,20.11-3.92,40.22-5.92,60.33-1.41,14.2-2.36,28.48-4.55,42.57-1.03,6.65-.14,11.74,3.37,17.49,8.24,13.52,17.67,26.1,27.83,38.15,21.95,26.03,46.56,49.34,73.22,70.49.92.73,2.09,1.13,3.41,1.83,33.96-137.89,67.8-275.25,101.95-413.91Zm477.41,413.33c1.85-1.44,2.9-2.19,3.87-3.02,11.21-9.71,22.67-19.15,33.56-29.21,26.41-24.39,49.23-51.88,69.42-81.6,1.7-2.5,2.73-4.88,2.3-8.2-4.16-32.49-8.16-65.01-12.06-97.54-.99-8.27-1.43-16.6-2.24-24.89-2.01-20.48-4.16-40.95-6.07-61.44-.36-3.85-1.73-6.22-5.31-8.09-12.96-6.8-25.71-14-38.56-21.01-24.24-13.23-48.49-26.42-72.73-39.64-22.78-12.42-45.54-24.87-68.32-37.28-1.49-.81-3.1-1.41-5-2.27,4.43,18.06,8.71,35.49,12.98,52.92,10.47,42.75,20.97,85.49,31.39,128.25,1.75,7.19,3.01,14.49,4.77,21.68,4.1,16.68,8.41,33.31,12.55,49.98,5.93,23.85,11.8,47.72,17.67,71.58,3.5,14.21,7.08,28.41,10.38,42.67,2.54,10.98,4.6,22.07,7.1,33.06,1.02,4.48,2.67,8.82,4.29,14.05Zm-621.86-342.21c-.63-4.28-1.44-7.92-1.65-11.59-.27-4.77-2.87-7.09-7.05-8.74-12.66-4.99-25.9-6.99-39.32-8-14.33-1.08-28.4,1.29-42.32,4.2-5.74,1.2-11.2,3.71-16.56,5.55-.82,4.62-1.41,8.6-2.24,12.52-6.52,30.82-13.03,61.65-19.75,92.43-.64,2.94-.22,5.45.55,8.11,12.14,41.7,29.64,81.03,52.01,118.23.97,1.62,2.11,3.14,3.17,4.71,1.14-2.01,1.37-3.61,1.53-5.22,2.5-24.91,4.96-49.82,7.49-74.72,2-19.74,4.08-39.46,6.12-59.2,1.48-14.32,3-28.64,4.37-42.98.43-4.49,1.68-7.9,6.26-10.05,7.2-3.38,14.07-7.46,21.1-11.22,8.64-4.63,17.3-9.23,26.3-14.03Zm657.84-4.37c2.67,1.46,5.26,2.87,7.85,4.28,15.28,8.36,30.53,16.8,45.88,25.02,3.45,1.85,5.45,4.21,5.6,8.13.04,1.11.25,2.21.36,3.32,1.98,19.32,3.87,38.65,5.94,57.96,2.09,19.5,4.39,38.97,6.54,58.46,1.2,10.87,2.21,21.77,3.39,32.65,1.05,9.66,2.24,19.31,3.51,30.18,1.49-2.24,2.33-3.36,3.04-4.56,19.81-33.89,35.83-69.49,47.84-106.87,1.07-3.32,1.66-6.31.52-10.19-3.02-10.29-4.88-20.93-7.17-31.43-5.62-25.72-11.28-51.43-16.78-77.17-.74-3.46-2.34-5.2-5.76-6.43-10.3-3.69-21.08-4.86-31.75-6.28-7.84-1.05-15.92-.82-23.87-.51-12.67.49-24.98,3.08-36.91,7.47-3.05,1.12-5.03,2.88-5.72,6.14-.69,3.23-1.61,6.4-2.49,9.84Zm-702.56-33.08c5.32.96,10.22,1.74,15.07,2.73,8.14,1.65,16.26,3.44,24.39,5.15,1.13.24,2.29.3,3.64.48-4.56-20.44-7.89-40.61-13.4-60.27-.48-.22-.97-.45-1.45-.67-1.64,2.41-3.28,4.82-5.62,8.24-2.7-4.56-4.52-7.62-6.47-10.9-1.1,1.45-1.93,2.66-2.88,3.78-2.46,2.87-3.84,2.81-5.93-.38-1.27-1.93-2.35-3.98-3.73-6.35-1.28,1.77-2.18,3.17-3.24,4.42-1.01,1.19-2.21,2.21-3.75,3.74-2.42-3.14-4.41-5.73-6.47-8.41-2.05,2.75-4.07,5.47-6.56,8.82-2.75-3.05-4.88-5.42-7.14-7.93-1.85,3.04-3.6,5.92-5.6,9.21-1.88-1.52-3.22-2.46-4.39-3.59-1.11-1.06-2.04-2.3-3.17-3.6-2.32,3.36-2.33,7.57-6.27,9.96-2.11-1.96-4.17-3.87-7-6.5-4.73,20.53-9.25,40.16-13.81,59.96,15.39-2.87,29.96-5.59,44.23-8.25.57-2.15.8-4.55,1.85-6.52,1.07-2,2.44-3.97,5.47-3.99,6.27-.05,10.14,0,12.23,10.88Zm717.36-52.46c-4.65,15.72-12.87,56.78-12.31,61.4,14.56-5.32,29.7-7.52,45.06-8.52.31-2.6.41-4.82.86-6.96.91-4.32,2.29-5.38,6.33-5.25,4.34.14,6.71,1.95,7.35,5.8.36,2.12.5,4.27.74,6.51,15.66.72,30.38,3.72,44.9,8.89-3.15-20.36-11.96-56.35-14.86-60.71-1.92,2.16-3.83,4.3-6.11,6.86-2.25-4.16-4.04-7.47-5.85-10.82-2.21,2.55-4.08,4.71-6.44,7.42-2.45-3.67-4.45-6.68-6.6-9.92-2.73,2.18-3.36,6.38-7.54,7.47-1.88-2.72-3.74-5.41-5.7-8.24-2.34,2.93-4.58,5.72-7.23,9.03-2.57-3.28-4.65-5.93-6.76-8.63-2.41,3.52-4.55,6.64-6.96,10.16-2.56-2.81-4.58-5.03-6.66-7.3-1.9,3.49-3.61,6.62-5.76,10.58-2.37-2.84-4.13-4.95-6.48-7.77Zm-355.7-165.02c-1.48,3.88-1.8,22.64-.51,29.08h31.27v-29.08h-30.76Zm-363.19,217.76c-1.15-2.47-1.8-4.83-3.18-6.62-3.23-4.19-8.51-3.81-10.73.58-.94,1.85-1.62,3.83-2.54,6.04h16.46Zm754.42.64h8.46c2.83-7.37.49-10.9-6.26-9.97-3.08,3.1-2.73,6.66-2.2,9.97Z"/>
    <path class="cls-2" d="m1326.03,558.8h-16.46c.92-2.21,1.6-4.19,2.54-6.04,2.22-4.39,7.5-4.77,10.73-.58,1.38,1.79,2.03,4.15,3.18,6.62Z"/>
    <path class="cls-2" d="m2080.45,559.44c-.53-3.32-.88-6.88,2.2-9.97,6.75-.93,9.09,2.6,6.26,9.97h-8.46Z"/>
    <path class="cls-1" d="m1749.09,819.96c1.74-2.78,3.03-4.78,4.26-6.82,1.05-1.75,1.9-3.63,3.06-5.29,5.96-8.51,17.14-8.13,22.68.76.48.78,1.1,1.7,1.06,2.53-.2,4.66-3.3,7.69-6.41,10.61-2.42,2.28-5.15,1.46-7.78.23-1.16-.55-2.27-1.2-3.65-1.94-1.3,1.92-2.52,3.73-4.17,6.17,3.97,2.79,7.83,5.61,11.81,8.23,1.79,1.18,3.68,1.16,5.71-.09,4.55-2.81,8.83-2.02,12.66,2.03,4.03,4.27,4.59,8.67,1.65,13.05-4.55,6.8-11.35,9.26-19.45,6.12-4.95-1.92-9.58-4.81-14.09-7.67-3.73-2.37-7.09-5.34-10.51-7.96-4,3.62-7.87,7.27-11.91,10.71-1.53,1.31-3.37,2.31-5.19,3.21-8.11,4-17.61-1.6-18-10.61-.19-4.46,2.58-7.2,6.04-9.29,3.11-1.88,6.36-1.88,9.43.23,1.36.94,2.61,2.05,4.43,3.5,1.75-1.68,3.54-3.41,5.72-5.5-10.56-10.4-20.93-20.63-31.65-31.18-11.75,10.62-23.12,20.9-35.12,31.75,2.52,2.04,4.71,3.81,7.01,5.68,1.7-1.78,2.95-3.35,4.45-4.63,3.61-3.07,8.05-3.17,11.58,0,1.89,1.7,3.46,3.85,4.77,6.04,1.42,2.37,1.15,4.99-.18,7.44-3.69,6.78-13.29,9.74-19.67,5.45-5.04-3.39-9.48-7.66-14.13-11.61-.68-.58-1.06-1.53-1.69-2.46-3.31,2.54-6,4.68-8.77,6.73-5.11,3.78-10.69,6.63-16.85,8.31-8.39,2.29-15.17-2.16-18.67-8.48-.72-1.3-.95-3.3-.55-4.74,1.85-6.65,9.52-10.28,15.79-7.42,2.12.97,3.93,1.06,5.76-.07,3.6-2.22,7.11-4.58,10.98-7.08-1.24-2-2.18-3.51-3.1-4.99-6.58,2.41-16.16-2.71-17.31-9.24-.18-1.03-.12-2.39.42-3.2,2.53-3.82,4.84-7.81,10.33-8.24,3.28-.26,6.3.13,8.41,2.42,3.49,3.77,6.54,7.95,9.71,12.02.89,1.14,1.55,2.47,2.31,3.7,8.06-4.77,23.87-20.58,31.72-31.63-16.19-15.63-35.37-26.97-55.01-37.45-25.5-13.6-51.35-26.55-77.05-39.79-1.57-.81-3.11-1.69-4.38-3.48,3.18.44,6.43.59,9.52,1.37,10.66,2.68,21.46,5.01,31.85,8.5,26.66,8.98,51.5,21.82,74.95,37.32,10.97,7.25,21.67,14.92,32.7,22.55,10.6-7.29,21.31-14.97,32.36-22.11,6.47-4.18,13.48-7.54,20.29-11.19,21.33-11.41,43.58-20.47,67.23-25.77,7.22-1.61,14.59-2.59,21.92-3.62,3.29-.46,6.65-.35,10.52-.52-1.32,2.37-3.49,2.52-5.17,3.19-13.75,5.43-27.67,10.42-41.29,16.16-21.31,8.98-41.32,20.38-60.73,32.96-9.62,6.24-18.27,13.58-27.05,20.83-1.23,1.02-2.57,1.9-4.52,3.34,10.31,10.31,20.32,20.33,30.92,30.93Z"/>
    <path class="cls-1" d="m1673.34,583.87c-10.96,4.31-16.6,13.76-22.62,22.91,1.2-17.42,9.08-30.61,25.16-39.47-8.91-.98-15.54,3.94-23.33,5.31,6.96-14.27,20.12-19.92,36.09-16.12q-.16-3.41-12.14-14.85c4.78-2.05,8.57,1.79,12.94,1.96,3.97.15,7.84,2.86,11.85,4.49,1.79-3.85,3.38-7.27,5.06-10.86,5.18,3.04,5.58,8.7,8.93,12.46,8.14-2.92,15.59-7.93,24.79-7.5-3.86,4.94-7.59,9.7-11.97,15.31,17.84-1.15,31,3.91,37.48,21.66-9.3-2.76-16.05-10.8-27.26-9.86,2.99,2.32,5.05,4.07,7.26,5.61,11.22,7.84,19.03,18.05,22.12,31.57.2.88.28,1.8.48,3.14-2.73-.5-3.75-2.56-5.07-4.07-4.03-4.6-7.86-9.38-11.88-13.99-3.03-3.48-6.47-6.48-11.15-8.29,2.6,6.23,5.16,12.07,7.47,18,2.49,6.37,2.84,13.01,1.65,19.71-.4,2.27-.66,4.79-3.89,6.3-.58-2.65-1.08-5.01-1.61-7.36-2.02-8.95-4.52-17.65-11.85-23.97-.66-.57-1.39-1.07-3.05-2.32.55,3.53.93,5.97,1.31,8.41,1.88,12.13.97,23.84-5.68,36.26-3.34-10.66-5.24-20.75-13.94-28.67,0,2.31,0,3.35,0,4.39-.2,30.42-.39,60.83-.59,91.25-.03,4.07-.01,8.09,1.57,12.01.81,2.02.87,4.33,1.28,6.51.67,3.62,1.55,7.21,1.95,10.86.25,2.23,1.2,4.35.35,6.85-.67,1.96-.23,4.2,1.65,6.09,1.91,1.92,3.37,4.46,2.06,7.6-.47.19-.96.57-1.46.58-8.34.14-16.68.29-25.02.27-1.29,0-2.91-.59-3.71-1.5-.41-.46.48-2.33,1.08-3.38.83-1.44,2.11-2.62,2.9-4.07,1.07-1.98,2.05-3.8,1.36-6.5-.67-2.63-.99-5.8,1.25-8.39.64-.74.56-2.1.81-3.18,1.25-5.4,2.68-10.77,3.68-16.22.6-3.25.72-6.63.72-9.95.03-23.74-.03-47.48-.06-71.22,0-5.9,0-11.79,0-18.61-7.17,6.84-7.16,15.55-8.68,24.4-10.23-13.47-11.21-26.83-3.16-42.07-2.3,1.01-3.75,1.27-4.65,2.12-7.89,7.37-13.53,16.01-14.81,27.02-.08.65-.52,1.25-1.16,2.71-6.39-16.06-2.75-29.82,5.51-43.31Z"/>
  </g>
</svg>