<?xml version="1.0" encoding="UTF-8"?>
<svg id="Layer_2" data-name="Layer 2" xmlns="http://www.w3.org/2000/svg" viewBox="0 0 3435.74 4019.52">
  <defs>
    <style>
      .cls-1 {
        fill: #016946;
      }

      .cls-2 {
        fill: #fff;
      }

      .cls-3 {
        fill: #fefefe;
      }
    </style>
  </defs>
  <g id="Layer_1-2" data-name="Layer 1">
    <path class="cls-3" d="m3228.5,1541.72c.03,50.03-3.58,99.86-8.45,149.62-1.27,12.92-2.55,25.85-4.19,38.73-1.76,13.77-3.73,27.52-5.98,41.21-7.59,46.23-16.71,92.15-28.14,137.61-15.46,61.44-35.04,121.55-58.57,180.33-9.59,23.94-21.31,47.02-31.38,70.77-17.13,40.41-36.54,79.68-58.49,117.65-14.21,24.58-28.99,48.87-44.51,72.65-18.75,28.73-37.88,57.27-58.1,84.97-15.92,21.81-33.58,42.37-50.8,63.22-14.18,17.17-28.53,34.23-43.32,50.87-55.71,62.64-116.87,119.5-182.94,171.06-24.68,19.26-49.38,38.54-74.7,56.93-49.92,36.25-102.51,68.27-156.9,97.38-103.4,55.34-211.79,97.96-325.09,128.13-42.17,11.23-84.74,20.64-127.8,27.82-22.52,3.76-44.92,8.44-67.55,11.26-27.98,3.48-56.12,5.87-84.25,8.01-62.87,4.8-125.83,5.51-188.78,2.04-29.25-1.61-58.43-4.53-87.62-7.16-21.75-1.96-43.51-4.02-65.16-6.82-11.87-1.53-23.44-5.31-35.3-7-21.34-3.03-42.25-8.05-63.26-12.58-21.14-4.56-42.16-9.75-63.13-15.06-47.9-12.13-94.69-27.79-141.01-44.87-77.8-28.69-152.54-63.94-224.41-105.32-70.28-40.47-136.71-86.49-200.06-137.13-49.01-39.18-95.03-81.55-138.69-126.53-56.48-58.18-107.98-120.55-154.68-186.82-60.43-85.75-111.06-176.98-152.56-273.35-24.37-56.57-44.44-114.63-62.34-173.48-10.68-35.1-18.89-70.86-26.65-106.71-2.91-13.46-6.46-26.78-9.34-40.25-1.22-5.7-1.31-11.64-2.16-17.43-2.03-13.72-4.29-27.41-6.32-41.14-1-6.8-1.68-13.64-2.53-20.46-2.59-20.82-5.72-41.58-7.66-62.46-2.32-24.87-4.24-49.8-5.25-74.75-2.54-62.65-1.75-125.27,3.94-187.76,1.47-16.17,3.94-32.25,5.59-48.41,2.71-26.41,6.96-52.57,11.71-78.66,2.89-15.9,5.88-31.78,8.78-47.68,7.99-43.77,20.11-86.51,32.13-129.28,1.76-6.25,2.93-12.69,5.06-18.8,10.32-29.6,20.5-59.26,31.43-88.64,25.56-68.73,56.7-134.91,92.2-199.07,41.37-74.77,89-145.29,142.21-212.13,40.73-51.16,84.71-99.31,131.66-144.79,21.53-20.86,43.63-41.08,66.38-60.59,13.85-11.88,27.35-24.18,41.42-35.8,10.74-8.87,22.03-17.08,33.24-25.37,11.62-8.59,23.34-17.06,35.19-25.33,18.83-13.15,37.6-26.39,56.75-39.06,55.25-36.56,113.02-68.72,173.14-96.49,34.03-15.72,68.44-30.78,103.35-44.42,52.95-20.68,107-38.24,162.17-52.17,16.63-4.2,33.11-9.05,49.84-12.81,17.67-3.98,35.54-7.07,53.34-10.45,12.03-2.28,24.06-4.64,36.16-6.49,14.04-2.14,28.24-3.3,42.23-5.69,59.6-10.17,119.89-11.04,180.03-13.43,43.97-1.75,87.92.19,131.78,4.19,24.87,2.27,49.89,2.87,74.77,5.07,18.04,1.6,36.03,4.14,53.9,7.11,18.76,3.12,37.24,8.01,56.04,10.78,53.85,7.94,106.04,22.64,157.92,38.42,61.17,18.6,121.15,40.62,179.2,67.56,73.49,34.1,144.2,73.09,211.95,117.67,93.12,61.28,177.42,132.95,255.22,212.49,67.51,69.02,127.62,144.06,180.88,224.56,39.74,60.07,74.77,122.81,105.23,188.07,5.64,12.08,10.1,24.69,15.43,36.92,6.6,15.15,13.84,30.02,20.22,45.26,3.48,8.32,5.58,17.21,8.66,25.72,1.42,3.93,4.13,7.41,5.51,11.35,6.88,19.69,13.47,39.49,20.23,59.22,20.63,60.23,35.13,122.04,47.27,184.43,3.1,15.92,5.66,31.95,8.2,47.98,12.9,81.34,17.93,163.26,17.72,245.55Zm-19.67-13.01c.58-74.36-4.95-148.3-16.36-221.74-5.16-33.21-11.29-66.32-18.31-99.19-21.74-101.68-54.55-199.79-97.4-294.51-30.38-67.15-65.88-131.54-105.69-193.55-50.53-78.72-108.14-151.95-172.5-219.76-65.75-69.27-137.33-131.96-214.83-187.89-81.82-59.04-168.66-109.37-260.45-151.16-81.33-37.03-165.49-66.11-252.16-87.66-33.48-8.33-67.26-15.97-101.3-21.46-45.67-7.36-91.58-14.06-137.64-17.95-87.44-7.4-175.04-7.25-262.58.38-15.8,1.38-31.2,5.76-47.23,5.3-4.73-.14-9.47,2.52-14.3,3.16-16.39,2.19-32.89,3.59-49.22,6.14-82.79,12.92-163.63,33.78-242.83,60.94-98.9,33.91-193.09,78.1-282.81,131.79-86.01,51.47-166.32,110.75-240.43,178.18-28.79,26.2-56.1,54.09-83.31,81.97-44.28,45.37-84.18,94.52-121.16,145.94-21.57,29.99-41.86,60.91-62,91.89-19.35,29.75-37.36,60.36-54.01,91.71-9.47,17.83-18.21,36.05-26.96,54.24-8.97,18.64-18.25,37.18-26.14,56.28-9.48,22.93-18.69,45.98-26.07,69.76-10.85,34.95-23.62,69.32-34.03,104.39-9.98,33.64-18.59,67.73-26.64,101.9-4.7,19.93-7.03,40.41-10.6,60.61-.91,5.17-3,10.15-3.71,15.32-1.99,14.4-3.55,28.86-5.25,43.3-5.6,47.65-10.72,95.35-12.13,143.36-1.43,48.66-.61,97.28,2.81,145.85,3.08,43.67,6.59,87.3,13.87,130.53,2.77,16.42,5.49,32.84,8.41,49.23,18.89,106.01,50.19,208.38,91.83,307.56,52.24,124.44,120.27,239.64,204.48,345.21,68.35,85.68,143.85,164.27,229.02,233.51,43.21,35.13,87.84,68.23,134.32,98.87,95.23,62.78,196.79,112.89,303.83,152.01,55.06,20.12,110.95,37.59,168.19,50.46,22.41,5.04,44.92,9.63,67.43,14.2,17.85,3.62,35.7,7.39,53.69,10.18,14.66,2.27,29.5,3.45,44.3,4.66,45.47,3.71,90.91,8.63,136.46,10.47,88.56,3.57,176.72-2.54,264.4-15.39,24.68-3.62,49.45-6.9,73.87-11.83,27.1-5.47,53.89-12.49,80.74-19.12,47.22-11.66,93.51-26.38,139.27-42.82,94.32-33.89,184.24-77.06,269.56-129.54,83.65-51.45,161.07-111.43,234.13-176.9,63.92-57.27,121.06-121.05,173.76-188.72,54.14-69.5,101.67-143.34,142.53-221.43,11.77-22.51,23.83-44.89,34.74-67.82,8.47-17.78,15.68-36.18,22.89-54.53,10.38-26.43,20.37-53.01,30.29-79.61,3.71-9.97,6.67-20.22,10.11-30.29,3.36-9.85,5.81-19.96,9.28-29.81,4.43-12.53,7.21-25.63,11.22-38.32,3.95-12.51,5.76-25.49,9.36-38.1,3.59-12.6,5.23-25.76,7.95-38.62.93-4.4,2.94-8.57,3.78-12.98,5.26-27.59,10.58-55.17,15.36-82.85,2.25-13.01,3.26-26.23,4.98-39.34,8.08-61.88,10.91-124.08,11.2-186.43Z"/>
    <path class="cls-2" d="m1826.88,3583.99v-224.57c19.69-.5,38.73-.08,58.22-.03.24,2.45.54,4.04.54,5.63-.04,28.98.29,57.98-.37,86.95-.27,11.89-2.66,23.74-4.12,35.6-.57,4.61-1.22,9.22-2.01,15.13,5.7-7.54,10.71-14,15.54-20.58,8.16-11.12,18.38-19.83,30.55-26.21,31.71-16.62,68.93-14.94,94.78,6.91,15.42,13.04,22.15,30.53,25.39,49.58,4.17,24.5,2.03,48.36-11.24,72.17h76.87v-133.38h58.27v132.75h57.49c-2.81-5.91-6.05-11.65-8.27-17.76-1.8-4.95-2.86-10.3-3.37-15.55-1.49-15.18-2.34-30.85,3.17-45.05,9.55-24.63,26.77-43.03,51.73-53.03,22.97-9.2,46.54-10.67,70.46-3.72,26.1,7.59,43.36,24.42,50.38,50.57,2.99,11.13,4.36,22.96,4.55,34.51.51,30.64-.02,61.3-.16,91.95,0,1.59-.27,3.19-.54,6.06-6.56,0-12.79,0-19.03,0-151.26.03-302.51.07-453.77.07-181.24,0-362.48.02-543.72-.08-10.64,0-21.34-.41-31.91-1.54-37.92-4.07-63.84-28.36-69.32-66.11-1.95-13.4-3.22-27.67-.75-40.77,4.44-23.52,14.67-44.91,35.12-59.46,26.58-18.92,55.94-23.35,87.51-16.39,9.18,2.02,18.61,2.86,27.88,4.5,8.07,1.42,16.07,3.2,24.64,4.93v126.59h143.28c-1.49-3.69-3.39-7.53-4.61-11.58-8.69-28.91-4.66-56.28,9.39-82.77,19.2-36.17,64.84-48,94.22-43.81,9.23,1.32,18.64,3.47,27.2,7.06,21.5,9.03,35.91,25.19,42,47.78,7.14,26.5,6.94,52.71-6.12,77.78-.85,1.63-1.02,3.61-1.63,5.9h71.75Zm56.14-.39c23.56,0,46.53,1.3,69.27-.42,17.26-1.31,28.94-12.47,34.1-29.51,3.79-12.52,3.54-24.99-.71-37.32-6.12-17.74-21.48-25.78-39.62-20.81-10.55,2.89-19.37,8.72-27.02,16.4-19.73,19.85-28.95,44.92-36.02,71.66Zm456.2.71c0-19.11.22-37-.14-54.88-.1-4.88-1.56-9.86-3.09-14.56-4.54-13.97-14.62-21.06-29.13-21.12-14.68-.05-24.53,7.61-30.69,20.1-6.08,12.34-7.1,25.6-3.89,38.94,4.41,18.32,17.85,29.98,36.63,31.39,9.56.72,19.23.13,30.3.13Zm-696.5-46.35c0,6.83-.44,11.77.08,16.61,1.39,12.86,9.02,22.98,19.65,28.02,7.31,3.46,17.78,2.36,26.27.58,7.82-1.64,12.98-9.83,16.07-16.45,7.9-16.96,9.22-35.13,2.21-53-2.72-6.92-6.44-13.1-14.09-16.6-17.73-8.1-41.67-.73-47.32,19.48-2.21,7.92-1.77,15.6-2.87,21.36Zm-246.58-37.97c-9.92-4.67-19.66-6.77-30.14-6.25-18.49.92-32.73,16.52-32.6,32.14.08,9.49-1.61,19.2-.07,28.41,1.76,10.51,7.09,20.37,17.62,24.91,14.32,6.18,29.53,6.38,45.19,4.32v-83.54Z"/>
    <path class="cls-2" d="m3006.12,3583.88h144.08c-.4-1.42-.49-2.42-.94-3.22-15.51-28.23-13.44-57.16-1.37-85.4,11.42-26.72,33.6-41.13,61.59-47.12,4.8-1.03,9.53-2.9,14.37-3.18,30.17-1.77,57.48,4.71,77.87,29.06,7.12,8.5,10.9,18.59,13.86,29.43,5.47,19.99,3.19,40.17,3.58,60.29.37,19.32.05,38.65.03,57.97,0,2.95,0,5.91,0,9.56h-369.59v-271.57h56.22c1.17,37.11.2,74.26.29,111.4.09,37.31.02,74.61.02,112.78Zm257.36.2c0-10.14.03-18.77,0-27.4-.03-8.64.1-17.29-.28-25.92-.2-4.61-.85-9.31-2.11-13.73-5.12-18.08-20.18-27.04-38.34-22.74-10.99,2.6-18.93,9.42-23.66,19.65-5.97,12.93-5.84,26.37-2.82,40,4.41,19.93,20.65,28.78,34.34,29.97,10.47.91,21.08.18,32.87.18Z"/>
    <path class="cls-2" d="m140.31,3451.75h58.18c-1.56,15.89-3.11,31.63-4.65,47.38.41.21.82.42,1.24.63,4.19-5.63,8.33-11.29,12.57-16.88,21.84-28.82,51.38-41.04,86.6-36.55,28.85,3.67,50.8,18.64,60.13,47.93,9.02,28.33,8.49,56.66-3.16,83.99-11.72,27.52-34.54,42.06-62.64,49.55-11.36,3.03-22.94,2.82-34.46,3.04-19.29.37-38.59.1-58.79.1-1.91,9.78-3.12,18.8-5.48,27.52-6.2,22.91-19.82,40.25-40.69,51.68-9.07,4.97-18.48,9.47-28.69,11.38-5.8,1.09-11.92.86-17.87.6-12.8-.55-26.33.85-38.17-2.92-13.2-4.2-26.38-10.53-36.61-21.21-10.38-10.84-17.15-23.49-22.1-37.5-3.93-11.12-4.51-22.62-5.22-34.11-1.66-27.06.71-53.85,6.34-81.19,19.4-7.49,40.08-8.69,62.18-11.56-1.5,4.73-2.53,8.07-3.61,11.4-9.98,30.74-10.79,62.03-5.04,93.56,2.49,13.68,9.29,24.89,22.68,30.68,16.21,7.02,37.01,3.51,46.51-10.8,4.85-7.3,7.75-15.05,8.57-24.06,5.18-56.46.99-113.01,2.16-169.5.08-3.95.01-7.9.01-13.15Zm55.43,132.21c22.71,0,44.6.61,66.42-.25,11.12-.44,21.18-5.35,28.59-14.39,12.42-15.15,14.8-42.24,5.16-59.34-7.15-12.69-16.78-17.76-31.48-15.84-13.06,1.71-23.58,8.53-32.52,17.87-19.19,20.04-28.41,45.07-36.16,71.95Z"/>
    <path class="cls-2" d="m2676.43,3458.14v125.55h162.39v-131.69h57.92c.57,59.48-.36,118.89.28,179.25-5.78.23-10.67.58-15.55.58-79.26-.01-158.52-.08-237.78-.11-17.65,0-35.3.3-52.95.04-10.3-.15-21.12.71-30.77-2.11-27.6-8.08-48.68-24.23-56.59-53.54-5.21-19.3-5.5-38.86-1.5-58.39,8.36-40.78,37.34-66.33,80.28-71.8,18.81-2.4,37.2-.08,55.6,3.12,8.49,1.47,16.96,3.09,25.38,4.95,4.15.92,8.15,2.53,13.29,4.17Zm-56.47,125.92c0-23.82,0-46.47,0-69.12.01-17.47-1.53-19.19-19.39-21-2.97-.3-5.99-.43-8.97-.28-15.68.79-27.68,10.04-32.6,25.01-3.63,11.02-3.99,22.22-1.71,33.54,3.55,17.61,16.06,29.77,33.97,31.67,9.15.97,18.49.17,28.7.17Z"/>
    <path class="cls-2" d="m721.46,3583.82v-132.84h57.23v179.79h-378.56c-2.54-7.68-3.73-237.47-1.37-270.19,6.75-2.16,45.97-2.48,57.24-.23v223.46h265.45Z"/>
    <path class="cls-2" d="m928.5,3631.55c-2.37,14.25-3.65,26.9-6.67,39.13-6.88,27.87-24.88,45.56-52.19,53.96-15.4,4.74-31.08,5.97-47.06,3.98-4.55-.57-9.16-.69-15.01-1.1,1.57-15.83,3.1-31.24,4.73-47.67,3.26.3,6.4.74,9.56.85,6.96.24,14,1.04,20.86.3,13.04-1.4,21.19-9.4,24.31-21.83,1.69-6.7,2.4-13.82,2.42-20.75.18-58.29.1-116.58.1-174.87,0-3.94,0-7.89,0-12.46h56.94v132.35h67.27v-223.42h55.97v271.54h-121.22Z"/>
    <path class="cls-2" d="m1884.27,3917.95c-3.15,32.35-6.3,64.69-9.5,97.58h-36.57c1.28-8.91,2.51-17.25,3.66-25.6,1.93-14.07,3.81-28.15,5.71-42.22.74-5.51,1.4-11.03,2.24-16.53,1.87-12.22,3.79-24.43,5.77-36.63,2.33-14.35,4.75-28.69,7.28-43.93h41.38c9.88,34.37,19.95,69.37,30.39,105.66,1.93-5.04,3.8-8.89,4.89-12.96,5.49-20.54,10.5-41.21,16.26-61.67,2.95-10.47,7.1-20.6,10.89-31.39h39.39c7.82,54.85,15.62,109.6,23.63,165.74-12.78-.09-25.12.92-36.8-1.03-4.36-35.03-8.57-68.88-12.78-102.73-.72-.11-1.45-.21-2.17-.32-.89,2.99-1.87,5.96-2.66,8.98-7.18,27.37-14.28,54.76-21.51,82.12-1.09,4.13-2.7,8.11-4.32,12.92-9.67,0-18.94-.11-28.2.05-3.64.06-5.53-1.77-6.68-4.82-1.06-2.8-2.15-5.6-2.97-8.47-6.14-21.58-12.2-43.18-18.33-64.76-1.94-6.83-4.03-13.61-6.06-20.41-.98.14-1.95.27-2.93.41Z"/>
    <path class="cls-2" d="m2233.92,3849.91c13.73,0,27.68.08,41.62-.05,4.85-.05,5.96,3.63,7.47,6.84,12.86,27.4,25.63,54.84,38.47,82.24,2.17,4.62,4.58,9.12,6.87,13.68l2.28-.72c0-2.81.03-5.63,0-8.44-.38-26.64-.75-53.27-1.19-79.91-.22-13.5-1.11-13.52,13.58-13.63,5.99-.04,11.99-.05,17.98-.03.64,0,1.28.32,1.91.49,2.08,6.85,2.74,152.29.62,164.81h-46.7c-18.26-33.64-33.32-69.85-50.23-105.47-2.19,17.23-.25,34.41,0,51.6.25,17.63.06,35.27.06,54.22-10.92,1.07-22.28,0-33.43.35-2.23-11.93-1.62-158.25.67-165.99Z"/>
    <path class="cls-2" d="m1713.62,3950.96c-.67-33.22-1.34-66.44-2.03-100.44h35.85c.29,54.41-.15,109.14.08,165.34-10.04,0-19.43-1.17-28.41.26-14.9,2.37-21.94-4.28-27.49-17.25-10.72-25.06-22.91-49.5-34.55-74.17-1.91-4.04-4.14-7.93-7.66-11.42v101.67h-33.28v-164.84c14.65,0,28.86-.1,43.06.14,1.57.03,3.61,1.65,4.55,3.1,2.15,3.34,3.85,6.99,5.58,10.58,4.89,10.21,9.77,20.42,14.52,30.69,2.32,5.03,4.07,10.32,6.53,15.28,6.93,13.99,14.09,27.86,21.16,41.77.7-.24,1.41-.48,2.11-.71Z"/>
    <path class="cls-2" d="m1109.32,3359.83h55.45v271.36h-55.45v-271.36Z"/>
    <path class="cls-2" d="m3420.72,3373.36v257.89h-57.47v-257.89h57.47Z"/>
    <path class="cls-2" d="m1432.44,3941.3c-.02-22.19,3.52-40.84,14.12-57.83,21.49-34.44,58.54-43.31,93.16-31,20.98,7.46,33.18,23.67,38.22,45.2,5.18,22.1,5.45,44.33-.69,66.17-8.92,31.72-33.04,53.92-69.83,55.04-7.58.23-15.37-.43-22.8-1.96-31.46-6.49-46.45-30.35-50.94-59.26-.97-6.22-.98-12.59-1.25-16.35Zm112.94-6.82c-2.12-10.36-3.17-21.09-6.61-30.99-5.25-15.12-17.22-22.46-32.34-21.6-12.76.73-22.13,7.42-27.74,18.51-10.33,20.45-10.2,41.88-2.86,63.05,4.55,13.13,14.8,20.14,29,20.6,14.6.47,25.88-5.2,32.94-18.29,5.22-9.67,6.49-20.18,7.61-31.28Z"/>
    <path class="cls-2" d="m532.27,4015.87v-164.47c.69-.54,1.18-1.27,1.7-1.28,19.28-.4,38.61-1.66,57.84-.78,13.71.63,27.38,3.14,39.58,11.16,14.97,9.84,23.75,23.66,28.14,40.36,6.31,24.01,5.41,48.12-4.24,71.01-10.58,25.09-29.94,41.14-57.31,43.62-21.39,1.94-43.09.39-65.71.39Zm36.5-32.42c7.47,0,14.46.77,21.23-.16,15.14-2.08,25.34-10.86,30.67-25.2,5.37-14.46,6.17-29.28,2.41-44.14-3.79-14.96-11.31-26.99-27.7-30.87-8.79-2.09-17.58-1.77-26.61-.98v101.36Z"/>
    <path class="cls-2" d="m696.23,3850.06h35.71v62.11h55.91v-61.7h37.4v164.65h-36.9v-65.91h-55.72v66.63h-36.39v-165.78Z"/>
    <path class="cls-2" d="m54.83,4016.01H18.95v-165.9c22.28-.43,44.53-3.92,66.66.16,21.1,3.9,35.63,15.76,40.53,37.54,5.07,22.58-6.34,44.9-27.56,53.96-1.81.77-3.71,1.35-6.48,2.34,14.96,23.84,29.67,47.27,45.46,72.43-14.48,0-27.28.19-40.06-.09-5.61-.12-7.25-5.44-9.44-9.32-8.83-15.66-17.32-31.51-26.01-47.24-1.48-2.68-3.34-5.15-6.15-7.33-3.99,21.07,1.34,41.85-1.07,63.44Zm1.07-135.83v43.2c8.59.27,16.19-.08,23.17-3.65,7.61-3.89,10.62-10.71,10.31-18.91-.31-8.29-3.99-15.24-12.08-17.69-6.68-2.02-13.99-2.01-21.4-2.95Z"/>
    <path class="cls-2" d="m961.9,4015.36h-35.92v-164.61c.42-.31.67-.66.92-.66,21.25-.06,42.53-.64,63.75.12,9.31.33,17.98,4.64,25.42,10.69,14.58,11.83,19.94,27.5,16.73,45.43-3.15,17.57-13.47,30.06-30.99,35.76-.9.29-1.72.88-2.55,1.38-.27.16-.45.48-.94,1.04,14.48,23.01,29.03,46.13,44.21,70.25-3.11.41-5.2.91-7.29.93-9.33.11-18.68-.32-27.97.24-5.49.33-8.65-1.61-11.1-6.25-8.26-15.58-16.67-31.08-25.13-46.55-2.1-3.84-3.55-8.69-10.88-8.78.58,20.4,1.14,40.17,1.74,61.01Zm-.35-91.55c13.43-.19,25.76.26,32.34-12.79,3.89-7.72,3.62-15.9-2.2-22.37-8.17-9.08-18.96-8.96-30.13-7.04v42.2Z"/>
    <path class="cls-2" d="m1287.91,3981.16v-52.63h35.92c.31,1.97.94,4.14.94,6.31.04,22.97-.12,45.94.01,68.91.03,5.2-1.53,7.74-7.1,8.39-12.45,1.45-24.79,3.73-37.22,5.33-15.06,1.93-30.02.79-44.36-4.12-21.76-7.45-35.92-23.1-41.72-44.9-5.63-21.18-5.6-43.07,1.38-64.07,10.33-31.08,31.89-49.99,64.55-55.23,18.64-2.99,37.18-1.68,55.41,3.23,2.52.68,4.9,1.9,8.31,3.26-2.75,11.36-5.45,22.49-8.35,34.48-4.78-1.6-9.06-3-13.32-4.48-9.87-3.43-19.99-5.01-30.42-3.86-19.97,2.2-33.11,12.97-38.93,32.12-3.42,11.26-3.76,22.8-1.97,34.56,4.48,29.4,29.67,41.01,56.88,32.7Z"/>
    <path class="cls-2" d="m2063.22,3850.25h35.83c.18,2.98.48,5.54.48,8.1.02,31.63-.06,63.26.05,94.9.02,5.29.46,10.63,1.34,15.84,1.62,9.58,7.57,15.49,17.08,17.1,5.16.87,10.66,1.43,15.77.65,11.8-1.81,17.52-7.7,19.51-19.54.98-5.87,1.19-11.92,1.21-17.9.12-29.3.06-58.6.06-87.9,0-3.59,0-7.19,0-11.14h36.51c0,2.81,0,5.06,0,7.31.07,30.97.19,61.93.19,92.9,0,11.38-1.32,22.58-5.58,33.28-6.58,16.56-18.23,27.44-35.55,32.17-15.41,4.21-30.85,4.74-46.4.94-24.54-5.99-38.84-22.9-40.28-48.11-.51-8.97-.38-17.97-.38-26.96,0-26.97.1-53.94.15-80.91,0-3.26,0-6.53,0-10.73Z"/>
    <path class="cls-2" d="m2956.57,4015.07c-12.67.19-23.86.54-35.04.33-1.7-.03-3.9-2.35-4.91-4.15-1.61-2.85-2.37-6.17-3.55-9.27-1.98-5.19-4-10.37-6.05-15.69h-52.29c-3.14,9.71-6.17,19.07-9.38,28.99-11.95.24-23.33.98-34.45.04-.38-1.8-.75-2.48-.6-3.02,3.01-10.77,5.89-21.57,9.2-32.25,2.51-8.09,5.79-15.95,8.39-24.01,7.91-24.47,15.75-48.97,23.41-73.52,2.43-7.8,4.03-15.86,6.32-23.71,2.33-7.98,3.55-9.12,11.31-9.32,11.25-.29,22.52-.08,33.81-.08,17.9,55.07,35.53,109.34,53.83,165.65Zm-56.94-59.64c-6.62-20.54-11.05-40.56-19.04-61.23-6.42,21.55-12.26,41.14-18.24,61.23h37.28Z"/>
    <path class="cls-2" d="m407.18,3850.25h42.62c17.88,54.84,35.83,109.87,54.01,165.62h-39.2c-3.28-9.76-6.61-19.69-9.9-29.49h-53.81c-2.87,9.88-5.64,19.4-8.54,29.37h-36.64c18.2-55.23,35.73-110.01,51.46-165.51Zm39.5,105.23c-6.55-21.28-12.72-41.3-19.36-62.84-6.06,22.08-11.59,42.21-17.26,62.84h36.61Z"/>
    <path class="cls-2" d="m2735.8,3963.82v50.59c-11.72,2.39-23.12,1.05-35.16,1.24v-164.12c1.41-.81,2.26-1.7,3.12-1.72,17.63-.45,35.33-1.95,52.88-.87,17.83,1.11,33.06,8.59,43.33,24.6,10.06,15.69,10.38,32.33,4.85,48.88-8.63,25.84-27.82,38.71-54.8,40.32-4.6.28-9.19.69-14.22,1.07Zm.47-82.96v51.06c12.65,1.18,23.61-.71,30.53-11.54,6.04-9.45,6.03-19.83-.08-29.27-7.13-11.01-18.25-11.8-30.45-10.25Z"/>
    <path class="cls-2" d="m1072.14,4014.94v-164.75h85.08v31.44h-49.07v33.88h47.23c.99,10.58.7,20.61-.32,31.72h-47.49c-.34,12.45-.15,23.84.08,35.46h49.71c1.16,10.55.48,20.98.59,32.26h-85.8Z"/>
    <path class="cls-2" d="m2586.24,3855.14c-2.29,10.92-4.56,21.77-7.01,33.46-4.67-1.15-8.42-2.03-12.15-3.02-25.19-6.7-46.47,6.57-50.89,32.27-2.2,12.83-2.66,25.87.94,38.61,4.87,17.27,17.06,26.7,35.04,27.11,4.95.11,9.98-.39,14.87-1.2,4.54-.75,8.96-2.28,14.62-3.78,1.6,10.76,3.19,21.44,4.9,32.89-25.04,7.37-49.67,10.83-74.2-.14-15.38-6.88-24.98-19.38-31.34-34.65-4.12-9.87-6.18-19.97-6.04-30.79.22-16.83.01-33.42,6.9-49.46,18.37-42.75,61.26-56.31,100.14-43.54,1.21.4,2.28,1.19,4.21,2.23Z"/>
    <path class="cls-2" d="m3292.79,3849.57c13.18,0,25.08-.02,36.99.01,4.79.01,5.75,4.16,7.12,7.32,6.35,14.65,12.44,29.41,18.61,44.14,2.17,5.19,4.32,10.4,7.14,17.19,11.5-22.73,19.36-45.52,29.09-68.04h37.04c-.09,1.5.19,2.93-.31,3.99-7,14.95-14.26,29.78-21.14,44.77-8.54,18.6-16.9,37.27-25.06,56.04-1.26,2.89-1.33,6.45-1.36,9.7-.13,16.29-.06,32.57-.06,48.86-6.92,2.64-24.62,3.1-36.71.8,0-5.03-.1-10.23.04-15.43.09-3.32.71-6.62.78-9.93.59-27.26.26-27.12-11.24-51.62-8.7-18.53-16.27-37.59-24.76-56.21-4.6-10.09-10.08-19.78-16.17-31.6Z"/>
    <path class="cls-2" d="m324.51,3850.31h37.99c-6.09,13.17-11.8,25.47-17.48,37.79-10.31,22.36-20.68,44.68-30.79,67.13-1.29,2.87-1.59,6.38-1.62,9.6-.15,16.65-.07,33.3-.07,50.72h-35.62c-.22-2.21-.66-4.72-.69-7.24-.13-14.66-.42-29.32-.11-43.97.13-6.24-1.5-11.7-4.05-17.21-14.55-31.4-28.99-62.85-43.43-94.3-.25-.54-.12-1.25-.22-2.48h39.34c8.97,21.81,18.05,43.9,27.59,67.1,9.86-22.71,19.46-44.82,29.16-67.16Z"/>
    <path class="cls-2" d="m3273.33,3850.46v32.46h-35.97v132.04h-36.82c-1.41-21.63-.41-43.47-.65-65.26-.24-21.58-.05-43.17-.05-65.92-9.35,0-18.61.08-27.87-.02-9.06-.1-9.45-.49-9.61-9.76-.14-7.91-.03-15.82-.03-23.33,10.18-2.81,102.42-2.85,111-.21Z"/>
    <path class="cls-2" d="m3067.05,3982.65v32.27c-27.58,1.35-54.71.92-81.55.71-2.62-8.17-2.81-155.14-.3-165.7h34.23v132.72h47.62Z"/>
    <path class="cls-2" d="m1364.93,3850.72h35.58v163.66h-35.58v-163.66Z"/>
    <path class="cls-2" d="m200.41,4015.9h-35.35v-165.44c11.34-1.02,23.08-.56,35.35-.4v165.83Z"/>
    <path class="cls-2" d="m3131.13,4014.93h-34.96v-164.83h34.96v164.83Z"/>
    <path class="cls-2" d="m2622.3,3850.32h34.74v165.12c-11.18.84-22.65.39-33.96.33-2.25-7.1-2.94-151.47-.78-165.45Z"/>
    <path class="cls-2" d="m2406.68,3850.14h34.05v165.16h-34.05v-165.16Z"/>
    <path class="cls-2" d="m3432.71,3269.2c-1.41,9.92-2.7,19.04-4.13,29.17-3.79-.51-6.93-1.2-10.09-1.3-5.61-.19-11.37-.78-16.82.19-6.16,1.09-10.08,6.45-9.73,11.06.38,4.92,5.59,10.59,11.29,11.12,6.28.59,12.64.29,18.96.34,4.27.04,8.54,0,13.55,0v30.14h-94.52v-28.22c5.33-.52,10.47-1.02,16.32-1.59-.61-1.98-.93-3.52-1.55-4.93-5.63-12.8-1.49-23.33,7.62-32.64,10.23-10.45,23.2-15.14,37.33-16.7,10.55-1.16,21.1-.86,31.77,3.33Z"/>
    <path class="cls-2" d="m2142.07,3364.42c15.38.55,27.88,14.73,27.37,31.06-.5,16.14-14.31,29.77-29.91,28.15-18.26-1.9-27.07-11.45-27.09-30.39-.01-15.25,10.33-29.35,29.63-28.81Z"/>
    <path class="cls-2" d="m2839.44,3394.54c-.22-16.35,13.14-29.86,29.52-29.86,14.95,0,27.8,13.64,27.75,29.46-.05,15.59-13.83,29.47-29.2,29.39-15.53-.08-27.85-12.8-28.07-28.99Z"/>
    <path class="cls-2" d="m304.34,3394.16c-.02,16.73-12.62,29.52-28.87,29.3-15.68-.21-27.95-12.95-28.1-29.17-.15-16.57,12.32-29.62,28.54-29.84,15.88-.22,28.45,12.92,28.43,29.72Z"/>
    <path class="cls-2" d="m1671.77,3395.53c.15,8.38-2.43,15.79-8.42,21.72-6.51,6.45-14.4,10.19-23.51,7.43-9.52-2.88-18.1-6.72-20.89-18.57-2.28-9.68-2.17-19.12,2.06-27.16,7.12-13.54,29.01-16.92,40.01-7.21,6.68,5.9,10.68,14.24,10.76,23.79Z"/>
    <path class="cls-2" d="m779.54,3689.03c.14,15.8-12.39,28.97-27.82,29.29-13.87.28-27.12-8.36-27.34-28.85-.2-18.38,7.8-28.1,26.89-29.21,14.8-.85,28.13,13.28,28.27,28.77Z"/>
    <path class="cls-2" d="m2559.82,3365.93c15.07-.25,27.12,12.74,27.5,29.64.36,15.91-11.5,29.07-26.43,29.34-15.46.28-27.61-12.31-28.01-29-.39-16.49,11.5-29.73,26.94-29.98Z"/>
    <path class="cls-2" d="m1373.8,3390.97c-2-6.97,3.53-12.25,9.19-17.36,5.63-5.07,12.2-7.91,19.94-7.41,15.07.98,27.11,15.1,26.3,30.8-.82,15.81-14.16,28.84-28.99,28.31-15.61-.55-27.43-15.03-26.44-34.34Z"/>
    <path class="cls-2" d="m1364.64,3396.07c0,15.98-13.08,30.02-27.88,29.4-13.74-.58-27.96-11.92-27.61-30.69.29-15.59,12.2-28.17,27.28-28.54,15.31-.38,28.2,13.25,28.21,29.83Z"/>
    <path class="cls-2" d="m2652,3395.68c-1.01,11.63-5.01,21.49-15.96,26.86-11.23,5.51-21.29,1.66-30.62-5.15-1.26-.92-2.4-2.29-3.05-3.69-4.66-10.02-6.16-20.26-1.76-30.83,4.58-10.98,14.66-18.17,25.58-16.59,14.3,2.06,20.62,6.92,24.7,20.59.84,2.82.77,5.91,1.11,8.81Z"/>
    <path class="cls-2" d="m713.87,3690c-.01,16.56-11.27,28.57-26.66,28.44-15.66-.13-27.62-12.85-27.58-29.16.03-13.37,10.16-30.27,27.61-29.52,14.34.62,26.65,14.11,26.64,30.23Z"/>
    <path class="cls-2" d="m1708.91,3366.1c11.9.08,19.92,6.4,23.53,17.16,2.34,6.99,4.3,13.35,1.99,21.27-2.97,10.22-8.47,16.93-18.33,19.68-10.13,2.82-19-.15-26.15-7.96-15.2-16.59-7.33-44.26,14.09-49.4,1.92-.46,3.92-.61,4.87-.76Z"/>
    <path class="cls-1" d="m1818.72,6.85h-248.21C1610.17.4,1652.46.15,1694.63,0c36.27-.12,72.54,1.96,108.81,3.26,5.16.18,10.28,1.45,15.42,2.21-.04.46-.09.91-.13,1.37Z"/>
    <path class="cls-3" d="m3208.83,1528.72c-.29,62.34-3.12,124.54-11.2,186.43-1.71,13.11-2.73,26.33-4.98,39.34-4.78,27.67-10.09,55.26-15.36,82.85-.84,4.4-2.85,8.58-3.78,12.98-2.72,12.87-4.36,26.02-7.95,38.62-3.59,12.61-5.4,25.59-9.36,38.1-4.01,12.69-6.79,25.79-11.22,38.32-3.48,9.84-5.92,19.96-9.28,29.81-3.44,10.08-6.4,20.33-10.11,30.29-9.91,26.61-19.9,53.19-30.29,79.61-7.21,18.35-14.42,36.75-22.89,54.53-10.92,22.92-22.97,45.31-34.74,67.82-40.86,78.09-88.39,151.93-142.53,221.43-52.71,67.67-109.84,131.44-173.76,188.72-73.06,65.46-150.48,125.45-234.13,176.9-85.32,52.48-175.23,95.65-269.56,129.54-45.76,16.44-92.05,31.15-139.27,42.82-26.85,6.63-53.64,13.65-80.74,19.12-24.43,4.93-49.2,8.22-73.87,11.83-87.68,12.85-175.84,18.95-264.4,15.39-45.56-1.84-90.99-6.76-136.46-10.47-14.8-1.21-29.65-2.39-44.3-4.66-17.99-2.79-35.84-6.56-53.69-10.18-22.51-4.57-45.02-9.15-67.43-14.2-57.24-12.88-113.13-30.34-168.19-50.46-107.04-39.12-208.6-89.23-303.83-152.01-46.48-30.64-91.11-63.74-134.32-98.87-85.17-69.24-160.67-147.83-229.02-233.51-84.21-105.57-152.23-220.77-204.48-345.21-41.64-99.18-72.93-201.54-91.83-307.56-2.92-16.39-5.65-32.81-8.41-49.23-7.28-43.23-10.79-86.85-13.87-130.53-3.43-48.57-4.24-97.19-2.81-145.85,1.41-48.01,6.52-95.7,12.13-143.36,1.7-14.44,3.27-28.9,5.25-43.3.71-5.18,2.79-10.16,3.71-15.32,3.58-20.2,5.91-40.68,10.6-60.61,8.05-34.17,16.66-68.26,26.64-101.9,10.41-35.07,23.18-69.44,34.03-104.39,7.38-23.78,16.59-46.83,26.07-69.76,7.89-19.1,17.17-37.64,26.14-56.28,8.76-18.19,17.5-36.41,26.96-54.24,16.65-31.35,34.66-61.96,54.01-91.71,20.14-30.98,40.44-61.9,62-91.89,36.98-51.42,76.88-100.57,121.16-145.94,27.21-27.88,54.51-55.77,83.31-81.97,74.11-67.43,154.42-126.71,240.43-178.18,89.72-53.69,183.91-97.87,282.81-131.79,79.19-27.15,160.04-48.02,242.83-60.94,16.33-2.55,32.83-3.94,49.22-6.14,4.83-.65,9.57-3.3,14.3-3.16,16.04.46,31.44-3.92,47.23-5.3,87.53-7.64,175.13-7.78,262.58-.38,46.07,3.9,91.98,10.59,137.64,17.95,34.04,5.49,67.81,13.13,101.3,21.46,86.68,21.56,170.84,50.64,252.16,87.66,91.79,41.79,178.63,92.12,260.45,151.16,77.5,55.93,149.09,118.62,214.83,187.89,64.36,67.81,121.97,141.04,172.5,219.76,39.81,62.02,75.31,126.4,105.69,193.55,42.85,94.72,75.66,192.83,97.4,294.51,7.03,32.87,13.15,65.98,18.31,99.19,11.41,73.44,16.94,147.38,16.36,221.74ZM1705.43,80.07c-18.42.52-45.08.8-71.69,2.16-36.09,1.84-72.13,4.36-107.85,10.5-21.23,3.65-42.79,5.36-64.02,9-44.89,7.7-89.31,17.64-133.3,29.45-88.67,23.81-174.22,55.92-256.82,95.98-122.48,59.41-233.96,135.18-335.4,225.79-72.78,65.01-138.01,136.93-196.19,215.32-25.62,34.52-50,69.86-72.36,106.54-28.08,46.07-53.71,93.49-76.79,142.31-20.49,43.33-38.25,87.76-54.74,132.68-9.34,25.44-16.48,51.69-24.51,77.6-4.68,15.1-9.71,30.11-13.57,45.42-4.03,16-6.7,32.34-10.25,48.47-2.41,10.97-5.75,21.75-7.88,32.76-2.2,11.33-3.22,22.89-5.17,34.27-1.27,7.46-3.8,14.71-4.84,22.19-2,14.31-3.22,28.72-5,43.06-5.91,47.65-9.54,95.48-10.64,143.46-1.81,78.99,2.85,157.66,13.65,235.95,2.33,16.87,3.71,33.87,7.86,50.47,1.59,6.36,2.75,12.84,3.87,19.3,1.68,9.68,2.61,19.51,4.82,29.06,4.85,21.01,10.06,41.95,15.58,62.8,5.7,21.53,11.41,43.08,18.03,64.34,20.79,66.69,45.84,131.74,75.97,194.81,28.59,59.85,61.36,117.34,97.56,172.87,29.2,44.78,61.55,87.26,95.36,128.66,24.18,29.62,50.08,57.64,76.89,84.84,35.96,36.49,72.47,72.41,112.6,104.39,23.55,18.77,46.68,38.15,71.09,55.76,28.92,20.86,58.82,40.4,88.65,59.97,31.46,20.63,64.23,39.1,97.64,56.4,33.13,17.15,66.72,33.31,101.03,48.03,37.51,16.09,75.58,30.68,114.31,43.33,40.12,13.1,80.8,24.56,122.04,33.79,14.67,3.28,29.15,7.45,43.89,10.38,17.8,3.53,35.77,6.18,53.67,9.2,13.56,2.29,27.06,5.11,40.7,6.74,17.17,2.05,34.47,2.96,51.68,4.65,67.42,6.59,134.92,8.83,202.64,5.82,74.82-3.33,149.07-11.37,222.49-26.2,29.86-6.03,59.59-12.89,89.1-20.45,49.69-12.73,98.4-28.71,146.28-47.14,59.36-22.85,117.1-49.23,173.04-79.59,55.14-29.92,107.67-63.92,158.3-100.84,63.88-46.58,124.42-97.13,180.23-153.26,34.8-35,67.83-71.54,99.01-109.77,34.78-42.64,66.8-87.28,96.25-133.73,37.49-59.12,71.66-120.09,99.78-184.26,11.18-25.52,21.01-51.65,31.18-77.61,4.38-11.17,8.05-22.63,12.05-33.95,3.96-11.2,7.98-22.37,11.9-33.58,3.93-11.26,8.18-22.42,11.51-33.86,3.69-12.64,6.42-25.57,9.7-38.33,2.9-11.28,6.19-22.47,8.95-33.79,2.58-10.6,4.6-21.34,7.02-31.98,2.07-9.1,4.62-18.1,6.46-27.25,1.28-6.36,1.36-12.95,2.57-19.33,2.83-15,6.34-29.89,8.94-44.93,2.18-12.59,3.64-25.31,5.09-38,2.08-18.29,4.34-36.59,5.67-54.94,1.91-26.49,3.4-53.02,4.45-79.56,2.17-54.46.53-108.88-3.47-163.2-1.57-21.27-4.52-42.43-7.05-63.62-.76-6.43-2.22-12.77-3.31-19.16-1.59-9.32-3.21-18.64-4.69-27.99-3.32-21.04-6.06-42.19-9.98-63.12-3.51-18.78-7.7-37.49-12.63-55.95-8.14-30.48-16.3-61-25.96-91.02-9.9-30.77-21.33-61.07-32.58-91.39-15.88-42.78-35.45-83.93-55.94-124.67-38.84-77.2-84.93-149.82-136.91-218.8-57.68-76.53-123.12-145.87-194.39-209.78-49.19-44.11-101.77-83.91-156.44-120.9-112.58-76.16-234.16-133.9-363.27-176.04-46.88-15.3-94.41-28.19-142.8-37.59-37.8-7.34-75.86-13.36-113.88-19.53-14.33-2.32-28.85-3.41-43.28-5.06-44.4-5.09-89-6.81-141.88-8.33Z"/>
    <path class="cls-3" d="m1700.6,1928.2c-54.45.22-110.65-5.05-166.5-15.54-102.93-19.33-199.42-55.69-289.89-108.14-46.48-26.94-89.97-58.21-130.85-93.12-40.38-34.48-77.63-71.95-111.58-112.81-36.72-44.18-69.13-91.3-97.17-141.37-24.26-43.33-44.38-88.58-61.08-135.39-19.86-55.67-34.31-112.67-42.61-171.17-3.64-25.65-7.2-51.4-8.86-77.23-1.67-26-1.74-52.18-1.06-78.24,1.24-47.67,6.48-94.96,14.47-142.02,5.72-33.74,13.39-66.89,24.05-99.37,8.29-25.26,15.91-50.77,25.26-75.63,7.06-18.76,16.09-36.8,24.76-54.91,16.33-34.09,34.76-66.99,55.16-98.86,16.77-26.19,34.66-51.52,54.25-75.63,13.05-16.06,26.72-31.62,40.55-47.02,12.41-13.82,24.99-27.55,38.28-40.5,12.99-12.65,26.97-24.29,40.55-36.33,8.86-7.85,17.53-15.93,26.75-23.32,10.35-8.29,21.04-16.17,31.91-23.78,14.58-10.21,29.34-20.17,44.23-29.91,32.34-21.16,65.7-40.5,101.25-55.87,18.15-7.85,36.04-16.35,54.37-23.77,35.12-14.21,71.01-26.33,107.98-34.67,20.52-4.63,40.87-10.31,61.95-12.47,12.57-1.29,25.12-3.32,37.48-5.94,48.21-10.22,97.08-10.45,145.98-10,109.69,1,215.53,22.04,317.58,62.11,20.9,8.21,41.98,16.36,61.88,26.66,41.4,21.43,82.35,43.75,120.74,70.49,56.16,39.12,107.6,83.63,153.96,133.91,37.65,40.83,71.37,84.69,101.11,131.72,20.93,33.1,40.22,67.02,56.66,102.51,14.88,32.13,27.93,65.07,38.32,98.93,8.43,27.47,16.77,55.04,23.34,82.99,10.09,42.94,16.56,86.52,19.59,130.61,2.88,41.95,3.53,83.92,1.01,125.83-1.71,28.54-5.03,57.02-8.82,85.37-2.3,17.2-7.33,34.02-10.31,51.16-9.74,56.02-28.46,109.24-50.19,161.47-29.56,71.04-68.31,136.83-114.72,198.2-64.57,85.38-142.24,156.64-231.7,215.11-93.2,60.92-194.53,102.48-303.37,125.94-63.42,13.67-127.54,20.17-194.71,20Zm887.45-928.9c-1.34-21.27-2.37-42.56-4.1-63.8-2.76-33.99-7.53-67.72-14.69-101.07-3.42-15.93-6.64-31.94-10.9-47.66-16.69-61.51-39.1-120.87-68.41-177.52-19.92-38.51-42.83-75.21-68.24-110.31-55.68-76.95-121.7-143.67-198.24-200.01-69.94-51.49-146-91.38-227.86-120.11-52.52-18.43-106.27-32.55-161.55-39.63-31.67-4.06-63.58-7.46-95.46-8.4-35.9-1.05-71.94.17-107.84,2.01-23.71,1.22-47.39,4.52-70.86,8.28-22.1,3.54-44.02,8.46-65.83,13.57-36.77,8.61-72.78,19.7-107.95,33.59-35.4,13.99-70.53,28.46-103.49,47.69-19.03,11.11-38.38,21.71-57.01,33.46-25.12,15.84-49.57,32.74-72.22,52.06-18.75,15.99-38.03,31.43-55.89,48.37-17.79,16.87-34.23,35.17-51,53.1-11.02,11.79-22.37,23.4-32.12,36.2-17.51,22.98-34.65,46.32-50.61,70.39-15.17,22.88-29.79,46.29-42.53,70.58-14.97,28.54-28.32,57.98-41.06,87.6-8.03,18.67-13.96,38.29-20.24,57.67-4.67,14.42-8.6,29.09-12.5,43.74-6.6,24.78-11.69,49.81-15.38,75.26-6.71,46.21-12.01,92.52-12.25,139.21-.13,26.27,1.59,52.57,3.25,78.81,3.44,54.33,12.88,107.75,27.19,160.22,22.56,82.7,55.91,160.79,101.73,233.4,55.41,87.81,122.48,165.18,204.82,228.89,35.05,27.12,71.24,52.58,109.76,74.61,67.36,38.53,138.82,66.95,213.67,87.25,62.34,16.91,125.97,24.95,190.26,27.95,38.94,1.82,77.87.29,116.77-3.39,52.18-4.95,103.46-14.36,153.86-28.51,82.87-23.26,160.72-58,233.4-104.09,71.59-45.4,135.79-99.64,191.67-163.49,51.33-58.64,94.83-122.55,129.55-192.46,31.29-63,54.41-128.79,70.03-197.3,15.47-67.83,22.45-136.56,22.24-206.14Z"/>
    <path class="cls-3" d="m1287.26,2600.5c7.49-23.07,14.32-44.26,21.25-65.41,21.5-65.65,43.05-131.29,64.55-196.94,10.67-32.58,21.32-65.16,31.91-97.76,7.03-21.64,13.96-43.32,20.91-64.99,7.07-22.06,14.18-44.1,21.09-66.21,2.03-6.48,3.26-13.22,5.27-19.71.58-1.88,2.58-3.32,3.93-4.96,1.52,1.33,3.6,2.37,4.48,4.05,4.24,8.07,8.25,16.27,12.16,24.5,12.66,26.66,26.96,52.02,47.49,73.88,8.19,8.72,16.78,16.58,25.89,24.09,1.5,1.24,2.84,2.66,4.04,3.8-7.44,4.04-14.99,7.38-21.69,11.96-10.78,7.37-17.13,18.13-21.07,30.53-7.28,22.93-14.74,45.8-22.37,68.62-8.15,24.37-16.9,48.55-24.81,73-8.78,27.15-16.89,54.52-25.61,82.81,5.95,2.11,11.29,4.57,16.9,5.9,24.2,5.75,48.26,12.47,72.77,16.43,49.51,7.99,99.42,12.35,149.65,12.81,55.71.51,111.21-2.12,166.55-8.56,21.09-2.45,42.06-5.54,62.87-9.71,2.22-.44,4.37-1.21,7.72-2.16-3.56-15.78-9.51-29.94-19.05-42.48-9.44-12.42-22.95-19.54-37.72-26.62,2.36-2.29,3.72-3.99,5.43-5.21,31.47-22.45,57.01-50.13,73.47-85.34,4.77-10.21,7.04-21.58,10.5-32.41.97-3.03,1.81-6.17,3.34-8.92.57-1.03,2.92-1.07,5.68-1.96,35.42,108.65,70.72,216.92,106.3,326.08-5.05,1.75-10.23,3.81-15.55,5.34-31.84,9.15-63.39,19.62-95.67,26.84-32.08,7.18-64.8,11.83-97.42,16.22-66.43,8.95-133.23,11.09-200.17,8.21-16.63-.72-33.23-2.18-49.83-3.52-16.47-1.33-33.01-2.29-49.34-4.61-19.91-2.83-39.6-7.18-59.46-10.39-22.6-3.65-44.57-10.1-66.98-14.45-19.66-3.81-38.43-10.35-57.39-16.34-26.61-8.41-53.02-17.46-80.02-26.4Z"/>
    <path class="cls-3" d="m917.38,2167.52c49,8.23,95.74,7.24,138.53-24.16,1.8,34.63-.99,66.84-12.48,99.25,3-.77,5.2-.92,7-1.85,26.25-13.53,54.22-21.77,82.91-28.39,32.61-7.53,65.56-10.09,98.81-9.42,21.06.42,42.28,2.84,61.9,10.41,34.2,13.2,49.38,36.26,40.29,74.62-5.44,22.94-13.54,45.26-20.79,67.75-13.8,42.76-27.84,85.44-41.8,128.15-5.35,16.37-10.8,32.71-16.08,49.1-4.35,13.51-8.5,27.09-12.73,40.63-41.43-11.14-200.95-85.49-301.92-189.38-5.32,2.6-10.87,5.39-16.49,8.03-31.84,14.95-65.13,20.15-99.95,14.55-31.28-5.02-54.79-22.17-73.24-47.19-16.05-21.77-26.36-46.07-33.1-72.16-3.03-11.73-3.05-23.58-3.3-35.42-.39-18.32.76-36.77,7.69-53.87,8.71-21.46,19.35-41.76,34.51-59.97,14.3-17.18,30.85-31.09,49.01-43.46,18.34-12.5,38.78-20.22,60.08-26.21,22.28-6.27,45.09-9.61,67.68-14.22,25.14-5.13,50.87-7.23,75.53-14.89,4.01-1.25,8.58-1.04,12.87-.95,7.08.15,11.37,6.05,8.04,12.16-7.16,13.12-14.73,26.54-30.44,31.11-20.41,5.94-41.01,11.24-61.6,16.56-21.59,5.58-43.32,10.56-63.9,19.5-22.54,9.78-43.24,22.18-60.03,40.42-11.78,12.79-21.44,27.17-25.26,44.15-2.36,10.47-2.65,21.82-1.62,32.55,3,31.08,20.38,51.62,49.62,61.72,14.08,4.86,28.73,4.67,42.94-.1,19.9-6.68,36.67-17.6,46.07-37.24,8.92-18.65,8.18-37.97,2.58-57.3-2.59-8.94-5.98-17.65-8.97-26.48-.72-2.14-1.29-4.32-2.39-8Zm168.96,133.7c36.13,26.13,72.26,52.25,108.44,78.42,6.02-9.77,17.77-45.53,19.98-60.13,2.25-14.87-4.67-25.59-19.42-28.69-8-1.68-16.27-2.58-24.46-2.85-28.44-.93-55.99,5.08-84.55,13.26Z"/>
    <path class="cls-3" d="m2063.27,2411.7c35.73-45.17,45.87-98.38,55.26-152.98,27.83,42,55.66,84,84.06,126.85,61.06-34.92,114.72-78.88,168.26-124.52-3.05-3.17-5.14-5.64-7.52-7.79-31.24-28.04-62.83-55.69-93.59-84.24-9.46-8.79-19.64-13.73-32.1-15.07-8.16-.88-16.3-2.02-24.76-3.09,7.79-26.62,17.48-52.13,19.73-79.36,2.26-27.45,3.08-54.93-1.62-83.29,4.58,3.48,9.51,6.6,13.68,10.51,43.98,41.24,88.03,82.42,131.68,124.01,40,38.1,79.52,76.7,119.29,115.04,19.87,19.15,39.82,38.22,60.09,57.67-15.86,18.97-31.74,36.8-49.11,53.34-51.56,49.1-108.41,91.44-166.97,131.64-15.35,10.53-30.73,21.02-44.87,30.7.86,19.08,3.04,37.04,2.22,54.86-2.25,48.64-23.62,86.68-66.11,111.75-13.3,7.85-27.81,12.41-43.36,12.51-18.63.11-37.28-.02-55.91-.52-10.57-.28-20.1-3.45-26.53-14.4,2.3-1.01,4.42-2.17,6.67-2.9,10.71-3.44,21.7-6.15,32.1-10.35,7.3-2.95,14.17-7.38,20.6-12.03,19.72-14.26,29.49-33.83,29.61-58.19,0-1.33.1-2.66.12-4,.57-28.25-2.29-34.68-19.07-57.54-12.35-16.82-23.02-34.88-34.35-52.44-8.65-13.4-17.69-26.59-25.59-40.43-7.88-13.78-20.26-18.84-34.78-21.29-5.64-.95-11.11-2.87-17.12-4.47Z"/>
    <path class="cls-3" d="m2263.89,1945.59c57.18,10.86,111.41,2.96,163.32-25.88.17,3.51.3,6.33.44,9.15.34,6.64.77,13.28,1.02,19.93.33,8.81,4.28,15.68,10.56,21.66,20.27,19.29,40.34,38.79,60.58,58.11,30.36,28.98,60.73,57.96,91.21,86.81,32.89,31.13,65.96,62.08,98.88,93.18,16.43,15.52,32.71,31.2,49.57,47.29-20.33,26.29-40.43,52.28-61.27,79.23-9.98-9.37-19.44-18.35-28.99-27.23-72.21-67.14-144.46-134.23-216.66-201.39-53.17-49.45-106.29-98.96-159.4-148.48-3.57-3.33-6.81-7.01-10.2-10.52l.94-1.87Z"/>
    <path class="cls-3" d="m1807.68,2825.55c-32.22,3.68-62.09-31.87-61.01-61.85,1.3-36.24,29.88-61.85,63.06-61,36.41.93,59.25,29.48,60.1,62.39.67,26.05-23.75,62.64-62.15,60.46Z"/>
    <path class="cls-3" d="m1596.95,2828.15c-30.12,2.29-59.06-31.9-58.53-61.78.59-33.94,27.6-59.42,60.45-60.08,35.88-.72,61.22,27.1,62.39,60.52,1.18,33.82-26.75,63.5-64.31,61.34Z"/>
    <path class="cls-3" d="m1224.07,2150.68c-32.95.02-62.84-26.11-60.9-63.36,1.79-34.51,23.52-57.66,61.08-57.88,34.01-.21,61.27,26.69,61.32,61.08.05,33.6-27.18,60.12-61.49,60.17Z"/>
    <path class="cls-3" d="m2588.05,999.3c.21,69.58-6.77,138.31-22.24,206.14-15.62,68.51-38.75,134.3-70.03,197.3-34.72,69.91-78.22,133.82-129.55,192.46-55.88,63.85-120.08,118.09-191.67,163.49-72.67,46.09-150.52,80.83-233.4,104.09-50.41,14.15-101.68,23.57-153.86,28.51-38.89,3.69-77.82,5.21-116.77,3.39-64.29-3-127.92-11.04-190.26-27.95-74.85-20.3-146.31-48.72-213.67-87.25-38.51-22.03-74.7-47.49-109.76-74.61-82.34-63.71-149.42-141.08-204.82-228.89-45.81-72.61-79.17-150.7-101.73-233.4-14.31-52.46-23.75-105.88-27.19-160.22-1.66-26.24-3.38-52.54-3.25-78.81.23-46.69,5.54-93,12.25-139.21,3.69-25.44,8.78-50.48,15.38-75.26,3.9-14.65,7.83-29.32,12.5-43.74,6.28-19.38,12.21-39,20.24-57.67,12.74-29.62,26.1-59.06,41.06-87.6,12.74-24.29,27.36-47.7,42.53-70.58,15.96-24.07,33.09-47.41,50.61-70.39,9.75-12.8,21.1-24.42,32.12-36.2,16.76-17.93,33.21-36.23,51-53.1,17.86-16.94,37.14-32.38,55.89-48.37,22.65-19.31,47.09-36.21,72.22-52.06,18.63-11.75,37.98-22.35,57.01-33.46,32.96-19.24,68.09-33.71,103.49-47.69,35.17-13.9,71.19-24.98,107.95-33.59,21.81-5.11,43.72-10.03,65.83-13.57,23.47-3.76,47.16-7.06,70.86-8.28,35.9-1.84,71.93-3.06,107.84-2.01,31.88.93,63.79,4.34,95.46,8.4,55.28,7.08,109.03,21.21,161.55,39.63,81.86,28.72,157.91,68.62,227.86,120.11,76.54,56.34,142.56,123.06,198.24,200.01,25.4,35.1,48.32,71.81,68.24,110.31,29.31,56.66,51.72,116.01,68.41,177.52,4.26,15.72,7.48,31.72,10.9,47.66,7.17,33.36,11.93,67.09,14.69,101.07,1.72,21.24,2.76,42.53,4.1,63.8Zm-373.54,701.69c-14.88-60.83-29.58-120.95-44.28-181.08-13.92-56.91-27.85-113.81-41.74-170.73-15.91-65.21-31.79-130.43-47.64-195.66-10.27-42.26-20.51-84.52-30.66-126.81-6.86-28.61-13.39-57.3-20.31-85.9-7.23-29.85-14.9-59.59-22.11-89.45-6.32-26.17-12.37-52.4-18.3-78.66-1.35-5.96-3.99-9.46-9.97-12.1-30.41-13.43-62.17-22.43-94.38-30.06-34.76-8.24-70.14-12.75-105.68-15.29-69.8-4.99-139.49-4.51-208.72,7.54-16.22,2.82-32.6,4.85-48.67,8.33-32.56,7.06-63.91,17.71-93.25,33.79-3.61,1.98-7.5,2.7-6.74,8.71.52,4.16-1.37,8.68-2.44,12.97-2.55,10.18-5.74,20.22-7.79,30.49-3.48,17.41-8.19,34.52-11.64,51.95-4.52,22.84-10.24,45.45-15.87,68.05-5.28,21.21-11.27,42.23-16.6,63.43-1.98,7.87-2.52,16.09-4.46,23.97-9.33,37.8-19.04,75.5-28.38,113.3-14.78,59.77-29.41,119.57-44.03,179.38-5.85,23.93-11.37,47.94-17.28,71.85-12.77,51.69-25.64,103.35-38.57,155-12.69,50.68-25.51,101.33-38.26,152-.63,2.49-1.14,5.01-1.64,7.26,314.39,232.59,735.36,214.12,1019.41-2.27Zm-798.43-942.88c-5.95-3.71-12.62-7.97-19.39-12.06-4.62-2.78-5.78-6.16-4.55-11.69,8.99-40.59,17.66-81.24,26.29-121.91,10.56-49.76,20.92-99.57,31.48-149.34,6.9-32.53,13.93-65.04,21.04-97.52,2.53-11.54,9.49-16.41,20.79-15.13,8.29.94,11.82,6.46,11.96,18.77.05,4.24,0,8.47,0,13.24,9.95-2.15,13.3,4.9,17.49,9.78,4.77-.59,6.73-3.21,7.43-7.24,1.42-8.12,6.11-13.82,13.29-17.68,1.68-.91,3.13-2.24,4.18-3-.38-7.39-1.16-14.04-.86-20.63.13-2.97,1.66-6.7,3.84-8.6,4.42-3.83,9.95-5.03,15.91-3.2,6.18,1.9,7.91,6.91,8.42,12.33.5,5.25.11,10.58.11,13.35,7.26,6.44,12.76,11.33,19.01,16.87,2.29-2.02,6.48-4.02,7.82-7.21,3.33-7.94,8.93-12.95,16.41-15.98,0-6.73-.08-13.03.02-19.31.15-9.32,5.58-14.78,14.85-15.12,8.21-.3,13.77,5.17,14.34,14.53.3,4.93.05,9.89.05,15.59,13.13,1.46,17.12,11.2,19.76,22.84,2.4-1.56,4.97-2.31,5.2-3.52,2.03-10.38,9.63-15.39,18.06-18.98,0-7.01-.16-13.32.04-19.62.32-10.25,5.61-15.2,15.71-15.06,8.89.13,13.6,4.88,13.98,14.58.25,6.29.05,12.6.05,19.61,9.61,3.9,16.61,10.75,15.78,24.23,3.51-1.43,7.55-1.84,8.23-3.57,3.53-8.97,10.2-14.27,18.55-17.34,0-3.74.01-6.73,0-9.71-.02-3.33-.28-6.68-.06-9.99.58-8.8,7.66-14.5,16.33-13.35,9.26,1.23,13.92,7.22,13.42,17.72-.27,5.62-.98,11.21-1.51,17.07,11.49,3.66,18.34,10.93,19.42,24.83,4.37-4.69,6.89-8.6,10.46-10.9,4.03-2.6,9-3.76,13.83-5.65,0-5.01-.18-9.68.04-14.32.5-10.64,6.21-16.29,15.32-15.41,8.93.86,14.72,9.16,13.33,18.65-.89,6.08-1.32,12.22-1.75,16.37,6.03,3.54,11.45,5.22,14.46,8.88,3.35,4.08,4.49,9.95,6.99,15.98,2.38.99,5.91,2.47,10.7,4.47-.2-9.71,6.56-10.52,12.84-11.48,0-6.92-.22-13.23.06-19.51.33-7.68,4.28-12.26,10.96-13.34,6.1-.99,11.68.59,14.98,5.75,2.97,4.65,5.44,9.96,6.69,15.32,5.66,24.27,10.75,48.68,16.14,73.02,15.77,71.08,31.61,142.15,47.38,213.23,5.4,24.35,10.75,48.71,16.02,73.09,1.95,9.02,1.2,10.44-6.94,15.34-4.78,2.88-9.6,5.69-14.28,8.46.78,2.77,1.38,4.64,1.84,6.55,13.36,55.25,26.76,110.49,39.95,165.77,1.24,5.2,3.28,8.6,8.25,11.34,35.55,19.54,70.86,39.53,106.31,59.25,4.25,2.36,9.69,3.07,13.26,6.1,12.17,10.36,27.37,15.17,40.81,23.19,18.84,11.24,39.11,20.1,57.96,31.32,6.36,3.78,12.83,5.68,19.55,8.48,2.27-9.54,4.41-18.54,6.77-28.49-6.15-1.5-5.31-6.14-4.13-10.96.39-1.61.41-3.31.76-4.94,7.3-34.8,14.59-69.6,22.01-104.37.86-4.03,2.48-7.9,4.5-14.23,5.28,6.53,9.05,11.19,13.22,16.36,1.7-3.84,3.01-7.21,4.65-10.41,1.72-3.38,3.75-6.61,6.46-11.32,4.38,6.22,7.75,11.01,11.57,16.44,4.26-7.32,8.15-13.99,12.9-22.14,4.57,7.3,8.14,13,11.85,18.93,5.79-5.44,6.38-14.42,14.66-18.01,3.51,6.33,6.8,12.27,10.3,18.58,2.3-3.65,3.95-6.55,5.86-9.26,1.98-2.8,4.23-5.41,7.12-9.07,4.35,7.77,7.88,14.1,11.58,20.71,3.88-5.32,7.5-10.29,12.43-17.03,3.92,8.66,7.02,15.5,10.26,22.67,4.41-5.05,8.17-9.35,13.35-15.28,1.74,5.29,2.97,8.24,3.68,11.32,8.35,36.27,16.55,72.57,25.01,108.81,1.42,6.07,1.19,11.07-4.17,13.82,14.61,68.25,29.06,135.74,43.51,203.22,5.06-13.86,8.5-27.69,11.69-41.58,12.45-54.34,20.12-109.37,21.04-165.1.81-48.85,1.09-97.74-9.94-145.9-4.26-18.6-6.38-37.68-10.22-56.38-4.6-22.47-9.75-44.83-17.12-66.61-6.12-18.07-11.63-36.36-18.41-54.17-7.87-20.66-16.23-41.19-25.53-61.24-8.8-18.98-18.61-37.55-28.88-55.8-11.08-19.69-22.39-39.34-35.1-57.99-13.89-20.38-29.7-39.45-44.28-59.38-13.86-18.96-30.03-35.92-46.01-52.96-14.75-15.72-30.77-30.27-46.56-44.99-11.6-10.81-23.22-21.7-35.74-31.38-22.8-17.62-45.83-35.02-69.57-51.33-37.66-25.88-77.72-47.74-119.67-65.84-20.05-8.65-40.62-16.19-61.26-23.35-21.62-7.49-43.42-14.63-65.5-20.61-21.47-5.82-43.36-10.15-65.13-14.81-15.63-3.34-31.28-6.9-47.09-9.04-39.33-5.31-78.9-7.15-118.6-6.81-40.03.35-79.87,2.92-119.44,8.84-38.53,5.76-76.68,13.74-114.05,24.7-23.76,6.97-46.97,15.86-70.27,24.34-12.26,4.46-24.28,9.64-36.23,14.92-16.34,7.23-32.74,14.4-48.67,22.46-12.7,6.42-24.75,14.13-37.07,21.29-51.74,30.06-99.56,65.52-143.84,105.69-37.07,33.63-70.84,70.35-101.7,109.86-40.6,51.97-74.12,108.11-101.54,167.93-24.87,54.27-43.74,110.57-56.79,168.92-11.96,53.48-19.08,107.47-20.46,162.19-1.37,54.04,1.53,107.88,10.27,161.27,3.93,24.02,9.13,47.83,13.9,72.43,1.48-1.35,2.26-1.71,2.37-2.22,8.24-36.65,16.66-73.27,24.52-110,3.88-18.11,6.38-36.51,10.16-54.63,1.78-8.49,5.83-16.56.49-25.2-.84-1.36-.05-3.91.35-5.84,2.26-10.89,4.5-21.79,7.01-32.63,5.77-24.93,11.63-49.85,17.64-74.72.79-3.29,2.64-6.32,4.62-10.93,5.03,5.73,8.84,10.07,12.61,14.37,4.34-6.69,4.31-15.16,11.74-20.57,4.24,5.13,8.13,9.84,12.23,14.81,3.27-6.9,5.1-13.7,11.55-19.12,4.18,5.42,8.08,10.47,12.02,15.56,5.04-5.3,5-13.75,13.29-16.7,3.8,5.57,7.5,10.98,11.28,16.52,4.99-4.34,5.93-12.05,13.84-15.09,3.51,6.1,6.93,12.05,10.37,18.02,3.77-4.68,7.54-9.37,11.59-14.4,6.54,6.37,7.2,14.03,10.85,21.2,4.25-4.76,8.34-9.34,13.82-15.49,2.29,5.98,4.28,9.72,5.18,13.71,7.65,34,15.07,68.04,22.64,102.06,1.09,4.88,2.89,9.6-1.83,13.82-.88.79-.77,3.19-.47,4.72,2.21,11.63,4.58,23.23,6.9,34.8,1.22-.19,1.92-.14,2.45-.41,43.54-22.97,87.06-45.98,130.61-68.94,28.08-14.81,56.26-29.45,84.3-44.33,10.46-5.56,20.51-11.93,31.07-17.28,5.71-2.89,8.17-7.13,9.41-13.01,2.95-13.99,6.01-27.97,9.43-41.85,6.83-27.73,13.84-55.42,20.96-83.08,3.96-15.39,8.3-30.69,12.62-46.61Zm327.48-82.37c10.75.58,20.71.64,30.55,1.76,18.02,2.04,35.96,4.74,53.94,7.12,15.28,2.02,30.66,3.41,45.81,6.13,13.97,2.51,27.77,6.14,41.51,9.77,15.38,4.07,30.68,8.47,45.89,13.17,14.64,4.52,29.1,9.6,44.47,14.71-3.97-17.62-7.82-34.63-11.64-51.64-8.3-37.02-16.69-74.03-24.86-111.08-13.86-62.94-27.57-125.91-41.39-188.85-.78-3.56-1.53-7.29-3.24-10.42-1.06-1.93-3.87-3.94-5.98-4.04-3.63-.16-3.37,3.37-3.37,5.99.01,6,.12,11.99.27,17.98.12,4.7-2.14,7.54-6.58,8.68-1.87.48-3.8.67-5.65.99-.7,1.7-1.37,2.87-1.66,4.12-1.31,5.6-5,7.74-10.34,6.7-5.16-1-10.26-2.41-15.29-3.96-5.46-1.67-8.68-5.62-7.55-11.3,1.76-8.85-3.6-11.66-10.27-14.12-8.02-2.95-8.03-3.11-7.69-11.42.26-6.32.87-12.64.86-18.96,0-1.48-1.89-2.95-2.9-4.42-1.5,1.39-4.05,2.61-4.29,4.19-.71,4.57-.42,9.29-.65,13.95-.46,9.2-.95,9.73-10.15,11.72-8.39,1.82-8.54,1.8-9.63,10.72-.46,3.72-1.86,7.28-5.49,7.18-5.86-.16-11.96-.99-17.42-3.01-4.74-1.75-3.99-7.15-4.04-11.46-.07-6.41-2.8-10.32-9.24-12.4-8.65-2.79-8.62-3.21-8.19-12.1.29-5.98,1.21-11.94,1.18-17.91,0-1.68-2.12-4.39-3.74-4.81-3.08-.8-4.86,1.47-4.9,4.66-.07,5.33.03,10.66-.05,15.99-.14,8.97-1.35,11.34-9.79,13.5-6.35,1.62-8.49,4.91-8.53,11.07-.02,2.9-1.69,5.79-2.34,7.83-5.84.4-10.86-.61-14.23,1.29-5.52,3.12-8.36.23-10.4-3.28-1.85-3.17-2.42-7.29-2.83-11.06-.7-6.4-1.39-7.41-8.15-8.58-7.27-1.25-9.04-3.15-8.59-10.52.44-7.25,1.4-14.48,2.18-22.11-2.78-1.32-5.27-2.5-9.12-4.33-.3,4.41-.66,7.25-.65,10.1.03,5.33.48,10.66.41,15.98-.1,7.86-1.63,10.46-9.34,11.32-5.57.62-7.47,3.4-8.61,7.87-.88,3.44-.57,8.32-2.75,10.01-2.74,2.11-7.49,1.61-11.37,2.24-.98.16-1.96.41-2.95.53-8.8,1.1-10.77-.2-11.38-9.14-.35-5.17-1.16-9.74-5.58-13.21-.87,0-1.87.03-2.87,0-9.08-.36-10-1.4-9.58-10.67.18-3.99.53-7.99.43-11.98-.08-3.19.35-7.58-4.16-7.77-5.17-.22-3.88,4.44-3.93,7.47-.1,5.99.11,11.99.29,17.98.14,4.53-1.55,7.71-6.12,8.99-7.47,2.09-12.15,6.36-12.6,14.7-.1,1.84-2.02,4.29-3.77,5.2-4.62,2.43-9.59,4.19-14.44,6.18-6.55,2.68-8.04,2.08-10.37-4.21-1.46-3.94-2.84-7.91-4.1-11.44-13.38-.84-13.3-.84-13.14-13.63.07-5.46-.28-10.92-.44-16.17-5.77-1.01-7.54,1.08-7.38,5.23.21,5.32.48,10.64.79,15.96.51,8.74.62,8.94-7.7,12.64-5.63,2.5-10.68,6.3-9.98,12.35,1.1,9.56-3.18,13.29-11.49,14.87-1.91.36-3.72,1.43-5.5,2.33-4.52,2.29-7.59.96-9.62-3.54-1.6-3.54-3.33-7.02-4.88-10.29-2.23-.11-3.55-.17-4.87-.23-8.66-.37-9.14-.79-9.17-9.09-.02-5.33.52-10.69.08-15.97-.18-2.18-2.02-5.63-3.61-5.94-2.05-.4-5.05,1.3-6.78,2.99-1.5,1.46-2.08,4.09-2.58,6.32-7.57,34.03-15.25,68.05-22.49,102.15-3.64,17.12-6.16,34.48-9.68,51.64-7.6,37.04-15.49,74.02-23.3,111.03-4.34,20.58-8.76,41.14-13.11,61.71-2.19,10.34-4.31,20.69-6.78,32.54,84.53-33.95,171.31-50.59,261.38-54.47,0-6.94-.02-13.22,0-19.49.05-11.66-.14-23.33.29-34.97.28-7.7,2.52-10.21,9.31-10.31,19.65-.28,39.31-.3,58.96-.05,6.51.08,8.57,2.63,8.67,9.59.17,12.32,0,24.65-.03,36.98-.01,5.91,0,11.83,0,18.27Zm-375.67,275.61c-6.48,4.05-10.8,7.07-15.4,9.56-24.46,13.26-48.96,26.46-73.52,39.55-40.81,21.77-81.72,43.35-122.5,65.17-41.08,21.98-81.98,44.29-123.12,66.15-6.49,3.45-9.51,7.34-10.21,15.12-3.98,44.44-8.77,88.8-13.2,133.19-3.6,36.11-7.05,72.24-10.63,108.36-2.53,25.51-4.25,51.16-8.17,76.45-1.85,11.94-.26,21.08,6.04,31.41,14.81,24.27,31.74,46.88,49.98,68.51,39.42,46.75,83.62,88.6,131.5,126.59,1.65,1.31,3.76,2.04,6.12,3.28,61-247.64,121.76-494.34,183.1-743.37Zm857.4,742.32c3.33-2.59,5.21-3.93,6.95-5.43,20.14-17.44,40.72-34.39,60.28-52.45,47.43-43.8,88.42-93.18,124.67-146.55,3.05-4.49,4.89-8.76,4.13-14.73-7.47-58.36-14.65-116.75-21.66-175.17-1.78-14.84-2.56-29.81-4.02-44.69-3.6-36.79-7.46-73.55-10.9-110.35-.65-6.92-3.12-11.17-9.54-14.54-23.28-12.21-46.18-25.14-69.26-37.73-43.53-23.75-87.09-47.45-130.62-71.2-40.9-22.31-81.78-44.66-122.7-66.95-2.68-1.46-5.56-2.54-8.97-4.07,7.96,32.44,15.65,63.74,23.32,95.03,18.81,76.77,37.66,153.53,56.37,230.33,3.15,12.91,5.41,26.03,8.57,38.93,7.36,29.96,15.1,59.83,22.55,89.77,10.65,42.84,21.19,85.7,31.74,128.56,6.28,25.53,12.71,51.03,18.64,76.64,4.57,19.72,8.25,39.64,12.76,59.37,1.84,8.04,4.79,15.83,7.7,25.23Zm-1116.84-614.59c-1.13-7.68-2.58-14.22-2.96-20.82-.49-8.56-5.15-12.74-12.67-15.7-22.73-8.96-46.51-12.55-70.62-14.37-25.74-1.94-51,2.31-76.01,7.54-10.3,2.15-20.11,6.66-29.75,9.97-1.47,8.3-2.53,15.44-4.02,22.49-11.72,55.35-23.41,110.72-35.47,166-1.15,5.28-.4,9.79.99,14.57,21.8,74.89,53.24,145.53,93.41,212.34,1.75,2.91,3.79,5.64,5.7,8.45,2.04-3.61,2.47-6.49,2.76-9.38,4.49-44.73,8.91-89.47,13.45-134.19,3.59-35.44,7.33-70.87,10.99-106.31,2.65-25.72,5.39-51.44,7.85-77.18.77-8.07,3.02-14.19,11.24-18.04,12.94-6.06,25.27-13.4,37.89-20.16,15.52-8.31,31.07-16.57,47.23-25.19Zm1181.45-7.85c4.8,2.62,9.45,5.15,14.09,7.69,27.45,15.01,54.82,30.17,82.4,44.94,6.19,3.32,9.79,7.57,10.06,14.6.07,1.99.45,3.97.66,5.96,3.55,34.7,6.95,69.42,10.67,104.1,3.76,35.01,7.89,69.98,11.74,104.99,2.15,19.53,3.96,39.1,6.1,58.63,1.89,17.35,4.02,34.67,6.3,54.2,2.68-4.02,4.19-6.03,5.45-8.19,35.57-60.87,64.34-124.8,85.91-191.94,1.92-5.96,2.99-11.33.94-18.3-5.43-18.48-8.76-37.58-12.88-56.45-10.09-46.19-20.25-92.37-30.14-138.6-1.33-6.22-4.2-9.34-10.35-11.54-18.5-6.64-37.86-8.73-57.02-11.28-14.09-1.88-28.59-1.47-42.87-.92-22.75.87-44.87,5.53-66.3,13.42-5.48,2.02-9.03,5.18-10.28,11.03-1.24,5.8-2.9,11.5-4.48,17.67Zm-1261.78-59.41c9.56,1.72,18.35,3.13,27.07,4.9,14.62,2.97,29.2,6.18,43.8,9.24,2.03.42,4.12.55,6.54.85-8.19-36.71-14.17-72.93-24.07-108.24-.87-.4-1.74-.8-2.61-1.21-2.95,4.33-5.9,8.65-10.09,14.8-4.86-8.19-8.12-13.69-11.61-19.57-1.97,2.6-3.46,4.79-5.16,6.78-4.41,5.16-6.9,5.04-10.65-.68-2.27-3.47-4.22-7.15-6.7-11.41-2.3,3.17-3.91,5.69-5.83,7.94-1.82,2.13-3.96,3.98-6.73,6.71-4.35-5.65-7.92-10.28-11.63-15.1-3.68,4.94-7.31,9.83-11.77,15.83-4.94-5.48-8.77-9.74-12.82-14.24-3.32,5.45-6.47,10.64-10.06,16.54-3.37-2.72-5.78-4.43-7.89-6.44-1.99-1.9-3.66-4.13-5.69-6.46-4.17,6.03-4.18,13.6-11.27,17.88-3.78-3.51-7.49-6.95-12.57-11.67-8.49,36.87-16.61,72.12-24.81,107.69,27.64-5.15,53.81-10.03,79.44-14.82,1.03-3.85,1.44-8.18,3.33-11.71,1.93-3.6,4.39-7.13,9.82-7.17,11.26-.08,18.21,0,21.97,19.53Zm1288.34-94.22c-8.35,28.23-23.11,101.98-22.11,110.27,26.14-9.56,53.33-13.51,80.92-15.3.56-4.67.74-8.65,1.55-12.5,1.64-7.76,4.12-9.66,11.36-9.42,7.8.25,12.05,3.5,13.21,10.42.64,3.81.89,7.68,1.33,11.69,28.12,1.29,54.56,6.68,80.64,15.96-5.66-36.56-21.48-101.2-26.68-109.04-3.45,3.88-6.87,7.72-10.97,12.33-4.04-7.46-7.26-13.42-10.51-19.44-3.97,4.58-7.34,8.46-11.56,13.33-4.4-6.6-7.99-12-11.86-17.81-4.9,3.91-6.04,11.46-13.55,13.42-3.38-4.89-6.72-9.72-10.23-14.8-4.21,5.26-8.22,10.27-12.98,16.21-4.61-5.89-8.34-10.66-12.13-15.5-4.33,6.32-8.17,11.93-12.5,18.25-4.59-5.04-8.23-9.03-11.95-13.11-3.41,6.26-6.48,11.9-10.34,18.99-4.26-5.11-7.42-8.9-11.63-13.95Zm-638.83-296.38c-2.66,6.97-3.24,40.66-.91,52.23h56.16v-52.23h-55.25Zm-652.27,391.08c-2.07-4.44-3.23-8.68-5.72-11.89-5.81-7.53-15.29-6.85-19.28,1.04-1.68,3.33-2.91,6.89-4.56,10.85h29.55Zm1354.91,1.15h15.19c5.08-13.23.87-19.58-11.24-17.91-5.54,5.56-4.91,11.96-3.95,17.91Z"/>
    <path class="cls-3" d="m1025.37,1012.3h-29.55c1.65-3.97,2.88-7.53,4.56-10.85,3.99-7.89,13.47-8.57,19.28-1.04,2.48,3.22,3.64,7.45,5.72,11.89Z"/>
    <path class="cls-3" d="m2380.27,1013.45c-.95-5.96-1.58-12.35,3.95-17.91,12.11-1.66,16.32,4.68,11.24,17.91h-15.19Z"/>
    <path class="cls-2" d="m1785.16,1481.33c3.12-4.99,5.44-8.58,7.65-12.25,1.89-3.13,3.41-6.51,5.49-9.5,10.7-15.29,30.79-14.59,40.73,1.36.87,1.39,1.97,3.05,1.91,4.54-.36,8.36-5.93,13.81-11.51,19.05-4.35,4.09-9.26,2.63-13.97.41-2.08-.98-4.07-2.15-6.55-3.48-2.33,3.45-4.52,6.69-7.49,11.09,7.14,5,14.06,10.07,21.22,14.77,3.21,2.11,6.62,2.09,10.26-.16,8.18-5.05,15.86-3.63,22.73,3.65,7.24,7.67,8.24,15.57,2.97,23.45-8.17,12.21-20.38,16.63-34.93,10.99-8.89-3.45-17.2-8.64-25.3-13.78-6.71-4.26-12.73-9.59-18.88-14.3-7.19,6.51-14.14,13.05-21.39,19.24-2.75,2.35-6.05,4.15-9.32,5.76-14.57,7.18-31.63-2.87-32.33-19.06-.35-8.01,4.64-12.93,10.85-16.69,5.59-3.38,11.42-3.38,16.93.41,2.45,1.68,4.68,3.68,7.95,6.28,3.14-3.02,6.36-6.12,10.27-9.88-18.96-18.68-37.6-37.05-56.84-56-21.09,19.07-41.53,37.54-63.07,57.02,4.53,3.67,8.46,6.85,12.59,10.2,3.05-3.2,5.3-6.02,8-8.31,6.47-5.51,14.46-5.69,20.79,0,3.39,3.05,6.21,6.92,8.56,10.85,2.54,4.26,2.07,8.96-.32,13.36-6.63,12.18-23.87,17.49-35.32,9.78-9.05-6.09-17.03-13.76-25.38-20.85-1.23-1.04-1.91-2.74-3.03-4.42-5.94,4.57-10.78,8.41-15.75,12.08-9.18,6.79-19.2,11.91-30.26,14.93-15.07,4.12-27.25-3.88-33.54-15.23-1.3-2.34-1.7-5.92-.99-8.51,3.32-11.94,17.1-18.45,28.37-13.32,3.81,1.74,7.05,1.9,10.34-.12,6.47-3.98,12.78-8.22,19.72-12.72-2.24-3.6-3.92-6.3-5.57-8.96-11.82,4.34-29.02-4.87-31.09-16.59-.33-1.84-.22-4.29.75-5.75,4.54-6.86,8.7-14.03,18.56-14.8,5.89-.46,11.31.23,15.11,4.34,6.27,6.78,11.75,14.29,17.44,21.58,1.6,2.05,2.79,4.43,4.15,6.65,14.48-8.56,42.86-36.96,56.97-56.81-29.08-28.08-63.52-48.43-98.79-67.25-45.8-24.43-92.22-47.68-138.37-71.45-2.83-1.46-5.59-3.03-7.87-6.25,5.71.79,11.54,1.07,17.09,2.46,19.14,4.81,38.53,8.99,57.2,15.27,47.89,16.12,92.5,39.19,134.6,67.03,19.7,13.03,38.92,26.8,58.73,40.5,19.04-13.09,38.27-26.89,58.13-39.72,11.63-7.51,24.21-13.54,36.45-20.09,38.3-20.49,78.27-36.77,120.75-46.27,12.96-2.9,26.2-4.64,39.38-6.5,5.9-.83,11.95-.62,18.89-.93-2.37,4.26-6.26,4.53-9.28,5.72-24.69,9.75-49.7,18.72-74.15,29.03-38.26,16.13-74.22,36.6-109.07,59.2-17.28,11.2-32.8,24.4-48.58,37.41-2.21,1.82-4.61,3.42-8.11,5.99,18.51,18.52,36.5,36.51,55.53,55.55Z"/>
    <path class="cls-2" d="m1649.12,1057.32c-19.69,7.73-29.81,24.72-40.63,41.14,2.16-31.28,16.32-54.98,45.18-70.88-16-1.75-27.9,7.08-41.9,9.53,12.5-25.63,36.14-35.78,64.82-28.95q-.29-6.12-21.8-26.67c8.59-3.68,15.39,3.21,23.25,3.51,7.13.27,14.08,5.14,21.29,8.06,3.22-6.92,6.08-13.05,9.08-19.51,9.31,5.46,10.02,15.63,16.04,22.37,14.62-5.24,27.99-14.24,44.53-13.47-6.93,8.86-13.63,17.43-21.49,27.49,32.04-2.07,55.68,7.01,67.31,38.9-16.69-4.96-28.83-19.39-48.96-17.71,5.36,4.16,9.07,7.3,13.04,10.08,20.15,14.08,34.18,32.41,39.73,56.7.36,1.59.5,3.23.86,5.63-4.9-.89-6.74-4.6-9.11-7.3-7.24-8.27-14.12-16.85-21.34-25.13-5.44-6.25-11.61-11.65-20.02-14.89,4.67,11.19,9.26,21.68,13.42,32.34,4.47,11.45,5.1,23.37,2.96,35.4-.73,4.07-1.19,8.61-6.99,11.31-1.04-4.75-1.94-8.99-2.89-13.21-3.62-16.07-8.12-31.71-21.28-43.06-1.19-1.03-2.5-1.91-5.47-4.17.99,6.33,1.68,10.72,2.35,15.1,3.37,21.79,1.74,42.81-10.2,65.12-6-19.15-9.41-37.27-25.04-51.49,0,4.15.01,6.02,0,7.89-.35,54.63-.71,109.25-1.06,163.88-.05,7.31-.02,14.53,2.81,21.56,1.46,3.62,1.57,7.78,2.3,11.69,1.21,6.5,2.79,12.96,3.51,19.51.44,4.01,2.15,7.82.63,12.31-1.2,3.52-.41,7.54,2.97,10.95,3.43,3.46,6.04,8.02,3.7,13.65-.84.35-1.73,1.02-2.63,1.04-14.98.25-29.96.53-44.94.48-2.31,0-5.22-1.07-6.66-2.7-.74-.83.86-4.18,1.95-6.07,1.48-2.58,3.79-4.7,5.2-7.31,1.92-3.55,3.68-6.82,2.43-11.68-1.21-4.73-1.78-10.42,2.25-15.07,1.15-1.32,1-3.78,1.45-5.71,2.24-9.7,4.81-19.35,6.6-29.13,1.07-5.84,1.29-11.9,1.29-17.86.05-42.64-.06-85.27-.12-127.91-.01-10.59,0-21.18,0-33.43-12.88,12.28-12.86,27.92-15.6,43.82-18.38-24.2-20.13-48.19-5.67-75.55-4.13,1.82-6.74,2.28-8.36,3.8-14.17,13.23-24.3,28.75-26.6,48.53-.14,1.16-.94,2.25-2.09,4.86-11.48-28.85-4.94-53.56,9.89-77.78Z"/>
  </g>
</svg>