<?xml version="1.0" encoding="UTF-8"?>
<svg id="Layer_2" data-name="Layer 2" xmlns="http://www.w3.org/2000/svg" viewBox="0 0 490.03 239.57">
  <defs>
    <style>
      .cls-1 {
        fill: #e8e8e8;
      }
    </style>
  </defs>
  <g id="Layer_3" data-name="Layer 3">
    <g>
      <g>
        <g>
          <path class="cls-1" d="m145,6.16v34.97l-5,.03c-.44-1.76-.85-4.1-4.56-7.11-8.23-6.64-24.07-8.45-30-4.58-1.45.94-5.46,3.24-5.46,9.3l-5.94-2.12C93.32,14.19,108.45.34,122.5.01c9.64-.23,19.64,3.07,22.5,6.15Z"/>
          <path class="cls-1" d="m140,46.16h5v44.73c-3.36,2.16-10.72,5.27-20,5.27-19.43,0-30-13.9-30-30-9.11,20.53-16.93,35-50,35S2.18,83.57,0,81.04v-34.88h5c.51,3.57,2.15,24.7,39.7,24.7,19.17,0,46.98-14.9,47.34-28.14,7.91,3.34,21.19,8.96,24.6,10.47,8.97,3.96,15.77,6.54,19.27,3.04,1.22-1.21,3.16-3.82,4.09-10.07Z"/>
        </g>
        <path class="cls-1" d="m490,46.16h-5c-1.49,7.95-5.13,15-15,15-10.63,0-17.95-5.16-20-15h-5c-1.49,7.95-7.6,15-15,15-13.51,0-17.95-5.16-20-15h-5c-11.83,10.62-57.81,30-100,30-27.19,0-49.6-4.86-65-10h-5c-4.5,3.57-10,10-30,10s-39-24.79-40-55h-5v50c1.18,2.51,5.17,35,45,35,15.31,0,24.41-2.37,30-5v-15c9.99,7.44,34.9,25,70,25,60.7,0,94.66-38.91,100-45,0,16.1,4.75,30,25,30,6.38,0,11.72-2.57,15-5v-15c3.31,11.9,11.69,20,25,20,10.01,0,17.54-3.38,20-5v-45Z"/>
      </g>
      <polygon class="cls-1" points="240 56.16 250 46.16 240 36.16 235 36.16 225 46.16 235 56.16 240 56.16"/>
      <polygon class="cls-1" points="490 30.72 490 23.15 430 23.15 423.37 26.93 423.37 30.72 490 30.72"/>
      <polygon class="cls-1" points="235 12.78 235 20.53 177.21 33.52 176.38 29.83 182.02 24.69 235 12.78"/>
    </g>
    <g>
      <path class="cls-1" d="m21.54,237.2c-5.92-1.58-10.75-3.87-14.5-6.86-3.75-3-5.63-6.45-5.63-10.38v-19.12h4.78c1.71,11.11,5.29,19.12,10.75,24.02,5.46,4.9,13.08,7.35,22.86,7.35,6.59,0,11.83-1.36,15.7-4.09,3.87-2.72,5.8-6.64,5.8-11.77,0-4.36-1.42-8.06-4.27-11.11-2.84-3.05-7.28-6.37-13.31-9.97l-20.98-12.09c-7.62-4.25-13.05-8.66-16.29-13.24-3.24-4.58-4.86-9.91-4.86-16.01,0-8.6,3.44-15.41,10.32-20.43,6.88-5.01,16.18-7.52,27.89-7.52,6.37,0,12.51.79,18.42,2.37,5.91,1.58,10.75,3.87,14.5,6.86,3.75,3,5.63,6.46,5.63,10.38v19.12h-4.78c-1.93-11.11-5.52-19.12-10.75-24.02-5.23-4.9-12.28-7.35-21.16-7.35-6.14,0-11,1.42-14.59,4.25-3.58,2.83-5.37,6.7-5.37,11.6,0,4.25,1.39,7.76,4.18,10.54,2.79,2.78,7.31,5.91,13.56,9.4l20.98,11.93c7.96,4.47,13.68,8.8,17.15,12.99,3.47,4.19,5.2,9.23,5.2,15.12,0,9.48-3.73,16.91-11.17,22.31-7.45,5.39-18,8.09-31.65,8.09-6.37,0-12.51-.79-18.42-2.37Z"/>
      <path class="cls-1" d="m114.01,233.2c-5.92-3.49-10.49-8.25-13.73-14.3s-4.86-12.88-4.86-20.51c0-8.5,1.62-15.74,4.86-21.73,3.24-5.99,7.7-10.54,13.39-13.65,5.69-3.1,12.11-4.66,19.28-4.66s13.42,1.36,19.11,4.09c5.69,2.72,10.18,6.56,13.48,11.52,3.3,4.96,4.95,10.65,4.95,17.08l-.68,10.3h-51.35c0,10.35,1.65,17.89,4.95,22.63,3.3,4.74,7.9,7.11,13.82,7.11,5.46,0,10.04-1.17,13.73-3.51,3.69-2.34,7.25-5.69,10.66-10.05l5.29,3.76c-3.3,4.9-7.42,8.99-12.37,12.26-4.95,3.27-11.58,4.9-19.88,4.9-7.85,0-14.73-1.74-20.64-5.23Zm33.44-39.22c0-10.24-1.25-17.51-3.75-21.82-2.5-4.3-6.09-6.45-10.75-6.45-4.32,0-7.82,2.21-10.49,6.62-2.67,4.41-4.01,11.63-4.01,21.65h29Z"/>
      <path class="cls-1" d="m189.59,181.23c0-5.56-.77-9.67-2.3-12.34-1.54-2.67-4.69-4-9.47-4h-1.71v-4.9h16.89c3.87,0,6.91.46,9.13,1.39,2.22.93,3.95,2.48,5.2,4.66,5.8-5.12,14.1-7.68,24.91-7.68s18.91,2.43,24.31,7.27c5.4,4.85,8.1,12.45,8.1,22.8v48.37h-22.18v-48.53c0-7.52-1.45-13.02-4.35-16.5-2.9-3.49-6.85-5.23-11.86-5.23-6.03,0-10.86,1.36-14.5,4.09v66.18h-22.18v-55.56Z"/>
      <path class="cls-1" d="m286.58,232.46c-5.06-3.98-7.59-9.34-7.59-16.1,0-5.45,1.34-9.97,4.01-13.56,2.67-3.6,7.36-6.32,14.08-8.17,6.71-1.85,16.04-2.78,27.98-2.78h2.56c0-9.48-1.37-16.2-4.09-20.18-2.73-3.98-6.77-5.96-12.11-5.96-4.44,0-8.08,1.04-10.92,3.1-2.84,2.07-4.89,5.94-6.14,11.6h-9.38c0-3.7.26-6.86.77-9.48s1.68-4.9,3.5-6.86c3.52-3.81,12.05-5.72,25.59-5.72,11.37,0,20.05,2.86,26.02,8.58,5.97,5.72,8.96,14.3,8.96,25.74v44.12h-14.5l-5.97-7.35h-.85c-1.71,2.51-4.35,4.63-7.93,6.37s-7.76,2.62-12.54,2.62c-9.21,0-16.35-1.99-21.41-5.97Zm35.49-5.47c2.56-2.18,4.41-4.63,5.54-7.35v-20.43h-2.56c-8.08,0-13.93,1.39-17.57,4.17-3.64,2.78-5.46,7.11-5.46,12.99,0,4.47.96,7.9,2.9,10.29,1.93,2.4,4.66,3.6,8.19,3.6s6.4-1.09,8.96-3.27Z"/>
      <path class="cls-1" d="m372.31,181.23c0-5.56-.77-9.67-2.3-12.34-1.54-2.67-4.69-4-9.47-4h-1.71v-4.9h16.89c7.39,0,12.22,2.07,14.5,6.21h.68c6.25-5.23,13.42-7.84,21.5-7.84,5.57,0,10.43,1.01,14.59,3.02,4.15,2.02,7.14,4.11,8.96,6.29,2.73-2.83,5.97-5.09,9.72-6.78,3.75-1.69,8.59-2.53,14.5-2.53,19.9,0,29.86,10.02,29.86,30.07v48.37h-22.18v-48.53c0-7.52-1.25-13.02-3.75-16.5-2.5-3.49-5.8-5.23-9.9-5.23-3.07,0-5.92.57-8.53,1.72-2.62,1.14-4.67,2.64-6.14,4.49,1.82,3.49,2.73,8.72,2.73,15.69v48.37h-22.18v-48.53c0-7.52-1.25-13.02-3.75-16.5-2.5-3.49-5.8-5.23-9.9-5.23-2.05,0-4.15.52-6.31,1.55-2.16,1.04-4.04,2.26-5.63,3.68v65.04h-22.18v-55.56Z"/>
    </g>
  </g>
</svg>