<?xml version="1.0" encoding="UTF-8"?>
<svg id="Layer_2" data-name="Layer 2" xmlns="http://www.w3.org/2000/svg" viewBox="0 0 796.14 349.14">
  <defs>
    <style>
      .cls-1 {
        fill: #aa0402;
      }
    </style>
  </defs>
  <g id="Layer_1-2" data-name="Layer 1">
    <g>
      <path class="cls-1" d="m549.9,234.31c19.34-3.86,38.64-4.69,57.85.01.06.24.12.48.18.72-1.26.52-2.5,1.09-3.78,1.54-14.56,5.16-28.63,11.35-41.27,20.32-11.86,8.41-22.78,17.87-30.71,30.25-2.47,3.86-4.4,8.07-6.58,12.12-.55,1.02-1.09,2.05-1.52,2.86-9.43-10.76-18.75-21.34-27.96-32.02-.86-.99-1.44-2.59-1.45-3.9-.08-30.09-.39-60.19.07-90.27.24-16.13,5.62-30.79,16.39-43.18.7-.8,1.31-1.68,1.64-2.93-12.14,3.5-23.22,8.52-29.98,20.12-18.99-18.3-41.1-31.2-65.51-41.31-.13,1.37-.32,2.42-.32,3.46-.02,40.18-.18,80.35.11,120.53.05,6.41-1.97,11.12-6.68,14.91-3.51,2.83-7.22,5.41-10.94,7.96-.61.42-1.86.47-2.53.13-6.17-3.15-11.63-7.28-15.72-12.9-1.22-1.68-2.11-4.04-2.11-6.09-.13-35.13-.09-70.27-.09-105.4,0-6.58.02-13.16-.01-19.74,0-.96-.26-1.92-.44-3.09-24.07,10.6-46.97,22.28-65.34,41.66-3.42-5.27-7.78-9.75-13.16-13.15-5.27-3.32-10.83-5.99-16.84-7.59-.17.2-.35.4-.52.6.48.7.88,1.46,1.44,2.08,12.03,13.19,16.99,29.05,17.11,46.51.2,28.89.02,57.79.11,86.68,0,2.7-.88,4.73-2.61,6.67-7.59,8.47-15.14,16.98-22.68,25.5-1.3,1.47-2.49,3.02-3.87,4.69-.35-.47-.79-.86-.98-1.35-5.16-13.04-14.1-23.27-24.31-32.57-14.89-13.56-32.44-22.6-51-29.93-2.65-1.05-5.3-2.11-7.9-3.51,19.15-4.62,38.34-4.5,57.92-1.27-.53-.69-1-1.43-1.59-2.06-8.25-8.94-18.66-14.25-30.11-17.77-11.91-3.67-24.29-4.78-36.53-6.71-47.8-7.53-84.26-31.92-108.82-73.68-1.62-2.75-3.08-5.6-4.33-8.59,15.33,9.84,32.17,15.79,49.27,20.84,18.67,5.51,37.88,8.38,57.32,9.66,1.08.07,2.47,1.13,3.04,2.12,8.73,15.1,20.93,26.92,34.95,37.02,2.15,1.55,4.57,2.73,7.1,3.79-10.27-12.91-19.03-26.67-27.33-41.39,14.62,1.29,28.41,3.77,41.87,8.01,13.5,4.26,26.35,9.9,38.35,18.1-.28-1.08-.41-2.22-.86-3.22-4.62-10.22-12.15-17.89-21.47-23.88-13.01-8.36-27.29-13.7-42.34-17.04-8.01-1.78-16.04-3.44-24.07-5.1-1.64-.34-2.71-1.02-3.24-2.76-3.39-11.01-6.73-22.02-7.27-33.64-.01-.32-.09-.64-.26-1.72-.74,1.64-1.32,2.64-1.65,3.71-2.82,9.33-4.04,18.85-3.17,28.58.26,2.94.04,3.15-2.79,2.58-25.4-5.12-49.11-14.65-71.24-27.96-8.84-5.32-17.3-11.35-25.54-17.58C40.57,66.04,22.19,42.09,7.2,15.38,4.99,11.45,3.01,7.38.98,3.34c-.4-.79-.52-1.72-.98-3.34,2.51,1.98,4.44,3.44,6.31,4.98,13.77,11.37,28.89,20.68,44.53,29.24,19.9,10.89,40.51,20.24,61.8,27.99,21.2,7.72,42.78,14.41,64.92,18.85,19.27,3.86,38.66,7.28,58.11,10.16,17.61,2.61,35.42,2.47,53.05.1,26.17-3.51,50.54-12.43,72.98-26.37,3.69-2.29,7.14-5.02,10.51-7.77,1.59-1.3,2.34-1.34,3.54.41,5.93,8.58,13.39,15.73,21.48,22.26.26.21.57.34.91.54,8.46-6.7,16.17-14.05,22.31-22.91.77-1.12,1.27-1.98,2.73-.76,14.76,12.39,31.93,20.34,49.98,26.51,20.52,7.01,41.7,9.79,63.36,9.6,15.91-.14,31.56-2.31,47.19-4.86,22.63-3.7,45.03-8.57,67.03-15,23.14-6.76,45.66-15.26,67.59-25.33,17.27-7.94,34.1-16.67,49.92-27.17,8.89-5.9,17.22-12.64,25.8-19.01.54-.4,1.07-.82,2.1-.97-1.55,3.41-2.96,6.9-4.68,10.22-17.97,34.68-42.98,63.15-75.55,84.91-16.77,11.2-34.48,20.63-53.73,26.82-15.71,5.06-31.74,8.79-48.14,11.22-19.85,2.94-39.21,7.99-57.17,17.28-8.87,4.59-16.99,10.36-23.18,18.32-2.38,3.07-4.09,6.67-5.96,10.11-.53.97-.55,2.22-.98,4.1,3.1-2.08,5.52-3.77,8-5.37,14.61-9.39,30.89-14.33,47.71-17.9,16.14-3.43,32.56-4.26,48.93-5.67,31.96-2.75,62.77-9.93,91.34-25.06,2.78-1.47,5.4-3.25,8.72-5.26-.58,1.57-.87,2.63-1.34,3.61-4.51,9.45-10.05,18.31-17.01,26.11-6.31,7.06-12.82,14.08-20.08,20.12-16.96,14.15-36.42,23.64-57.84,29.35-12.24,3.27-24.79,4.07-37.19,6.08-15.93,2.57-30.88,7.57-43.34,18.34-1.61,1.39-2.99,3.05-4.45,4.61-.26.28-.37.71-.56,1.06.08.28.15.55.23.83Z"/>
      <path class="cls-1" d="m365.03,132.14c0,2.65,0,4.52,0,6.4,0,34.36-.02,68.71.06,103.07,0,1.71.39,3.65,1.26,5.08,6.01,9.93,14.13,17.59,24.49,23.07,4.99,2.64,9.39,2.32,14.04-.2,10.44-5.67,18.29-13.96,24.26-24.08.64-1.08.65-2.63.65-3.97,0-34.78-.02-69.57-.05-104.35,0-1.34,0-2.69,0-4.48,1.1.41,1.82.58,2.44.93,14.94,8.46,29.21,17.8,41.02,30.48,1.61,1.73,2.47,3.48,2.46,5.9-.07,30.43-.01,60.85-.14,91.28-.01,2.71-.69,5.6-1.76,8.11-7.68,17.97-19.94,32.66-33.43,46.54-12,12.36-25.71,22.49-39.9,32.09-1.86,1.26-3.42,1.64-5.55.29-17.89-11.32-34.14-24.56-48.13-40.5-10.37-11.82-19.42-24.53-25.8-38.93-1.3-2.93-1.81-6.42-1.83-9.65-.15-24.95-.07-49.91-.09-74.86,0-4.53,0-9.06-.16-13.59-.08-2.3.7-4.07,2.21-5.76,9.26-10.37,20.23-18.62,32.06-25.81,3.77-2.29,7.6-4.5,11.91-7.05Z"/>
    </g>
  </g>
</svg>